<svg xmlns="http://www.w3.org/2000/svg" xmlns:xlink="http://www.w3.org/1999/xlink" viewBox="0 0 961.74 410.24"><defs><style>.cls-1{fill:url(#Безымянный_градиент_3);}.cls-2{fill:url(#Безымянный_градиент_5);}.cls-3{fill:url(#Безымянный_градиент_4);}.cls-4{fill:url(#Безымянный_градиент_3-2);}.cls-5{fill:url(#Безымянный_градиент_3-3);}.cls-6{stroke:#000;stroke-miterlimit:10;}</style><linearGradient id="Безымянный_градиент_3" x1="530.44" y1="100.06" x2="577.49" y2="171.14" gradientTransform="translate(328.97 -388.46) rotate(53.01)" gradientUnits="userSpaceOnUse"><stop offset="0" stop-color="#9c766a"/><stop offset="0.03" stop-color="#b48c7a"/><stop offset="0.12" stop-color="#ecbea0"/><stop offset="0.38" stop-color="#f4d1bc"/><stop offset="0.42" stop-color="#f4ccb2"/><stop offset="0.5" stop-color="#f3c5a5"/><stop offset="0.6" stop-color="#f1c3a4"/><stop offset="0.64" stop-color="#eabd9e"/><stop offset="0.66" stop-color="#deb195"/><stop offset="0.69" stop-color="#cda188"/><stop offset="0.69" stop-color="#cca188"/><stop offset="0.75" stop-color="#dfb196"/><stop offset="0.81" stop-color="#ecbda1"/><stop offset="0.87" stop-color="#f0c1a4"/><stop offset="0.91" stop-color="#d6ab92"/><stop offset="1" stop-color="#9c796a"/></linearGradient><linearGradient id="Безымянный_градиент_5" x1="3682.86" y1="-1771.1" x2="3908.74" y2="-1429.8" gradientTransform="translate(4262 -1409.67) rotate(180)" gradientUnits="userSpaceOnUse"><stop offset="0" stop-color="#9c766a"/><stop offset="0.03" stop-color="#b48c7a"/><stop offset="0.12" stop-color="#ecbea0"/><stop offset="0.5" stop-color="#f3c5a5"/><stop offset="0.6" stop-color="#f1c3a4"/><stop offset="0.64" stop-color="#eabd9e"/><stop offset="0.66" stop-color="#deb195"/><stop offset="0.69" stop-color="#cda188"/><stop offset="0.69" stop-color="#cca188"/><stop offset="0.75" stop-color="#dfb196"/><stop offset="0.81" stop-color="#ecbda1"/><stop offset="0.87" stop-color="#f0c1a4"/><stop offset="0.91" stop-color="#d6ab92"/><stop offset="1" stop-color="#9c796a"/></linearGradient><linearGradient id="Безымянный_градиент_4" x1="3653.42" y1="-1735" x2="3847.9" y2="-1441.15" gradientTransform="translate(4262 -1409.67) rotate(180)" gradientUnits="userSpaceOnUse"><stop offset="0" stop-color="#9c766a"/><stop offset="0.03" stop-color="#b48c7a"/><stop offset="0.12" stop-color="#ecbea0"/><stop offset="0.61" stop-color="#cca188"/><stop offset="0.69" stop-color="#dfb196"/><stop offset="0.78" stop-color="#ecbda1"/><stop offset="0.87" stop-color="#f0c1a4"/><stop offset="0.91" stop-color="#d6ab92"/><stop offset="1" stop-color="#9c796a"/></linearGradient><linearGradient id="Безымянный_градиент_3-2" x1="305.04" y1="54.63" x2="521.43" y2="381.59" gradientTransform="matrix(1, 0, 0, 1, 0, 0)" xlink:href="#Безымянный_градиент_3"/><linearGradient id="Безымянный_градиент_3-3" x1="3654.95" y1="-1799.14" x2="3879.54" y2="-1459.8" gradientTransform="translate(4262 -1409.67) rotate(180)" xlink:href="#Безымянный_градиент_3"/></defs><title>Asset 2</title><g id="Layer_2" data-name="Layer 2"><g id="Слой_1" data-name="Слой 1"><rect class="cls-1" x="431.98" y="133.6" width="243.96" height="4" transform="translate(112.34 496.49) rotate(-53.01)"/><path class="cls-2" d="M480.56,410.2l-1-.6L261,281,330.35,35.29,480.88,0,629,36.51l.32,1.1L700.72,281ZM265.72,279.09,480.56,405.56,696,279.1,625.77,39.84,480.85,4.11,333.56,38.65Z"/><polygon class="cls-3" points="480.65 410 261.8 132.67 264.94 130.19 480.56 404.09 696.78 129.59 699.93 132.07 480.65 410"/><polygon class="cls-4" points="482.56 407.32 478.56 407.32 478.56 233.7 330.37 38.18 333.55 35.77 482.56 232.36 482.56 407.32"/><path class="cls-5" d="M480.57,410.24l-.45-.1-147.34-34L261,130.5,480.86.18,700.72,129.9,627.14,376.18ZM336,372.81l144.6,33.33L624,372.81l72-241.05L480.87,4.82,265.73,132.36Z"/><path d="M.07,195.1H28.6q2.53,0,5.54.17t5.41.43a38.65,38.65,0,0,1,4,.6,16.42,16.42,0,0,1,8.64,4.29,10.62,10.62,0,0,1,3,7.68,10.92,10.92,0,0,1-1.44,5.61A11.91,11.91,0,0,1,49.48,218a22.37,22.37,0,0,1-6.82,2.58,42.46,42.46,0,0,1-9.1.89H20.46v11.36q0,8.76,8.69,8.76h2.39v1.27H0v-1.27H1.68q8.69,0,8.69-8.76V205.05q0-8.69-8.69-8.69H.07Zm20.39,1.27v23.81H30q7.08,0,10.47-2.92t3.39-9q0-7.15-4.69-10a12.35,12.35,0,0,0-3.93-1.44,29.65,29.65,0,0,0-5.61-.45Z"/><path d="M106.1,219.49H95.36v13.38q0,4.38,2.16,6.53t6.53,2.16h1.4v1.33H75.28v-1.33h1.3q4.41,0,6.55-2.14t2.14-6.55V205.05q0-4.45-2.12-6.57t-6.57-2.12h-1.3V195.1h37a51.21,51.21,0,0,1,11.9,1.09,14.43,14.43,0,0,1,6.94,3.69,11.13,11.13,0,0,1,2.34,3.49,10,10,0,0,1,.87,4q0,5.41-5.61,8.69a24.65,24.65,0,0,1-5.68,2,46.33,46.33,0,0,1-7.15,1.2q-2.7.21-8.24.21v.14q2.74,1.78,5,2.94a35,35,0,0,0,4.48,2,45,45,0,0,0,5.13,1.45l1.13,1.71q1.13,1.64,1.68,2.46l1.27,1.88q1.92,2.91,3.64,5a18.5,18.5,0,0,0,2.86,3,11.52,11.52,0,0,0,6.36,1.47h1.33v1.33H122.62Zm-10.74-1.27H109a22.51,22.51,0,0,0,7.92-1.18,9.05,9.05,0,0,0,4.62-3.59,11.46,11.46,0,0,0,1.52-6.21q0-10.88-13.85-10.88H95.36Z"/><path d="M189,194.14a33.9,33.9,0,0,1,12.26,2.14,27.41,27.41,0,0,1,9.66,6.24,25.63,25.63,0,0,1,5.34,7.78,21.82,21.82,0,0,1-1.93,21.19,26.77,26.77,0,0,1-10.36,9,31.3,31.3,0,0,1-14.35,3.32,33,33,0,0,1-11.2-1.88,29.12,29.12,0,0,1-9.25-5.32,24.92,24.92,0,0,1-6.24-8,21.54,21.54,0,0,1-2.24-9.58,21.77,21.77,0,0,1,3.87-12.38,27.46,27.46,0,0,1,10.37-9.12A30.17,30.17,0,0,1,189,194.14Zm.89,1.23a15.94,15.94,0,0,0-5.87,1.08,12.62,12.62,0,0,0-4.64,3.06,20.36,20.36,0,0,0-3.51,5.11,27,27,0,0,0-2.19,6.6,39.65,39.65,0,0,0-.74,7.85,36.92,36.92,0,0,0,1.16,9.59,23.55,23.55,0,0,0,3.35,7.46,15.16,15.16,0,0,0,5.23,4.77,14.83,14.83,0,0,0,15.58-1.25,18.08,18.08,0,0,0,5.75-8.26,36.56,36.56,0,0,0,2-12.76,35.23,35.23,0,0,0-1.09-9,24.15,24.15,0,0,0-3.15-7.27,16.29,16.29,0,0,0-5-4.91,12.74,12.74,0,0,0-3.32-1.54A12.27,12.27,0,0,0,189.86,195.37Z"/><path d="M250.91,232.52a5.66,5.66,0,0,1,4.07,1.61,5.57,5.57,0,0,1,0,8,5.44,5.44,0,0,1-3.93,1.64,5.73,5.73,0,0,1-5.61-5.61,5.49,5.49,0,0,1,1.63-3.92A5.16,5.16,0,0,1,250.91,232.52Z"/><path d="M281.51,195.1h31.71a42.53,42.53,0,0,1,13.5,1.93,24.11,24.11,0,0,1,9.7,5.94,25,25,0,0,1,5.49,7.8,21.76,21.76,0,0,1,1.93,8.93,20.93,20.93,0,0,1-2.09,9.3,21.78,21.78,0,0,1-5.9,7.39,27.55,27.55,0,0,1-9,4.81,36.59,36.59,0,0,1-11.32,1.69h-34v-1.33h1.74q4.41,0,6.55-2.14t2.14-6.55V205.05q0-4.45-2.12-6.57t-6.57-2.12h-1.74ZM302,196.36v45.19h9.24a42.4,42.4,0,0,0,6.67-.45,17,17,0,0,0,4.79-1.45,12.35,12.35,0,0,0,3.59-2.65q5.68-5.78,5.68-17.79a38,38,0,0,0-.7-7.44,24.54,24.54,0,0,0-2-6.17,17.89,17.89,0,0,0-3.35-4.69,14.07,14.07,0,0,0-3.78-2.65,17.75,17.75,0,0,0-4.86-1.45,42.2,42.2,0,0,0-6.62-.45Z"/><path d="M364.9,195.1h50.83V213.6h-1a55.19,55.19,0,0,0-2.51-7.27,20.94,20.94,0,0,0-2.89-4.57,12.84,12.84,0,0,0-4.69-3.66,26.71,26.71,0,0,0-10.23-1.75H385v22.71h2.53a10.33,10.33,0,0,0,9-4.86,17.64,17.64,0,0,0,2.53-6,31,31,0,0,0,.75-4.34H401v31.33h-1.2q-.41-2.53-1-4.77a18.33,18.33,0,0,0-1.27-3.64,16.84,16.84,0,0,0-1.8-2.8q-3.08-3.8-8.76-3.8h-2v21.38h7.87a36,36,0,0,0,6.28-.5,20,20,0,0,0,5-1.54,18.35,18.35,0,0,0,4.17-2.72,19.13,19.13,0,0,0,5.2-7.08,52.72,52.72,0,0,0,2.22-6.57H417v19.67H365l-.07-1.27h1.3q8.69,0,8.69-8.76V205.05q0-4.45-2.12-6.57t-6.57-2.12h-1.3Z"/><path d="M488.75,226.05H490a28.41,28.41,0,0,1-1.81,5.06,23.45,23.45,0,0,1-2.74,4.21q-6.94,8.55-18.58,8.55a28.37,28.37,0,0,1-13.65-3.4,26.91,26.91,0,0,1-10.06-9.17A22.32,22.32,0,0,1,440.86,211a25.45,25.45,0,0,1,4.29-7.32,29.1,29.1,0,0,1,6.55-5.83,23.26,23.26,0,0,1,13-3.69,24.51,24.51,0,0,1,4.67.43,17.25,17.25,0,0,1,4.17,1.37,25.29,25.29,0,0,1,4.05,2.48,7.36,7.36,0,0,0,3.42,1.61q2.43,0,6.09-5.06h1.2l1,23h-1.13q-.58-2.5-1.11-4.07a23.35,23.35,0,0,0-1.42-3.28,34,34,0,0,0-5.58-8.28,23.35,23.35,0,0,0-7-5.27,17.91,17.91,0,0,0-7.8-1.81,11.66,11.66,0,0,0-7.8,2.55q-3,2.55-4.46,7.94a53.75,53.75,0,0,0-1.45,13.7,62.24,62.24,0,0,0,.51,8.48,25,25,0,0,0,1.59,6.24,13.86,13.86,0,0,0,2.72,4.26,13.28,13.28,0,0,0,4.91,3.13,17.92,17.92,0,0,0,6.31,1.08,22.47,22.47,0,0,0,6.11-.82,20.33,20.33,0,0,0,5.47-2.45,22.1,22.1,0,0,0,4.67-4,21.75,21.75,0,0,0,2.77-4A33.75,33.75,0,0,0,488.75,226.05Z"/><path d="M541.46,194.14a33.89,33.89,0,0,1,12.26,2.14,27.42,27.42,0,0,1,9.66,6.24,25.62,25.62,0,0,1,5.34,7.78,21.82,21.82,0,0,1-1.93,21.19,26.77,26.77,0,0,1-10.37,9,31.3,31.3,0,0,1-14.35,3.32,33,33,0,0,1-11.2-1.88,29.11,29.11,0,0,1-9.25-5.32,24.93,24.93,0,0,1-6.24-8,21.54,21.54,0,0,1-2.24-9.58A21.77,21.77,0,0,1,517,206.62a27.47,27.47,0,0,1,10.37-9.12A30.17,30.17,0,0,1,541.46,194.14Zm.89,1.23a16,16,0,0,0-5.87,1.08,12.61,12.61,0,0,0-4.63,3.06,20.39,20.39,0,0,0-3.51,5.11,27,27,0,0,0-2.19,6.6,39.68,39.68,0,0,0-.74,7.85,36.94,36.94,0,0,0,1.16,9.59,23.55,23.55,0,0,0,3.35,7.46,15.16,15.16,0,0,0,5.23,4.77,14.83,14.83,0,0,0,15.58-1.25,18.08,18.08,0,0,0,5.75-8.26,36.56,36.56,0,0,0,2-12.76,35.23,35.23,0,0,0-1.09-9,24.16,24.16,0,0,0-3.15-7.27,16.29,16.29,0,0,0-5-4.91A12.75,12.75,0,0,0,546,196,12.27,12.27,0,0,0,542.34,195.37Z"/><path d="M623.78,219.49H613v13.38q0,4.38,2.16,6.53t6.53,2.16h1.4v1.33H593v-1.33h1.3q4.41,0,6.55-2.14t2.14-6.55V205.05q0-4.45-2.12-6.57t-6.57-2.12H593V195.1h37a51.21,51.21,0,0,1,11.9,1.09,14.43,14.43,0,0,1,6.94,3.69,11.14,11.14,0,0,1,2.34,3.49,10,10,0,0,1,.87,4q0,5.41-5.61,8.69a24.66,24.66,0,0,1-5.68,2,46.34,46.34,0,0,1-7.15,1.2q-2.7.21-8.24.21v.14q2.74,1.78,5,2.94a35,35,0,0,0,4.48,2A45,45,0,0,0,640,226l1.13,1.71q1.13,1.64,1.68,2.46L644,232q1.91,2.91,3.64,5a18.48,18.48,0,0,0,2.86,3,11.52,11.52,0,0,0,6.36,1.47h1.33v1.33H640.3ZM613,218.22h13.62a22.51,22.51,0,0,0,7.92-1.18,9.05,9.05,0,0,0,4.62-3.59,11.46,11.46,0,0,0,1.52-6.21q0-10.88-13.85-10.88H613Z"/><path d="M727.79,226.05H729a28.38,28.38,0,0,1-1.81,5.06,23.53,23.53,0,0,1-2.74,4.21q-6.95,8.55-18.58,8.55a28.37,28.37,0,0,1-13.65-3.4,26.91,26.91,0,0,1-10.06-9.17A22.32,22.32,0,0,1,679.9,211a25.45,25.45,0,0,1,4.29-7.32,29.08,29.08,0,0,1,6.55-5.83,23.26,23.26,0,0,1,13-3.69,24.5,24.5,0,0,1,4.67.43,17.23,17.23,0,0,1,4.17,1.37,25.27,25.27,0,0,1,4.05,2.48A7.36,7.36,0,0,0,720.1,200q2.43,0,6.09-5.06h1.2l1,23h-1.13q-.58-2.5-1.11-4.07a23.29,23.29,0,0,0-1.42-3.28,34,34,0,0,0-5.58-8.28,23.34,23.34,0,0,0-7-5.27,17.91,17.91,0,0,0-7.8-1.81,11.66,11.66,0,0,0-7.8,2.55q-3,2.55-4.46,7.94a53.76,53.76,0,0,0-1.45,13.7,62.33,62.33,0,0,0,.51,8.48,24.93,24.93,0,0,0,1.59,6.24,13.87,13.87,0,0,0,2.72,4.26,13.27,13.27,0,0,0,4.91,3.13,17.93,17.93,0,0,0,6.31,1.08,22.47,22.47,0,0,0,6.11-.82,20.32,20.32,0,0,0,5.47-2.45,22.11,22.11,0,0,0,4.67-4,21.72,21.72,0,0,0,2.77-4A33.7,33.7,0,0,0,727.79,226.05Z"/><path d="M749.3,195.1h32.6v1.27h-3.46q-4.41,0-6.53,2.12t-2.12,6.57v36.57h12.38a15.25,15.25,0,0,0,6.91-1.62,17.26,17.26,0,0,0,5.64-4.53,37.49,37.49,0,0,0,2.53-3.59,27.3,27.3,0,0,0,2.09-4.31q1-2.53,1.95-5.82h1.27v21.14H749.3l-.07-1.27H751q8.69,0,8.69-8.76V205.05q0-8.69-8.69-8.69H749.3Z"/><path d="M821.7,195.1h33.15v1.27h-3.8q-4.38,0-6.53,2.14t-2.16,6.55V229.3a12.86,12.86,0,0,0,1.92,7.12,12.34,12.34,0,0,0,5.51,4.58,20.8,20.8,0,0,0,8.55,1.61,25.58,25.58,0,0,0,8.11-1.25,15.19,15.19,0,0,0,6-3.44q4.07-4.17,4.07-11.7v-17.1q0-8.21-4.79-11.15a9.26,9.26,0,0,0-2.87-1.2,23.43,23.43,0,0,0-4.34-.41V195.1h23.19v1.27a15.42,15.42,0,0,0-3.42.58,9.56,9.56,0,0,0-2.6,1.37,9.29,9.29,0,0,0-3,3.92,14.84,14.84,0,0,0-1,5.76V227q0,7.6-4.14,11.63a14.2,14.2,0,0,1-4.89,3.15,37.15,37.15,0,0,1-13,2.05,43.35,43.35,0,0,1-10.13-1.09,22.85,22.85,0,0,1-7.53-3.11,12.64,12.64,0,0,1-5.61-11.08V205.05q0-8.69-8.69-8.69H821.7Z"/><path d="M905.05,195.1h35a38,38,0,0,1,7.87.8,18.89,18.89,0,0,1,6,2.14,12.32,12.32,0,0,1,4.14,3.81,8.6,8.6,0,0,1,1.47,4.81q0,4.17-4.62,7.22a20.42,20.42,0,0,1-4,2.05q-2.12.82-6,1.88v.14a42.51,42.51,0,0,1,8.11,2.22q8.69,3.83,8.69,10.54a9.06,9.06,0,0,1-2.62,6.45,16.92,16.92,0,0,1-7.47,4.24,39.31,39.31,0,0,1-11.46,1.49H905.05v-1.33h1.4q4.41,0,6.55-2.14t2.14-6.55V205.05q0-4.45-2.14-6.6t-6.55-2.16h-1.4Zm20.18,1.2v20.94H935.6q12.76,0,12.76-11.12,0-5-2.72-7.41t-8.4-2.41Zm0,22.27v23.13H936q6.81,0,10.43-3t3.63-8.6a10,10,0,0,0-2.94-7.56,11.84,11.84,0,0,0-5.44-3.08,39,39,0,0,0-9.41-.86Z"/><path class="cls-6" d="M380.83,301.84c7.32,0,9.49,6.36,8.83,10.83H371.5c.13,6.86,5.1,9.66,10.46,9.66a13.5,13.5,0,0,0,6.48-1.55v.42a13.38,13.38,0,0,1-6.48,1.55c-5.65,0-10.87-3.05-10.87-10.46C371.08,305.65,375.77,301.84,380.83,301.84Zm0,.42c-4.85,0-9.24,3.51-9.33,10h17.82C389.74,307.91,387.6,302.26,380.83,302.26Z"/><path class="cls-6" d="M411.65,302.26l-9.58,20.08h-.5L392,302.26h.46l9.37,19.62,9.37-19.62Z"/><path class="cls-6" d="M423.82,301.84c7.32,0,9.49,6.36,8.82,10.83H414.5c.13,6.86,5.1,9.66,10.46,9.66a13.5,13.5,0,0,0,6.48-1.55v.42a13.38,13.38,0,0,1-6.48,1.55c-5.65,0-10.87-3.05-10.87-10.46C414.08,305.65,418.76,301.84,423.82,301.84Zm0,.42c-4.85,0-9.24,3.51-9.33,10h17.82C432.73,307.91,430.6,302.26,423.82,302.26Z"/><path class="cls-6" d="M447.62,301.84c4.27,0,7.65,3,7.65,8.16v12.34h-.42V310c0-4.94-3.18-7.74-7.24-7.74a10.13,10.13,0,0,0-8.87,5.73v14.35h-.42V302.26h.42v4.89A10.65,10.65,0,0,1,447.62,301.84Z"/><path class="cls-6" d="M463,295.36v6.9h9.2v.42H463V316.9c0,3.43,1.8,5.35,5.35,5.35a8.57,8.57,0,0,0,4.27-1v.42a8.14,8.14,0,0,1-4.27,1c-3.72,0-5.77-2-5.77-5.77V302.68h-3.76v-.42h3.76v-6.69Z"/><path class="cls-6" d="M506.26,293.06v29.28h-.42v-5.69a10.43,10.43,0,0,1-9.45,6.11c-5.69,0-10-3.93-10-10.46s4.27-10.46,10-10.46a10.43,10.43,0,0,1,9.45,6.11V293.06Zm-9.87,9.2c-5.44,0-9.54,3.72-9.54,10s4.06,10,9.54,10a10,10,0,0,0,9.45-6.86v-6.36A10,10,0,0,0,496.39,302.26Z"/><path class="cls-6" d="M521.73,301.84c7.32,0,9.49,6.36,8.82,10.83H512.4c.13,6.86,5.1,9.66,10.46,9.66a13.5,13.5,0,0,0,6.48-1.55v.42a13.38,13.38,0,0,1-6.48,1.55c-5.65,0-10.87-3.05-10.87-10.46C512,305.65,516.67,301.84,521.73,301.84Zm0,.42c-4.85,0-9.24,3.51-9.33,10h17.82C530.64,307.91,528.51,302.26,521.73,302.26Z"/><path class="cls-6" d="M545.53,301.84a10.48,10.48,0,0,1,5.81,1.63v.42a10.83,10.83,0,0,0-5.81-1.63c-5.06,0-10.33,3.05-10.33,10.25,0,6.73,4.77,9.83,9.75,9.83a13.78,13.78,0,0,0,6.61-1.59v.42a13.53,13.53,0,0,1-6.61,1.59c-5.1,0-10.16-3.18-10.16-10.25C534.78,305,540.34,301.84,545.53,301.84Z"/><path class="cls-6" d="M565,301.84a10.46,10.46,0,1,1-10.25,10.46A10,10,0,0,1,565,301.84Zm0,.42c-5.19,0-9.83,3.64-9.83,10s4.64,10,9.83,10,9.83-3.64,9.83-10S570.16,302.26,565,302.26Z"/><path class="cls-6" d="M590.65,301.84v.42c-5.35,0-8.49,4.35-9.29,8.32v11.75H581V302.26h.42V309C582.58,305.4,585.72,301.84,590.65,301.84Z"/></g></g></svg>