<?xml version="1.0" standalone="no"?>
<!DOCTYPE svg PUBLIC "-//W3C//DTD SVG 1.1//EN" "http://www.w3.org/Graphics/SVG/1.1/DTD/svg11.dtd" >
<svg xmlns="http://www.w3.org/2000/svg" xmlns:xlink="http://www.w3.org/1999/xlink" version="1.1">
<metadata>
Created by FontForge 20170910 at Sun Sep  7 17:57:23 2014
 By Jimmy Wärting
Copyright \(c\) 2014 by Typetype. Designer Ivan Gladkikh, technical designer Philipp Nurullin, Olexa Volochay, Nadyr Rakhimov. All rights reserved.
</metadata>
<defs>
<font id="TTDrugs-Thin" horiz-adv-x="635" >
  <font-face 
    font-family="TT Drugs"
    font-weight="250"
    font-stretch="normal"
    units-per-em="1000"
    panose-1="2 0 5 3 6 0 0 2 0 3"
    ascent="800"
    descent="-200"
    x-height="500"
    cap-height="700"
    bbox="-55 -270 1140 990"
    underline-thickness="62"
    underline-position="-125"
    stemh="20"
    stemv="30"
    unicode-range="U+000D-F6D4"
  />
<missing-glyph horiz-adv-x="0" 
 />
    <glyph glyph-name=".notdef" horiz-adv-x="0" 
 />
    <glyph glyph-name=".null" horiz-adv-x="0" 
 />
    <glyph glyph-name="CR" unicode="&#xd;" horiz-adv-x="0" 
 />
    <glyph glyph-name="space" unicode=" " horiz-adv-x="230" 
 />
    <glyph glyph-name="exclam" unicode="!" horiz-adv-x="270" 
d="M150 700v-360l-10 -180h-10l-10 180v360h30zM165 20c0 -15 -15 -30 -30 -30s-30 15 -30 30s15 30 30 30s30 -15 30 -30z" />
    <glyph glyph-name="quotedbl" unicode="&#x22;" horiz-adv-x="340" 
d="M95 450h-10l-10 120v130h30v-130zM255 450h-10l-10 120v130h30v-130z" />
    <glyph glyph-name="numbersign" unicode="#" horiz-adv-x="720" 
d="M20 220l5 20h155l80 240h-155l5 20h155l70 220h30l-70 -220h220l70 220h30l-70 -220h155l-5 -20h-155l-80 -240h155l-5 -20h-155l-70 -220h-30l70 220h-220l-70 -220h-30l70 220h-155zM290 480l-80 -240h220l80 240h-220z" />
    <glyph glyph-name="dollar" unicode="$" horiz-adv-x="615" 
d="M320 -120h-20v100c-170 0 -260 155 -260 155l15 10s75 -145 260 -145c135 0 220 85 220 180c0 190 -450 140 -450 360c0 85 90 175 215 180v100h20v-100c150 0 230 -125 230 -125l-15 -10s-75 115 -215 115c-125 0 -205 -80 -205 -160c0 -190 450 -140 450 -360
c0 -105 -95 -200 -245 -200v-100z" />
    <glyph glyph-name="percent" unicode="%" horiz-adv-x="830" 
d="M190 0l420 700h30l-420 -700h-30zM70 550c0 -90 60 -150 130 -150s130 60 130 150s-60 150 -130 150s-130 -60 -130 -150zM360 550c0 -100 -70 -170 -160 -170s-160 70 -160 170s70 170 160 170s160 -70 160 -170zM760 150c0 90 -60 150 -130 150s-130 -60 -130 -150
s60 -150 130 -150s130 60 130 150zM470 150c0 100 70 170 160 170s160 -70 160 -170s-70 -170 -160 -170s-160 70 -160 170z" />
    <glyph glyph-name="ampersand" unicode="&#x26;" horiz-adv-x="665" 
d="M570 320c0 -110 -45 -180 -45 -180l130 -140h-35l-110 120s-80 -140 -235 -140c-135 0 -225 90 -225 200c0 150 175 235 175 235v5s-75 75 -75 150c0 80 70 150 190 150c130 0 190 -110 190 -110l-15 -10s-65 100 -175 100c-100 0 -160 -60 -160 -130
c0 -75 80 -150 80 -150l250 -265s40 65 40 165h20zM275 0c145 0 220 135 220 135l-250 265s-165 -70 -165 -220c0 -100 80 -180 195 -180z" />
    <glyph glyph-name="quotesingle" unicode="'" horiz-adv-x="180" 
d="M95 450h-10l-10 120v130h30v-130z" />
    <glyph glyph-name="parenleft" unicode="(" horiz-adv-x="360" 
d="M95 270c0 330 235 510 235 510l10 -15s-215 -185 -215 -495s215 -495 215 -495l-10 -15s-235 180 -235 510z" />
    <glyph glyph-name="parenright" unicode=")" horiz-adv-x="360" 
d="M265 270c0 -330 -235 -510 -235 -510l-10 15s215 185 215 495s-215 495 -215 495l10 15s235 -180 235 -510z" />
    <glyph glyph-name="asterisk" unicode="*" horiz-adv-x="425" 
d="M215 506h-5l-95 -131l-20 15l95 130l-140 45l5 25l145 -45v155h25v-155l145 45l5 -25l-140 -45l95 -130l-20 -15z" />
    <glyph glyph-name="plus" unicode="+" horiz-adv-x="515" 
d="M475 365v-25h-205v-210h-25v210h-205v25h205v210h25v-210h205z" />
    <glyph glyph-name="comma" unicode="," horiz-adv-x="190" 
d="M95 -10c-15 0 -30 15 -30 30s15 30 30 30s30 -15 30 -35c0 -85 -75 -125 -75 -125l-10 15s55 35 55 85z" />
    <glyph glyph-name="hyphen" unicode="-" horiz-adv-x="490" 
d="M450 365v-25h-410v25h410z" />
    <glyph glyph-name="period" unicode="." horiz-adv-x="190" 
d="M125 20c0 -15 -15 -30 -30 -30s-30 15 -30 30s15 30 30 30s30 -15 30 -30z" />
    <glyph glyph-name="slash" unicode="/" horiz-adv-x="415" 
d="M40 -50l310 800h25l-310 -800h-25z" />
    <glyph glyph-name="zero" unicode="0" horiz-adv-x="720" 
d="M65 350c0 230 140 370 295 370s295 -140 295 -370s-140 -370 -295 -370s-295 140 -295 370zM625 350c0 220 -130 350 -265 350s-265 -130 -265 -350s130 -350 265 -350s265 130 265 350z" />
    <glyph glyph-name="one" unicode="1" horiz-adv-x="365" 
d="M40 550l190 150h20v-700h-30v655h-5l-160 -125z" />
    <glyph glyph-name="two" unicode="2" horiz-adv-x="580" 
d="M505 520c0 -220 -415 -495 -415 -495v-5h440l-5 -20h-485v20s435 280 435 500c0 100 -80 180 -205 180c-140 0 -215 -115 -215 -115l-15 10s80 125 230 125c145 0 235 -90 235 -200z" />
    <glyph glyph-name="three" unicode="3" horiz-adv-x="575" 
d="M500 700v-25l-270 -265v-5s20 5 40 5c160 0 255 -95 255 -215s-95 -215 -255 -215s-240 125 -240 125l15 10s75 -115 225 -115c140 0 225 85 225 195s-85 195 -225 195c-40 0 -75 -15 -75 -15l-10 19l285 281v5h-410v20h440z" />
    <glyph glyph-name="four" unicode="4" horiz-adv-x="630" 
d="M450 220v440h-5l-375 -435v-5h380zM40 200v25l410 475h30v-480h130l-5 -20h-125v-200h-30v200h-410z" />
    <glyph glyph-name="five" unicode="5" horiz-adv-x="595" 
d="M150 700h370l-5 -20h-340l-40 -275h5s50 35 150 35c155 0 255 -100 255 -230s-100 -230 -255 -230c-160 0 -240 125 -240 125l15 10s75 -115 225 -115c135 0 225 90 225 210s-90 210 -225 210c-105 0 -170 -50 -170 -50l-20 10z" />
    <glyph glyph-name="six" unicode="6" horiz-adv-x="615" 
d="M325 440c140 0 240 -100 240 -230s-100 -230 -240 -230c-145 0 -260 115 -260 320c0 230 160 390 404 410l6 -16c-240 -34 -370 -164 -380 -364h5s85 110 225 110zM95 295v-5c0 -185 105 -290 230 -290c120 0 210 90 210 210s-90 210 -210 210
c-140 0 -230 -125 -230 -125z" />
    <glyph glyph-name="seven" unicode="7" horiz-adv-x="530" 
d="M30 680v20h460v-20l-310 -680h-30l310 675v5h-430z" />
    <glyph glyph-name="eight" unicode="8" horiz-adv-x="640" 
d="M550 180c0 160 -245 185 -245 185s-220 -25 -220 -185c0 -90 90 -180 230 -180c145 0 235 90 235 180zM370 380v-5s210 -45 210 -195c0 -100 -100 -200 -265 -200c-155 0 -255 100 -255 200c0 160 200 195 200 195v5s-155 45 -155 165c0 95 80 175 220 175
c130 0 210 -80 210 -175c0 -130 -165 -165 -165 -165zM135 545c0 -130 190 -160 190 -160s185 30 185 160c0 85 -70 155 -185 155c-120 0 -190 -70 -190 -155z" />
    <glyph glyph-name="nine" unicode="9" horiz-adv-x="615" 
d="M290 260c-140 0 -240 100 -240 230s100 230 240 230c145 0 260 -115 260 -320c0 -230 -160 -390 -404 -410l-6 16c240 34 370 164 380 364h-5s-85 -110 -225 -110zM520 405v5c0 185 -105 290 -230 290c-120 0 -210 -90 -210 -210s90 -210 210 -210c140 0 230 125 230 125
z" />
    <glyph glyph-name="colon" unicode=":" horiz-adv-x="190" 
d="M125 20c0 -15 -15 -30 -30 -30s-30 15 -30 30s15 30 30 30s30 -15 30 -30zM125 480c0 -15 -15 -30 -30 -30s-30 15 -30 30s15 30 30 30s30 -15 30 -30z" />
    <glyph glyph-name="semicolon" unicode=";" horiz-adv-x="190" 
d="M125 480c0 -15 -15 -30 -30 -30s-30 15 -30 30s15 30 30 30s30 -15 30 -30zM95 -10c-15 0 -30 15 -30 30s15 30 30 30s30 -15 30 -35c0 -85 -75 -125 -75 -125l-10 15s55 35 55 85z" />
    <glyph glyph-name="less" unicode="&#x3c;" horiz-adv-x="500" 
d="M480 20l-440 200v25l440 200v-30l-410 -180v-5l410 -180v-30z" />
    <glyph glyph-name="equal" unicode="=" horiz-adv-x="490" 
d="M450 465v-25h-410v25h410zM450 260v-25h-410v25h410z" />
    <glyph glyph-name="greater" unicode="&#x3e;" horiz-adv-x="500" 
d="M480 220l-440 -200v30l410 180v5l-410 180v30l440 -200v-25z" />
    <glyph glyph-name="question" unicode="?" horiz-adv-x="535" 
d="M485 510c0 -200 -225 -240 -225 -240l-10 -110h-10l-10 125s225 25 225 225c0 105 -85 190 -205 190c-140 0 -215 -115 -215 -115l-15 10s80 125 230 125c140 0 235 -95 235 -210zM275 20c0 -15 -15 -30 -30 -30s-30 15 -30 30s15 30 30 30s30 -15 30 -30z" />
    <glyph glyph-name="at" unicode="@" horiz-adv-x="1040" 
d="M975 300c0 -170 -80 -250 -180 -250c-75 0 -125 65 -125 65h-5s-50 -65 -130 -65c-110 0 -190 80 -190 215s80 215 190 215c70 0 115 -50 115 -50h5c1 20 10 40 10 40h30s-10 -25 -10 -75v-260s45 -65 110 -65c80 0 150 70 150 230c0 230 -180 410 -420 410
c-230 0 -420 -190 -420 -440s190 -440 450 -440c140 0 250 70 250 70l10 -20s-110 -70 -260 -70c-280 0 -480 200 -480 460s200 460 450 460c260 0 450 -190 450 -430zM535 70c70 0 120 65 120 65v260s-50 65 -120 65c-90 0 -160 -70 -160 -195s70 -195 160 -195z" />
    <glyph glyph-name="A" unicode="A" horiz-adv-x="700" 
d="M625 0l-85 200h-390l-85 -200h-25l300 700h20l300 -700h-35zM343 650l-183 -430h370l-183 430h-4z" />
    <glyph glyph-name="B" unicode="B" horiz-adv-x="675" 
d="M115 0v700h250c125 0 200 -75 200 -165c0 -115 -120 -145 -120 -145v-5s180 -25 180 -190c0 -105 -90 -195 -230 -195h-280zM395 370h-250v-350h250c120 0 200 80 200 175s-80 175 -200 175zM365 680h-220v-290h220c105 0 170 65 170 145s-65 145 -170 145z" />
    <glyph glyph-name="C" unicode="C" horiz-adv-x="725" 
d="M680 145l15 -10s-80 -155 -285 -155c-195 0 -345 150 -345 370s150 370 345 370c185 0 270 -145 270 -145l-15 -10s-80 135 -255 135s-315 -140 -315 -350s140 -350 315 -350c195 0 270 145 270 145z" />
    <glyph glyph-name="D" unicode="D" horiz-adv-x="730" 
d="M115 700h175c225 0 375 -150 375 -350s-150 -350 -375 -350h-175v700zM290 680h-145v-660h145c205 0 345 140 345 330s-140 330 -345 330z" />
    <glyph glyph-name="E" unicode="E" horiz-adv-x="615" 
d="M145 350v-330h440v-20h-470v700h450l-5 -20h-415v-310h310l-5 -20h-305z" />
    <glyph glyph-name="F" unicode="F" horiz-adv-x="575" 
d="M145 330v-330h-30v700h440l-5 -20h-405v-330h320l-5 -20h-315z" />
    <glyph glyph-name="G" unicode="G" horiz-adv-x="790" 
d="M670 95h-5s-80 -115 -255 -115c-195 0 -345 150 -345 370s150 370 345 370c185 0 270 -145 270 -145l-15 -10s-80 135 -255 135s-315 -140 -315 -350s140 -350 315 -350s255 125 255 125v215h-225v20h255v-360h-15z" />
    <glyph glyph-name="H" unicode="H" horiz-adv-x="760" 
d="M145 700v-320h470v320h30v-700h-30v360h-470v-360h-30v700h30z" />
    <glyph glyph-name="I" unicode="I" horiz-adv-x="260" 
d="M145 700v-700h-30v700h30z" />
    <glyph glyph-name="J" unicode="J" horiz-adv-x="275" 
d="M-50 -210v20c100 0 180 80 180 261v629h30v-629c0 -191 -90 -281 -210 -281z" />
    <glyph glyph-name="K" unicode="K" horiz-adv-x="655" 
d="M370 370l265 -370h-35l-260 360h-195v-360h-30v700h30v-320h205l230 320h25z" />
    <glyph glyph-name="L" unicode="L" horiz-adv-x="585" 
d="M145 700v-680h420l-5 -20h-445v700h30z" />
    <glyph glyph-name="M" unicode="M" horiz-adv-x="940" 
d="M790 650l-320 -540h-15l-315 540h-5v-650h-20v700h30l320 -550h5l325 550h30v-700h-30v650h-5z" />
    <glyph glyph-name="N" unicode="N" horiz-adv-x="760" 
d="M135 660v-660h-20v700h30l475 -660h5v660h20v-700h-30l-475 660h-5z" />
    <glyph glyph-name="O" unicode="O" horiz-adv-x="820" 
d="M65 350c0 220 150 370 345 370s345 -150 345 -370s-150 -370 -345 -370s-345 150 -345 370zM725 350c0 210 -140 350 -315 350s-315 -140 -315 -350s140 -350 315 -350s315 140 315 350z" />
    <glyph glyph-name="P" unicode="P" horiz-adv-x="665" 
d="M365 280c130 0 220 90 220 200s-90 200 -220 200h-220v-400h220zM365 260h-220v-260h-30v700h250c150 0 250 -100 250 -220s-100 -220 -250 -220z" />
    <glyph glyph-name="Q" unicode="Q" horiz-adv-x="810" 
d="M65 350c0 220 150 370 345 370s345 -150 345 -370c0 -270 -205 -340 -205 -340s105 -120 300 -140v-30c-225 30 -320 160 -320 160s-55 -20 -120 -20c-195 0 -345 150 -345 370zM725 350c0 210 -140 350 -315 350s-315 -140 -315 -350s140 -350 315 -350s315 140 315 350
z" />
    <glyph glyph-name="R" unicode="R" horiz-adv-x="675" 
d="M405 280h-260v-280h-30v700h240c150 0 240 -90 240 -210c0 -170 -160 -200 -160 -200v-5l200 -285h-35zM355 300c130 0 210 80 210 190s-80 190 -210 190h-210v-380h210z" />
    <glyph glyph-name="S" unicode="S" horiz-adv-x="615" 
d="M85 540c0 90 90 180 235 180c150 0 230 -125 230 -125l-15 -10s-75 115 -215 115c-125 0 -205 -80 -205 -160c0 -190 450 -140 450 -360c0 -105 -95 -200 -250 -200c-195 0 -275 155 -275 155l15 10s75 -145 260 -145c135 0 220 85 220 180c0 190 -450 140 -450 360z" />
    <glyph glyph-name="T" unicode="T" horiz-adv-x="590" 
d="M280 0v680h-260v20h550l-5 -20h-255v-680h-30z" />
    <glyph glyph-name="U" unicode="U" horiz-adv-x="760" 
d="M380 0c145 0 245 100 245 260v440h20v-440c0 -170 -110 -280 -265 -280s-265 110 -265 280v440h30v-440c0 -160 100 -260 235 -260z" />
    <glyph glyph-name="V" unicode="V" horiz-adv-x="660" 
d="M337 50l268 650h25l-290 -700h-20l-290 700h35l268 -650h4z" />
    <glyph glyph-name="W" unicode="W" horiz-adv-x="1015" 
d="M505 655l-210 -655h-30l-225 700h30l210 -655h5l210 655h30l210 -655h5l210 655h25l-225 -700h-30l-210 655h-5z" />
    <glyph glyph-name="X" unicode="X" 
d="M570 0l-255 335h-5l-255 -335h-25l270 355l-255 345h35l235 -320h5l235 320h25l-250 -340l275 -360h-35z" />
    <glyph glyph-name="Y" unicode="Y" horiz-adv-x="610" 
d="M320 240v-240h-30v240l-270 460h35l253 -430h4l253 430h25z" />
    <glyph glyph-name="Z" unicode="Z" horiz-adv-x="580" 
d="M530 680l-465 -655v-5h485l-5 -20h-515v20l465 655v5h-445v20h480v-20z" />
    <glyph glyph-name="bracketleft" unicode="[" horiz-adv-x="345" 
d="M315 760v-20h-170v-940h170v-20h-200v980h200z" />
    <glyph glyph-name="backslash" unicode="\" horiz-adv-x="415" 
d="M65 750l310 -800h-25l-310 800h25z" />
    <glyph glyph-name="bracketright" unicode="]" horiz-adv-x="345" 
d="M30 740v20h200v-980h-200v20h170v940h-170z" />
    <glyph glyph-name="asciicircum" unicode="^" horiz-adv-x="445" 
d="M40 410l170 290h25l170 -290h-30l-150 255h-5l-150 -255h-30z" />
    <glyph glyph-name="underscore" unicode="_" horiz-adv-x="440" 
d="M420 -100v-25h-400v25h400z" />
    <glyph glyph-name="grave" unicode="`" horiz-adv-x="220" 
d="M75 700l105 -190h-20l-120 190h35z" />
    <glyph glyph-name="a" unicode="a" horiz-adv-x="565" 
d="M475 305v-185c0 -75 15 -120 15 -120h-30s-10 45 -10 90h-5s-80 -105 -200 -105c-130 0 -200 70 -200 165s70 165 200 165c100 0 200 -50 200 -50v40c0 120 -70 190 -180 190c-100 0 -160 -75 -160 -75l-15 10s65 85 175 85c130 0 210 -80 210 -210zM245 5
c120 0 200 115 200 115v120s-100 55 -200 55c-110 0 -170 -60 -170 -145s60 -145 170 -145z" />
    <glyph glyph-name="b" unicode="b" 
d="M130 415h5s75 100 195 100c145 0 255 -110 255 -265s-110 -265 -255 -265c-120 0 -200 105 -200 105h-5c0 -45 -10 -90 -10 -90h-30s15 45 15 120v600h30v-305zM330 5c125 0 225 100 225 245s-100 245 -225 245c-120 0 -200 -115 -200 -115v-260s80 -115 200 -115z" />
    <glyph glyph-name="c" unicode="c" horiz-adv-x="530" 
d="M490 420l-15 -10s-65 85 -175 85c-120 0 -220 -100 -220 -245s100 -245 220 -245c130 0 195 105 195 105l15 -10s-70 -115 -210 -115s-250 110 -250 265s110 265 250 265c120 0 190 -95 190 -95z" />
    <glyph glyph-name="d" unicode="d" 
d="M500 415h5v305h30v-600c0 -75 15 -120 15 -120h-30s-10 45 -10 90h-5s-80 -105 -200 -105c-145 0 -255 110 -255 265s110 265 255 265c120 0 195 -100 195 -100zM305 5c120 0 200 115 200 115v260s-80 115 -200 115c-125 0 -225 -100 -225 -245s100 -245 225 -245z" />
    <glyph glyph-name="e" unicode="e" horiz-adv-x="575" 
d="M525 240h-445c0 -135 100 -235 220 -235c130 0 195 105 195 105l15 -10s-70 -115 -210 -115s-250 110 -250 265s110 265 240 265s240 -110 240 -255c0 -10 -5 -20 -5 -20zM80 260h420c0 135 -100 235 -210 235s-210 -100 -210 -235z" />
    <glyph glyph-name="f" unicode="f" horiz-adv-x="370" 
d="M130 490v50c0 105 70 175 160 175c80 0 130 -65 130 -65l-15 -10s-45 55 -115 55s-130 -60 -130 -155v-50h180l-5 -20h-175v-470h-30v470h-110v20h110z" />
    <glyph glyph-name="g" unicode="g" 
d="M505 10v94h-5s-75 -100 -195 -100c-145 0 -255 110 -255 255s110 255 255 255c120 0 200 -105 200 -105h5c0 45 10 90 10 90h30s-15 -45 -15 -120v-369c0 -135 -95 -230 -240 -230c-130 0 -190 95 -190 95l15 10s55 -85 175 -85c125 0 210 85 210 210zM305 494
c-125 0 -225 -100 -225 -235s100 -235 225 -235c120 0 200 115 200 115v240s-80 115 -200 115z" />
    <glyph glyph-name="h" unicode="h" horiz-adv-x="625" 
d="M100 0v720h30v-305h5s75 100 195 100c125 0 205 -80 205 -195v-320h-30v320c0 100 -75 175 -175 175c-120 0 -200 -115 -200 -115v-380h-30z" />
    <glyph glyph-name="i" unicode="i" horiz-adv-x="230" 
d="M130 500v-500h-30v500h30zM145 680c0 -15 -15 -30 -30 -30s-30 15 -30 30s15 30 30 30s30 -15 30 -30z" />
    <glyph glyph-name="j" unicode="j" horiz-adv-x="245" 
d="M145 500v-480c0 -150 -80 -230 -200 -230v20c100 0 170 70 170 210v480h30zM160 680c0 -15 -15 -30 -30 -30s-30 15 -30 30s15 30 30 30s30 -15 30 -30z" />
    <glyph glyph-name="k" unicode="k" horiz-adv-x="520" 
d="M315 265l185 -265h-35l-175 250h-160v-250h-30v720h30v-450h165l155 230h25z" />
    <glyph glyph-name="l" unicode="l" horiz-adv-x="230" 
d="M100 720h30v-720h-30v720z" />
    <glyph glyph-name="m" unicode="m" horiz-adv-x="930" 
d="M100 0v380c0 75 -15 120 -15 120h30s10 -45 10 -90h5s70 105 175 105c125 0 169 -115 169 -115h5s76 115 181 115c100 0 180 -80 180 -195v-320h-30v320c0 105 -70 175 -150 175c-105 0 -180 -125 -180 -125s5 -30 5 -50v-320h-30v320c0 105 -70 175 -150 175
c-105 0 -175 -115 -175 -115v-380h-30z" />
    <glyph glyph-name="n" unicode="n" horiz-adv-x="625" 
d="M100 0v380c0 75 -15 120 -15 120h30s10 -45 10 -90h5s80 105 200 105c125 0 205 -80 205 -195v-320h-30v320c0 100 -75 175 -175 175c-120 0 -200 -115 -200 -115v-380h-30z" />
    <glyph glyph-name="o" unicode="o" horiz-adv-x="600" 
d="M520 250c0 145 -100 245 -220 245s-220 -100 -220 -245s100 -245 220 -245s220 100 220 245zM50 250c0 155 110 265 250 265s250 -110 250 -265s-110 -265 -250 -265s-250 110 -250 265z" />
    <glyph glyph-name="p" unicode="p" 
d="M135 85h-5v-285h-30v580c0 75 -15 120 -15 120h30s10 -45 10 -90h5s80 105 200 105c145 0 255 -110 255 -265s-110 -265 -255 -265c-120 0 -195 100 -195 100zM330 495c-120 0 -200 -115 -200 -115v-260s80 -115 200 -115c125 0 225 100 225 245s-100 245 -225 245z" />
    <glyph glyph-name="q" unicode="q" 
d="M505 85h-5s-75 -100 -195 -100c-145 0 -255 110 -255 265s110 265 255 265c120 0 200 -105 200 -105h5c0 45 10 90 10 90h30s-15 -45 -15 -120v-580h-30v285zM305 495c-125 0 -225 -100 -225 -245s100 -245 225 -245c120 0 200 115 200 115v260s-80 115 -200 115z" />
    <glyph glyph-name="r" unicode="r" horiz-adv-x="385" 
d="M375 505l-10 -25s-25 10 -55 10c-110 0 -180 -110 -180 -110v-380h-30v380c0 75 -15 120 -15 120h30s10 -45 10 -90h5s70 105 180 105c40 0 65 -10 65 -10z" />
    <glyph glyph-name="s" unicode="s" horiz-adv-x="470" 
d="M430 130c0 -75 -70 -145 -200 -145s-200 115 -200 115l15 10s65 -105 185 -105c110 0 170 60 170 125c0 150 -340 80 -340 255c0 65 65 130 180 130c110 0 180 -85 180 -85l-15 -10s-65 75 -165 75c-95 0 -150 -55 -150 -110c0 -150 340 -80 340 -255z" />
    <glyph glyph-name="t" unicode="t" horiz-adv-x="430" 
d="M160 480v-320c0 -95 60 -155 130 -155s115 55 115 55l15 -10s-50 -65 -130 -65c-90 0 -160 70 -160 175v320h-110v20h110l15 150h15v-150h180l-5 -20h-175z" />
    <glyph glyph-name="u" unicode="u" 
d="M535 500v-380c0 -75 15 -120 15 -120h-30s-10 45 -10 90h-5s-80 -105 -200 -105c-125 0 -205 80 -205 195v320h30v-320c0 -100 75 -175 175 -175c120 0 200 115 200 115v380h30z" />
    <glyph glyph-name="v" unicode="v" horiz-adv-x="510" 
d="M260 46l205 454h25l-225 -500h-20l-225 500h35l200 -454h5z" />
    <glyph glyph-name="w" unicode="w" horiz-adv-x="775" 
d="M565 40l155 460h25l-170 -500h-30l-155 460h-5l-155 -460h-30l-170 500h30l155 -460h5l155 460h30l155 -460h5z" />
    <glyph glyph-name="x" unicode="x" horiz-adv-x="485" 
d="M445 500l-190 -240l210 -260h-35l-190 235h-5l-190 -235h-25l205 255l-195 245h35l175 -220h5l175 220h25z" />
    <glyph glyph-name="y" unicode="y" 
d="M505 10v85h-5s-75 -100 -195 -100c-125 0 -205 80 -205 195v310h30v-310c0 -100 75 -175 175 -175c120 0 200 115 200 115v370h30v-490c0 -135 -95 -230 -240 -230c-130 0 -190 95 -190 95l15 10s55 -85 175 -85c125 0 210 85 210 210z" />
    <glyph glyph-name="z" unicode="z" horiz-adv-x="460" 
d="M430 500v-25l-375 -450v-5h385l-5 -20h-415v25l375 450v5h-355v20h390z" />
    <glyph glyph-name="braceleft" unicode="{" horiz-adv-x="370" 
d="M100 272v-4s80 -18 80 -128v-200c0 -90 50 -140 130 -140h30v-20h-30c-100 0 -160 60 -160 160v200c0 80 -40 120 -110 120v20c70 0 110 40 110 120v200c0 100 60 160 160 160h30v-20h-30c-80 0 -130 -50 -130 -140v-200c0 -110 -80 -128 -80 -128z" />
    <glyph glyph-name="bar" unicode="|" horiz-adv-x="280" 
d="M155 820v-940h-30v940h30z" />
    <glyph glyph-name="braceright" unicode="}" horiz-adv-x="370" 
d="M270 268v4s-80 18 -80 128v200c0 90 -50 140 -130 140h-30v20h30c100 0 160 -60 160 -160v-200c0 -80 40 -120 110 -120v-20c-70 0 -110 -40 -110 -120v-200c0 -100 -60 -160 -160 -160h-30v20h30c80 0 130 50 130 140v200c0 110 80 128 80 128z" />
    <glyph glyph-name="asciitilde" unicode="~" horiz-adv-x="510" 
d="M60 305l-20 10s30 120 120 120c85 0 120 -110 190 -110c75 0 100 100 100 100l20 -10s-30 -120 -120 -120c-85 0 -120 110 -190 110c-75 0 -100 -100 -100 -100z" />
    <glyph glyph-name="nbspace" unicode="&#xa0;" horiz-adv-x="230" 
 />
    <glyph glyph-name="exclamdown" unicode="&#xa1;" horiz-adv-x="270" 
d="M150 160v-360h-30v360l10 180h10zM165 480c0 -15 -15 -30 -30 -30s-30 15 -30 30s15 30 30 30s30 -15 30 -30z" />
    <glyph glyph-name="cent" unicode="&#xa2;" horiz-adv-x="530" 
d="M300 -110h-20v96c-131 10 -230 116 -230 264c0 147 99 254 230 264v96h20v-95c120 0 190 -95 190 -95l-15 -10s-65 85 -175 85c-120 0 -220 -100 -220 -245s100 -245 220 -245c130 0 195 105 195 105l15 -10s-70 -115 -210 -115v-95z" />
    <glyph glyph-name="sterling" unicode="&#xa3;" horiz-adv-x="545" 
d="M180 390v150c0 105 70 175 160 175c80 0 130 -65 130 -65l-15 -10s-45 55 -115 55s-130 -60 -130 -155v-150h180l-5 -20h-175v-140c0 -140 -110 -205 -110 -205v-5h435l-5 -20h-510v20h30s130 60 130 210v140h-110v20h110z" />
    <glyph glyph-name="currency" unicode="&#xa4;" horiz-adv-x="660" 
d="M580 500c0 110 -70 180 -200 180h-200v-360h200c130 0 200 70 200 180zM610 500c0 -120 -80 -200 -230 -200h-200v-110h310v-20h-310v-170h-30v170h-110v20h110v110h-110v20h110v380h230c150 0 230 -80 230 -200z" />
    <glyph glyph-name="yen" unicode="&#xa5;" horiz-adv-x="630" 
d="M95 310v20h152l-217 370h35l253 -430h4l253 430h25l-218 -370h153v-20h-164l-41 -70v-60h205v-20h-205v-160h-30v160h-205v20h205v60l-41 70h-164z" />
    <glyph glyph-name="brokenbar" unicode="&#xa6;" horiz-adv-x="260" 
d="M115 820h30v-380h-30v380zM145 260v-380h-30v380h30z" />
    <glyph glyph-name="section" unicode="&#xa7;" horiz-adv-x="550" 
d="M475 210c0 -90 -90 -140 -90 -140v-5s75 -40 75 -105c0 -90 -70 -160 -195 -160c-110 0 -190 95 -190 95l15 10s75 -85 175 -85c105 0 165 60 165 140c0 140 -350 140 -350 320c0 90 90 140 90 140v5s-65 40 -65 105c0 90 70 160 185 160c100 0 160 -85 160 -85l-15 -10
s-55 75 -145 75c-95 0 -155 -60 -155 -140c0 -140 340 -140 340 -320zM445 210c0 100 -135 140 -250 200c0 0 -85 -50 -85 -130c0 -100 135 -140 250 -200c0 0 85 50 85 130z" />
    <glyph glyph-name="dieresis" unicode="&#xa8;" horiz-adv-x="330" 
d="M100 680c0 -15 -15 -30 -30 -30s-30 15 -30 30s15 30 30 30s30 -15 30 -30zM290 680c0 -15 -15 -30 -30 -30s-30 15 -30 30s15 30 30 30s30 -15 30 -30z" />
    <glyph glyph-name="copyright" unicode="&#xa9;" horiz-adv-x="1050" 
d="M975 270c0 -260 -200 -460 -450 -460s-450 200 -450 460s200 460 450 460s450 -200 450 -460zM945 270c0 250 -190 440 -420 440s-420 -190 -420 -440s190 -440 420 -440s420 190 420 440zM335 265c0 125 90 215 210 215c80 0 135 -60 135 -60l-15 -15s-50 55 -120 55
c-100 0 -180 -80 -180 -195s80 -195 180 -195c82 0 135 65 135 65l15 -15s-60 -70 -150 -70c-120 0 -210 90 -210 215z" />
    <glyph glyph-name="ordfeminine" unicode="&#xaa;" horiz-adv-x="425" 
d="M90 645l-10 10s50 55 120 55c95 0 145 -50 145 -170v-100c0 -35 15 -80 15 -80h-30l-10 55h-5s-50 -65 -125 -65c-90 0 -140 50 -140 110s50 110 140 110c70 0 125 -30 125 -30c0 110 -40 150 -115 150c-60 0 -110 -45 -110 -45zM315 440v75s-55 35 -125 35
s-110 -40 -110 -90s40 -90 110 -90c75 0 125 70 125 70z" />
    <glyph glyph-name="guillemotleft" unicode="&#xab;" horiz-adv-x="390" 
d="M50 260l105 190h30l-105 -188v-4l105 -188h-30zM205 260l105 190h30l-105 -188v-4l105 -188h-30z" />
    <glyph glyph-name="logicalnot" unicode="&#xac;" horiz-adv-x="490" 
d="M440 400v-170h-30v150h-370v20h400z" />
    <glyph glyph-name="uni00AD" unicode="&#xad;" horiz-adv-x="480" 
d="M440 360v-25h-400v25h400z" />
    <glyph glyph-name="registered" unicode="&#xae;" horiz-adv-x="1050" 
d="M560 230h-145v-170h-30v410h170c80 0 135 -55 135 -120c0 -90 -95 -115 -95 -115v-5l115 -170h-35zM415 250h140c60 0 105 45 105 100s-45 100 -105 100h-140v-200zM975 270c0 -260 -200 -460 -450 -460s-450 200 -450 460s200 460 450 460s450 -200 450 -460zM945 270
c0 250 -190 440 -420 440s-420 -190 -420 -440s190 -440 420 -440s420 190 420 440z" />
    <glyph glyph-name="macron" unicode="&#xaf;" horiz-adv-x="370" 
d="M40 660v25h290v-25h-290z" />
    <glyph glyph-name="degree" unicode="&#xb0;" horiz-adv-x="420" 
d="M70 530c0 -85 65 -150 140 -150s140 65 140 150s-65 150 -140 150s-140 -65 -140 -150zM380 530c0 -95 -75 -170 -170 -170s-170 75 -170 170s75 170 170 170s170 -75 170 -170z" />
    <glyph glyph-name="plusminus" unicode="&#xb1;" horiz-adv-x="535" 
d="M485 115v-25h-435v25h205v235h-205v25h205v210h25v-210h205v-25h-205v-235h205z" />
    <glyph glyph-name="twosuperior" unicode="&#xb2;" horiz-adv-x="380" 
d="M305 600c0 -100 -190 -215 -190 -215v-5h200l-5 -20h-245v15s210 125 210 225c0 50 -40 90 -95 90c-60 0 -105 -45 -105 -45l-10 15s45 50 115 50c75 0 125 -50 125 -110z" />
    <glyph glyph-name="threesuperior" unicode="&#xb3;" horiz-adv-x="310" 
d="M265 700v-25l-125 -115h20c70 0 120 -50 120 -105s-50 -105 -135 -105c-70 0 -115 50 -115 50l10 15s45 -45 105 -45c65 0 105 40 105 85s-40 85 -90 85c-30 0 -55 -10 -55 -10l-10 15l140 130v5h-190v20h220z" />
    <glyph glyph-name="acute" unicode="&#xb4;" horiz-adv-x="220" 
d="M40 570l105 190h35l-120 -190h-20z" />
    <glyph glyph-name="mu" unicode="&#xb5;" 
d="M535 500v-380c0 -75 15 -120 15 -120h-30s-10 45 -10 90h-5s-80 -105 -200 -105c-125 0 -170 95 -170 95h-5v-280h-30v700h30v-320c0 -100 75 -175 175 -175c120 0 200 115 200 115v380h30z" />
    <glyph glyph-name="paragraph" unicode="&#xb6;" horiz-adv-x="564" 
d="M539 680h-104v-881h-30v881h-100v-881h-30v541c-110 0 -190 80 -190 180s80 180 190 180h269z" />
    <glyph glyph-name="periodcentered" unicode="&#xb7;" horiz-adv-x="240" 
d="M150 345c0 -15 -15 -30 -30 -30s-30 15 -30 30s15 30 30 30s30 -15 30 -30z" />
    <glyph glyph-name="cedilla" unicode="&#xb8;" horiz-adv-x="300" 
d="M165 0l-25 -70s120 0 120 -100c0 -55 -45 -100 -120 -100c-65 0 -100 40 -100 40l10 15s35 -35 90 -35s90 35 90 80s-35 80 -90 80h-30l30 90h25z" />
    <glyph glyph-name="onesuperior" unicode="&#xb9;" horiz-adv-x="225" 
d="M20 615l120 85h20v-340h-30v305h-5l-95 -65z" />
    <glyph glyph-name="ordmasculine" unicode="&#xba;" horiz-adv-x="411" 
d="M331 530c0 100 -61 160 -126 160s-125 -60 -125 -160s60 -160 125 -160s126 60 126 160zM50 530c0 110 70 180 155 180c86 0 156 -70 156 -180s-70 -180 -156 -180c-85 0 -155 70 -155 180z" />
    <glyph glyph-name="guillemotright" unicode="&#xbb;" horiz-adv-x="390" 
d="M235 450l105 -190l-105 -190h-30l105 188v4l-105 188h30zM80 450l105 -190l-105 -190h-30l105 188v4l-105 188h30z" />
    <glyph glyph-name="onequarter" unicode="&#xbc;" horiz-adv-x="820" 
d="M40 615l120 85h20v-340h-30v305h-5l-95 -65zM140 0l460 700h25l-460 -700h-25zM670 105v190h-5l-170 -185v-5h175zM465 85v25l210 230h25v-235h70l-5 -20h-65v-85h-30v85h-205z" />
    <glyph glyph-name="onehalf" unicode="&#xbd;" horiz-adv-x="855" 
d="M40 615l120 85h20v-340h-30v305h-5l-95 -65zM140 0l460 700h25l-460 -700h-25zM770 240c0 -100 -190 -215 -190 -215v-5h200l-5 -20h-245v15s210 125 210 225c0 50 -40 90 -95 90c-60 0 -105 -45 -105 -45l-10 15s45 50 115 50c75 0 125 -50 125 -110z" />
    <glyph glyph-name="threequarters" unicode="&#xbe;" horiz-adv-x="870" 
d="M275 700v-25l-125 -115h20c70 0 120 -50 120 -105s-50 -105 -135 -105c-70 0 -115 50 -115 50l10 15s45 -45 105 -45c65 0 105 40 105 85s-40 85 -90 85c-30 0 -55 -10 -55 -10l-10 15l140 130v5h-190v20h220zM190 0l460 700h25l-460 -700h-25zM720 105v190h-5l-170 -185
v-5h175zM515 85v25l210 230h25v-235h70l-5 -20h-65v-85h-30v85h-205z" />
    <glyph glyph-name="questiondown" unicode="&#xbf;" horiz-adv-x="535" 
d="M50 -10c0 200 225 240 225 240l10 110h10l10 -125s-225 -25 -225 -225c0 -105 85 -190 205 -190c140 0 215 115 215 115l15 -10s-80 -125 -230 -125c-140 0 -235 95 -235 210zM260 480c0 15 15 30 30 30s30 -15 30 -30s-15 -30 -30 -30s-30 15 -30 30z" />
    <glyph glyph-name="Agrave" unicode="&#xc0;" horiz-adv-x="700" 
d="M625 0l-85 200h-390l-85 -200h-25l300 700h20l300 -700h-35zM343 650l-183 -430h370l-183 430h-4zM245 970l105 -190h-20l-120 190h35z" />
    <glyph glyph-name="Aacute" unicode="&#xc1;" horiz-adv-x="700" 
d="M625 0l-85 200h-390l-85 -200h-25l300 700h20l300 -700h-35zM343 650l-183 -430h370l-183 430h-4zM350 780l105 190h35l-120 -190h-20z" />
    <glyph glyph-name="Acircumflex" unicode="&#xc2;" horiz-adv-x="700" 
d="M625 0l-85 200h-390l-85 -200h-25l300 700h20l300 -700h-35zM343 650l-183 -430h370l-183 430h-4zM488 775l-135 165h-5l-135 -165h-30l155 190h25l155 -190h-30z" />
    <glyph glyph-name="Atilde" unicode="&#xc3;" horiz-adv-x="700" 
d="M625 0l-85 200h-390l-85 -200h-25l300 700h20l300 -700h-35zM343 650l-183 -430h370l-183 430h-4zM210 800l-15 5s15 100 85 100c55 0 105 -85 150 -85c55 0 70 75 70 75l15 -5s-15 -100 -85 -100c-55 0 -105 85 -150 85c-55 0 -70 -75 -70 -75z" />
    <glyph glyph-name="Adieresis" unicode="&#xc4;" horiz-adv-x="700" 
d="M625 0l-85 200h-390l-85 -200h-25l300 700h20l300 -700h-35zM343 650l-183 -430h370l-183 430h-4zM280 860c0 -15 -15 -30 -30 -30s-30 15 -30 30s15 30 30 30s30 -15 30 -30zM470 860c0 -15 -15 -30 -30 -30s-30 15 -30 30s15 30 30 30s30 -15 30 -30z" />
    <glyph glyph-name="Aring" unicode="&#xc5;" horiz-adv-x="700" 
d="M625 0l-85 200h-390l-85 -200h-25l300 700h20l300 -700h-35zM343 650l-183 -430h370l-183 430h-4zM440 870c0 50 -40 90 -90 90s-90 -40 -90 -90s40 -90 90 -90s90 40 90 90zM235 870c0 60 50 110 115 110s115 -50 115 -110s-50 -110 -115 -110s-115 50 -115 110z" />
    <glyph glyph-name="AE" unicode="&#xc6;" horiz-adv-x="960" 
d="M30 0h-30l360 700h550l-5 -20h-375v-310h270l-5 -20h-265v-330h400v-20h-430v205h-363zM380 680l-233 -455h353v455h-120z" />
    <glyph glyph-name="Ccedilla" unicode="&#xc7;" horiz-adv-x="725" 
d="M680 145l15 -10s-80 -155 -285 -155l-19 -50s120 0 120 -100c0 -55 -45 -100 -120 -100c-65 0 -100 40 -100 40l10 15s35 -35 90 -35s90 35 90 80s-35 80 -90 80h-30l24 70c-180 10 -320 155 -320 370c0 220 150 370 345 370c185 0 270 -145 270 -145l-15 -10
s-80 135 -255 135s-315 -140 -315 -350s140 -350 315 -350c195 0 270 145 270 145z" />
    <glyph glyph-name="Egrave" unicode="&#xc8;" horiz-adv-x="615" 
d="M145 350v-330h440v-20h-470v700h450l-5 -20h-415v-310h310l-5 -20h-305zM255 980l105 -190h-20l-120 190h35z" />
    <glyph glyph-name="Eacute" unicode="&#xc9;" horiz-adv-x="615" 
d="M145 350v-330h440v-20h-470v700h450l-5 -20h-415v-310h310l-5 -20h-305zM320 790l105 190h35l-120 -190h-20z" />
    <glyph glyph-name="Ecircumflex" unicode="&#xca;" horiz-adv-x="615" 
d="M145 350v-330h440v-20h-470v700h450l-5 -20h-415v-310h310l-5 -20h-305zM478 790l-135 165h-5l-135 -165h-30l155 190h25l155 -190h-30z" />
    <glyph glyph-name="Edieresis" unicode="&#xcb;" horiz-adv-x="615" 
d="M145 350v-330h440v-20h-470v700h450l-5 -20h-415v-310h310l-5 -20h-305zM285 860c0 -15 -15 -30 -30 -30s-30 15 -30 30s15 30 30 30s30 -15 30 -30zM475 860c0 -15 -15 -30 -30 -30s-30 15 -30 30s15 30 30 30s30 -15 30 -30z" />
    <glyph glyph-name="Igrave" unicode="&#xcc;" horiz-adv-x="260" 
d="M145 700v-700h-30v700h30zM35 970l105 -190h-20l-120 190h35z" />
    <glyph glyph-name="Iacute" unicode="&#xcd;" horiz-adv-x="260" 
d="M145 700v-700h-30v700h30zM120 780l105 190h35l-120 -190h-20z" />
    <glyph glyph-name="Icircumflex" unicode="&#xce;" horiz-adv-x="255" 
d="M145 700v-700h-30v700h30zM265 780l-135 165h-5l-135 -165h-30l155 190h25l155 -190h-30z" />
    <glyph glyph-name="Idieresis" unicode="&#xcf;" horiz-adv-x="250" 
d="M140 700v-700h-30v700h30zM50 860c0 -15 -15 -30 -30 -30s-30 15 -30 30s15 30 30 30s30 -15 30 -30zM240 860c0 -15 -15 -30 -30 -30s-30 15 -30 30s15 30 30 30s30 -15 30 -30z" />
    <glyph glyph-name="Eth" unicode="&#xd0;" horiz-adv-x="745" 
d="M130 700h175c225 0 375 -150 375 -350s-150 -350 -375 -350h-175v340h-100v20h100v340zM305 680h-145v-320h206v-20h-206v-320h145c205 0 345 140 345 330s-140 330 -345 330z" />
    <glyph glyph-name="Ntilde" unicode="&#xd1;" horiz-adv-x="760" 
d="M135 660v-660h-20v700h30l475 -660h5v660h20v-700h-30l-475 660h-5zM240 810l-15 5s15 100 85 100c55 0 105 -85 150 -85c55 0 70 75 70 75l15 -5s-15 -100 -85 -100c-55 0 -105 85 -150 85c-55 0 -70 -75 -70 -75z" />
    <glyph glyph-name="Ograve" unicode="&#xd2;" horiz-adv-x="820" 
d="M65 350c0 220 150 370 345 370s345 -150 345 -370s-150 -370 -345 -370s-345 150 -345 370zM725 350c0 210 -140 350 -315 350s-315 -140 -315 -350s140 -350 315 -350s315 140 315 350zM315 980l105 -190h-20l-120 190h35z" />
    <glyph glyph-name="Oacute" unicode="&#xd3;" horiz-adv-x="820" 
d="M65 350c0 220 150 370 345 370s345 -150 345 -370s-150 -370 -345 -370s-345 150 -345 370zM725 350c0 210 -140 350 -315 350s-315 -140 -315 -350s140 -350 315 -350s315 140 315 350zM390 790l105 190h35l-120 -190h-20z" />
    <glyph glyph-name="Ocircumflex" unicode="&#xd4;" horiz-adv-x="820" 
d="M65 350c0 220 150 370 345 370s345 -150 345 -370s-150 -370 -345 -370s-345 150 -345 370zM725 350c0 210 -140 350 -315 350s-315 -140 -315 -350s140 -350 315 -350s315 140 315 350zM558 790l-135 165h-5l-135 -165h-30l155 190h25l155 -190h-30z" />
    <glyph glyph-name="Otilde" unicode="&#xd5;" horiz-adv-x="820" 
d="M65 350c0 220 150 370 345 370s345 -150 345 -370s-150 -370 -345 -370s-345 150 -345 370zM725 350c0 210 -140 350 -315 350s-315 -140 -315 -350s140 -350 315 -350s315 140 315 350zM270 820l-15 5s15 100 85 100c55 0 105 -85 150 -85c55 0 70 75 70 75l15 -5
s-15 -100 -85 -100c-55 0 -105 85 -150 85c-55 0 -70 -75 -70 -75z" />
    <glyph glyph-name="Odieresis" unicode="&#xd6;" horiz-adv-x="820" 
d="M65 350c0 220 150 370 345 370s345 -150 345 -370s-150 -370 -345 -370s-345 150 -345 370zM725 350c0 210 -140 350 -315 350s-315 -140 -315 -350s140 -350 315 -350s315 140 315 350zM335 860c0 -15 -15 -30 -30 -30s-30 15 -30 30s15 30 30 30s30 -15 30 -30z
M525 860c0 -15 -15 -30 -30 -30s-30 15 -30 30s15 30 30 30s30 -15 30 -30z" />
    <glyph glyph-name="multiply" unicode="&#xd7;" horiz-adv-x="460" 
d="M230 375l145 145l20 -15l-150 -150l150 -150l-20 -15l-145 145l-145 -145l-20 15l150 150l-150 150l20 15z" />
    <glyph glyph-name="Oslash" unicode="&#xd8;" horiz-adv-x="820" 
d="M65 350c0 220 150 370 345 370c98 0 183 -39 245 -105l85 85h30l-100 -100c53 -63 85 -150 85 -250c0 -220 -150 -370 -345 -370c-99 0 -183 39 -245 105l-85 -85h-30l100 100c-53 64 -85 149 -85 250zM95 350c0 -93 25 -170 70 -230l475 475c-58 65 -140 105 -230 105
c-175 0 -315 -140 -315 -350zM725 350c0 92 -24 171 -70 230l-475 -475c57 -65 139 -105 230 -105c175 0 315 140 315 350z" />
    <glyph glyph-name="Ugrave" unicode="&#xd9;" horiz-adv-x="760" 
d="M380 0c145 0 245 100 245 260v440h20v-440c0 -170 -110 -280 -265 -280s-265 110 -265 280v440h30v-440c0 -160 100 -260 235 -260zM315 970l105 -190h-20l-120 190h35z" />
    <glyph glyph-name="Uacute" unicode="&#xda;" horiz-adv-x="760" 
d="M380 0c145 0 245 100 245 260v440h20v-440c0 -170 -110 -280 -265 -280s-265 110 -265 280v440h30v-440c0 -160 100 -260 235 -260zM360 780l105 190h35l-120 -190h-20z" />
    <glyph glyph-name="Ucircumflex" unicode="&#xdb;" horiz-adv-x="760" 
d="M380 0c145 0 245 100 245 260v440h20v-440c0 -170 -110 -280 -265 -280s-265 110 -265 280v440h30v-440c0 -160 100 -260 235 -260zM518 780l-135 165h-5l-135 -165h-30l155 190h25l155 -190h-30z" />
    <glyph glyph-name="Udieresis" unicode="&#xdc;" horiz-adv-x="760" 
d="M380 0c145 0 245 100 245 260v440h20v-440c0 -170 -110 -280 -265 -280s-265 110 -265 280v440h30v-440c0 -160 100 -260 235 -260zM315 860c0 -15 -15 -30 -30 -30s-30 15 -30 30s15 30 30 30s30 -15 30 -30zM505 860c0 -15 -15 -30 -30 -30s-30 15 -30 30s15 30 30 30
s30 -15 30 -30z" />
    <glyph glyph-name="Yacute" unicode="&#xdd;" horiz-adv-x="610" 
d="M320 240v-240h-30v240l-270 460h35l253 -430h4l253 430h25zM295 780l105 190h35l-120 -190h-20z" />
    <glyph glyph-name="Thorn" unicode="&#xde;" horiz-adv-x="705" 
d="M145 630v-560h120c230 0 345 115 345 280s-115 280 -345 280h-120zM115 -40v790h30v-100h120c245 0 375 -130 375 -300s-130 -300 -375 -300h-120v-90h-30z" />
    <glyph glyph-name="Germandbls" unicode="&#xdf;" horiz-adv-x="685" 
d="M420 -20c-65 0 -120 35 -120 35l5 20s50 -35 115 -35c115 0 185 70 185 179c0 211 -265 211 -265 211v20l195 265v5h-160c-150 0 -240 -90 -240 -230v-450h-30v450c0 150 100 250 270 250h190v-20l-195 -265v-5s265 -10 265 -230c0 -120 -80 -200 -215 -200z" />
    <glyph glyph-name="agrave" unicode="&#xe0;" horiz-adv-x="565" 
d="M475 305v-185c0 -75 15 -120 15 -120h-30s-10 45 -10 90h-5s-80 -105 -200 -105c-130 0 -200 70 -200 165s70 165 200 165c100 0 200 -50 200 -50v40c0 120 -70 190 -180 190c-100 0 -160 -75 -160 -75l-15 10s65 85 175 85c130 0 210 -80 210 -210zM245 5
c120 0 200 115 200 115v120s-100 55 -200 55c-110 0 -170 -60 -170 -145s60 -145 170 -145zM195 780l105 -190h-20l-120 190h35z" />
    <glyph glyph-name="aacute" unicode="&#xe1;" horiz-adv-x="565" 
d="M475 305v-185c0 -75 15 -120 15 -120h-30s-10 45 -10 90h-5s-80 -105 -200 -105c-130 0 -200 70 -200 165s70 165 200 165c100 0 200 -50 200 -50v40c0 120 -70 190 -180 190c-100 0 -160 -75 -160 -75l-15 10s65 85 175 85c130 0 210 -80 210 -210zM245 5
c120 0 200 115 200 115v120s-100 55 -200 55c-110 0 -170 -60 -170 -145s60 -145 170 -145zM270 590l105 190h35l-120 -190h-20z" />
    <glyph glyph-name="acircumflex" unicode="&#xe2;" horiz-adv-x="565" 
d="M475 305v-185c0 -75 15 -120 15 -120h-30s-10 45 -10 90h-5s-80 -105 -200 -105c-130 0 -200 70 -200 165s70 165 200 165c100 0 200 -50 200 -50v40c0 120 -70 190 -180 190c-100 0 -160 -75 -160 -75l-15 10s65 85 175 85c130 0 210 -80 210 -210zM245 5
c120 0 200 115 200 115v120s-100 55 -200 55c-110 0 -170 -60 -170 -145s60 -145 170 -145zM418 590l-135 165h-5l-135 -165h-30l155 190h25l155 -190h-30z" />
    <glyph glyph-name="atilde" unicode="&#xe3;" horiz-adv-x="560" 
d="M475 305v-185c0 -75 15 -120 15 -120h-30s-10 45 -10 90h-5s-80 -105 -200 -105c-130 0 -200 70 -200 165s70 165 200 165c100 0 200 -50 200 -50v40c0 120 -70 190 -180 190c-100 0 -160 -75 -160 -75l-15 10s65 85 175 85c130 0 210 -80 210 -210zM245 5
c120 0 200 115 200 115v120s-100 55 -200 55c-110 0 -170 -60 -170 -145s60 -145 170 -145zM130 620l-15 5s15 100 85 100c55 0 105 -85 150 -85c55 0 70 75 70 75l15 -5s-15 -100 -85 -100c-55 0 -105 85 -150 85c-55 0 -70 -75 -70 -75z" />
    <glyph glyph-name="adieresis" unicode="&#xe4;" horiz-adv-x="565" 
d="M475 305v-185c0 -75 15 -120 15 -120h-30s-10 45 -10 90h-5s-80 -105 -200 -105c-130 0 -200 70 -200 165s70 165 200 165c100 0 200 -50 200 -50v40c0 120 -70 190 -180 190c-100 0 -160 -75 -160 -75l-15 10s65 85 175 85c130 0 210 -80 210 -210zM245 5
c120 0 200 115 200 115v120s-100 55 -200 55c-110 0 -170 -60 -170 -145s60 -145 170 -145zM205 660c0 -15 -15 -30 -30 -30s-30 15 -30 30s15 30 30 30s30 -15 30 -30zM395 660c0 -15 -15 -30 -30 -30s-30 15 -30 30s15 30 30 30s30 -15 30 -30z" />
    <glyph glyph-name="aring" unicode="&#xe5;" horiz-adv-x="565" 
d="M475 305v-185c0 -75 15 -120 15 -120h-30s-10 45 -10 90h-5s-80 -105 -200 -105c-130 0 -200 70 -200 165s70 165 200 165c100 0 200 -50 200 -50v40c0 120 -70 190 -180 190c-100 0 -160 -75 -160 -75l-15 10s65 85 175 85c130 0 210 -80 210 -210zM245 5
c120 0 200 115 200 115v120s-100 55 -200 55c-110 0 -170 -60 -170 -145s60 -145 170 -145zM375 700c0 50 -40 90 -90 90s-90 -40 -90 -90s40 -90 90 -90s90 40 90 90zM170 700c0 60 50 110 115 110s115 -50 115 -110s-50 -110 -115 -110s-115 50 -115 110z" />
    <glyph glyph-name="ae" unicode="&#xe6;" horiz-adv-x="930" 
d="M460 360h5c30 90 95 155 200 155c120 0 220 -100 220 -255c0 -10 -5 -20 -5 -20h-405c0 -150 85 -235 200 -235c120 0 175 105 175 105l15 -10s-60 -115 -190 -115c-115 0 -180 65 -210 155h-5s-65 -155 -215 -155c-130 0 -200 70 -200 165s70 165 200 165
c100 0 200 -50 200 -50v40c0 120 -70 190 -180 190c-100 0 -160 -75 -160 -75l-15 10s65 85 175 85c180 0 195 -155 195 -155zM245 5c130 0 200 150 200 150v85s-100 55 -200 55c-110 0 -170 -60 -170 -145c0 -90 65 -145 170 -145zM665 495c-100 0 -190 -90 -190 -235h380
c0 145 -90 235 -190 235z" />
    <glyph glyph-name="ccedilla" unicode="&#xe7;" horiz-adv-x="530" 
d="M490 420l-15 -10s-65 85 -175 85c-120 0 -220 -100 -220 -245s100 -245 220 -245c130 0 195 105 195 105l15 -10s-65 -110 -200 -115l-20 -55s120 0 120 -100c0 -55 -45 -100 -120 -100c-65 0 -100 40 -100 40l10 15s35 -35 90 -35s90 35 90 80s-35 80 -90 80h-30l25 75
c-130 5 -235 115 -235 265c0 155 110 265 250 265c120 0 190 -95 190 -95z" />
    <glyph glyph-name="egrave" unicode="&#xe8;" horiz-adv-x="575" 
d="M525 240h-445c0 -135 100 -235 220 -235c130 0 195 105 195 105l15 -10s-70 -115 -210 -115s-250 110 -250 265s110 265 240 265s240 -110 240 -255c0 -10 -5 -20 -5 -20zM80 260h420c0 135 -100 235 -210 235s-210 -100 -210 -235zM195 780l105 -190h-20l-120 190h35z
" />
    <glyph glyph-name="eacute" unicode="&#xe9;" horiz-adv-x="575" 
d="M525 240h-445c0 -135 100 -235 220 -235c130 0 195 105 195 105l15 -10s-70 -115 -210 -115s-250 110 -250 265s110 265 240 265s240 -110 240 -255c0 -10 -5 -20 -5 -20zM80 260h420c0 135 -100 235 -210 235s-210 -100 -210 -235zM290 590l105 190h35l-120 -190h-20z
" />
    <glyph glyph-name="ecircumflex" unicode="&#xea;" horiz-adv-x="575" 
d="M525 240h-445c0 -135 100 -235 220 -235c130 0 195 105 195 105l15 -10s-70 -115 -210 -115s-250 110 -250 265s110 265 240 265s240 -110 240 -255c0 -10 -5 -20 -5 -20zM80 260h420c0 135 -100 235 -210 235s-210 -100 -210 -235zM433 590l-135 165h-5l-135 -165h-30
l155 190h25l155 -190h-30z" />
    <glyph glyph-name="edieresis" unicode="&#xeb;" horiz-adv-x="575" 
d="M525 240h-445c0 -135 100 -235 220 -235c130 0 195 105 195 105l15 -10s-70 -115 -210 -115s-250 110 -250 265s110 265 240 265s240 -110 240 -255c0 -10 -5 -20 -5 -20zM80 260h420c0 135 -100 235 -210 235s-210 -100 -210 -235zM225 670c0 -15 -15 -30 -30 -30
s-30 15 -30 30s15 30 30 30s30 -15 30 -30zM415 670c0 -15 -15 -30 -30 -30s-30 15 -30 30s15 30 30 30s30 -15 30 -30z" />
    <glyph glyph-name="igrave" unicode="&#xec;" horiz-adv-x="225" 
d="M125 500v-500h-30v500h30zM15 780l105 -190h-20l-120 190h35z" />
    <glyph glyph-name="iacute" unicode="&#xed;" horiz-adv-x="225" 
d="M130 500v-500h-30v500h30zM105 590l105 190h35l-120 -190h-20z" />
    <glyph glyph-name="icircumflex" unicode="&#xee;" horiz-adv-x="255" 
d="M142 500v-500h-30v500h30zM265 590l-135 165h-5l-135 -165h-30l155 190h25l155 -190h-30z" />
    <glyph glyph-name="idieresis" unicode="&#xef;" horiz-adv-x="230" 
d="M130 500v-500h-30v500h30zM40 670c0 -15 -15 -30 -30 -30s-30 15 -30 30s15 30 30 30s30 -15 30 -30zM230 670c0 -15 -15 -30 -30 -30s-30 15 -30 30s15 30 30 30s30 -15 30 -30z" />
    <glyph glyph-name="eth" unicode="&#xf0;" horiz-adv-x="595" 
d="M490 370h5c-45 200 -195 295 -195 295l-60 -85l-20 15l60 85l-95 75l15 20l95 -75l60 80l21 -15l-61 -80s215 -135 215 -425c0 -170 -105 -275 -245 -275s-245 105 -245 245s105 245 245 245s205 -105 205 -105zM70 230c0 -130 95 -225 215 -225s215 95 215 225
s-95 225 -215 225s-215 -95 -215 -225z" />
    <glyph glyph-name="ntilde" unicode="&#xf1;" horiz-adv-x="625" 
d="M100 0v380c0 75 -15 120 -15 120h30s10 -45 10 -90h5s80 105 200 105c125 0 205 -80 205 -195v-320h-30v320c0 100 -75 175 -175 175c-120 0 -200 -115 -200 -115v-380h-30zM175 630l-15 5s15 100 85 100c55 0 105 -85 150 -85c55 0 70 75 70 75l15 -5s-15 -100 -85 -100
c-55 0 -105 85 -150 85c-55 0 -70 -75 -70 -75z" />
    <glyph glyph-name="ograve" unicode="&#xf2;" horiz-adv-x="600" 
d="M520 250c0 145 -100 245 -220 245s-220 -100 -220 -245s100 -245 220 -245s220 100 220 245zM50 250c0 155 110 265 250 265s250 -110 250 -265s-110 -265 -250 -265s-250 110 -250 265zM205 790l105 -190h-20l-120 190h35z" />
    <glyph glyph-name="oacute" unicode="&#xf3;" horiz-adv-x="600" 
d="M520 250c0 145 -100 245 -220 245s-220 -100 -220 -245s100 -245 220 -245s220 100 220 245zM50 250c0 155 110 265 250 265s250 -110 250 -265s-110 -265 -250 -265s-250 110 -250 265zM270 600l105 190h35l-120 -190h-20z" />
    <glyph glyph-name="ocircumflex" unicode="&#xf4;" horiz-adv-x="600" 
d="M520 250c0 145 -100 245 -220 245s-220 -100 -220 -245s100 -245 220 -245s220 100 220 245zM50 250c0 155 110 265 250 265s250 -110 250 -265s-110 -265 -250 -265s-250 110 -250 265zM438 600l-135 165h-5l-135 -165h-30l155 190h25l155 -190h-30z" />
    <glyph glyph-name="otilde" unicode="&#xf5;" horiz-adv-x="600" 
d="M520 250c0 145 -100 245 -220 245s-220 -100 -220 -245s100 -245 220 -245s220 100 220 245zM50 250c0 155 110 265 250 265s250 -110 250 -265s-110 -265 -250 -265s-250 110 -250 265zM160 630l-15 5s15 100 85 100c55 0 105 -85 150 -85c55 0 70 75 70 75l15 -5
s-15 -100 -85 -100c-55 0 -105 85 -150 85c-55 0 -70 -75 -70 -75z" />
    <glyph glyph-name="odieresis" unicode="&#xf6;" horiz-adv-x="600" 
d="M520 250c0 145 -100 245 -220 245s-220 -100 -220 -245s100 -245 220 -245s220 100 220 245zM50 250c0 155 110 265 250 265s250 -110 250 -265s-110 -265 -250 -265s-250 110 -250 265zM225 670c0 -15 -15 -30 -30 -30s-30 15 -30 30s15 30 30 30s30 -15 30 -30z
M415 670c0 -15 -15 -30 -30 -30s-30 15 -30 30s15 30 30 30s30 -15 30 -30z" />
    <glyph glyph-name="divide" unicode="&#xf7;" horiz-adv-x="480" 
d="M440 365v-25h-400v25h400zM270 150c0 -15 -15 -30 -30 -30s-30 15 -30 30s15 30 30 30s30 -15 30 -30zM270 555c0 -15 -15 -30 -30 -30s-30 15 -30 30s15 30 30 30s30 -15 30 -30z" />
    <glyph glyph-name="oslash" unicode="&#xf8;" horiz-adv-x="610" 
d="M55 250c0 155 110 265 250 265c67 0 128 -26 172 -70l63 65h30l-79 -80c40 -46 64 -108 64 -180c0 -155 -110 -265 -250 -265c-70 0 -133 27 -178 74l-58 -59h-29l73 75c-36 45 -58 106 -58 175zM525 250c0 64 -20 119 -52 161l-328 -333c41 -46 97 -73 160 -73
c120 0 220 100 220 245zM85 250c0 -61 18 -115 47 -156l327 333c-40 43 -94 68 -154 68c-120 0 -220 -100 -220 -245z" />
    <glyph glyph-name="ugrave" unicode="&#xf9;" 
d="M535 500v-380c0 -75 15 -120 15 -120h-30s-10 45 -10 90h-5s-80 -105 -200 -105c-125 0 -205 80 -205 195v320h30v-320c0 -100 75 -175 175 -175c120 0 200 115 200 115v380h30zM240 790l105 -190h-20l-120 190h35z" />
    <glyph glyph-name="uacute" unicode="&#xfa;" 
d="M535 500v-380c0 -75 15 -120 15 -120h-30s-10 45 -10 90h-5s-80 -105 -200 -105c-125 0 -205 80 -205 195v320h30v-320c0 -100 75 -175 175 -175c120 0 200 115 200 115v380h30zM295 600l105 190h35l-120 -190h-20z" />
    <glyph glyph-name="ucircumflex" unicode="&#xfb;" 
d="M535 500v-380c0 -75 15 -120 15 -120h-30s-10 45 -10 90h-5s-80 -105 -200 -105c-125 0 -205 80 -205 195v320h30v-320c0 -100 75 -175 175 -175c120 0 200 115 200 115v380h30zM463 600l-135 165h-5l-135 -165h-30l155 190h25l155 -190h-30z" />
    <glyph glyph-name="udieresis" unicode="&#xfc;" 
d="M535 500v-380c0 -75 15 -120 15 -120h-30s-10 45 -10 90h-5s-80 -105 -200 -105c-125 0 -205 80 -205 195v320h30v-320c0 -100 75 -175 175 -175c120 0 200 115 200 115v380h30zM250 670c0 -15 -15 -30 -30 -30s-30 15 -30 30s15 30 30 30s30 -15 30 -30zM440 670
c0 -15 -15 -30 -30 -30s-30 15 -30 30s15 30 30 30s30 -15 30 -30z" />
    <glyph glyph-name="yacute" unicode="&#xfd;" 
d="M505 10v85h-5s-75 -100 -195 -100c-125 0 -205 80 -205 195v310h30v-310c0 -100 75 -175 175 -175c120 0 200 115 200 115v370h30v-490c0 -135 -95 -230 -240 -230c-130 0 -190 95 -190 95l15 10s55 -85 175 -85c125 0 210 85 210 210zM295 600l105 190h35l-120 -190h-20
z" />
    <glyph glyph-name="thorn" unicode="&#xfe;" 
d="M135 85h-5v-285h-30v900h30v-285h5s75 100 195 100c145 0 255 -110 255 -265s-110 -265 -255 -265c-120 0 -195 100 -195 100zM330 5c125 0 225 100 225 245s-100 245 -225 245c-120 0 -200 -115 -200 -115v-260s80 -115 200 -115z" />
    <glyph glyph-name="ydieresis" unicode="&#xff;" 
d="M505 10v85h-5s-75 -100 -195 -100c-125 0 -205 80 -205 195v310h30v-310c0 -100 75 -175 175 -175c120 0 200 115 200 115v370h30v-490c0 -135 -95 -230 -240 -230c-130 0 -190 95 -190 95l15 10s55 -85 175 -85c125 0 210 85 210 210zM250 680c0 -15 -15 -30 -30 -30
s-30 15 -30 30s15 30 30 30s30 -15 30 -30zM440 680c0 -15 -15 -30 -30 -30s-30 15 -30 30s15 30 30 30s30 -15 30 -30z" />
    <glyph glyph-name="Amacron" unicode="&#x100;" horiz-adv-x="700" 
d="M625 0l-85 200h-390l-85 -200h-25l300 700h20l300 -700h-35zM343 650l-183 -430h370l-183 430h-4zM205 830v25h290v-25h-290z" />
    <glyph glyph-name="amacron" unicode="&#x101;" horiz-adv-x="565" 
d="M475 305v-185c0 -75 15 -120 15 -120h-30s-10 45 -10 90h-5s-80 -105 -200 -105c-130 0 -200 70 -200 165s70 165 200 165c100 0 200 -50 200 -50v40c0 120 -70 190 -180 190c-100 0 -160 -75 -160 -75l-15 10s65 85 175 85c130 0 210 -80 210 -210zM245 5
c120 0 200 115 200 115v120s-100 55 -200 55c-110 0 -170 -60 -170 -145s60 -145 170 -145zM135 650v25h290v-25h-290z" />
    <glyph glyph-name="Abreve" unicode="&#x102;" horiz-adv-x="700" 
d="M625 0l-85 200h-390l-85 -200h-25l300 700h20l300 -700h-35zM343 650l-183 -430h370l-183 430h-4zM345 820c95 0 140 95 140 95l15 -5s-40 -120 -155 -120s-155 120 -155 120l15 5s45 -95 140 -95z" />
    <glyph glyph-name="abreve" unicode="&#x103;" horiz-adv-x="565" 
d="M475 305v-185c0 -75 15 -120 15 -120h-30s-10 45 -10 90h-5s-80 -105 -200 -105c-130 0 -200 70 -200 165s70 165 200 165c100 0 200 -50 200 -50v40c0 120 -70 190 -180 190c-100 0 -160 -75 -160 -75l-15 10s65 85 175 85c130 0 210 -80 210 -210zM245 5
c120 0 200 115 200 115v120s-100 55 -200 55c-110 0 -170 -60 -170 -145s60 -145 170 -145zM285 630c95 0 140 95 140 95l15 -5s-40 -120 -155 -120s-155 120 -155 120l15 5s45 -95 140 -95z" />
    <glyph glyph-name="Aogonek" unicode="&#x104;" horiz-adv-x="690" 
d="M625 0l-85 200h-390l-85 -200h-25l300 700h20l300 -700s-120 -70 -120 -150c0 -49 40 -90 90 -90c45 0 80 25 80 25l10 -15s-35 -30 -90 -30c-70 0 -120 50 -120 110c0 80 130 150 130 150h-15zM343 650l-183 -430h370l-183 430h-4z" />
    <glyph glyph-name="aogonek" unicode="&#x105;" horiz-adv-x="570" 
d="M470 0h-10s-10 45 -10 90h-5s-80 -105 -200 -105c-130 0 -200 70 -200 165s70 165 200 165c100 0 200 -50 200 -50v40c0 120 -70 190 -180 190c-100 0 -160 -75 -160 -75l-15 10s65 85 175 85c130 0 210 -80 210 -210v-185c0 -75 15 -120 15 -120s-120 -70 -120 -150
c0 -49 40 -90 90 -90c45 0 80 25 80 25l10 -15s-35 -30 -90 -30c-70 0 -120 50 -120 110c0 80 130 150 130 150zM245 5c120 0 200 115 200 115v120s-100 55 -200 55c-110 0 -170 -60 -170 -145s60 -145 170 -145z" />
    <glyph glyph-name="Cacute" unicode="&#x106;" horiz-adv-x="725" 
d="M680 145l15 -10s-80 -155 -285 -155c-195 0 -345 150 -345 370s150 370 345 370c185 0 270 -145 270 -145l-15 -10s-80 135 -255 135s-315 -140 -315 -350s140 -350 315 -350c195 0 270 145 270 145zM380 790l105 190h35l-120 -190h-20z" />
    <glyph glyph-name="cacute" unicode="&#x107;" horiz-adv-x="530" 
d="M490 420l-15 -10s-65 85 -175 85c-120 0 -220 -100 -220 -245s100 -245 220 -245c130 0 195 105 195 105l15 -10s-70 -115 -210 -115s-250 110 -250 265s110 265 250 265c120 0 190 -95 190 -95zM265 590l105 190h35l-120 -190h-20z" />
    <glyph glyph-name="Ccircumflex" unicode="&#x108;" horiz-adv-x="725" 
d="M680 145l15 -10s-80 -155 -285 -155c-195 0 -345 150 -345 370s150 370 345 370c185 0 270 -145 270 -145l-15 -10s-80 135 -255 135s-315 -140 -315 -350s140 -350 315 -350c195 0 270 145 270 145zM548 790l-135 165h-5l-135 -165h-30l155 190h25l155 -190h-30z" />
    <glyph glyph-name="ccircumflex" unicode="&#x109;" horiz-adv-x="530" 
d="M490 420l-15 -10s-65 85 -175 85c-120 0 -220 -100 -220 -245s100 -245 220 -245c130 0 195 105 195 105l15 -10s-70 -115 -210 -115s-250 110 -250 265s110 265 250 265c120 0 190 -95 190 -95zM423 590l-135 165h-5l-135 -165h-30l155 190h25l155 -190h-30z" />
    <glyph glyph-name="Ccaron" unicode="&#x10c;" horiz-adv-x="725" 
d="M680 145l15 -10s-80 -155 -285 -155c-195 0 -345 150 -345 370s150 370 345 370c185 0 270 -145 270 -145l-15 -10s-80 135 -255 135s-315 -140 -315 -350s140 -350 315 -350c195 0 270 145 270 145zM263 980l135 -165h5l135 165h30l-155 -190h-25l-155 190h30z" />
    <glyph glyph-name="ccaron" unicode="&#x10d;" horiz-adv-x="530" 
d="M490 420l-15 -10s-65 85 -175 85c-120 0 -220 -100 -220 -245s100 -245 220 -245c130 0 195 105 195 105l15 -10s-70 -115 -210 -115s-250 110 -250 265s110 265 250 265c120 0 190 -95 190 -95zM148 780l135 -165h5l135 165h30l-155 -190h-25l-155 190h30z" />
    <glyph glyph-name="Dcaron" unicode="&#x10e;" horiz-adv-x="730" 
d="M115 700h175c225 0 375 -150 375 -350s-150 -350 -375 -350h-175v700zM290 680h-145v-660h145c205 0 345 140 345 330s-140 330 -345 330zM183 980l135 -165h5l135 165h30l-155 -190h-25l-155 190h30z" />
    <glyph glyph-name="dcaron" unicode="&#x10f;" horiz-adv-x="685" 
d="M655 640c-15 0 -30 15 -30 30s15 30 30 30s30 -15 30 -35c0 -75 -65 -115 -65 -115l-10 15s45 35 45 75zM500 415h5v305h30v-600c0 -75 15 -120 15 -120h-30s-10 45 -10 90h-5s-80 -105 -200 -105c-145 0 -255 110 -255 265s110 265 255 265c120 0 195 -100 195 -100z
M305 5c120 0 200 115 200 115v260s-80 115 -200 115c-125 0 -225 -100 -225 -245s100 -245 225 -245z" />
    <glyph glyph-name="Dcroat" unicode="&#x110;" horiz-adv-x="745" 
d="M130 700h175c225 0 375 -150 375 -350s-150 -350 -375 -350h-175v340h-100v20h100v340zM305 680h-145v-320h206v-20h-206v-320h145c205 0 345 140 345 330s-140 330 -345 330z" />
    <glyph glyph-name="dcroat" unicode="&#x111;" 
d="M490 375h5v215h-190v20h190v110h30v-110h110v-20h-110v-470c0 -75 15 -120 15 -120h-30s-10 45 -10 90h-5s-80 -105 -200 -105c-150 0 -245 95 -245 245s95 245 245 245c120 0 195 -100 195 -100zM295 455c-130 0 -215 -85 -215 -225s85 -225 215 -225
c120 0 200 115 200 115v220s-80 115 -200 115z" />
    <glyph glyph-name="Emacron" unicode="&#x112;" horiz-adv-x="615" 
d="M145 350v-330h440v-20h-470v700h450l-5 -20h-415v-310h310l-5 -20h-305zM195 840v25h290v-25h-290z" />
    <glyph glyph-name="emacron" unicode="&#x113;" horiz-adv-x="575" 
d="M525 240h-445c0 -135 100 -235 220 -235c130 0 195 105 195 105l15 -10s-70 -115 -210 -115s-250 110 -250 265s110 265 240 265s240 -110 240 -255c0 -10 -5 -20 -5 -20zM80 260h420c0 135 -100 235 -210 235s-210 -100 -210 -235zM155 650v25h290v-25h-290z" />
    <glyph glyph-name="Edotaccent" unicode="&#x116;" horiz-adv-x="615" 
d="M145 350v-330h440v-20h-470v700h450l-5 -20h-415v-310h310l-5 -20h-305zM370 850c0 -15 -15 -30 -30 -30s-30 15 -30 30s15 30 30 30s30 -15 30 -30z" />
    <glyph glyph-name="edotaccent" unicode="&#x117;" horiz-adv-x="575" 
d="M525 240h-445c0 -135 100 -235 220 -235c130 0 195 105 195 105l15 -10s-70 -115 -210 -115s-250 110 -250 265s110 265 240 265s240 -110 240 -255c0 -10 -5 -20 -5 -20zM80 260h420c0 135 -100 235 -210 235s-210 -100 -210 -235zM320 670c0 -15 -15 -30 -30 -30
s-30 15 -30 30s15 30 30 30s30 -15 30 -30z" />
    <glyph glyph-name="Eogonek" unicode="&#x118;" horiz-adv-x="605" 
d="M565 0h-450v700h450l-5 -20h-415v-310h310l-5 -20h-305v-330h440v-20s-120 -70 -120 -150c0 -49 40 -90 90 -90c45 0 80 25 80 25l10 -15s-35 -30 -90 -30c-70 0 -120 50 -120 110c0 80 130 150 130 150z" />
    <glyph glyph-name="eogonek" unicode="&#x119;" horiz-adv-x="575" 
d="M525 240h-445c0 -135 100 -235 220 -235c130 0 195 105 195 105l15 -10s-43 -69 -126 -100h1s-120 -70 -120 -150c0 -49 40 -90 90 -90c45 0 80 25 80 25l10 -15s-35 -30 -90 -30c-70 0 -120 50 -120 110c0 62 76 117 112 140c-15 -3 -30 -5 -47 -5
c-140 0 -250 110 -250 265s110 265 240 265s240 -110 240 -255c0 -10 -5 -20 -5 -20zM80 260h420c0 135 -100 235 -210 235s-210 -100 -210 -235z" />
    <glyph glyph-name="Ecaron" unicode="&#x11a;" horiz-adv-x="615" 
d="M145 350v-330h440v-20h-470v700h450l-5 -20h-415v-310h310l-5 -20h-305zM203 980l135 -165h5l135 165h30l-155 -190h-25l-155 190h30z" />
    <glyph glyph-name="ecaron" unicode="&#x11b;" horiz-adv-x="575" 
d="M525 240h-445c0 -135 100 -235 220 -235c130 0 195 105 195 105l15 -10s-70 -115 -210 -115s-250 110 -250 265s110 265 240 265s240 -110 240 -255c0 -10 -5 -20 -5 -20zM80 260h420c0 135 -100 235 -210 235s-210 -100 -210 -235zM153 780l135 -165h5l135 165h30
l-155 -190h-25l-155 190h30z" />
    <glyph glyph-name="Gbreve" unicode="&#x11e;" horiz-adv-x="790" 
d="M670 95h-5s-80 -115 -255 -115c-195 0 -345 150 -345 370s150 370 345 370c185 0 270 -145 270 -145l-15 -10s-80 135 -255 135s-315 -140 -315 -350s140 -350 315 -350s255 125 255 125v215h-225v20h255v-360h-15zM405 830c95 0 140 95 140 95l15 -5s-40 -120 -155 -120
s-155 120 -155 120l15 5s45 -95 140 -95z" />
    <glyph glyph-name="gbreve" unicode="&#x11f;" 
d="M505 10v94h-5s-75 -100 -195 -100c-145 0 -255 110 -255 255s110 255 255 255c120 0 200 -105 200 -105h5c0 45 10 90 10 90h30s-15 -45 -15 -120v-369c0 -135 -95 -230 -240 -230c-130 0 -190 95 -190 95l15 10s55 -85 175 -85c125 0 210 85 210 210zM305 494
c-125 0 -225 -100 -225 -235s100 -235 225 -235c120 0 200 115 200 115v240s-80 115 -200 115zM320 650c95 0 140 95 140 95l15 -5s-40 -120 -155 -120s-155 120 -155 120l15 5s45 -95 140 -95z" />
    <glyph glyph-name="Gcommaaccent" unicode="&#x122;" horiz-adv-x="790" 
d="M670 95h-5s-80 -115 -255 -115c-195 0 -345 150 -345 370s150 370 345 370c185 0 270 -145 270 -145l-15 -10s-80 135 -255 135s-315 -140 -315 -350s140 -350 315 -350s255 125 255 125v215h-225v20h255v-360h-15zM420 -170c-15 0 -30 15 -30 30s15 30 30 30
s30 -15 30 -35c0 -75 -65 -115 -65 -115l-10 15s45 35 45 75z" />
    <glyph glyph-name="gcommaaccent" unicode="&#x123;" 
d="M310 690c15 0 30 -15 30 -30s-15 -30 -30 -30s-30 15 -30 35c0 75 65 115 65 115l10 -15s-45 -35 -45 -75zM505 10v94h-5s-75 -100 -195 -100c-145 0 -255 110 -255 255s110 255 255 255c120 0 200 -105 200 -105h5c0 45 10 90 10 90h30s-15 -45 -15 -120v-369
c0 -135 -95 -230 -240 -230c-130 0 -190 95 -190 95l15 10s55 -85 175 -85c125 0 210 85 210 210zM305 494c-125 0 -225 -100 -225 -235s100 -235 225 -235c120 0 200 115 200 115v240s-80 115 -200 115z" />
    <glyph glyph-name="Imacron" unicode="&#x12a;" horiz-adv-x="250" 
d="M140 700v-700h-30v700h30zM-20 840v25h290v-25h-290z" />
    <glyph glyph-name="imacron" unicode="&#x12b;" horiz-adv-x="230" 
d="M130 500v-500h-30v500h30zM-30 650v25h290v-25h-290z" />
    <glyph glyph-name="Iogonek" unicode="&#x12e;" horiz-adv-x="240" 
d="M110 0h-10v700h30v-700s-120 -70 -120 -150c0 -49 40 -90 90 -90c45 0 80 25 80 25l10 -15s-35 -30 -90 -30c-70 0 -120 50 -120 110c0 80 130 150 130 150z" />
    <glyph glyph-name="iogonek" unicode="&#x12f;" horiz-adv-x="240" 
d="M115 0h-10v500h30v-500s-120 -70 -120 -150c0 -49 40 -90 90 -90c45 0 80 25 80 25l10 -15s-35 -30 -90 -30c-70 0 -120 50 -120 110c0 80 130 150 130 150zM150 680c0 -15 -15 -30 -30 -30s-30 15 -30 30s15 30 30 30s30 -15 30 -30z" />
    <glyph glyph-name="Idotaccent" unicode="&#x130;" horiz-adv-x="260" 
d="M145 700v-700h-30v700h30zM160 840c0 -15 -15 -30 -30 -30s-30 15 -30 30s15 30 30 30s30 -15 30 -30z" />
    <glyph glyph-name="dotlessi" unicode="&#x131;" horiz-adv-x="230" 
d="M130 500v-500h-30v500h30z" />
    <glyph glyph-name="Kcommaaccent" unicode="&#x136;" horiz-adv-x="655" 
d="M370 370l265 -370h-35l-260 360h-195v-360h-30v700h30v-320h205l230 320h25zM340 -160c-15 0 -30 15 -30 30s15 30 30 30s30 -15 30 -35c0 -75 -65 -115 -65 -115l-10 15s45 35 45 75z" />
    <glyph glyph-name="kcommaaccent" unicode="&#x137;" horiz-adv-x="535" 
d="M330 265l185 -265h-35l-175 250h-160v-250h-30v720h30v-450h165l155 230h25zM300 -160c-15 0 -30 15 -30 30s15 30 30 30s30 -15 30 -35c0 -75 -65 -115 -65 -115l-10 15s45 35 45 75z" />
    <glyph glyph-name="Lacute" unicode="&#x139;" horiz-adv-x="585" 
d="M145 700v-680h420l-5 -20h-445v700h30zM130 780l105 190h35l-120 -190h-20z" />
    <glyph glyph-name="lacute" unicode="&#x13a;" horiz-adv-x="240" 
d="M115 720h30v-720h-30v720zM120 790l105 190h35l-120 -190h-20z" />
    <glyph glyph-name="Lcommaaccent" unicode="&#x13b;" horiz-adv-x="585" 
d="M145 700v-680h420l-5 -20h-445v700h30zM335 -170c-15 0 -30 15 -30 30s15 30 30 30s30 -15 30 -35c0 -75 -65 -115 -65 -115l-10 15s45 35 45 75z" />
    <glyph glyph-name="lcommaaccent" unicode="&#x13c;" horiz-adv-x="245" 
d="M117 720h30v-720h-30v720zM130 -150c-15 0 -30 15 -30 30s15 30 30 30s30 -15 30 -35c0 -75 -65 -115 -65 -115l-10 15s45 35 45 75z" />
    <glyph glyph-name="Lcaron" unicode="&#x13d;" horiz-adv-x="585" 
d="M295 640c-15 0 -30 15 -30 30s15 30 30 30s30 -15 30 -35c0 -75 -65 -115 -65 -115l-10 15s45 35 45 75zM145 700v-680h420l-5 -20h-445v700h30z" />
    <glyph glyph-name="lcaron" unicode="&#x13e;" horiz-adv-x="310" 
d="M280 640c-15 0 -30 15 -30 30s15 30 30 30s30 -15 30 -35c0 -75 -65 -115 -65 -115l-10 15s45 35 45 75zM115 720h30v-720h-30v720z" />
    <glyph glyph-name="Lslash" unicode="&#x141;" horiz-adv-x="600" 
d="M160 700v-345l190 105v-25l-190 -105v-310h420l-5 -20h-445v310l-110 -60v25l110 60v365h30z" />
    <glyph glyph-name="lslash" unicode="&#x142;" horiz-adv-x="250" 
d="M110 720h30v-350l100 65v-25l-100 -65v-345h-30v325l-100 -65v25l100 65v370z" />
    <glyph glyph-name="Nacute" unicode="&#x143;" horiz-adv-x="760" 
d="M135 660v-660h-20v700h30l475 -660h5v660h20v-700h-30l-475 660h-5zM370 780l105 190h35l-120 -190h-20z" />
    <glyph glyph-name="nacute" unicode="&#x144;" horiz-adv-x="625" 
d="M100 0v380c0 75 -15 120 -15 120h30s10 -45 10 -90h5s80 105 200 105c125 0 205 -80 205 -195v-320h-30v320c0 100 -75 175 -175 175c-120 0 -200 -115 -200 -115v-380h-30zM285 600l105 190h35l-120 -190h-20z" />
    <glyph glyph-name="Ncommaaccent" unicode="&#x145;" horiz-adv-x="760" 
d="M135 660v-660h-20v700h30l475 -660h5v660h20v-700h-30l-475 660h-5zM380 -160c-15 0 -30 15 -30 30s15 30 30 30s30 -15 30 -35c0 -75 -65 -115 -65 -115l-10 15s45 35 45 75z" />
    <glyph glyph-name="ncommaaccent" unicode="&#x146;" horiz-adv-x="625" 
d="M100 0v380c0 75 -15 120 -15 120h30s10 -45 10 -90h5s80 105 200 105c125 0 205 -80 205 -195v-320h-30v320c0 100 -75 175 -175 175c-120 0 -200 -115 -200 -115v-380h-30zM315 -160c-15 0 -30 15 -30 30s15 30 30 30s30 -15 30 -35c0 -75 -65 -115 -65 -115l-10 15
s45 35 45 75z" />
    <glyph glyph-name="Ncaron" unicode="&#x147;" horiz-adv-x="760" 
d="M135 660v-660h-20v700h30l475 -660h5v660h20v-700h-30l-475 660h-5zM253 970l135 -165h5l135 165h30l-155 -190h-25l-155 190h30z" />
    <glyph glyph-name="ncaron" unicode="&#x148;" horiz-adv-x="625" 
d="M100 0v380c0 75 -15 120 -15 120h30s10 -45 10 -90h5s80 105 200 105c125 0 205 -80 205 -195v-320h-30v320c0 100 -75 175 -175 175c-120 0 -200 -115 -200 -115v-380h-30zM178 790l135 -165h5l135 165h30l-155 -190h-25l-155 190h30z" />
    <glyph glyph-name="Omacron" unicode="&#x14c;" horiz-adv-x="820" 
d="M65 350c0 220 150 370 345 370s345 -150 345 -370s-150 -370 -345 -370s-345 150 -345 370zM725 350c0 210 -140 350 -315 350s-315 -140 -315 -350s140 -350 315 -350s315 140 315 350zM275 850v25h290v-25h-290z" />
    <glyph glyph-name="omacron" unicode="&#x14d;" horiz-adv-x="600" 
d="M520 250c0 145 -100 245 -220 245s-220 -100 -220 -245s100 -245 220 -245s220 100 220 245zM50 250c0 155 110 265 250 265s250 -110 250 -265s-110 -265 -250 -265s-250 110 -250 265zM155 650v25h290v-25h-290z" />
    <glyph glyph-name="Ohungarumlaut" unicode="&#x150;" horiz-adv-x="820" 
d="M65 350c0 220 150 370 345 370s345 -150 345 -370s-150 -370 -345 -370s-345 150 -345 370zM725 350c0 210 -140 350 -315 350s-315 -140 -315 -350s140 -350 315 -350s315 140 315 350zM320 790l105 180h35l-120 -180h-20zM495 790l105 180h35l-120 -180h-20z" />
    <glyph glyph-name="ohungarumlaut" unicode="&#x151;" horiz-adv-x="600" 
d="M520 250c0 145 -100 245 -220 245s-220 -100 -220 -245s100 -245 220 -245s220 100 220 245zM50 250c0 155 110 265 250 265s250 -110 250 -265s-110 -265 -250 -265s-250 110 -250 265zM200 600l105 180h35l-120 -180h-20zM375 600l105 180h35l-120 -180h-20z" />
    <glyph glyph-name="OE" unicode="&#x152;" horiz-adv-x="975" 
d="M410 0c-205 0 -345 140 -345 350s140 350 345 350h515l-5 -20h-365v-310h260l-5 -20h-255v-330h390v-20h-535zM410 680c-185 0 -315 -130 -315 -330s130 -330 315 -330h115v660h-115z" />
    <glyph glyph-name="oe" unicode="&#x153;" horiz-adv-x="965" 
d="M700 495c-100 0 -190 -85 -190 -235h380c0 145 -90 235 -190 235zM700 515c120 0 220 -100 220 -255c0 -10 -5 -20 -5 -20h-405c0 -150 90 -235 200 -235c120 0 175 105 175 105l15 -10s-60 -115 -190 -115c-115 0 -180 65 -213 155h-4c-33 -90 -98 -155 -213 -155
c-130 0 -230 100 -230 265s100 265 230 265c115 0 180 -65 213 -155h4c33 90 98 155 203 155zM280 495c-110 0 -200 -90 -200 -245s90 -245 200 -245s200 85 200 245s-90 245 -200 245z" />
    <glyph glyph-name="Racute" unicode="&#x154;" horiz-adv-x="675" 
d="M405 280h-260v-280h-30v700h240c150 0 240 -90 240 -210c0 -170 -160 -200 -160 -200v-5l200 -285h-35zM355 300c130 0 210 80 210 190s-80 190 -210 190h-210v-380h210zM315 790l105 190h35l-120 -190h-20z" />
    <glyph glyph-name="racute" unicode="&#x155;" horiz-adv-x="395" 
d="M375 505l-10 -25s-25 10 -55 10c-110 0 -180 -110 -180 -110v-380h-30v380c0 75 -15 120 -15 120h30s10 -45 10 -90h5s70 105 180 105c40 0 65 -10 65 -10zM210 600l105 190h35l-120 -190h-20z" />
    <glyph glyph-name="Rcommaaccent" unicode="&#x156;" horiz-adv-x="675" 
d="M405 280h-260v-280h-30v700h240c150 0 240 -90 240 -210c0 -170 -160 -200 -160 -200v-5l200 -285h-35zM355 300c130 0 210 80 210 190s-80 190 -210 190h-210v-380h210zM350 -160c-15 0 -30 15 -30 30s15 30 30 30s30 -15 30 -35c0 -75 -65 -115 -65 -115l-10 15
s45 35 45 75z" />
    <glyph glyph-name="rcommaaccent" unicode="&#x157;" horiz-adv-x="380" 
d="M370 505l-10 -25s-25 10 -55 10c-110 0 -180 -110 -180 -110v-380h-30v380c0 75 -15 120 -15 120h30s10 -45 10 -90h5s70 105 180 105c40 0 65 -10 65 -10zM110 -160c-15 0 -30 15 -30 30s15 30 30 30s30 -15 30 -35c0 -75 -65 -115 -65 -115l-10 15s45 35 45 75z" />
    <glyph glyph-name="Rcaron" unicode="&#x158;" horiz-adv-x="675" 
d="M405 280h-260v-280h-30v700h240c150 0 240 -90 240 -210c0 -170 -160 -200 -160 -200v-5l200 -285h-35zM355 300c130 0 210 80 210 190s-80 190 -210 190h-210v-380h210zM198 980l135 -165h5l135 165h30l-155 -190h-25l-155 190h30z" />
    <glyph glyph-name="rcaron" unicode="&#x159;" horiz-adv-x="385" 
d="M372 505l-10 -25s-25 10 -55 10c-110 0 -180 -110 -180 -110v-380h-30v380c0 75 -15 120 -15 120h30s10 -45 10 -90h5s70 105 180 105c40 0 65 -10 65 -10zM80 790l135 -165h5l135 165h30l-155 -190h-25l-155 190h30z" />
    <glyph glyph-name="Sacute" unicode="&#x15a;" horiz-adv-x="615" 
d="M85 540c0 90 90 180 235 180c150 0 230 -125 230 -125l-15 -10s-75 115 -215 115c-125 0 -205 -80 -205 -160c0 -190 450 -140 450 -360c0 -105 -95 -200 -250 -200c-195 0 -275 155 -275 155l15 10s75 -145 260 -145c135 0 220 85 220 180c0 190 -450 140 -450 360z
M295 790l105 190h35l-120 -190h-20z" />
    <glyph glyph-name="sacute" unicode="&#x15b;" horiz-adv-x="470" 
d="M430 130c0 -75 -70 -145 -200 -145s-200 115 -200 115l15 10s65 -105 185 -105c110 0 170 60 170 125c0 150 -340 80 -340 255c0 65 65 130 180 130c110 0 180 -85 180 -85l-15 -10s-65 75 -165 75c-95 0 -150 -55 -150 -110c0 -150 340 -80 340 -255zM215 600l105 190
h35l-120 -190h-20z" />
    <glyph glyph-name="Scedilla" unicode="&#x15e;" horiz-adv-x="615" 
d="M85 540c0 90 90 180 235 180c150 0 230 -125 230 -125l-15 -10s-75 115 -215 115c-125 0 -205 -80 -205 -160c0 -190 450 -140 450 -360c0 -101 -88 -193 -234 -200l-16 -50s120 0 120 -100c0 -55 -45 -100 -120 -100c-65 0 -100 40 -100 40l10 15s35 -35 90 -35
s90 35 90 80s-35 80 -90 80h-30l22 71c-189 4 -267 154 -267 154l15 10s75 -145 260 -145c135 0 220 85 220 180c0 190 -450 140 -450 360z" />
    <glyph glyph-name="scedilla" unicode="&#x15f;" horiz-adv-x="470" 
d="M430 130c0 -76 -59 -138 -180 -144l-20 -56s120 0 120 -100c0 -55 -45 -100 -120 -100c-65 0 -100 40 -100 40l10 15s35 -35 90 -35s90 35 90 80s-35 80 -90 80h-30l25 75c-127 3 -195 115 -195 115l15 10s65 -105 185 -105c115 0 170 55 170 125c0 150 -340 80 -340 255
c0 65 65 130 180 130c110 0 180 -85 180 -85l-15 -10s-65 75 -165 75c-95 0 -150 -55 -150 -110c0 -150 340 -80 340 -255z" />
    <glyph glyph-name="Scaron" unicode="&#x160;" horiz-adv-x="615" 
d="M85 540c0 90 90 180 235 180c150 0 230 -125 230 -125l-15 -10s-75 115 -215 115c-125 0 -205 -80 -205 -160c0 -190 450 -140 450 -360c0 -105 -95 -200 -250 -200c-195 0 -275 155 -275 155l15 10s75 -145 260 -145c135 0 220 85 220 180c0 190 -450 140 -450 360z
M178 980l135 -165h5l135 165h30l-155 -190h-25l-155 190h30z" />
    <glyph glyph-name="scaron" unicode="&#x161;" horiz-adv-x="470" 
d="M430 130c0 -75 -70 -145 -200 -145s-200 115 -200 115l15 10s65 -105 185 -105c110 0 170 60 170 125c0 150 -340 80 -340 255c0 65 65 130 180 130c110 0 180 -85 180 -85l-15 -10s-65 75 -165 75c-95 0 -150 -55 -150 -110c0 -150 340 -80 340 -255zM98 790l135 -165h5
l135 165h30l-155 -190h-25l-155 190h30z" />
    <glyph glyph-name="Tcommaaccent" unicode="&#x162;" horiz-adv-x="590" 
d="M280 0v680h-260v20h550l-5 -20h-255v-680h-30zM295 -160c-15 0 -30 15 -30 30s15 30 30 30s30 -15 30 -35c0 -75 -65 -115 -65 -115l-10 15s45 35 45 75z" />
    <glyph glyph-name="tcommaaccent" unicode="&#x163;" horiz-adv-x="430" 
d="M160 480v-320c0 -95 60 -155 130 -155s115 55 115 55l15 -10s-50 -65 -130 -65c-90 0 -160 70 -160 175v320h-110v20h110l15 150h15v-150h180l-5 -20h-175zM282 -160c-15 0 -30 15 -30 30s15 30 30 30s30 -15 30 -35c0 -75 -65 -115 -65 -115l-10 15s45 35 45 75z" />
    <glyph glyph-name="Tcaron" unicode="&#x164;" horiz-adv-x="590" 
d="M280 0v680h-260v20h550l-5 -20h-255v-680h-30zM158 980l135 -165h5l135 165h30l-155 -190h-25l-155 190h30z" />
    <glyph glyph-name="tcaron" unicode="&#x165;" horiz-adv-x="450" 
d="M160 480v-320c0 -95 60 -155 130 -155s115 55 115 55l15 -10s-50 -65 -130 -65c-90 0 -160 70 -160 175v320h-110v20h110l15 150h15v-150h180l-5 -20h-175zM420 640c-15 0 -30 15 -30 30s15 30 30 30s30 -15 30 -35c0 -85 -75 -125 -75 -125l-10 15s55 35 55 85z" />
    <glyph glyph-name="Umacron" unicode="&#x16a;" horiz-adv-x="760" 
d="M380 0c145 0 245 100 245 260v440h20v-440c0 -170 -110 -280 -265 -280s-265 110 -265 280v440h30v-440c0 -160 100 -260 235 -260zM235 860v25h290v-25h-290z" />
    <glyph glyph-name="umacron" unicode="&#x16b;" 
d="M535 500v-380c0 -75 15 -120 15 -120h-30s-10 45 -10 90h-5s-80 -105 -200 -105c-125 0 -205 80 -205 195v320h30v-320c0 -100 75 -175 175 -175c120 0 200 115 200 115v380h30zM180 670v25h290v-25h-290z" />
    <glyph glyph-name="Uring" unicode="&#x16e;" horiz-adv-x="760" 
d="M380 0c145 0 245 100 245 260v440h20v-440c0 -170 -110 -280 -265 -280s-265 110 -265 280v440h30v-440c0 -160 100 -260 235 -260zM475 880c0 50 -40 90 -90 90s-90 -40 -90 -90s40 -90 90 -90s90 40 90 90zM270 880c0 60 50 110 115 110s115 -50 115 -110
s-50 -110 -115 -110s-115 50 -115 110z" />
    <glyph glyph-name="uring" unicode="&#x16f;" 
d="M535 500v-380c0 -75 15 -120 15 -120h-30s-10 45 -10 90h-5s-80 -105 -200 -105c-125 0 -205 80 -205 195v320h30v-320c0 -100 75 -175 175 -175c120 0 200 115 200 115v380h30zM420 700c0 50 -40 90 -90 90s-90 -40 -90 -90s40 -90 90 -90s90 40 90 90zM215 700
c0 60 50 110 115 110s115 -50 115 -110s-50 -110 -115 -110s-115 50 -115 110z" />
    <glyph glyph-name="Uhungarumlaut" unicode="&#x170;" horiz-adv-x="760" 
d="M380 0c145 0 245 100 245 260v440h20v-440c0 -170 -110 -280 -265 -280s-265 110 -265 280v440h30v-440c0 -160 100 -260 235 -260zM270 780l105 180h35l-120 -180h-20zM445 780l105 180h35l-120 -180h-20z" />
    <glyph glyph-name="uhungarumlaut" unicode="&#x171;" 
d="M535 500v-380c0 -75 15 -120 15 -120h-30s-10 45 -10 90h-5s-80 -105 -200 -105c-125 0 -205 80 -205 195v320h30v-320c0 -100 75 -175 175 -175c120 0 200 115 200 115v380h30zM205 600l105 180h35l-120 -180h-20zM380 600l105 180h35l-120 -180h-20z" />
    <glyph glyph-name="Uogonek" unicode="&#x172;" horiz-adv-x="760" 
d="M380 0c145 0 245 100 245 260v440h20v-440c0 -151 -86 -254 -214 -275c-34 -24 -96 -76 -96 -135c0 -49 40 -90 90 -90c45 0 80 25 80 25l10 -15s-35 -30 -90 -30c-70 0 -120 50 -120 110c0 55 60 105 99 131c-8 0 -16 -1 -24 -1c-155 0 -265 110 -265 280v440h30v-440
c0 -160 100 -260 235 -260z" />
    <glyph glyph-name="uogonek" unicode="&#x173;" 
d="M530 0h-10s-10 45 -10 90h-5s-80 -105 -200 -105c-125 0 -205 80 -205 195v320h30v-320c0 -100 75 -175 175 -175c120 0 200 115 200 115v380h30v-380c0 -75 15 -120 15 -120s-120 -70 -120 -150c0 -49 40 -90 90 -90c45 0 80 25 80 25l10 -15s-35 -30 -90 -30
c-70 0 -120 50 -120 110c0 80 130 150 130 150z" />
    <glyph glyph-name="Ydieresis" unicode="&#x178;" horiz-adv-x="610" 
d="M320 240v-240h-30v240l-270 460h35l253 -430h4l253 430h25zM240 860c0 -15 -15 -30 -30 -30s-30 15 -30 30s15 30 30 30s30 -15 30 -30zM430 860c0 -15 -15 -30 -30 -30s-30 15 -30 30s15 30 30 30s30 -15 30 -30z" />
    <glyph glyph-name="Zacute" unicode="&#x179;" horiz-adv-x="580" 
d="M530 680l-465 -655v-5h485l-5 -20h-515v20l465 655v5h-445v20h480v-20zM270 780l105 190h35l-120 -190h-20z" />
    <glyph glyph-name="zacute" unicode="&#x17a;" horiz-adv-x="460" 
d="M430 500v-25l-375 -450v-5h385l-5 -20h-415v25l375 450v5h-355v20h390zM215 600l105 190h35l-120 -190h-20z" />
    <glyph glyph-name="Zdotaccent" unicode="&#x17b;" horiz-adv-x="580" 
d="M530 680l-465 -655v-5h485l-5 -20h-515v20l465 655v5h-445v20h480v-20zM320 870c0 -15 -15 -30 -30 -30s-30 15 -30 30s15 30 30 30s30 -15 30 -30z" />
    <glyph glyph-name="zdotaccent" unicode="&#x17c;" horiz-adv-x="460" 
d="M430 500v-25l-375 -450v-5h385l-5 -20h-415v25l375 450v5h-355v20h390zM265 680c0 -15 -15 -30 -30 -30s-30 15 -30 30s15 30 30 30s30 -15 30 -30z" />
    <glyph glyph-name="Zcaron" unicode="&#x17d;" horiz-adv-x="580" 
d="M530 680l-465 -655v-5h485l-5 -20h-515v20l465 655v5h-445v20h480v-20zM153 970l135 -165h5l135 165h30l-155 -190h-25l-155 190h30z" />
    <glyph glyph-name="zcaron" unicode="&#x17e;" horiz-adv-x="460" 
d="M430 500v-25l-375 -450v-5h385l-5 -20h-415v25l375 450v5h-355v20h390zM98 790l135 -165h5l135 165h30l-155 -190h-25l-155 190h30z" />
    <glyph glyph-name="florin" unicode="&#x192;" horiz-adv-x="400" 
d="M140 490v50c0 105 70 175 160 175c80 0 130 -65 130 -65l-15 -10s-45 55 -115 55s-130 -60 -130 -155v-50h180l-5 -20h-175v-450c0 -150 -80 -230 -200 -230v20c100 0 170 70 170 210v450h-110v20h110z" />
    <glyph glyph-name="Scommaaccent" unicode="&#x218;" horiz-adv-x="615" 
d="M85 540c0 90 90 180 235 180c150 0 230 -125 230 -125l-15 -10s-75 115 -215 115c-125 0 -205 -80 -205 -160c0 -190 450 -140 450 -360c0 -105 -95 -200 -250 -200c-195 0 -275 155 -275 155l15 10s75 -145 260 -145c135 0 220 85 220 180c0 190 -450 140 -450 360z
M320 -160c-15 0 -30 15 -30 30s15 30 30 30s30 -15 30 -35c0 -75 -65 -115 -65 -115l-10 15s45 35 45 75z" />
    <glyph glyph-name="scommaaccent" unicode="&#x219;" horiz-adv-x="470" 
d="M430 130c0 -75 -70 -145 -200 -145s-200 115 -200 115l15 10s65 -105 185 -105c110 0 170 60 170 125c0 150 -340 80 -340 255c0 65 65 130 180 130c110 0 180 -85 180 -85l-15 -10s-65 75 -165 75c-95 0 -150 -55 -150 -110c0 -150 340 -80 340 -255zM232 -160
c-15 0 -30 15 -30 30s15 30 30 30s30 -15 30 -35c0 -75 -65 -115 -65 -115l-10 15s45 35 45 75z" />
    <glyph glyph-name="afii57929" unicode="&#x2bc;" horiz-adv-x="155" 
d="M85 710c-15 0 -30 15 -30 30s15 30 30 30s30 -15 30 -35c0 -75 -65 -115 -65 -115l-10 15s45 35 45 75z" />
    <glyph glyph-name="circumflex" unicode="&#x2c6;" horiz-adv-x="415" 
d="M345 570l-135 165h-5l-135 -165h-30l155 190h25l155 -190h-30z" />
    <glyph glyph-name="caron" unicode="&#x2c7;" horiz-adv-x="415" 
d="M70 760l135 -165h5l135 165h30l-155 -190h-25l-155 190h30z" />
    <glyph glyph-name="breve" unicode="&#x2d8;" horiz-adv-x="390" 
d="M195 630c95 0 140 95 140 95l15 -5s-40 -120 -155 -120s-155 120 -155 120l15 5s45 -95 140 -95z" />
    <glyph glyph-name="dotaccent" unicode="&#x2d9;" horiz-adv-x="140" 
d="M100 680c0 -15 -15 -30 -30 -30s-30 15 -30 30s15 30 30 30s30 -15 30 -30z" />
    <glyph glyph-name="ring" unicode="&#x2da;" horiz-adv-x="310" 
d="M245 690c0 50 -40 90 -90 90s-90 -40 -90 -90s40 -90 90 -90s90 40 90 90zM40 690c0 60 50 110 115 110s115 -50 115 -110s-50 -110 -115 -110s-115 50 -115 110z" />
    <glyph glyph-name="ogonek" unicode="&#x2db;" horiz-adv-x="290" 
d="M170 0h20s-120 -70 -120 -150c0 -49 40 -90 90 -90c45 0 80 25 80 25l10 -15s-35 -30 -90 -30c-70 0 -120 50 -120 110c0 80 130 150 130 150z" />
    <glyph glyph-name="tilde" unicode="&#x2dc;" horiz-adv-x="400" 
d="M55 620l-15 5s15 100 85 100c55 0 105 -85 150 -85c55 0 70 75 70 75l15 -5s-15 -100 -85 -100c-55 0 -105 85 -150 85c-55 0 -70 -75 -70 -75z" />
    <glyph glyph-name="hungarumlaut" unicode="&#x2dd;" horiz-adv-x="395" 
d="M40 570l105 180h35l-120 -180h-20zM215 570l105 180h35l-120 -180h-20z" />
    <glyph glyph-name="afii10023" unicode="&#x401;" horiz-adv-x="615" 
d="M145 350v-330h440v-20h-470v700h450l-5 -20h-415v-310h310l-5 -20h-305zM275 860c0 -15 -15 -30 -30 -30s-30 15 -30 30s15 30 30 30s30 -15 30 -30zM465 860c0 -15 -15 -30 -30 -30s-30 15 -30 30s15 30 30 30s30 -15 30 -30z" />
    <glyph glyph-name="afii10051" unicode="&#x402;" horiz-adv-x="730" 
d="M680 220c0 -170 -90 -260 -250 -260v20c140 0 220 80 220 240c0 120 -80 200 -215 200c-105 0 -225 -60 -225 -60v-360h-30v680h-180v20h450l-5 -20h-235v-300s120 60 225 60c155 0 245 -90 245 -220z" />
    <glyph glyph-name="afii10052" unicode="&#x403;" horiz-adv-x="535" 
d="M115 0v700h410l-5 -20h-375v-680h-30zM300 780l105 190h35l-120 -190h-20z" />
    <glyph glyph-name="afii10053" unicode="&#x404;" horiz-adv-x="725" 
d="M680 145l15 -10s-80 -155 -285 -155c-195 0 -345 150 -345 370s150 370 345 370c185 0 270 -145 270 -145l-15 -10s-80 135 -255 135s-315 -140 -315 -340h365l-5 -20h-360c0 -200 140 -340 315 -340c195 0 270 145 270 145z" />
    <glyph glyph-name="afii10054" unicode="&#x405;" horiz-adv-x="615" 
d="M85 540c0 90 90 180 235 180c150 0 230 -125 230 -125l-15 -10s-75 115 -215 115c-125 0 -205 -80 -205 -160c0 -190 450 -140 450 -360c0 -105 -95 -200 -250 -200c-195 0 -275 155 -275 155l15 10s75 -145 260 -145c135 0 220 85 220 180c0 190 -450 140 -450 360z" />
    <glyph glyph-name="afii10055" unicode="&#x406;" horiz-adv-x="260" 
d="M145 700v-700h-30v700h30z" />
    <glyph glyph-name="afii10056" unicode="&#x407;" horiz-adv-x="250" 
d="M140 700v-700h-30v700h30zM50 860c0 -15 -15 -30 -30 -30s-30 15 -30 30s15 30 30 30s30 -15 30 -30zM240 860c0 -15 -15 -30 -30 -30s-30 15 -30 30s15 30 30 30s30 -15 30 -30z" />
    <glyph glyph-name="afii10057" unicode="&#x408;" horiz-adv-x="275" 
d="M-50 -210v20c100 0 180 80 180 261v629h30v-629c0 -191 -90 -281 -210 -281z" />
    <glyph glyph-name="afii10058" unicode="&#x409;" horiz-adv-x="1065" 
d="M590 440h160c150 0 250 -100 250 -220s-100 -220 -250 -220h-190v680h-290l-50 -450c-19 -175 -95 -250 -185 -250c-15 0 -35 5 -35 5v20h35c70 0 139 70 155 225l50 470h350v-260zM750 420h-160v-400h160c130 0 220 90 220 200s-90 200 -220 200z" />
    <glyph glyph-name="afii10059" unicode="&#x40a;" horiz-adv-x="1045" 
d="M555 400h195c140 0 230 -90 230 -200s-90 -200 -230 -200h-225v380h-380v-380h-30v700h30v-300h380v300h30v-300zM750 380h-195v-360h195c120 0 200 80 200 180s-80 180 -200 180z" />
    <glyph glyph-name="afii10060" unicode="&#x40b;" horiz-adv-x="775" 
d="M180 0v680h-180v20h450l-5 -20h-235v-300s120 60 225 60c155 0 245 -90 245 -220v-220h-30v220c0 120 -80 200 -215 200c-105 0 -225 -60 -225 -60v-360h-30z" />
    <glyph glyph-name="afii10061" unicode="&#x40c;" horiz-adv-x="655" 
d="M370 370l265 -370h-35l-260 360h-195v-360h-30v700h30v-320h205l230 320h25zM330 780l105 190h35l-120 -190h-20z" />
    <glyph glyph-name="afii10062" unicode="&#x40e;" horiz-adv-x="650" 
d="M325 110l-295 590h35l275 -550h5l260 550h25l-280 -590c-43 -90 -85 -135 -155 -135c-25 0 -50 10 -50 10v15s25 -5 50 -5c55 0 95 40 130 115zM340 830c105 0 150 105 150 105l15 -5s-40 -130 -165 -130s-165 130 -165 130l15 5s45 -105 150 -105z" />
    <glyph glyph-name="afii10145" unicode="&#x40f;" horiz-adv-x="760" 
d="M365 0h-250v700h30v-680h470v680h30v-700h-250l-5 -180h-20z" />
    <glyph glyph-name="afii10017" unicode="&#x410;" horiz-adv-x="700" 
d="M625 0l-85 200h-390l-85 -200h-25l300 700h20l300 -700h-35zM343 650l-183 -430h370l-183 430h-4z" />
    <glyph glyph-name="afii10018" unicode="&#x411;" horiz-adv-x="665" 
d="M115 0v700h430l-5 -20h-395v-270h220c150 0 240 -90 240 -205s-90 -205 -240 -205h-250zM365 390h-220v-370h220c130 0 210 80 210 185s-80 185 -210 185z" />
    <glyph glyph-name="afii10019" unicode="&#x412;" horiz-adv-x="675" 
d="M115 0v700h250c125 0 200 -75 200 -165c0 -115 -120 -145 -120 -145v-5s180 -25 180 -190c0 -105 -90 -195 -230 -195h-280zM395 370h-250v-350h250c120 0 200 80 200 175s-80 175 -200 175zM365 680h-220v-290h220c105 0 170 65 170 145s-65 145 -170 145z" />
    <glyph glyph-name="afii10020" unicode="&#x413;" horiz-adv-x="535" 
d="M115 0v700h410l-5 -20h-375v-680h-30z" />
    <glyph glyph-name="afii10021" unicode="&#x414;" horiz-adv-x="735" 
d="M665 0h-635l-10 -180h-20v200h40s99 60 115 210l50 470h390v-680h100v-200h-20zM180 230c-20 -150 -105 -205 -105 -205v-5h490v660h-335z" />
    <glyph glyph-name="afii10022" unicode="&#x415;" horiz-adv-x="615" 
d="M145 350v-330h440v-20h-470v700h450l-5 -20h-415v-310h310l-5 -20h-305z" />
    <glyph glyph-name="afii10024" unicode="&#x416;" horiz-adv-x="1010" 
d="M20 0l265 370l-235 330h25l230 -320h185v320h30v-320h185l230 320h25l-235 -330l265 -370h-35l-260 360h-175v-360h-30v360h-175l-260 -360h-35z" />
    <glyph glyph-name="afii10025" unicode="&#x417;" horiz-adv-x="620" 
d="M525 540c0 -125 -150 -165 -150 -165v-5s180 -30 180 -190c0 -105 -95 -200 -250 -200c-195 0 -275 155 -275 155l15 10s75 -145 260 -145c135 0 220 85 220 180s-80 180 -225 180h-80v20h70c125 0 205 80 205 160s-80 160 -205 160c-140 0 -215 -115 -215 -115l-15 10
s80 125 230 125c145 0 235 -90 235 -180z" />
    <glyph glyph-name="afii10026" unicode="&#x418;" horiz-adv-x="760" 
d="M145 700v-655h5l465 655h30v-700h-30v655h-5l-465 -655h-30v700h30z" />
    <glyph glyph-name="afii10027" unicode="&#x419;" horiz-adv-x="760" 
d="M145 700v-655h5l465 655h30v-700h-30v655h-5l-465 -655h-30v700h30zM380 830c105 0 150 105 150 105l15 -5s-40 -130 -165 -130s-165 130 -165 130l15 5s45 -105 150 -105z" />
    <glyph glyph-name="afii10028" unicode="&#x41a;" horiz-adv-x="655" 
d="M370 370l265 -370h-35l-260 360h-195v-360h-30v700h30v-320h205l230 320h25z" />
    <glyph glyph-name="afii10029" unicode="&#x41b;" horiz-adv-x="745" 
d="M630 700v-700h-30v680h-330l-50 -450c-19 -175 -95 -250 -185 -250c-15 0 -35 5 -35 5v20h35c70 0 139 70 155 225l50 470h390z" />
    <glyph glyph-name="afii10030" unicode="&#x41c;" horiz-adv-x="940" 
d="M790 650l-320 -540h-15l-315 540h-5v-650h-20v700h30l320 -550h5l325 550h30v-700h-30v650h-5z" />
    <glyph glyph-name="afii10031" unicode="&#x41d;" horiz-adv-x="760" 
d="M145 700v-340h470v340h30v-700h-30v340h-470v-340h-30v700h30z" />
    <glyph glyph-name="afii10032" unicode="&#x41e;" horiz-adv-x="820" 
d="M65 350c0 220 150 370 345 370s345 -150 345 -370s-150 -370 -345 -370s-345 150 -345 370zM725 350c0 210 -140 350 -315 350s-315 -140 -315 -350s140 -350 315 -350s315 140 315 350z" />
    <glyph glyph-name="afii10033" unicode="&#x41f;" horiz-adv-x="760" 
d="M115 700h530v-700h-30v680h-470v-680h-30v700z" />
    <glyph glyph-name="afii10034" unicode="&#x420;" horiz-adv-x="665" 
d="M365 280c130 0 220 90 220 200s-90 200 -220 200h-220v-400h220zM365 260h-220v-260h-30v700h250c150 0 250 -100 250 -220s-100 -220 -250 -220z" />
    <glyph glyph-name="afii10035" unicode="&#x421;" horiz-adv-x="725" 
d="M680 145l15 -10s-80 -155 -285 -155c-195 0 -345 150 -345 370s150 370 345 370c185 0 270 -145 270 -145l-15 -10s-80 135 -255 135s-315 -140 -315 -350s140 -350 315 -350c195 0 270 145 270 145z" />
    <glyph glyph-name="afii10036" unicode="&#x422;" horiz-adv-x="590" 
d="M280 0v680h-260v20h550l-5 -20h-255v-680h-30z" />
    <glyph glyph-name="afii10037" unicode="&#x423;" horiz-adv-x="650" 
d="M325 110l-295 590h35l275 -550h5l260 550h25l-280 -590c-43 -90 -85 -135 -155 -135c-25 0 -55 10 -55 10v20s30 -10 55 -10c55 0 95 40 130 115z" />
    <glyph glyph-name="afii10038" unicode="&#x424;" horiz-adv-x="940" 
d="M485 760v-100c265 0 405 -140 405 -310s-140 -310 -405 -310v-90h-30v90c-265 0 -405 140 -405 310s140 310 405 310v100h30zM80 350c0 -160 130 -290 375 -290v580c-245 0 -375 -130 -375 -290zM860 350c0 160 -130 290 -375 290v-580c245 0 375 130 375 290z" />
    <glyph glyph-name="afii10039" unicode="&#x425;" 
d="M570 0l-255 335h-5l-255 -335h-25l270 356l-261 344h35l241 -320h5l229 320h25l-244 -339l275 -361h-35z" />
    <glyph glyph-name="afii10040" unicode="&#x426;" horiz-adv-x="775" 
d="M705 0h-590v700h30v-680h460v680h30v-680h100v-200h-20z" />
    <glyph glyph-name="afii10041" unicode="&#x427;" horiz-adv-x="710" 
d="M595 700v-700h-30v310s-120 -60 -225 -60c-155 0 -245 90 -245 220v230h30v-230c0 -120 80 -200 215 -200c105 0 225 60 225 60v370h30z" />
    <glyph glyph-name="afii10042" unicode="&#x428;" horiz-adv-x="1080" 
d="M965 0h-850v700h30v-680h380v680h30v-680h380v680h30v-700z" />
    <glyph glyph-name="afii10043" unicode="&#x429;" horiz-adv-x="1105" 
d="M1035 0h-920v700h30v-680h380v680h30v-680h380v680h30v-680h100v-200h-20z" />
    <glyph glyph-name="afii10044" unicode="&#x42a;" horiz-adv-x="715" 
d="M210 440h190c150 0 250 -100 250 -220s-100 -220 -250 -220h-220v680h-180v20h210v-260zM400 420h-190v-400h190c130 0 220 90 220 200s-90 200 -220 200z" />
    <glyph glyph-name="afii10045" unicode="&#x42b;" horiz-adv-x="890" 
d="M775 700v-700h-30v700h30zM335 420h-190v-400h190c130 0 220 90 220 200s-90 200 -220 200zM145 440h190c150 0 250 -100 250 -220s-100 -220 -250 -220h-220v700h30v-260z" />
    <glyph glyph-name="afii10046" unicode="&#x42c;" horiz-adv-x="660" 
d="M345 420h-200v-400h200c130 0 220 90 220 200s-90 200 -220 200zM145 440h200c150 0 250 -100 250 -220s-100 -220 -250 -220h-230v700h30v-260z" />
    <glyph glyph-name="afii10047" unicode="&#x42d;" horiz-adv-x="725" 
d="M30 135l15 10s75 -145 270 -145c175 0 315 140 315 340h-365v20h365c0 200 -140 340 -315 340s-255 -135 -255 -135l-15 10s85 145 270 145c195 0 345 -150 345 -370s-150 -370 -345 -370c-205 0 -285 155 -285 155z" />
    <glyph glyph-name="afii10048" unicode="&#x42e;" horiz-adv-x="1050" 
d="M145 360h190c0 215 145 360 325 360s325 -145 325 -370s-145 -370 -325 -370s-325 145 -325 360h-190v-340h-30v700h30v-340zM365 350c0 -215 135 -350 295 -350s295 135 295 350s-135 350 -295 350s-295 -135 -295 -350z" />
    <glyph glyph-name="afii10049" unicode="&#x42f;" horiz-adv-x="665" 
d="M520 290h-235l-210 -290h-35l210 290v5s-160 40 -160 200c0 115 90 205 235 205h225v-700h-30v290zM325 310h195v370h-195c-125 0 -205 -80 -205 -185s80 -185 205 -185z" />
    <glyph glyph-name="afii10065" unicode="&#x430;" horiz-adv-x="565" 
d="M475 305v-185c0 -75 15 -120 15 -120h-30s-10 45 -10 90h-5s-80 -105 -200 -105c-130 0 -200 70 -200 165s70 165 200 165c100 0 200 -50 200 -50v40c0 120 -70 190 -180 190c-100 0 -160 -75 -160 -75l-15 10s65 85 175 85c130 0 210 -80 210 -210zM245 5
c120 0 200 115 200 115v120s-100 55 -200 55c-110 0 -170 -60 -170 -145s60 -145 170 -145z" />
    <glyph glyph-name="afii10066" unicode="&#x431;" horiz-adv-x="595" 
d="M65 250v95c0 225 105 331 230 345l130 15c50 6 90 30 90 30v-25s-40 -29 -90 -35l-130 -15c-110 -13 -205 -110 -205 -315h5s60 130 215 130c140 0 245 -105 245 -245s-105 -245 -245 -245s-245 105 -245 265zM525 230c0 130 -95 225 -215 225s-215 -95 -215 -225
s95 -225 215 -225s215 95 215 225z" />
    <glyph glyph-name="afii10067" unicode="&#x432;" horiz-adv-x="550" 
d="M100 0v500h200c110 0 165 -55 165 -120c0 -80 -90 -101 -90 -101v-5s135 -19 135 -134c0 -80 -60 -140 -185 -140h-225zM325 260h-195v-240h195c105 0 155 50 155 120s-50 120 -155 120zM130 280h170c90 0 135 45 135 100s-45 100 -135 100h-170v-200z" />
    <glyph glyph-name="afii10068" unicode="&#x433;" horiz-adv-x="445" 
d="M100 0v500h335l-5 -20h-300v-480h-30z" />
    <glyph glyph-name="afii10069" unicode="&#x434;" horiz-adv-x="595" 
d="M30 0l-10 -160h-20v180h35s82 50 95 180l30 300h325v-480h80v-180h-20l-10 160h-505zM185 480l-30 -280c-14 -130 -85 -175 -85 -175v-5h385v460h-270z" />
    <glyph glyph-name="afii10070" unicode="&#x435;" horiz-adv-x="575" 
d="M525 240h-445c0 -135 100 -235 220 -235c130 0 195 105 195 105l15 -10s-70 -115 -210 -115s-250 110 -250 265s110 265 240 265s240 -110 240 -255c0 -10 -5 -20 -5 -20zM80 260h420c0 135 -100 235 -210 235s-210 -100 -210 -235z" />
    <glyph glyph-name="afii10072" unicode="&#x436;" horiz-adv-x="770" 
d="M20 0l185 265l-160 235h25l155 -230h145v230h30v-230h145l155 230h25l-160 -235l185 -265h-35l-175 250h-140v-250h-30v250h-140l-175 -250h-35z" />
    <glyph glyph-name="afii10073" unicode="&#x437;" horiz-adv-x="465" 
d="M405 385c0 -95 -115 -115 -115 -115v-5s130 -20 130 -135c0 -75 -70 -145 -200 -145s-200 115 -200 115l15 10s65 -105 185 -105c110 0 170 60 170 125c0 70 -55 125 -160 125h-70v20h75c85 0 140 55 140 110s-55 110 -150 110c-100 0 -165 -75 -165 -75l-15 10
s70 85 180 85c115 0 180 -65 180 -130z" />
    <glyph glyph-name="afii10074" unicode="&#x438;" horiz-adv-x="615" 
d="M130 0h-30v500h30v-455h5l350 455h30v-500h-30v455h-5z" />
    <glyph glyph-name="afii10075" unicode="&#x439;" horiz-adv-x="615" 
d="M130 0h-30v500h30v-455h5l350 455h30v-500h-30v455h-5zM335 610c95 0 140 95 140 95l15 -5s-40 -120 -155 -120s-155 120 -155 120l15 5s45 -95 140 -95z" />
    <glyph glyph-name="afii10076" unicode="&#x43a;" horiz-adv-x="520" 
d="M315 265l185 -265h-35l-175 250h-160v-250h-30v500h30v-230h165l155 230h25z" />
    <glyph glyph-name="afii10077" unicode="&#x43b;" horiz-adv-x="610" 
d="M215 480l-30 -280c-17 -155 -80 -220 -150 -220c-15 0 -35 5 -35 5v20h35c50 0 106 55 120 195l30 300h325v-500h-30v480h-265z" />
    <glyph glyph-name="afii10078" unicode="&#x43c;" horiz-adv-x="750" 
d="M615 450l-245 -370h-15l-230 370h-5v-450h-20v500h30l235 -380h5l250 380h30v-500h-30v450h-5z" />
    <glyph glyph-name="afii10079" unicode="&#x43d;" horiz-adv-x="615" 
d="M130 250v-250h-30v500h30v-230h355v230h30v-500h-30v250h-355z" />
    <glyph glyph-name="afii10080" unicode="&#x43e;" horiz-adv-x="600" 
d="M520 250c0 145 -100 245 -220 245s-220 -100 -220 -245s100 -245 220 -245s220 100 220 245zM50 250c0 155 110 265 250 265s250 -110 250 -265s-110 -265 -250 -265s-250 110 -250 265z" />
    <glyph glyph-name="afii10081" unicode="&#x43f;" horiz-adv-x="615" 
d="M130 480v-480h-30v500h415v-500h-30v480h-355z" />
    <glyph glyph-name="afii10082" unicode="&#x440;" 
d="M135 85h-5v-285h-30v580c0 75 -15 120 -15 120h30s10 -45 10 -90h5s80 105 200 105c145 0 255 -110 255 -265s-110 -265 -255 -265c-120 0 -195 100 -195 100zM330 495c-120 0 -200 -115 -200 -115v-260s80 -115 200 -115c125 0 225 100 225 245s-100 245 -225 245z" />
    <glyph glyph-name="afii10083" unicode="&#x441;" horiz-adv-x="530" 
d="M490 420l-15 -10s-65 85 -175 85c-120 0 -220 -100 -220 -245s100 -245 220 -245c130 0 195 105 195 105l15 -10s-70 -115 -210 -115s-250 110 -250 265s110 265 250 265c120 0 190 -95 190 -95z" />
    <glyph glyph-name="afii10084" unicode="&#x442;" horiz-adv-x="460" 
d="M10 480v20h440l-5 -20h-200v-480h-30v480h-205z" />
    <glyph glyph-name="afii10085" unicode="&#x443;" horiz-adv-x="510" 
d="M250 -5l-230 505h35l210 -460h5l195 460h25l-230 -540c-55 -130 -105 -180 -175 -180c-25 0 -45 10 -45 10v20s20 -10 45 -10c55 0 101 45 150 160z" />
    <glyph glyph-name="afii10086" unicode="&#x444;" horiz-adv-x="900" 
d="M50 250c0 165 100 265 225 265c90 0 155 -65 155 -65h5v250h30v-250h5s65 65 155 65c125 0 225 -100 225 -265s-100 -265 -225 -265c-90 0 -155 65 -155 65h-5v-250h-30v250h-5s-65 -65 -155 -65c-125 0 -225 100 -225 265zM80 250c0 -155 90 -245 195 -245
c90 0 160 75 160 75v340s-70 75 -160 75c-105 0 -195 -90 -195 -245zM820 250c0 155 -90 245 -195 245c-90 0 -160 -75 -160 -75v-340s70 -75 160 -75c105 0 195 90 195 245z" />
    <glyph glyph-name="afii10087" unicode="&#x445;" horiz-adv-x="475" 
d="M435 500l-185 -240l205 -260h-35l-185 235h-5l-185 -235h-25l200 255l-190 245h35l170 -220h5l170 220h25z" />
    <glyph glyph-name="afii10088" unicode="&#x446;" horiz-adv-x="615" 
d="M130 500v-480h345v480h30v-480h80v-180h-20l-10 160h-455v500h30z" />
    <glyph glyph-name="afii10089" unicode="&#x447;" horiz-adv-x="585" 
d="M485 500v-500h-30v215s-85 -40 -175 -40c-130 0 -200 70 -200 185v140h30v-140c0 -105 60 -165 170 -165c90 0 175 40 175 40v265h30z" />
    <glyph glyph-name="afii10090" unicode="&#x448;" horiz-adv-x="880" 
d="M750 20v480h30v-500h-680v500h30v-480h295v480h30v-480h295z" />
    <glyph glyph-name="afii10091" unicode="&#x449;" horiz-adv-x="890" 
d="M455 500v-480h295v480h30v-480h80v-180h-20l-10 160h-730v500h30v-480h295v480h30z" />
    <glyph glyph-name="afii10092" unicode="&#x44a;" horiz-adv-x="580" 
d="M190 320h150c125 0 200 -75 200 -160s-75 -160 -200 -160h-180v480h-160v20h190v-180zM340 300h-150v-280h150c105 0 170 65 170 140s-65 140 -170 140z" />
    <glyph glyph-name="afii10093" unicode="&#x44b;" horiz-adv-x="750" 
d="M650 510v-510h-30v510h30zM130 320h150c125 0 200 -75 200 -160s-75 -160 -200 -160h-180v500h30v-180zM280 300h-150v-280h150c105 0 170 65 170 140s-65 140 -170 140z" />
    <glyph glyph-name="afii10094" unicode="&#x44c;" horiz-adv-x="530" 
d="M130 320h160c125 0 200 -75 200 -160s-75 -160 -200 -160h-190v500h30v-180zM290 300h-160v-280h160c105 0 170 65 170 140s-65 140 -170 140z" />
    <glyph glyph-name="afii10095" unicode="&#x44d;" horiz-adv-x="530" 
d="M55 410l-15 10s70 95 190 95c140 0 250 -110 250 -265s-110 -265 -250 -265s-210 115 -210 115l15 10s65 -105 195 -105c120 0 220 100 220 235h-255v20h255c0 135 -100 235 -220 235c-110 0 -175 -85 -175 -85z" />
    <glyph glyph-name="afii10096" unicode="&#x44e;" horiz-adv-x="800" 
d="M280 250h-150v-250h-30v500h30v-230h150c5 140 110 245 235 245c130 0 235 -105 235 -265s-105 -265 -235 -265s-235 105 -235 265zM720 250c0 150 -95 245 -205 245s-205 -95 -205 -245s95 -245 205 -245s205 95 205 245z" />
    <glyph glyph-name="afii10097" unicode="&#x44f;" horiz-adv-x="560" 
d="M430 200h-215l-140 -200h-35l145 205v5s-115 25 -115 140c0 80 70 150 190 150h200v-500h-30v200zM260 220h170v260h-170c-100 0 -160 -60 -160 -130s60 -130 160 -130z" />
    <glyph glyph-name="afii10071" unicode="&#x451;" horiz-adv-x="575" 
d="M525 240h-445c0 -135 100 -235 220 -235c130 0 195 105 195 105l15 -10s-70 -115 -210 -115s-250 110 -250 265s110 265 240 265s240 -110 240 -255c0 -10 -5 -20 -5 -20zM80 260h420c0 135 -100 235 -210 235s-210 -100 -210 -235zM215 680c0 -15 -15 -30 -30 -30
s-30 15 -30 30s15 30 30 30s30 -15 30 -30zM405 680c0 -15 -15 -30 -30 -30s-30 15 -30 30s15 30 30 30s30 -15 30 -30z" />
    <glyph glyph-name="afii10099" unicode="&#x452;" horiz-adv-x="595" 
d="M515 200v50c0 100 -75 175 -175 175c-120 0 -200 -115 -200 -115v-310h-30v580h-100v20h100v120h30v-120h200l-5 -20h-195v-235h5s75 100 195 100c125 0 205 -80 205 -195v-50c0 -140 -90 -230 -220 -230v20c110 0 190 80 190 210z" />
    <glyph glyph-name="afii10100" unicode="&#x453;" horiz-adv-x="445" 
d="M100 0v500h335l-5 -20h-300v-480h-30zM250 580l105 190h35l-120 -190h-20z" />
    <glyph glyph-name="afii10101" unicode="&#x454;" horiz-adv-x="530" 
d="M490 420l-15 -10s-65 85 -175 85c-120 0 -220 -100 -220 -235h255l-5 -20h-250c0 -135 100 -235 220 -235c130 0 195 105 195 105l15 -10s-70 -115 -210 -115s-250 110 -250 265s110 265 250 265c120 0 190 -95 190 -95z" />
    <glyph glyph-name="afii10102" unicode="&#x455;" horiz-adv-x="470" 
d="M430 130c0 -75 -70 -145 -200 -145s-200 115 -200 115l15 10s65 -105 185 -105c110 0 170 60 170 125c0 150 -340 80 -340 255c0 65 65 130 180 130c110 0 180 -85 180 -85l-15 -10s-65 75 -165 75c-95 0 -150 -55 -150 -110c0 -150 340 -80 340 -255z" />
    <glyph glyph-name="afii10103" unicode="&#x456;" horiz-adv-x="230" 
d="M130 500v-500h-30v500h30zM145 680c0 -15 -15 -30 -30 -30s-30 15 -30 30s15 30 30 30s30 -15 30 -30z" />
    <glyph glyph-name="afii10104" unicode="&#x457;" horiz-adv-x="230" 
d="M130 500v-500h-30v500h30zM40 680c0 -15 -15 -30 -30 -30s-30 15 -30 30s15 30 30 30s30 -15 30 -30zM230 680c0 -15 -15 -30 -30 -30s-30 15 -30 30s15 30 30 30s30 -15 30 -30z" />
    <glyph glyph-name="afii10105" unicode="&#x458;" horiz-adv-x="245" 
d="M145 500v-480c0 -150 -80 -230 -200 -230v20c100 0 170 70 170 210v480h30zM160 680c0 -15 -15 -30 -30 -30s-30 15 -30 30s15 30 30 30s30 -15 30 -30z" />
    <glyph glyph-name="afii10106" unicode="&#x459;" horiz-adv-x="860" 
d="M480 320h140c125 0 200 -75 200 -160s-75 -160 -200 -160h-170v480h-235l-30 -280c-17 -155 -80 -220 -150 -220c-15 0 -35 5 -35 5v20h35c50 0 106 55 120 195l30 300h295v-180zM620 300h-140v-280h140c105 0 170 65 170 140s-65 140 -170 140z" />
    <glyph glyph-name="afii10107" unicode="&#x45a;" horiz-adv-x="845" 
d="M455 300h160c120 0 190 -70 190 -150s-70 -150 -190 -150h-190v280h-295v-280h-30v500h30v-200h295v200h30v-200zM615 280h-160v-260h160c100 0 160 60 160 130s-60 130 -160 130z" />
    <glyph glyph-name="afii10108" unicode="&#x45b;" 
d="M140 580v-235h5s75 100 195 100c125 0 205 -80 205 -195v-250h-30v250c0 100 -75 175 -175 175c-120 0 -200 -115 -200 -115v-310h-30v580h-100v20h100v120h30v-120h200l-5 -20h-195z" />
    <glyph glyph-name="afii10109" unicode="&#x45c;" horiz-adv-x="520" 
d="M315 265l185 -265h-35l-175 250h-160v-250h-30v500h30v-230h165l155 230h25zM255 580l105 190h35l-120 -190h-20z" />
    <glyph glyph-name="afii10110" unicode="&#x45e;" horiz-adv-x="510" 
d="M250 -5l-230 505h35l210 -460h5l195 460h25l-230 -540c-55 -130 -105 -180 -175 -180c-25 0 -45 10 -45 10v20s20 -10 45 -10c55 0 101 45 150 160zM265 620c95 0 140 95 140 95l15 -5s-40 -120 -155 -120s-155 120 -155 120l15 5s45 -95 140 -95z" />
    <glyph glyph-name="afii10193" unicode="&#x45f;" horiz-adv-x="610" 
d="M290 0h-190v500h30v-480h350v480h30v-500h-190l-5 -160h-20z" />
    <glyph glyph-name="afii10050" unicode="&#x490;" horiz-adv-x="535" 
d="M115 0v700h380l10 120h20v-140h-380v-680h-30z" />
    <glyph glyph-name="afii10098" unicode="&#x491;" horiz-adv-x="435" 
d="M100 0v500h295l10 110h20v-130h-295v-480h-30z" />
    <glyph glyph-name="uni1E9E" unicode="&#x1e9e;" horiz-adv-x="685" 
d="M420 -20c-65 0 -120 35 -120 35l5 20s50 -35 115 -35c115 0 185 70 185 179c0 211 -265 211 -265 211v20l195 265v5h-160c-150 0 -240 -90 -240 -230v-450h-30v450c0 150 100 250 270 250h190v-20l-195 -265v-5s265 -10 265 -230c0 -120 -80 -200 -215 -200z" />
    <glyph glyph-name="endash" unicode="&#x2013;" horiz-adv-x="610" 
d="M570 340v-20h-530v20h530z" />
    <glyph glyph-name="emdash" unicode="&#x2014;" horiz-adv-x="770" 
d="M730 340v-20h-690v20h690z" />
    <glyph glyph-name="quoteleft" unicode="&#x2018;" horiz-adv-x="190" 
d="M95 610c15 0 30 -15 30 -30s-15 -30 -30 -30s-30 15 -30 35c0 85 75 125 75 125l10 -15s-55 -35 -55 -85z" />
    <glyph glyph-name="quoteright" unicode="&#x2019;" horiz-adv-x="190" 
d="M95 650c-15 0 -30 15 -30 30s15 30 30 30s30 -15 30 -35c0 -85 -75 -125 -75 -125l-10 15s55 35 55 85z" />
    <glyph glyph-name="quotesinglbase" unicode="&#x201a;" horiz-adv-x="190" 
d="M95 -10c-15 0 -30 15 -30 30s15 30 30 30s30 -15 30 -35c0 -85 -75 -125 -75 -125l-10 15s55 35 55 85z" />
    <glyph glyph-name="quotedblleft" unicode="&#x201c;" horiz-adv-x="330" 
d="M235 610c15 0 30 -15 30 -30s-15 -30 -30 -30s-30 15 -30 35c0 85 75 125 75 125l10 -15s-55 -35 -55 -85zM95 610c15 0 30 -15 30 -30s-15 -30 -30 -30s-30 15 -30 35c0 85 75 125 75 125l10 -15s-55 -35 -55 -85z" />
    <glyph glyph-name="quotedblright" unicode="&#x201d;" horiz-adv-x="330" 
d="M95 650c-15 0 -30 15 -30 30s15 30 30 30s30 -15 30 -35c0 -85 -75 -125 -75 -125l-10 15s55 35 55 85zM235 650c-15 0 -30 15 -30 30s15 30 30 30s30 -15 30 -35c0 -85 -75 -125 -75 -125l-10 15s55 35 55 85z" />
    <glyph glyph-name="quotedblbase" unicode="&#x201e;" horiz-adv-x="305" 
d="M95 -10c-15 0 -30 15 -30 30s15 30 30 30s30 -15 30 -35c0 -85 -75 -125 -75 -125l-10 15s55 35 55 85zM235 -10c-15 0 -30 15 -30 30s15 30 30 30s30 -15 30 -35c0 -85 -75 -125 -75 -125l-10 15s55 35 55 85z" />
    <glyph glyph-name="dagger" unicode="&#x2020;" horiz-adv-x="530" 
d="M40 400v20h210v280h30v-280h210v-20h-210v-600h-30v600h-210z" />
    <glyph glyph-name="daggerdbl" unicode="&#x2021;" horiz-adv-x="530" 
d="M490 60v-20h-210v-240h-30v240h-210v20h210v380h-210v20h210v240h30v-240h210v-20h-210v-380h210z" />
    <glyph glyph-name="bullet" unicode="&#x2022;" horiz-adv-x="320" 
d="M235 345c0 -40 -35 -75 -75 -75s-75 35 -75 75s35 75 75 75s75 -35 75 -75z" />
    <glyph glyph-name="ellipsis" unicode="&#x2026;" horiz-adv-x="610" 
d="M125 20c0 -15 -15 -30 -30 -30s-30 15 -30 30s15 30 30 30s30 -15 30 -30zM335 20c0 -15 -15 -30 -30 -30s-30 15 -30 30s15 30 30 30s30 -15 30 -30zM545 20c0 -15 -15 -30 -30 -30s-30 15 -30 30s15 30 30 30s30 -15 30 -30z" />
    <glyph glyph-name="perthousand" unicode="&#x2030;" horiz-adv-x="1180" 
d="M190 0l420 700h30l-420 -700h-30zM70 550c0 -90 60 -150 130 -150s130 60 130 150s-60 150 -130 150s-130 -60 -130 -150zM360 550c0 -100 -70 -170 -160 -170s-160 70 -160 170s70 170 160 170s160 -70 160 -170zM730 150c0 90 -60 150 -130 150s-130 -60 -130 -150
s60 -150 130 -150s130 60 130 150zM440 150c0 100 70 170 160 170s160 -70 160 -170s-70 -170 -160 -170s-160 70 -160 170zM1110 150c0 90 -60 150 -130 150s-130 -60 -130 -150s60 -150 130 -150s130 60 130 150zM820 150c0 100 70 170 160 170s160 -70 160 -170
s-70 -170 -160 -170s-160 70 -160 170z" />
    <glyph glyph-name="guilsinglleft" unicode="&#x2039;" horiz-adv-x="310" 
d="M270 470l-205 -218v-4l205 -218l-20 -15l-220 235l220 235z" />
    <glyph glyph-name="guilsinglright" unicode="&#x203a;" horiz-adv-x="310" 
d="M245 252l-205 218l20 15l220 -235l-220 -235l-20 15l205 218v4z" />
    <glyph glyph-name="fraction" unicode="&#x2044;" horiz-adv-x="565" 
d="M40 0l460 700h25l-460 -700h-25z" />
    <glyph glyph-name="foursuperior" unicode="&#x2074;" horiz-adv-x="365" 
d="M235 465v190h-5l-170 -185v-5h175zM30 445v25l210 230h25v-235h70l-5 -20h-65v-85h-30v85h-205z" />
    <glyph glyph-name="Euro" unicode="&#x20ac;" horiz-adv-x="780" 
d="M520 425h-365s-5 -45 -5 -75s5 -75 5 -75h365v-20h-360c35 -150 145 -255 305 -255c195 0 270 145 270 145l15 -10s-80 -155 -285 -155c-180 0 -305 125 -335 275h-100v20h95s-5 45 -5 75s5 75 5 75h-95v20h100c40 160 155 275 335 275c185 0 270 -145 270 -145l-15 -10
s-80 135 -255 135c-160 0 -265 -105 -305 -255h360v-20z" />
    <glyph glyph-name="uni20B4" unicode="&#x20b4;" horiz-adv-x="630" 
d="M40 410v20h430s30 40 30 100c0 90 -80 170 -205 170c-130 0 -195 -105 -195 -105l-15 10s70 115 210 115c145 0 235 -90 235 -190c0 -60 -30 -100 -30 -100h90v-20h-550zM590 290v-20h-430s-30 -40 -30 -100c0 -90 80 -170 205 -170c130 0 195 105 195 105l15 -10
s-70 -115 -210 -115c-145 0 -235 90 -235 190c0 60 30 100 30 100h-90v20h550z" />
    <glyph glyph-name="uni20BD" unicode="&#x20bd;" horiz-adv-x="660" 
d="M580 500c0 110 -70 180 -200 180h-200v-360h200c130 0 200 70 200 180zM610 500c0 -120 -80 -200 -230 -200h-200v-110h310v-20h-310v-170h-30v170h-110v20h110v110h-110v20h110v380h230c150 0 230 -80 230 -200z" />
    <glyph glyph-name="afii61352" unicode="&#x2116;" horiz-adv-x="1110" 
d="M1035 260v-20h-300v20h300zM135 660v-660h-20v700h30l435 -660h5v660h20v-700h-30l-435 660h-5zM755 550c0 -90 60 -150 130 -150s130 60 130 150s-60 150 -130 150s-130 -60 -130 -150zM1045 550c0 -100 -70 -170 -160 -170s-160 70 -160 170s70 170 160 170
s160 -70 160 -170z" />
    <glyph glyph-name="trademark" unicode="&#x2122;" horiz-adv-x="895" 
d="M160 340v340h-140v20h315l-5 -20h-140v-340h-30zM775 660l-170 -265h-15l-165 265h-5v-320h-20v360h30l170 -270h5l175 270h30v-360h-30v320h-5z" />
    <glyph glyph-name="minus" unicode="&#x2212;" horiz-adv-x="480" 
d="M440 360v-25h-400v25h400z" />
    <glyph glyph-name="commaaccent" unicode="&#xf6c3;" horiz-adv-x="155" 
d="M85 -140c-15 0 -30 15 -30 30s15 30 30 30s30 -15 30 -35c0 -75 -65 -115 -65 -115l-10 15s45 35 45 75z" />
    <glyph glyph-name="cyrBreve" unicode="&#xf6d1;" horiz-adv-x="410" 
d="M205 810c105 0 150 105 150 105l15 -5s-40 -130 -165 -130s-165 130 -165 130l15 5s45 -105 150 -105z" />
    <glyph glyph-name="cyrbreve" unicode="&#xf6d4;" horiz-adv-x="390" 
d="M195 630c95 0 140 95 140 95l15 -5s-40 -120 -155 -120s-155 120 -155 120l15 5s45 -95 140 -95z" />
    <glyph glyph-name="foundryicon" horiz-adv-x="1230" 
d="M100 -110v920h1030v-920h-1030zM1110 -90v880h-990v-880h990zM635 610h110c50 0 80 -30 80 -65s-30 -65 -80 -65h-55v-80h-55v210zM635 300h110c50 0 80 -30 80 -65s-30 -65 -80 -65h-55v-80h-55v210zM495 170l-75 130h60l40 -75h5l40 75h65l-80 -130v-80h-55v80z
M495 480l-75 130h60l40 -75h5l40 75h65l-80 -130v-80h-55v80zM300 255h-65v45h165l25 -45h-70v-165h-55v165zM300 565h-65v45h165l25 -45h-70v-165h-55v165zM790 400v65c25 5 55 30 60 60h80v-45h-85v-35h120v-45h-175zM790 90v65c25 5 55 30 60 60h80v-45h-85v-35h120v-45
h-175zM810 300h155v-45h-115c-5 20 -20 40 -40 45zM810 610h155v-45h-115c-5 20 -20 40 -40 45zM765 545c0 10 -10 20 -20 20h-55v-40h55c10 0 20 9 20 20zM765 235c0 10 -10 20 -20 20h-55v-40h55c10 0 20 9 20 20z" />
    <glyph glyph-name="germandbls" horiz-adv-x="595" 
d="M440 570c0 -100 -75 -130 -75 -200c0 -120 200 -110 200 -250c0 -75 -60 -135 -155 -135c-60 0 -105 35 -105 35l10 15s45 -30 95 -30c75 0 125 50 125 115c0 130 -195 120 -195 250c0 80 70 110 70 200c0 60 -60 120 -125 120c-85 0 -145 -60 -145 -190v-500h-30v480
h-90v20h90c0 140 70 210 175 210c85 0 155 -70 155 -140z" />
    </font>
</defs>
</svg>
