<?xml version="1.0" standalone="no"?>
<!DOCTYPE svg PUBLIC "-//W3C//DTD SVG 1.1//EN" "http://www.w3.org/Graphics/SVG/1.1/DTD/svg11.dtd" >
<svg xmlns="http://www.w3.org/2000/svg" xmlns:xlink="http://www.w3.org/1999/xlink" version="1.1">
<metadata>
Created by FontForge 20160405 at Mon Jul 16 08:06:51 2018
 By www-data
X-tina fonts (c) 2007 All Rights Reserved.
</metadata>
<defs>
<font id="Denistina" horiz-adv-x="934" >
  <font-face 
    font-family="Denistina"
    font-weight="400"
    font-stretch="condensed"
    units-per-em="2048"
    panose-1="3 11 4 6 3 2 3 3 2 4"
    ascent="1638"
    descent="-410"
    x-height="781"
    cap-height="1684.5"
    bbox="-1591.14 -620 9000 6384"
    underline-thickness="150"
    underline-position="-442"
    unicode-range="U+0020-F010"
  />
<missing-glyph horiz-adv-x="810" 
d="M44 0l203 1282l680 18l-178 -1300h-705zM129 53h537l185 1174l-547 -2z" />
    <glyph glyph-name=".notdef" horiz-adv-x="810" 
d="M44 0l203 1282l680 18l-178 -1300h-705zM129 53h537l185 1174l-547 -2z" />
    <glyph glyph-name=".null" horiz-adv-x="0" 
 />
    <glyph glyph-name="nonmarkingreturn" horiz-adv-x="467" 
 />
    <glyph glyph-name="space" unicode=" " horiz-adv-x="467" 
 />
    <glyph glyph-name="space" unicode="&#xa0;" horiz-adv-x="467" 
 />
    <glyph glyph-name="exclam" unicode="!" horiz-adv-x="627" 
d="M1042 1619q18 3 12 -29q-114 -173 -358 -489l-229 -259q-40 -22 -25 14q531 793 600 763zM247.5 519.5q10.5 -22.5 -5.5 -60.5q-19 -78 -36 -85t-35.5 10t-16.5 69q8 72 45.5 80.5t48 -14z" />
    <glyph glyph-name="quotedbl" unicode="&#x22;" horiz-adv-x="400" 
d="M315 942q25 2 20.5 -12t-49 -48t-175.5 -136q-40 -50 -50 -50t-10 20q-7 46 75 107q68 67 116 92t73 27zM420.5 864q0.5 -20 -176.5 -155l-71 -61q-56 -54 -65.5 -41t7.5 42.5t134.5 125.5t144 102.5t27 -13.5z" />
    <glyph glyph-name="numbersign" unicode="#" horiz-adv-x="2266" 
d="M3206 2145q99 -14 55.5 -102.5t-135.5 -163.5q-41 -17 -31 14q79 144 53 163t-93 17q-388 -10 -706 -70q-146 -24 -483 -96q-319 -104 -349 -201l-18 -87l38 -230q4 -55 1 -137l-23 -73q-110 -227 -207 -308q-208 -257 -383 -305q-92 -39 -239 -31q-53 106 -3 193
l-99 -53q-75 -45 -115 -63q-68 -41 -166 -83q-117 -63 -255 -92q-55 11 -48 70q0 183 191 308q18 22 48 28h32q64 -23 64 -98q-31 -64 -64 -70h-16l-48 28l-53 -6q-58 -53 -84 -120q-11 -76 78 -34q453 172 618 384l39 43l72 83q21 15 35 7t9 -84q-44 -66 -107 -161
q-120 -195 -56 -209l89 6l90 19q126 62 199 135q64 69 149 165q69 63 108 154q41 78 67 161l6 115l-15 94l-31 214q0 332 1483 462zM1962 955q65 -19 96 -42q43 -24 26.5 -82t-126 -124t-204.5 -77t-128.5 13t-45 76.5t30.5 123.5q77 83 187 100q75 24 164 12zM1826 880
q-94 -14 -138.5 -71t-17.5 -97.5t132 -8.5q212 79 194 149q-56 57 -170 28zM1780 501l54 6l112 14h144q111 -14 111 -42q-195 0 -452 -33l-154 -23q-183 -20 -243 -38t-119 -10t-48 28t203 56l104 17q129 18 288 25z" />
    <glyph glyph-name="dollar" unicode="$" horiz-adv-x="2120" 
d="M1571.5 2336.5q14.5 -38.5 -20.5 -126.5q-35 -94 -109 -248q-92 -170 -164 -384l98 20q56 38 93 103q29 53 103 247q22 49 56 84q39 25 44.5 -10t-20.5 -96.5t-71 -170.5l-71 -118q178 33 310.5 20t213.5 -87l16 -25l34 89q48 244 71.5 246t33 -25t2.5 -70l-10 -65
q-103 -403 -214 -532q-36 9 -29 50l49 133l20 70q2 92 -137 127l-92 16l-78 -1q-74 1 -128 -12l-55 -13q-74 -20 -109 -103l-25 -56q-7 -25 -63 -136q-14 -25 -72 -160q-82 -137 -109 -230l-3 -37l68 -29q111 -22 193 -51t175 -96q35 -55 28 -140q-46 -114 -105.5 -161.5
t-166 -60t-309.5 -11.5t-203 -33q-56 -103 -89 -209q-9 -15 -46 -107q-32 -73 -41 -101.5t-43 -4.5q-11 41 -4 91q17 75 109 298l27 55l-95 -8q-79 -41 -208 -389q-20 -54 -53 -72q-68 -13 -37 61q41 87 89 218q27 80 54 142q-13 37 -91 30l-328 -14q-69 13 -45 41t181 41
l116 12l64 -1l104 1l49 2q24 18 62 68l69 126q44 55 176 335l-115 64q-101 87 -154 162q-30 88 -17 125q0 154 560 308q71 0 196 336q182 355 196 429.5t34.5 78t35 -35zM998 982l-30 -71l67 -36l63 115q99 176 222 482l10 25l-88 -18q-34 -17 -66 -92q-33 -33 -105 -228z
M801 1342l-97 -52q-118 -84 -43 -185q69 -104 224 -177q169 379 184 460l16 46l-81 -22q-106 -23 -203 -70zM715 458l-47 -95l111 13q98 167 200 383l14 36l-54 22q-72 -32 -224 -359zM924 480l-15 -64q-33 -41 44 -43q221 -15 308.5 -11.5t195.5 57.5l54 64l3 71
q0 113 -353 194l-67 2q-46 -20 -98 -134q-47 -90 -72 -136z" />
    <glyph glyph-name="percent" unicode="%" horiz-adv-x="1170" 
d="M1550 1568q-87 -54 -188 -153q-42 -33 -91 -72l-31 -31q-62 -48 -103 -76q-218 -201 -260 -234q-37 -36 -100 -84q-107 -100 -181 -155q-47 -42 -101 -89q13 0 48 21.5t171 99.5q151 98 243 51q40 -44 5 -115t-237 -121q-74 -21 -121 64q-180 -63 -435 -281
q-95 -51 -109 0q0 89 85 89q254 185 254 204q75 64 140 111q118 106 282 242q27 27 55.5 52.5t30.5 54.5q-140 -12 -300 -73l-269 -93h-36q-91 26 -85 90q-4 84 73 150q65 60 184 56q82 -47 9 -194l133 52l49 17q52 22 183 59q125 26 225 86q185 125 245 174q35 38 74 66
l108 83q67 25 50 -51zM272 1075q28 -49 68 -36.5t87 57.5q45 71 24 116q-36 24 -113 -16q-62 -51 -66 -121zM686 659q34 -11 124 16q84 30 112 71q33 65 -24 67q-79 16 -172 -52t-40 -102z" />
    <glyph glyph-name="ampersand" unicode="&#x26;" horiz-adv-x="1044" 
d="M924 1329q0 -43 -59 -127q-81 -121 -230 -269q-36 -45 -68 -82q0 -40 86 -110l49 5l7 -5v-6l-7 -49q0 -28 15 -37t35 -62q-6 -44 -13 -50t-19.5 3t-30 55.5t-48.5 62.5q-26 0 -289 -176q-29 -20 -123 -88l-43 -27q-48 -17 -62 27q6 42 24.5 78.5t82.5 108.5
q16 28 219 215l31 55q-47 69 -61 94l-12 31l-7 28q-6 43 12 83q12 23 43 55q34 42 105 88q30 16 86 49q39 15 86 39l64 26q65 23 98 24.5t29 -39.5zM506 905l24 -5q18 10 43 27q82 88 117 143l74 83q16 27 35 44.5t51 81.5q4 20 -12 22q-236 -96 -304 -158
q-59 -45 -83.5 -91.5t55.5 -146.5zM124 6384q56 -28 56 -84q-56 28 -56 84zM262 554l-28 -34q-24 -25 -59 -97l38 20q56 30 99 66q26 17 58 43q37 18 136 84l92 55q0 33 -31 62t-55 37h-6q-194 -183 -244 -236z" />
    <glyph glyph-name="quotesingle" unicode="'" horiz-adv-x="186" 
d="M98 697l-1 77l-12 62q-11 60 -53 97.5t33 63.5q79 -16 85 -99q7 -96 -52 -201z" />
    <glyph glyph-name="parenleft" unicode="(" horiz-adv-x="559" 
d="M1148 1619q83 12 105 -27q-1 -10 -69 -35l-36 -9q-250 -130 -485 -292t-304 -213t-171.5 -188.5t-120.5 -373.5q34 -142 -16 -103t-50 114q-1 198 65 319l21 34l43 73q48 69 130.5 141.5t179 140t152.5 105t96.5 61.5t117 69t148.5 86.5t194 97.5z" />
    <glyph glyph-name="parenright" unicode=")" horiz-adv-x="559" 
d="M1166 1619q86 -37 86 -79v-34q0 -155 -324 -503q-206 -219 -745 -576q-112 -60 -144 -59.5t-39 59.5q311 162 363 200.5t80 58t85 64t145 115.5t131.5 108.5t69.5 63t195 240.5l23 36q26 35 53 87q37 63 36 151l-5 22l-32 39q0 7 22 7z" />
    <glyph glyph-name="asterisk" unicode="*" horiz-adv-x="520" 
d="M297 1060h18q28 0 2 -73l89 -13l-36 -35l-27 -21l54 -13h73v-17q-18 0 -18 -26l-9 -9l-123 13q23 -56 5 -56q-44 26 -66 41l-89 -24l16 49l-98 -23l-18 17v9q0 19 100 52q0 21 127 129zM0 4560q40 -20 40 -60q-40 20 -40 60z" />
    <glyph glyph-name="plus" unicode="+" horiz-adv-x="525" 
d="M442.5 900.5q7.5 -20.5 -30.5 -83.5l-47 -104l35 -3l110 -20q20 -30 -10 -42q-179 39 -228 -88l-42 -70q-18 -12 -30 8q-2 55 41 142l-131 10h-60q-35 20 12 50l83 5l65 5l74 8l54 106q54 86 75.5 91.5t29 -15z" />
    <glyph glyph-name="comma" unicode="," horiz-adv-x="417" 
d="M233.5 517q78.5 -13 104.5 -47t27 -64.5t-12 -65t-66 -94.5t-160 -116l-38 -27q-36 -21 -80 -41q-32 -20 -43 -10t1.5 29.5t175.5 116.5q66 51 105 94q44 73 38.5 102t-27.5 38h-32l-33 -20q-95 -25 -87 50q48 68 126.5 55z" />
    <glyph glyph-name="hyphen" unicode="-" horiz-adv-x="559" 
d="M425 702q47 -2 79 -17.5t22.5 -27t-168.5 -13.5l-172 -2q-71 0 -91 7.5t-29 23t10 22.5t349 7z" />
    <glyph glyph-name="hyphen" unicode="&#xad;" horiz-adv-x="559" 
d="M425 702q47 -2 79 -17.5t22.5 -27t-168.5 -13.5l-172 -2q-71 0 -91 7.5t-29 23t10 22.5t349 7z" />
    <glyph glyph-name="period" unicode="." horiz-adv-x="467" 
d="M52 467q34 0 43.5 -50t-15 -59.5t-59.5 26.5t-19 59.5t50 23.5z" />
    <glyph glyph-name="slash" unicode="/" horiz-adv-x="591" 
d="M1219 1876q65 32 33 -58l-195 -306q-342 -541 -455 -670q-178 -263 -553 -841q-64 -14 -49 57q260 440 392 623.5t346 473.5z" />
    <glyph glyph-name="zero" unicode="0" 
d="M792 1167q123 -29 137 -109t-54 -221.5t-289.5 -287.5t-301 -171.5t-136 -27t-102.5 22t-46 101.5q305 693 792 693zM140.5 433.5q75.5 -18.5 313 124.5t307 246.5t69 192t-156.5 80.5t-378 -254q-107 -141 -168.5 -256t14 -133.5z" />
    <glyph glyph-name="one" unicode="1" horiz-adv-x="601" 
d="M880 1167q43 14 20 -39q-196 -156 -450 -507l-149 -183q-44 -64 -109.5 -76t-26.5 53l244 294l45 78q-319 -89 -395 -186q-59 0 -59.5 35.5t252.5 147.5l195 99q46 23 131 66z" />
    <glyph glyph-name="two" unicode="2" 
d="M768 1161q57 9 110 -5t72 -78v-22q0 -204 -440 -445q-52 -72 50 -124q136 57 217 116.5t80 7.5q-212 -200 -347 -200q-71 62 -116 134q-159 -161 -348 -178q-35 10 -46 44q0 191 533 312q268 109 338 311q-3 46 -55 52q-196 -4 -234.5 -92t-118.5 -71q-25 24 -8.5 96.5
t313.5 141.5zM185 545q-104 -63 -96.5 -95t184.5 64q58 60 -17 49z" />
    <glyph glyph-name="three" unicode="3" horiz-adv-x="932" 
d="M818 1167q97 0 118 -45t6 -102q-49 -75 -120 -119q-120 -65 -111 -126q-33 -233 -167.5 -306.5t-312.5 -101.5q-107 16 -165 56q-78 26 -66.5 90t71.5 66l54 -101l115 -26q181 19 272.5 90.5t104.5 168.5l-24 64l-33 41q258 168 285 199q24 112 -151 43
q-148 -112 -145.5 -148.5t-24.5 -38t-44 34.5q5 67 114 172q104 89 224 89z" />
    <glyph glyph-name="four" unicode="4" horiz-adv-x="573" 
d="M434 1167q59 20 40 -22t-210 -276q-166 -175 -76 -143l92 20q236 68 315 213q64 84 79 103.5t42.5 34.5t36.5 -17t-12 -52.5t-68 -83t-448 -513.5q-25 -25 -48 -64q-44 -2 -64 48l214 236l39 40l-38 -3q-51 -12 -280 -49q-55 -10 -51.5 11.5t42.5 54.5q82 94 155 174
q90 123 138 186t102 102z" />
    <glyph glyph-name="five" unicode="5" horiz-adv-x="710" 
d="M924 1090q-119 3 -253 -11q-143 -7 -206 -91l-110 -149q82 11 197.5 -13.5t115.5 -145.5q-117 -199 -366 -291l-113 -28q-156 -4 -188 65q-5 54 61 59q38 -62 140 -54q131 24 197 75q128 75 166.5 133t18.5 90t-119 48l-109 1l-72 -59q-47 -5 -61 39v40q115 165 263 323
q37 35 497 28q2 -41 -59 -59z" />
    <glyph glyph-name="six" unicode="6" horiz-adv-x="655" 
d="M774.5 1181q75.5 17 55.5 -65q-186 -18 -401 -280q-33 -42 19.5 -39.5t109 -18t63 -95t-127.5 -186t-419 -130.5q-67 11 -74.5 55t61.5 159q92 128 191 214q219 210 330 282q117 87 192.5 104zM289 480q68 9 134.5 51.5t96.5 87.5t5.5 76t-77.5 34q-153 -7 -159 -249z
M223 461l28 212q-17 -5 -88 -69t-79 -127.5t139 -15.5z" />
    <glyph glyph-name="seven" unicode="7" horiz-adv-x="627" 
d="M488 1467q53 -229 90 -268t202 -81l74 27q76 5 97 -80q-375 -146 -454 -289q100 3 176.5 -7.5t6.5 -61.5q-212 -5 -301 -39q-113 -41 -207 -301q-52 -17 -74 54l27 71l95 143q35 83 -219 126q-12 48 49 62l268 -54l389 279q-206 41 -237 131.5t-32.5 173.5t50.5 114z" />
    <glyph glyph-name="eight" unicode="8" horiz-adv-x="714" 
d="M911.5 1087q20.5 -121 -83.5 -222.5t-189 -128.5t-148.5 -43.5t-114.5 -150.5t-180 -175q-241 -48 -196 170q17 68 335 198q61 74 111 228q89 149 267 197t198.5 -73zM468 770q116 10 206 66.5t147 177.5q35 96 -98 73q-218 -80 -255 -317zM81 510q-38 -86 80 -75
q101 17 160 153l37 70q-144 -36 -277 -148z" />
    <glyph glyph-name="nine" unicode="9" horiz-adv-x="642" 
d="M764 1122.5q58 -63.5 36 -146.5q0 -48 -494 -522q-100 -101 -235 -89q-71 19 -71 106q3 55 68 35q17 -99 148 -33q91 68 217 215l27 44l-230 -14q-95 30 -43 119q54 110 166.5 195t232.5 119.5t178 -29zM336 800q91 5 169 24.5t156 103.5t36.5 129t-140.5 -7
q-195 -89 -253.5 -172t32.5 -78z" />
    <glyph glyph-name="colon" unicode=":" horiz-adv-x="692" 
d="M595 867q24 8 24 -19q0 -101 -71 -166q-34 -15 -45.5 18.5t92.5 166.5zM488 534q0 -108 -83 -167q-42 -7 -36 37q60 74 60 148q13 70 59 -18z" />
    <glyph glyph-name="semicolon" unicode=";" horiz-adv-x="325" 
d="M205 920q66 4 57 -37t-52 -80q-60 -46 -60 17q0 61 55 100zM204 491q66 -54 76 -142q-7 -58 -48.5 -105.5t-174 -150t-160 -94.5t-2.5 43l230 190q80 73 80 130q-22 53 -51 81.5t-60.5 30t-38.5 24.5t38 35t111 -42z" />
    <glyph glyph-name="semicolon" unicode="&#x37e;" horiz-adv-x="325" 
d="M205 920q66 4 57 -37t-52 -80q-60 -46 -60 17q0 61 55 100zM204 491q66 -54 76 -142q-7 -58 -48.5 -105.5t-174 -150t-160 -94.5t-2.5 43l230 190q80 73 80 130q-22 53 -51 81.5t-60.5 30t-38.5 24.5t38 35t111 -42z" />
    <glyph glyph-name="less" unicode="&#x3c;" horiz-adv-x="723" 
d="M660 954q80 9 70 -50q0 -30 -80 -30q-75 -42 -160 -80q-205 -77 -238 -87t-82 -46q91 -17 430 -207q50 -18 50 -70q-23 -38 -70 -30l-228 138q-122 45 -178 68.5t-154 53.5q-36 20 -20 50q36 42 160 90q47 28 500 200z" />
    <glyph glyph-name="equal" unicode="=" horiz-adv-x="981" 
d="M129 791l250 -10h80q460 -36 460 -70q13 -4 8 -18t-58 -12l-230 26l-250 4q-91 7 -124 7h-76l-80 3q-54 40 20 70zM399 631h260q91 -7 140 -30q28 -24 -2 -40l-78 3l-80 7h-210q-103 0 -310 -40q-40 13 -20 50l126 27q119 19 174 23z" />
    <glyph glyph-name="greater" unicode="&#x3e;" horiz-adv-x="1003" 
d="M252 894q92 -69 310 -140q120 -27 120 -50q-16 -59 -240 -140q-62 -24 -118 -50q-146 -38 -232 -140q-71 -45 -70 30q82 98 170 140l193 71q70 16 97 49v10q-12 43 -96.5 75.5t-134.5 58t-65.5 74t66.5 12.5z" />
    <glyph glyph-name="question" unicode="?" horiz-adv-x="1011" 
d="M710 1781q141 45 322 0q68 -40 39 -112q-7 -134 -658 -686q-27 -13 -28 14q0 54 476 476q85 86 119 159.5t-14 92t-107 13.5q-139 2 -274 -68t-205.5 -135t-74 -109.5t-45 -26t-9.5 82.5t114.5 133t152.5 103t192 63zM217 563q37 -14 25.5 -56t-81.5 -42q-19 -98 -56 -98
q-36 18 -28 56q28 140 140 140z" />
    <glyph glyph-name="at" unicode="@" horiz-adv-x="1780" 
d="M1482 1078l96 -14q226 -99 226 -280q-7 -109 -58 -186q-73 -105 -278 -164q-74 -32 -252 -84l-308 -70l-55 -5q-25 0 -29 97l-57 -33q-95 -33 -181 -17q-69 13 -42 84q54 112 113.5 163t139 101.5t237.5 71.5q113 3 126 -84v-28q-49 -119 -221 -217q-105 -93 130 -36.5
t420.5 139t219.5 221.5q14 39 -18 123.5t-168 130.5l-84 12l-130 -17q-462 -89 -734 -256q-162 -109 -312 -273.5t-159 -273.5q-14 -96 176 -103l104 4l140 34q202 41 245 50l83 14l170 32q362 49 392 57l184 23q150 22 116.5 -18t-101.5 -41l-229 -25l-770 -140
q-126 -36 -231 -53t-184 -10t-142.5 47t-23 174t159.5 269.5t283 244.5q44 38 166 98q304 168 798 238h42zM870 635q-119 -50 -199 -146t-38.5 -110.5t180.5 51.5q128 59 203 112q53 30 60 88q8 43 -33 56q-96 -3 -173 -51z" />
    <glyph glyph-name="A" unicode="A" horiz-adv-x="1120" 
d="M824 1110q227 195 376 268l164 91q260 128 365.5 145.5t116.5 -36.5q0 -37 -168 -241q-53 -60 -98 -94q-54 -67 -80 -91q-19 -20 -55 -53q-58 -63 -117 -118l-112 -115q-33 -37 -63 -57q-26 -35 -113 -119l-20 -28l-14 -16l-146 -169l-75 -91q-93 -44 -8 90
q118 157 247 323l-144 35h-84q-165 0 -232 -62q-69 -32 -213 -162q-54 -38 -83 -66q-63 -63 -132 -117q-74 -67 -124 -50l-12 32l1 59l16 68q10 60 38 108q12 55 47.5 61.5t12.5 -72.5l-19 -70l-7 -35l-6 -36l-2 -13l168 142l196 159zM790 995l-46 -49l-11 -18l-21 -31
l19 -4l25 2q155 12 306 -40l18 6q49 35 108 99q39 36 266 272q210 226 210 262v10h-42l-229 -100q-155 -84 -201 -111q-117 -56 -271 -187q-86 -62 -131 -111z" />
    <glyph glyph-name="B" unicode="B" horiz-adv-x="1120" 
d="M1154 1568.5q8 -23.5 8 -34.5q-43 -32 -61 -58t4 -19q67 58 124 68q59 27 109 36q27 0 59 8l26 -1q47 4 81 -26q26 -10 36 -41q3 -36 -4.5 -54.5t-19.5 -45.5q-14 -23 -24 -38q-10 -20 -38 -43q-19 -29 -47.5 -52.5t-99.5 -74.5q-59 -46 -87 -61l-71 -46
q-39 -26 -78.5 -48.5t-100.5 -41.5l92 12q37 4 92.5 -6t75.5 -32q26 -8 42 -35t14 -85q-14 -65 -59 -106l-39 -42q-27 -26 -43 -39q-13 -8 -64 -43q-37 -31 -69 -46q-39 -35 -152 -72l-48 -12q-63 -17 -163 -18l-58 5l-25 3l-17 3l-25 2q-57 4 -57 39l-4 3q8 27 48 27h13
l52 -6l18 -1h5l28 -6l21 1h27l33 -1q69 9 153 37l15 4q-2 4 40 15q7 9 80 43l53 38q62 49 96 97q20 19 36 46l12 34l5 32q-9 27 -40 43l-19 6l-21 6h-4q-11 0 -65 8l-33 3l-31 -2q-27 -1 -66 -18l-32 -8q-17 -7 -55 -20q-28 -17 -47.5 -22t-98.5 -26l-26 7q-18 6 -18 27
q3 25 96 62l24 6q16 10 63 24l145 71q34 21 57 39q19 10 35 23q44 25 78 50q23 11 56 35q32 26 60 44q18 14 33 27.5t31 28.5q39 27 45 36t28 31l18 23l24 29q30 41 -9 64q-27 11 -47.5 11t-46 -3t-74 -24t-66 -29.5t-45.5 -17.5q-23 -14 -64 -34l-21 -19l-13 8v-4l4 -16
q-31 -10 -53 -31q-33 -32 -56 -59l-44 -46l-35 -37q-41 -40 -49 -71l-42 -45l-47 -54l-20 -24q-53 -60 -96 -115.5t-117 -139.5q-71 -92 -126 -149q-50 -46 -91 -96q-33 -32 -85 -70l-43 -39q-26 -26 -46 -47q-22 -13 -37 -24q-17 -17 -49 -14q-19 15 -21 33t3 38.5t39 98
t48.5 97.5t56.5 75l56 67l80 79q34 48 81 100q40 45 55.5 59.5t27 31t33.5 44t128 118.5l74 57l53 41l37 36q37 22 55 39t31 30.5t79 62.5q66 64 88 100l77 78q48 12 56 -11.5zM220 625l-47 -64l-85 -123q-21 -40 3 -25t65 66q264 285 662 738l-321 -298l-76 -77l-132 -140z
" />
    <glyph glyph-name="C" unicode="C" horiz-adv-x="878" 
d="M1745 1622q96 -27 93 -105q0 -206 -261 -363q-58 -34 -115 -27t-55 73q-2 42 40 134t87 159h-14q-379 -132 -430 -182q-234 -102 -699 -496q-142 -119 -275 -315q-50 -68 87 -24q494 145 680 145v-24l-414 -104l-40 -19l-29 -10q-65 -25 -118 -43q-66 -34 -239 -54
q-43 12 -43 73q0 36 102.5 179.5t244.5 255.5q217 200 507 388q66 53 101 66q95 72 614 263q87 35 176 30zM1609.5 1450.5q-89.5 -101.5 -89.5 -211.5l14 -13q203 70 203 255q-38 71 -127.5 -30.5z" />
    <glyph glyph-name="D" unicode="D" horiz-adv-x="2542" 
d="M1890 1626q631 -7 880 -441l32 -100q0 -371 -1241 -718q-89 -22 -108 -11t-19 61l63 167q10 67 -47 83h-48q-53 0 -461 -200q-208 -83 -284.5 -88t-81.5 55q23 115 313.5 211.5t388.5 84.5t252 154v17q-1175 4 -1290 46t-159 96q-86 40 -78 175q159 269 1453 406
q215 14 435 2zM88 1163q90 -162 423 -162l353 -19l173 3h270l350 -17q165 184 239 184l15 -17v-17l-174 -183l16 -6q78 -8 47 -45h-143l-191 -150v-16q49 0 86 -41t9 -143q-62 -117 -35 -103q1197 301 1197 637q0 239 -430 417q-385 82 -462 65l-111 2q-552 -4 -1527 -267
q-124 -53 -105 -122zM687 484q-51 -56 85 -17q634 252 380 187.5t-465 -170.5z" />
    <glyph glyph-name="E" unicode="E" horiz-adv-x="1410" 
d="M1491 1629q110 -22 87 -111.5t-80 -40t-149 33.5q-482 -127 -514 -312q-11 -48 33 -56q344 23 329 -110q-39 -22 -100 -4q-100 34 -157 11q-53 -15 -104 -35q-399 -96 -532 -187t-172 -143.5t-36 -113t102 -99.5q126 -12 184.5 -5.5t496.5 41.5q583 80 574.5 37.5
t-1058.5 -160.5l-145 -13l-64 5q-210 58 -178 261q9 69 167.5 194t616.5 260q-70 45 -38 170q185 280 737 377z" />
    <glyph glyph-name="F" unicode="F" horiz-adv-x="537" 
d="M1304 1649q393 -24 452 -67q44 -18 44 -59l-24 -15h-16q-211 52 -520 52q-510 -37 -792 -104q48 -99 41 -160.5t-33 -61.5h-16q-16 0 -20.5 49.5t-48 101.5t-43.5 79q0 85 304 126q0 17 648 59h24zM568 1286h16l24 -22v-23q0 -24 -60 -78q-172 -167 -59 -129
q191 37 263 37q80 0 80 -52q0 -33 -161 -38l-80 -11q-237 -22 -267 -124q-142 -220 -191 -355q-34 -102 -69 -124h-24q-40 19 -40 59v30q65 139 216 393l38 61q-95 3 -147 -19.5t-61 9.5t16.5 59t241.5 38q98 126 176 215q32 74 88 74z" />
    <glyph glyph-name="G" unicode="G" horiz-adv-x="1295" 
d="M1274 1649q150 -29 186.5 -95t21.5 -120q-54 -103 -143 -135h-43q-62 5 -43 58l86 68l11 36v27q0 62 -88 62h-54q-154 0 -278 -66q-105 -42 -283 -185q-262 -188 -378 -364q-58 -59 -111 -148q-42 -87 -51 -162q-8 -151 149 -158q228 12 594 146q296 142 136 121.5
t-221.5 -23t-49 32.5t125.5 50q83 18 135 18q153 1 210 -6l70 -8q53 -1 62 -28v-35q0 -52 -296 -323q-59 -9 -39 54l93 113q198 164 -66 34.5t-350 -154.5t-242 -65q-122 -27 -225.5 -24t-145.5 70.5t-47 123.5q0 280 362 619q510 466 912 466z" />
    <glyph glyph-name="H" unicode="H" horiz-adv-x="1873" 
d="M2009 1619q67 -31 43 -101q-10 -118 -404 -345q-240 -190 -395 -389q0 -28 231 33.5t233 81.5l498 475q211 190 360 202q105 -9 103 -101q9 -132 -327 -255q258 196 255 242.5t-39.5 47.5t-116 -36t-270.5 -229l-196 -193q-102 -72 -32 -52.5t402 230.5l132 58l90 45
q-393 -323 -774 -477q-309 -286 -329.5 -314t37.5 -13l378 97q87 17 69 -14q0 -37 -268 -96q-6 -19 -264 -91q-66 -2 -50 67q5 98 204 264q37 37 -17 14q-261 -72 -446 -86q-367 -317 -755 -317h-35q-309 15 -326 152v21q49 205 390 266q72 9 192.5 -19t120.5 -147
q3 -102 -255 -211q72 8 177.5 38.5t438.5 259.5v14q-24 89 69 101l52 -14l240 273h-17q-180 -72 -361 -86q-42 0 -89 79q-48 53 -82 50q-187 10 -292 -101q0 -86 240 -86h240q105 -9 -15 -48q-249 -13 -375.5 -2t-149.5 85t2.5 99t72 53t77.5 38t97.5 25t129.5 2l24 -7
q66 -30 85.5 -59.5t48.5 -55.5q518 80 518 172q229 347 430 360zM1850 1471q-385 -370 -34 -114q162 116 156.5 163.5t-122.5 -49.5zM429 741q-76 -14 -172 -43q-145 -61 -175 -140q-10 -32 10 -62q78 -61 165 -71h172l207 201v43q-57 82 -207 72z" />
    <glyph glyph-name="I" unicode="I" horiz-adv-x="800" 
d="M1179 1649q86 22 90.5 -7.5t-73 -86t-99.5 -90t-53.5 -121t-92.5 -215t-170 -308.5q-371 -451 -641 -454h-12q-127 14 -127 45q-12 43 6.5 68t43 6.5t51.5 -31t143 10.5q242 128 379.5 293t216 328.5t130.5 335.5q-69 10 -405 73q-49 -107 -159 -108q-67 5 -60 70
q35 109 243 109q127 0 335 -63q19 0 158 91z" />
    <glyph glyph-name="J" unicode="J" horiz-adv-x="888" 
d="M1267 1647q29 -2 28 -57q-53 -129 -223 -473t-301.5 -470.5t-331.5 -228.5q-89 -42 -229 -51q-210 0 -210 143v26q32 109 115 109h47q57 -29 57 -84q-3 -35 -86 -67l-9 -9v-8l9 -9h10q200 -60 529 191q253 251 476 843q32 69 61 108t58 37z" />
    <glyph glyph-name="K" unicode="K" horiz-adv-x="1385" 
d="M1514 1619h48q94 -38 56 -124l73 5q177 -30 177 -80q15 -53 -48 -79q-26 79 -113 79h-32q-144 0 -596 -425l-67 -47q75 -48 35 -144q0 -73 -187 -323l-17 -28q26 -5 162.5 55.5t282 118.5t145.5 18q-319 -164 -524 -254q-60 -26 -88 -30t-56.5 34.5t109.5 237t92.5 233.5
t-402.5 -221q-93 -63 -179.5 -132t-145 -117.5t-126.5 -28.5q-97 81 -106 188q-8 70 52 159.5t130.5 98.5t52.5 -49q-161 -49 -178 -198q28 -120 73 -132q140 23 459 430l370 338v39q-55 34 -141 114t-235 107t-221.5 24.5t-160 -23.5t-147.5 -132q-13 -86 119.5 -121
t270.5 51q48 30 12 -26t-109.5 -81t-160.5 -12q-193 39 -193 179v20q91 199 354 199h65q298 0 428 -118t193 -106q325 303 474 303zM1192 1321q189 -17 386 179q-9 69 -56.5 65.5t-137 -48t-171 -126.5t-21.5 -70zM821 943q134 0 451 318h-32q-102 2 -121.5 -2t-182.5 -157
t-115 -159zM596 745h16q177 109 177 139h-16q-177 -84 -177 -139z" />
    <glyph glyph-name="L" unicode="L" horiz-adv-x="1315" 
d="M872 1287q105 17 168 29q315 338 474 303h48q94 -38 61 -156q-91 -99 -174.5 -145t-199.5 -57q-116 -18 -133 -12t-180 -147q-92 -98 -206 -212q-69 -68 -135 -147q-107 -129 -1 -134l54 -5q68 -11 111 -60q31 -25 57 -101q53 5 189.5 65.5t282 118.5t145.5 18
q-319 -164 -524 -254q-60 -26 -88 -30t-52.5 18t-54 74.5t-94 67.5t-173.5 -8q-56 -26 -102.5 -47.5t-105 -70t-126.5 -28.5q-97 81 -106 188q-8 70 56.5 139.5t243.5 20t82 -95.5q-298 118 -312 -48q15 -125 75 -127q125 13 444 420l333 328l60 47q-128 -22 -221 -33
q-174 13 -162.5 36.5t128.5 28.5q78 4 138 16zM1192 1321q136 2 257.5 79.5t120.5 117t-48.5 42t-137 -42t-171 -126.5t-21.5 -70z" />
    <glyph glyph-name="M" unicode="M" horiz-adv-x="1658" 
d="M1514 1619h16l33 -35q-290 -338 -820 -785q-227 -252 -173 -223q498 293 1457 1026q89 28 73 -35l-624 -532q-383 -337 -400 -443q-15 -28 54 -13l547 205l9 -17q-4 -45 -302 -164t-360 -108q-62 49 -14 150q4 52 346 369q20 26 -293 -202t-578 -339q-41 15 -25 71
q197 303 780 795q251 216 207 203q-577 -359 -1414 -1175q-61 11 -14.5 141.5t84.5 178t76 28.5l32 -35v-17q-61 0 -84 -109q917 905 1387 1065z" />
    <glyph glyph-name="N" unicode="N" horiz-adv-x="1007" 
d="M1773.5 1649.5q129.5 -30.5 149 -133t-85.5 -146.5q-7 227 -94 188t-572 -538t-611 -497q-108 61 -20 293l95 257l-240 -306q-308 -358 -356.5 -366t-36.5 76q78 -7 752 961q144 81 43 -185q-74 -196 -184 -523q-50 -151 102 -24l484 479q445 495 574.5 464.5z" />
    <glyph glyph-name="O" unicode="O" horiz-adv-x="961" 
d="M1527 1611q149 -24 159 -188l1 -36q-10 -210 -546 -484q-374 -249 -758 -429q-232 -115 -318 -107q-74 22 -65 127q2 92 328 480q149 186 309 321q51 43 96 73l48 32q79 51 217 117q295 137 529 94zM1005 1421q-139 -71 -209 -123q-219 -141 -636 -664
q-101 -161 -48 -172q167 27 439 183q563 331 645 380t209.5 150t151 145t24.5 144q-38 89 -202 72q-185 -30 -281 -74z" />
    <glyph glyph-name="P" unicode="P" horiz-adv-x="807" 
d="M1313 1649q99 0 115 -50q18 -29 11 -87t-96 -206q-23 -43 -90 -125q-48 -66 -199 -223q-201 -166 -338 -158l-29 -3q-67 0 -167 79q-67 -64 -95 -123q-98 -141 -110 -153t-69 -83q-27 -39 -58 -63q-12 -22 -55 -54.5t-55 -32.5q-78 0 -78 60l4 63q10 35 53 123
q11 25 27.5 49.5t66.5 84.5t82 101q38 36 64 71.5t80 88.5q7 14 27 33q40 49 81 105q29 21 120 120q25 22 221 193q25 -20 111 53q114 90 290 127zM565 952l20 -25q30 -29 53 -38q34 -21 73 -16q64 -3 107 31q58 7 204 142q17 20 116 130q28 19 57 67q36 42 66 88
q84 120 89 164t-26 69q-64 20 -123 -5q-48 -6 -97 -32q-130 -71 -154 -90.5t-54 -37.5q-66 -103 -94 -130q-23 -42 -135 -179q-23 -48 -102 -138zM86 480q0 -6 12 -6q20 0 53 38.5t78 94.5t106 146l99 133q49 42 86 107q110 120 158 188.5t58 101.5h-4q-23 0 -64 -57
q-92 -83 -153 -168q-76 -86 -106 -135q-145 -154 -213 -253q-19 -27 -42.5 -60.5t-67.5 -129.5z" />
    <glyph glyph-name="Q" unicode="Q" horiz-adv-x="961" 
d="M893 1649q40 10 161 -8.5t212 -131.5q41 -88 21 -167q-76 -282 -499 -610q34 -86 -7.5 -177t52.5 -138q57 -28 -5 -55q-118 11 -140 57t4.5 120t-11.5 109q-227 -157 -331.5 -188.5t-180.5 -23.5q-139 10 -169 186q0 99 138 333q0 319 415 580q247 114 340 114zM233 1085
l132 83l53 6l22 -22q-37 -91 -205 -218q-149 -206 -116 -308q10 -98 156 -84q326 136 369 190q-70 60 -155 74v9q34 53 130 32l126 -42q339 302 386 423q49 63 54 153q2 120 -178 166h-104q-184 -10 -395 -148q-132 -103 -275 -314z" />
    <glyph glyph-name="R" unicode="R" horiz-adv-x="967" 
d="M1248 1649q125 0 175 -120q0 -225 -333 -498q-66 -87 -404 -263l-7 -25q32 -157 249 -234q90 -17 70 -73q-37 -69 -128 -19q-186 96 -297 286q-21 72 -78 44t-113 -141l-145 -173q-31 -47 -82 -66l-55 -10q-77 10 -100 50q3 82 36 148t63.5 113t107.5 154
q108 159 227 299q40 49 92 123q60 89 165 173q113 143 309 205q67 27 248 27zM578 875q39 -30 92 -3q210 58 420 262q143 129 192 253q40 59 17 142q-50 40 -103 40h-41q-248 -48 -248 -119q-50 -114 -150 -286q-116 -176 -179 -289zM106 477q-21 -58 59 13l105 112l92 120
q23 41 102 163q206 287 278 452l-10 6q-35 0 -76 -62q-62 -87 -166 -242q-44 -42 -137 -167q-66 -87 -122 -176q-107 -151 -125 -219z" />
    <glyph glyph-name="S" unicode="S" horiz-adv-x="961" 
d="M1011 1649q189 -31 189 -204q-26 -197 -112 -197q-56 23 -56 110q12 63 28 63h14q47 -124 57 37q6 99 -206 109q-27 3 -148 -22.5t-344 -170.5q-117 -99 -124 -222q4 -59 26.5 -95t165.5 -104q411 -51 411 -201q0 -288 -449 -369l-126 -8h-155q-50 8 -100.5 20.5
t-81.5 81.5v16q0 43 35 63q114 -63 161.5 -78.5t183.5 -20.5q321 33 397 159t31 161t-117.5 48.5t-262.5 68.5q-217 76 -217 267q21 141 119 236q144 124 314.5 187t366.5 65z" />
    <glyph glyph-name="T" unicode="T" horiz-adv-x="742" 
d="M1567 1619h32q203 -22 269 -83q26 -31 -32 -42h-79q-69 10 -140 21l-131 8l-258 -16l-70 -11l-89 -8l-42 -7l-85 -9l-98 -15q-106 -16 -190 -26l-103 -11l-171 -24l-16 14v14q11 81 215 105q601 90 988 90zM997 1341q85 27 48 -56q0 -39 -792 -709l-206 -209
q-55 -18 -47 28l142 181l21 17l31 28q58 47 123 122z" />
    <glyph glyph-name="U" unicode="U" horiz-adv-x="1538" 
d="M1330 1619q49 -16 35 -56q-1167 -982 -1231 -1060t-22 -63q179 106 418 280q887 546 1109 674q31 36 127 36l12 -11v-21q-92 -90 -425 -286l-110 -82l-135 -134l-349 -322q-122 -128 26 -58q586 233 756 219h13q-7 -27 -113 -50l-38 -15q-55 -21 -211 -79l-53 -13
l-42 -15l-339 -132l-62 -29q-132 -34 -120 48q37 74 82 119t335 324v11q-185 -87 -756 -480q-113 -66 -167 -71t-73 46q4 137 990 960q190 143 222 163q31 32 -66.5 39.5t-280 -53t-226.5 -145.5q-48 21 -19.5 87t247 135.5t466.5 33.5z" />
    <glyph glyph-name="V" unicode="V" horiz-adv-x="825" 
d="M808 742q-429 -375 -631 -375q-182 5 -177 130l5 62l391 794l4 35l-33 -8l-202 -121l-13 28q51 110 159.5 189.5t144.5 61.5q76 0 76 -75q-48 -164 -239 -522.5t-190 -428.5q-4 -51 58 -51l54 8q284 106 632 457l280 342q44 52 33 -48q-1 -31 -21 -78
q-100 -173 -331 -400zM1071 1190q-8 108 -44 206q0 140 127 176q303 84 405 84h51l25 -19v-27q-149 -15 -427 -101q-72 -24 -82 -87l19 -48l18 -117z" />
    <glyph glyph-name="W" unicode="W" horiz-adv-x="1585" 
d="M1786 1649h51l25 -19v-27q-149 -15 -427 -101q-85 -34 -82 -87l19 -48l97 -359q0 -246 -456 -567q-91 -52 -165.5 -30t-74.5 86v74l90 234l-52 -39h-13q-419 -399 -621 -399q-177 20 -177 130l5 62l391 794l4 35l-33 -8l-202 -121l-13 28q51 110 266 251h38q76 0 76 -75
q-48 -164 -239 -522.5t-190 -428.5q16 -46 58 -51l54 8q284 106 632 457l280 342q62 25 56 -30q-327 -543 -323 -688q-18 -82 65 -57q472 293 449 518l-5 51q-19 66 -115 327q0 140 127 176q303 84 405 84z" />
    <glyph glyph-name="X" unicode="X" horiz-adv-x="999" 
d="M590 1649q34 -56 17 -204l7 -330l102 118q363 362 448 405q80 28 93 -32v-11q-207 -158 -380 -319t-193 -265q4 -135 325 -470v-22q-9 -62 -78 -32q-96 61 -357 468q-91 -43 -248.5 -215t-229.5 -314l-34 -59q-72 -9 -62 76q37 106 512 608l-15 250l15 294q27 82 78 54z
" />
    <glyph glyph-name="Y" unicode="Y" horiz-adv-x="969" 
d="M1289 1621q50 1 51 -26q-76 -70 -186 -162q-315 -242 -323 -296l44 2q221 52 913 469q36 10 62 -17l-231 -198l-417 -358q-686 -668 -976 -668h-48q-187 -10 -178 207q95 198 262 198q79 0 144 -92t-1 -102q-79 116 -197 115q-118 -47 -132 -165q15 -76 100 -92
q79 -5 229.5 54.5t752.5 593.5q219 191 282 243q-512 -254 -571 -254h-60l-48 38v18q0 76 226 242.5t84 115.5l-221 -91q-137 -63 -170.5 -90.5t-59 -50t22 -35t14.5 -38.5l-43 -13q-74 10 -90 55q66 161 680 367z" />
    <glyph glyph-name="Z" unicode="Z" horiz-adv-x="1375" 
d="M1363 1601l-17 -40q-70 -91 -203 -157q-386 -366 -609 -582l-46 -56q-19 -51 9 -93.5t56 -67.5t98 -70t175.5 -71.5t265.5 7t230 163.5q-6 106 -99 108q-10 77 65 65q126 -46 111 -156q0 -130 -227 -232q-67 -33 -211 -49l-179 20q-159 42 -253 113q-90 78 -115 134
t-272 -177q-6 -27 -68 -93q-78 -24 -74 55q59 102 184 190q40 30 752 717l53 58q-228 -16 -296 9.5t-184 90.5q-244 87 -288 -50t39 -173t9 -36h-28q-82 32 -102 84.5t0 135.5q67 144 188.5 146.5t150 -8.5t150.5 -63l102 -51q109 -39 223 0l109 27q161 59 226 150
q90 24 75 -48z" />
    <glyph glyph-name="bracketleft" unicode="[" horiz-adv-x="1260" 
d="M1119 1619l145 -96q18 -19 36 -24l12 -24q0 -31 -54.5 -26.5t-154.5 63.5l-25 -18q-64 -43 -238 -315q-28 -37 -65 -82q-40 -52 -83 -99q-24 -29 -124 -141l-101 -106q-36 -42 -113 -118q-82 -89 -122 -127.5t107 -2.5l100 18l144 21l66 13l117 9q125 11 140 -4.5
t4 -29.5t-34.5 -33.5t-141.5 -21.5h-72q-47 -11 -106 -13l-63 -11q-159 -27 -236 -55.5t-149 -28.5q-68 13 -48 84q164 157 253 252q31 21 51 51q36 32 117 125l36 42q48 54 97 108l138 171q272 412 299 428.5t68 -9.5z" />
    <glyph glyph-name="backslash" unicode="\" horiz-adv-x="1047" 
d="M363 1147q224 -283 455 -650q33 0 293 -440v-57h-49l-309 497q-104 108 -244 344q-113 129 -455 670l-195 306q0 58 33 58z" />
    <glyph glyph-name="bracketright" unicode="]" horiz-adv-x="1290" 
d="M1292 1619v-103l-395 -613q-145 -334 -246 -484l-162 -52q-110 26 -267 13l-63 -13h-89l-15 13h-15q5 72 109 75l178 2l145 -1q134 11 160 104q47 95 159 305q74 129 130 217q36 60 83 127q148 204 164 301l-80 -9l-137 -3l-98 -10q-71 -24 -83 15v13q0 20 105 64h149
q109 0 268 39z" />
    <glyph glyph-name="asciicircum" unicode="^" horiz-adv-x="583" 
d="M410 1280q37 0 110 -270q53 -69 70 -120l40 -40l-10 -10h-10q-103 52 -183 237l-24 46l-23 20q-90 -56 -173 -176l-37 -57h-20q-20 0 -20 30q0 44 60 120q0 21 83 87q17 27 137 133z" />
    <glyph glyph-name="underscore" unicode="_" horiz-adv-x="801" 
d="M369 234l69 6h155h114l64 -6l29 -21q-39 -27 -168 -32l-151 -4l-112 -4q-40 -4 -105 -9l-181 -3q-34 -4 -83 13l4 39q0 18 109 20l87 -2h52q20 7 46 3h71z" />
    <glyph glyph-name="grave" unicode="`" horiz-adv-x="391" 
d="M235 858l-64 -146l12 148l-26 57l-52 44l-50 42l4 63l76 13l74 -54l22 -79z" />
    <glyph glyph-name="a" unicode="a" horiz-adv-x="833" 
d="M556 873q95 9 130 -107q-26 -74 -91 -128h17q114 87 133 25q-223 -125 -236 -191.5t71 -39.5l253 102q37 -11 17 -42q-228 -125 -340 -125q-104 12 -34 146q-325 -146 -425 -146q-69 25 -51 125q230 375 556 381zM67 444q27 -37 221.5 47.5t271.5 219.5q72 89 -48 94
q-152 -21 -312 -172.5t-133 -188.5z" />
    <glyph glyph-name="b" unicode="b" horiz-adv-x="787" 
d="M1382 1619q105 53 118 -60v-59q-122 -272 -876 -596v-20q184 0 184 -139q-41 -126 -656 -378q-123 -16 -141 -1t-11 61q131 198 178 210l7 28l-134 -119l-18 20v20q13 105 558 397q547 488 791 636zM775 1063h18q639 312 639 457q26 75 -84.5 6.5t-572.5 -463.5zM152 446
q390 140 573 279q48 94 -101 99q-212 0 -523 -358q-45 -48 51 -20z" />
    <glyph glyph-name="c" unicode="c" horiz-adv-x="840" 
d="M706.5 889.5q66.5 -16.5 70.5 -55t-54 -119.5q-159 -131 -262 -96l-40 20q-38 47 31 155q-70 -28 -147 -68q-195 -103 -208 -173q-57 -114 67 -109q694 134 686 75q-621 -152 -735 -146t-115 59q-37 129 116.5 259.5t338.5 172.5t251.5 25.5zM451 790q76 0 105 -52
q-216 -103 5 -65q95 52 126 100.5t-37.5 51t-198.5 -34.5z" />
    <glyph glyph-name="d" unicode="d" horiz-adv-x="627" 
d="M1124 1473l72 25q99 16 57 -91q-45 -79 -65 -106t-61 -88q-30 -41 -69 -87q-84 -102 -108.5 -130.5t-93.5 -88.5q-49 -53 -101 -97q-25 -21 -75 -86.5t-64.5 -84.5t-86.5 -148l-15 -48q-20 -46 -43 -68l-14 -26q-25 -23 -68 -32q-33 20 7 122l31 63q-158 -108 -272 -129
h-75q-30 8 -55 21l-25 63l1 48q16 73 66 144l24 37l49 54q136 143 291 191q86 36 150 32q81 -12 141 39l67 118q45 62 67.5 97.5t125.5 152.5q51 53 142 103zM731 921l46 17l80 46q496 581 244 414q-125 -110 -291 -366zM104 590q-35 -62 -32.5 -109t37 -49t110 31.5
t211.5 139.5l53 40q74 53 104 89t43.5 58.5t16 48.5t-28.5 46.5t-109 1.5l-78 -22q-140 -58 -243 -171q-49 -42 -84 -104z" />
    <glyph glyph-name="e" unicode="e" horiz-adv-x="818" 
d="M684 868.5q82 -13.5 83 -110.5q0 -137 -534 -195q-112 -32 -109.5 -78t41 -55.5t82 -13t328.5 53t281.5 39t-270 -86t-436.5 -55.5q-114 32 -91 129l8 45h-67q-8 24 34.5 44.5t482.5 259.5q85 37 167 23.5zM400 715q-311 -133 30 -68q275 68 275 117t-120 36z" />
    <glyph glyph-name="f" unicode="f" horiz-adv-x="467" 
d="M1221 1649q85 -15 92.5 -115t-108 -260t-373.5 -156l-93 23q-74 51 -204 -152l-64 -114q315 0 335 -61.5t-29 -79.5t-55 29.5t-194 28.5q-154 -5 -224 -426l-102 1l117 384q7 84 -185 54q-67 -49 -70 -89.5t-64 10.5q-10 46 26 104.5t340 49.5q495 769 855 769zM721 1238
q35 -76 228 -52q156 11 254 184q66 95 47.5 169t-123.5 38t-202.5 -106t-203.5 -233z" />
    <glyph glyph-name="g" unicode="g" horiz-adv-x="613" 
d="M354 936h65q226 0 226 -252q0 -36 -61.5 -108t-225.5 -135l-113 -38l206 30l194 36q82 -7 76.5 -38t-69.5 -36q-555 12 -559 -504q-15 -42 -36 -67t-69.5 -77t-114.5 -83.5t-180 -1.5t-114 124v72q0 213 452 539q35 488 323 539zM146 593q-51 -165 135 -113
q223 56 278 184q24 116 -47 174.5t-233 -2.5q-104 -99 -133 -243zM-344 -187q9 -86 99 -88q237 27 277 258q69 219 30 298l-97 -49q-313 -166 -309 -419z" />
    <glyph glyph-name="h" unicode="h" horiz-adv-x="741" 
d="M1057 1489q95 -6 86 -81q-48 -242 -319 -414l-160 -118l94 14h40q63 -24 63 -61q-19 -119 -303 -340q-59 -51 95.5 -15.5t80.5 -28t-192.5 -57.5t-106.5 43q-19 48 107 143l148 132q105 126 -13 99q-146 3 -477 -336q-103 -102 -158 -102q-57 -9 -41 54l226 196
q250 219 544 626q169 221 286 246zM654 945q168 117 275 229.5t132.5 208.5t-181.5 -127l-156 -199z" />
    <glyph glyph-name="i" unicode="i" horiz-adv-x="700" 
d="M565.5 1249q36.5 5 68 -15.5t28.5 -54t-36.5 -64t-82.5 17t-31.5 79.5t54 37zM460 873q49 6 27 -50l-352 -353q91 18 238 90.5t332 143.5q40 -9 -7 -40.5t-184 -104t-279 -132.5t-205 -60q-99 16 129.5 220.5t165.5 180t-111 -63.5t-105.5 -109t-50 0.5t141.5 174
t260 103.5z" />
    <glyph glyph-name="j" unicode="j" horiz-adv-x="334" 
d="M412 1131q46 0 46 -85q0 -40 -27 -49.5t-53.5 6t-21.5 71t56 57.5zM313 883q26 17 39.5 2.5t13.5 -38.5q-162 -270 -162 -319l52 15l48 14q67 -4 49.5 -34.5t-101.5 -50.5q-122 -55 -122 -151q-170 -472 -359 -472q-191 22 -191 151q-11 186 305 381q222 94 222 163
q89 215 206 339zM-267 -72q120 -15 212 177.5t78 245.5q-260 -99 -344 -284q-35 -109 54 -139z" />
    <glyph glyph-name="k" unicode="k" horiz-adv-x="528" 
d="M756 1662.5q38 6.5 31 -37.5l-7 -32q-60 -155 -333 -648l-94 -129l73 26l99 47q58 33 113 57q96 29 42 -53q-15 -31 -192 -112q-100 -69 -142 -96q58 -86 150 -199q50 -136 -72 -55l-166 190q-57 -24 -171 -222q-27 -42 -67 -29q-20 8 -20 53q17 28 160 234
q43 71 176 267q228 368 368 701q14 31 52 37.5z" />
    <glyph glyph-name="l" unicode="l" horiz-adv-x="549" 
d="M1240 1699q117 6 133 -70t1 -116q-27 -289 -881 -600q-276 -311 -314 -409.5t61 -60.5t213.5 114t143.5 36q-287 -226 -478 -235q-41 -6 -44 36q18 189 269 466v13q-314 -80 -336 -68.5t2.5 45t437.5 130.5q605 719 792 719zM627 1060h30q597 232 640 437q23 101 -31 125
t-235 -125t-404 -437z" />
    <glyph glyph-name="m" unicode="m" horiz-adv-x="1200" 
d="M276.5 835.5q100.5 94.5 85.5 -18.5q201 140 386 -31q143 101 273 111q119 -10 132 -72q8 -111 -83 -243q-123 -135 14 -128q148 35 177.5 22.5t0 -34t-111.5 -47.5l-83 -8q-75 -5 -131.5 28.5t-2.5 121.5q138 172 134 240.5t-155 8.5q-203 -99 -248 -185
q-33 -40 -133 -174q-64 -40 -81 25l160 239q18 82 -69 84q-138 14 -364 -211l-90 -165l-27 -32q-74 7 -62 82l115 171q63 121 163.5 215.5z" />
    <glyph glyph-name="n" unicode="n" horiz-adv-x="840" 
d="M449 867q44 15 56 -52q219 63 272 48t60.5 -50t-100 -138t-213.5 -157t-113 -82l415 155q32 12 19 -17q-22 -56 -249.5 -135t-259.5 -72q-68 16 -38 75q434 282 434 322q21 38 -20 34.5t-173 -43t-600 -336.5q-81 -16 -94 34q407 219 604 414z" />
    <glyph glyph-name="o" unicode="o" horiz-adv-x="719" 
d="M850 790q30 -101 -325 -271t-426 -169t-91.5 25.5t-9.5 100.5q281 343 561 387t291 -73zM166.5 439q136.5 23 556.5 274l21 19q41 64 -65 78t-290.5 -84.5t-271.5 -204t49.5 -82.5z" />
    <glyph glyph-name="p" unicode="p" horiz-adv-x="553" 
d="M736 1081l-290 -308q201 13 219 -90q9 -116 -104 -197q-48 -62 -222 -146q-69 -28 -146 5.5t-114 150.5l98 -12q50 -135 237 -22l130 94q58 73 37.5 116t-93.5 24q-244 -7 -657 -464q-138 -121 -541 -412q-380 -231 -482 -244l-45 -2q-40 7 -55 35q-42 61 58 155
q448 343 869 652l309 182l92 45q78 23 443 290q107 101 155.5 131t101.5 17zM-1185 -358l50 23l76 45q311 144 1139 851q18 54 -48 16q-414 -289 -958 -670q-250 -160 -300 -249q1 -44 41 -16z" />
    <glyph glyph-name="q" unicode="q" horiz-adv-x="692" 
d="M563.5 986q65.5 -2 143.5 -54.5t18.5 -183t-236.5 -350.5q94 -4 183.5 25.5t34.5 -53t-204 -37.5q4 -33 14 -150t-14.5 -229t-146 -185.5t-245.5 -98.5q-150 -29 -152 61q75 135 171 291q40 72 140 234l89 137q-83 1 -157 14q-198 75 -198 164q0 104 230 309
q69 54 166.5 81t163 25zM125 639q-22 -36 -12 -80t88 -61q132 -21 222 38q139 108 188.5 202t9.5 133.5t-173 6.5q-187 -59 -323 -239zM380 256l-288 -470q-42 -57 110 -1l120 63q77 45 90 122l16 76l5 60l-8 82l-22 76l-6 22z" />
    <glyph glyph-name="r" unicode="r" horiz-adv-x="576" 
d="M320 866q7 -53 21.5 -62.5t246.5 63.5q33 -4 14 -38q-34 -53 -238 -180l-126 -128l-40 -51q-25 -38 19.5 -33t93 10.5t130.5 24.5l150 26q135 36 123 10q-30 -57 -392 -120q-53 -17 -182 -21q-43 6 -42.5 37t34 87t208.5 238l-51 -16q-50 -19 -49 22v37l-112 -96l-86 -65
q-51 -8 -42 38q233 218 273 232t47 -15z" />
    <glyph glyph-name="s" unicode="s" horiz-adv-x="464" 
d="M467 926q-79 -123 -195 -198l219 77q-16 -79 -176 -163q154 -58 130 -185q-96 -156 -334 -88q-238 100 30 264l-81 -8q-85 -38 -58 26l85 42q-39 157 126.5 232t253.5 1zM236 596l-118 -89q-26 -68 72 -88.5t142 38.5t-60 118zM276 867q-169 -89 -70 -118l27 20
q212 187 43 98z" />
    <glyph glyph-name="t" unicode="t" horiz-adv-x="547" 
d="M450 399l-54 45q84 76 14 191q-38 141 60.5 21t-20.5 -257zM166 367q-73 -16 -127 17.5t-35 145.5q37 139 235 466l-127 39q-128 38 -262 29q-15 151 462 0l461 588q107 45 59 -84l-145 -171l-145 -172l-146 -186l202 -3q359 48 288 -47l-360 -25q-174 -2 -199 -35
l-19 -18q-339 -409 -142 -544zM91 457q49 -28 133 -30t174 21l54 -48q-146 -54 -325 -38z" />
    <glyph glyph-name="u" unicode="u" 
d="M835 867q72 23 61 -56q-322 -247 -311 -277q-29 -54 28 -66q106 14 253.5 86.5t134.5 34.5q-35 -74 -243.5 -157.5t-241.5 -43.5t-15 173l-355 -166q-66 -18 -111.5 -3.5t-33.5 86.5q207 316 293 345.5t41 -39.5q-266 -272 -249.5 -311t272.5 97.5t477 296.5z" />
    <glyph glyph-name="v" unicode="v" horiz-adv-x="473" 
d="M524 806q-7 52 263 74q75 -6 70 -32q-21 -25 -119 -36t-91 -43l-18 -60l-79 28q-2 48 -26 69zM450 551q-136 -129 -310 -176q-51 -14 -70.5 -0.5t-19.5 55.5l90 151q100 143 106 166.5t-34 20.5l-162 -84q-32 -8 -41 -4t-9 28q95 112 320 159h10q44 1 48.5 -22.5
t-15.5 -51.5q-36 -50 -162 -247q-96 -146 64 -48q74 37 299 247l36 5q24 -16 30 -32l-51 -57q-60 -69 -129 -110z" />
    <glyph glyph-name="w" unicode="w" horiz-adv-x="835" 
d="M330 867q44 1 48.5 -22.5t-15.5 -51.5q-36 -50 -162 -247q-124 -148 59 -33q72 35 330 227h20q23 -9 23 -47q-133 -182 -83 -253q147 33 160 150q21 68 -43 124q-7 52 263 74q75 -6 70 -32q-21 -25 -119 -36t-91 -43v-64q0 -160 -170 -230l-70 -16q-90 0 -94 85v22
q1 33 24 92l-30 -15q-146 -101 -310 -176q-51 -14 -70.5 -0.5t-19.5 55.5l90 151q100 143 106 166.5t-34 20.5l-162 -84q-32 -8 -41 -4t-9 28q95 112 320 159h10z" />
    <glyph glyph-name="x" unicode="x" horiz-adv-x="465" 
d="M646.5 938q-0.5 -24 -25.5 -42.5t-82 -67.5q-53 -44 -129 -139q-98 -93 -47 -269q-47 -85 -70 -21.5t-20 165.5l-34 -44l-51 -46q-58 -56 -144 -107q-46 -16 -47 15t104 103q149 110 138 226l-8 73q-32 65 -18 79t47.5 -7.5t49.5 -161.5q69 88 222 218q45 48 80 49
t34.5 -23z" />
    <glyph glyph-name="y" unicode="y" horiz-adv-x="608" 
d="M380 729q-227 -158 -260 -239v-22h18q114 0 649 313q70 30 56 -45q-378 -216 -874 -872q-245 -350 -279 -342.5t-120 632.5l-7 23v23q0 89 649 179l16 14q-205 -19 -213 49q-9 35 11 71l131 156q-75 0 -86.5 25t162.5 86t147 -51zM-330 0q36 -162 43 -288.5t524 623.5
l-39 -10l-535 -132q-29 -31 7 -193z" />
    <glyph glyph-name="z" unicode="z" horiz-adv-x="633" 
d="M158 874q53 5 102.5 -7t214.5 -68l57 -15q76 -12 144.5 34.5t92.5 32.5t-12 -60q-11 -43 -343 -182q-118 -44 -176 -91q86 -37 221 -62q127 30 104 123q4 26 44 8q44 -20 44 -61q-70 -122 -166 -132t-242 44q-95 0 -166 -41l-46 -25q-43 0 -31 48q0 32 206 160
q80 45 193 104l78 37q-106 65 -280 80q-100 3 -100 -86q-38 -3 -57 14t-14 47q0 78 132 98z" />
    <glyph glyph-name="braceleft" unicode="{" horiz-adv-x="804" 
d="M1139 1619q113 -28 113 -76q0 -159 -248 -261l-11 10h-12q0 54 102 98q18 44 67 44v76h-33q-160 -29 -417 -424l-12 -11l23 -87v-11q-18 -65 -271 -218l-293 -261v-22h11q70 12 211 61q48 26 161 48h34v-22q0 -18 -170 -74l-338 -122q-56 22 -56 65l90 98q40 30 118 114
q58 36 131 103q55 47 189 149l36 37h-11l-260 -98l-22 33v22q26 87 112 87q171 45 271 174q179 246 293 359q0 33 64 49q36 60 128 60z" />
    <glyph glyph-name="bar" unicode="|" horiz-adv-x="9000" 
d="M5735 1900v-19q-7 -47 -559 -314l-970 -686l15 -18v-37l-383 -204l-14 -18v-19h29q199 111 662 241l14 -19v-18q-58 -82 -279 -130v-18h29l589 203v-37q0 -60 -383 -166v-19h30l632 185l15 -18v-19q0 -37 -44 -37v-18h14q186 74 280 74h29v-56h-29v-18h44l44 37h147v-19
l-15 -18v-19h15l191 74l-14 19v74q0 345 823 611q485 204 765 204l14 -19v-18l-735 -519q-307 -203 -750 -389v-18q289 -227 397 -389v-19q-81 -166 -823 -203h-30l-29 37v37q0 42 176 111v-19q0 -37 -44 -37l-14 -18v-19h250q426 67 426 148l-397 352q-636 -203 -721 -203
h-29l-132 74q-74 -37 -309 -56l-44 74l-324 -74l-44 37l-235 -37l-44 56q-230 -27 -1250 -630q-999 -537 -1309 -537l-59 56q0 199 573 444q883 481 1574 722q566 178 765 389l573 389v19h-14l-1706 -889l-456 -186h-59l-29 37q30 75 73 75v18h-15q-95 -55 -235 -55h-15
l-29 37l44 74h-29l-662 -186h-59l-29 37v19l14 19v18h-14q-57 -56 -133 -56l-14 19v19l103 92v37q-394 -185 -545 -185l-14 18v19q100 111 647 315v37l-118 18l-809 -351l-29 55v19h29v18h-14q-631 -296 -706 -296l-15 18v19q10 53 765 389q132 0 882 444v19h-15
q-889 -241 -1029 -241q-132 41 -132 93v74q0 90 603 277q869 278 1220 278h382q309 -116 309 -259l500 111v-37l912 278h15v-37q0 -30 -559 -204q-1491 -741 -2029 -963v-37l1000 352l88 18q88 0 103 -148q0 -63 -353 -222v-18h29q515 203 1206 592l1706 852zM5882 863
l15 -74h15q575 222 1191 667q162 129 206 129v19h-15q-1412 -354 -1412 -741zM1794 1437v19q-1080 -301 -1265 -445v-18q0 -56 162 -56q100 0 735 185q509 103 603 259l206 112h59l30 -37q-215 -87 -280 -167h15l647 185v19l-382 37h-103zM9000 1511v-18q0 -56 -809 -204
q-450 -56 -838 -204q-232 -92 -544 -315l-15 19v18q325 347 927 463q615 149 1279 241zM1529 863v-19h30q907 334 1367 463q0 74 -132 112h-29q-134 0 -1236 -556zM3162 1270v-18h14l74 18v19h-44zM2868 1159v-18h44l235 92v19h-15zM1338 844v-18h30l764 389v18h-14
q-183 0 -721 -370zM1691 493v-19h15l1544 722v19h-29l-971 -426zM1706 826v-37l44 -19l691 297v18h-15zM1765 715v-19h14q642 223 795 352zM2735 678l15 -19v-18l-15 -19v-18h15q206 48 206 92l-15 19h-162zM4735 604v-19h15q247 51 353 111v19zM1721 585h44l147 74v19h-15
q-176 -61 -176 -93zM1412 -507v-19h73q440 0 2250 1148v19h-14q-460 -148 -1162 -482q-979 -455 -1147 -666z" />
    <glyph glyph-name="braceright" unicode="}" horiz-adv-x="1030" 
d="M1143 1639l113 -13l29 -49q-36 -57 -285 -256l-208 -160v-34h34l178 134h45l22 -22q-21 -67 -134 -112q-159 -90 -255 -283q-157 -287 -348 -466l-56 -11h-23l-190 112l-22 45q47 100 224 100q78 -15 78 -45v-11q0 -22 -181 -17l-23 -53l80 -49l57 -4q39 0 88 73
q74 66 117 149q42 28 52 69q25 40 67 123l55 86l23 70q-33 0 -33 34q31 127 469 447l66 75l-93 -10q-89 4 -185 -177h-23l-22 23q89 222 284 232z" />
    <glyph glyph-name="asciitilde" unicode="~" horiz-adv-x="981" 
d="M0 3648q32 -16 32 -48q-32 16 -32 48zM830 917h6l12 -42q-63 -87 -165 -142q-90 -55 -226 -95h-12q-57 0 -79 65v42h-25q-97 -19 -220 -113h-12v-18l18 -24l-6 -6h-36q-12 0 -37 48q21 107 85 107q194 84 294 89q12 -18 18 -72l-12 -11v-24l24 -6q78 0 208 71
q98 60 165 131z" />
    <glyph glyph-name="copyright" unicode="&#xa9;" horiz-adv-x="1061" 
d="M1215 1586q119 -23 127 -184v-35q-8 -205 -250 -562q-199 -218 -643 -386q-150 -32 -274 -17q-85 6 -127 99q-47 83 16 235.5t139.5 291t193.5 266.5q58 53 126 108l77 55q113 62 205 104q224 67 410 25zM795 1442q-113 -61 -229 -145q-175 -120 -300 -382.5t-123 -318
t42 -69.5q75 -28 197.5 -7.5t341 139.5t284.5 202.5t139 240.5t91.5 200t-15.5 137q-37 70 -126 74q-147 -29 -219 -41zM986.5 1303.5q66.5 -16.5 70.5 -55t-54 -119.5q-159 -131 -262 -96l-40 20q-38 47 31 155q-70 -28 -147 -68q-195 -103 -208 -173q-57 -114 67 -109
q694 134 686 75q-621 -152 -735 -146t-115 59q-37 129 116.5 259.5t338.5 172.5t251.5 25.5zM757 1217q76 0 105 -52q-216 -103 5 -65q95 52 126 100.5t-37.5 51t-198.5 -34.5z" />
    <glyph glyph-name="ordfeminine" unicode="&#xaa;" horiz-adv-x="621" 
d="M453 853q-100 -107 -210 -107q-87 0 -144 59t-57 159q0 84 39 134t109 69l173 34q60 14 79 20q-1 85 -22 111q-34 42 -106 42q-122 0 -137 -125l-113 34q11 95 76 151.5t176 56.5q127 0 186 -58q58 -59 58 -184v-240l-1 -59q0 -135 33 -186h-121q-16 40 -18 89zM440 1104
q-43 -14 -157 -36q-71 -13 -92 -34q-27 -28 -27 -70q0 -43 29.5 -70.5t75.5 -27.5q57 0 102 36t62 95q7 23 7 107z" />
    <glyph glyph-name="guillemotleft" unicode="&#xab;" 
d="M276 528l213 -456h-121l-261 456l261 456h122zM593 528l216 -456h-124l-257 456l257 456h124z" />
    <glyph glyph-name="registered" unicode="&#xae;" horiz-adv-x="1078" 
d="M1215 1586q119 -23 127 -184v-35q-8 -205 -250 -562q-199 -218 -643 -386q-150 -32 -274 -17q-85 6 -127 99q-47 83 16 235.5t139.5 291t193.5 266.5q58 53 126 108l77 55q113 62 205 104q224 67 410 25zM777 1435q-113 -61 -229 -145q-175 -120 -300 -382.5t-123 -318
t42 -69.5q75 -28 197.5 -7.5t341 139.5t284.5 202.5t139 240.5t91.5 200t-15.5 137q-37 70 -126 74q-147 -29 -219 -41zM634 1244q7 -53 21.5 -62.5t246.5 63.5q33 -4 14 -38q-34 -53 -238 -180l-126 -128l-40 -51q-25 -38 19.5 -33t93 10.5t130.5 24.5l150 26
q135 36 123 10q-30 -57 -392 -120q-53 -17 -182 -21q-43 6 -42.5 37t34 87t208.5 238l-51 -16q-50 -19 -49 22v37l-112 -96l-86 -65q-51 -8 -42 38q233 218 273 232t47 -15z" />
    <glyph glyph-name="ordmasculine" unicode="&#xba;" horiz-adv-x="612" 
d="M306 1491q115 0 186 -90q83 -106 83 -286q0 -179 -83 -286q-70 -89 -186 -89q-115 0 -192 96t-77 275q0 184 83 290q70 90 186 90zM306 1358q-66 0 -106.5 -57t-40.5 -187q0 -126 41.5 -184t106.5 -58q64 0 105.5 58t41.5 186q0 126 -42 184t-106 58z" />
    <glyph glyph-name="guillemotright" unicode="&#xbb;" 
d="M646 528l-214 456h121l261 -456l-261 -456h-120zM328 528l-216 456h124l257 -456l-257 -456h-124z" />
    <glyph glyph-name="germandbls" unicode="&#xdf;" horiz-adv-x="698" 
d="M543 478q151 17 148 175l-68 44q-165 -7 -213 -51q-82 -131 -168 -202q-108 -122 -235 -111l-72 39l-40 79q-12 114 69 110l43 -9q-30 -159 70 -137l117 89q187 289 332 527q28 56 76 30l1 -50q64 47 143 39l42 -40q59 -126 -69 -263q133 -220 -99 -343h-84
q-220 30 -188 76.5t195 -2.5zM494 856q-48 -107 42 -89q115 17 170 76.5t-2 125.5q-102 -12 -210 -113z" />
    <glyph glyph-name="ae" unicode="&#xe6;" horiz-adv-x="1310" 
d="M752 443q-155 -76 -242 -76q-104 12 -34 146q-325 -146 -425 -146q-69 25 -51 125q230 375 556 381q95 9 130 -107q-26 -74 -91 -128h17q114 87 133 25q-223 -125 -236 -191.5t71 -39.5l146 60q1 -44 26 -49zM560 711q72 89 -48 94q-152 -21 -312 -172.5t-133 -188.5
t221.5 47.5t271.5 219.5zM1367 758q0 -137 -534 -195q-112 -32 -109.5 -78t41 -55.5t82 -13t328.5 53t281.5 39t-270 -86t-436.5 -55.5q-114 32 -91 129l8 45h-67q-8 24 34.5 44.5t482.5 259.5q85 37 167 23.5t83 -110.5zM1000 715q-311 -133 30 -68q275 68 275 117t-120 36
z" />
    <glyph glyph-name="oslash" unicode="&#xf8;" horiz-adv-x="534" 
d="M850 790q30 -101 -325 -271t-426 -169t-91.5 25.5t-9.5 100.5q281 343 561 387t291 -73zM166.5 439q136.5 23 556.5 274l21 19q41 64 -65 78t-290.5 -84.5t-271.5 -204t49.5 -82.5zM716 967q38 12 19 -23l-115 -119q-201 -211 -267 -261q-105 -103 -325 -328
q-37 -6 -29 22q153 171 230.5 243t203.5 185z" />
    <glyph glyph-name="IJ" unicode="&#x132;" horiz-adv-x="1307" 
d="M1350 1649q86 22 90.5 -7.5t-73 -86t-99.5 -90t-53.5 -121t-92.5 -215t-170 -308.5q-371 -451 -641 -454h-12q-127 14 -127 45q-12 43 6.5 68t43 6.5t51.5 -31t143 10.5q242 128 379.5 293t216 328.5t130.5 335.5q-69 10 -405 73q-49 -107 -159 -108q-67 5 -60 70
q35 109 243 109q127 0 335 -63q19 0 158 91zM1907 1647q29 -2 28 -57q-53 -129 -223 -473t-301.5 -470.5t-331.5 -228.5q-89 -42 -229 -51q-210 0 -210 143v26q32 109 115 109h47q57 -29 57 -84q-3 -35 -86 -67l-9 -9v-8l9 -9h10q200 -60 529 191q253 251 476 843
q32 69 61 108t58 37z" />
    <glyph glyph-name="ij" unicode="&#x133;" horiz-adv-x="746" 
d="M742.5 1249q36.5 5 68 -15.5t28.5 -54t-36.5 -64t-82.5 17t-31.5 79.5t54 37zM637 873q49 6 27 -50l-352 -353q91 18 238 90.5t332 143.5q40 -9 -7 -40.5t-184 -104t-279 -132.5t-205 -60q-99 16 129.5 220.5t165.5 180t-111 -63.5t-105.5 -109t-50 0.5t141.5 174
t260 103.5zM960 1131q46 0 46 -85q0 -40 -27 -49.5t-53.5 6t-21.5 71t56 57.5zM861 883q26 17 39.5 2.5t13.5 -38.5q-162 -270 -162 -319l52 15l48 14q67 -4 49.5 -34.5t-101.5 -50.5q-122 -55 -122 -151q-170 -472 -359 -472q-191 22 -191 151q-11 186 305 381
q222 94 222 163q89 215 206 339zM281 -72q120 -15 212 177.5t78 245.5q-260 -99 -344 -284q-35 -109 54 -139z" />
    <glyph glyph-name="napostrophe" unicode="&#x149;" horiz-adv-x="1173" 
d="M360.5 1777q78.5 -13 104.5 -47t27 -64.5t-12 -65t-66 -94.5t-160 -116l-38 -27q-36 -21 -80 -41q-32 -20 -43 -10t1.5 29.5t175.5 116.5q66 51 105 94q44 73 38.5 102t-27.5 38h-32l-33 -20q-95 -25 -87 50q48 68 126.5 55zM834 867q44 15 56 -52q219 63 272 48
t60.5 -50t-100 -138t-213.5 -157t-113 -82l415 155q32 12 19 -17q-22 -56 -249.5 -135t-259.5 -72q-68 16 -38 75q434 282 434 322q21 38 -20 34.5t-173 -43t-600 -336.5q-81 -16 -94 34q407 219 604 414z" />
    <glyph glyph-name="florin" unicode="&#x192;" 
d="M35 -405l28 155q83 -22 125 -22q44 0 68 28t37 124l145 1042h-164l19 140h165l20 133q20 135 47.5 188.5t74 81t111.5 27.5t176 -38l-29 -153q-84 24 -125 24q-47 0 -70 -28t-38 -132l-16 -103h167l-20 -140h-168l-156 -1092q-22 -150 -72.5 -205.5t-140.5 -55.5
q-78 0 -184 26z" />
    <glyph glyph-name="Gamma" unicode="&#x393;" horiz-adv-x="897" 
d="M132 1467h729v-174h-570v-1293h-159v1467z" />
    <glyph glyph-name="Theta" unicode="&#x398;" horiz-adv-x="1229" 
d="M622 1503q147 0 261 -78t189.5 -249t75.5 -445q0 -205 -54 -384.5t-176.5 -283t-299.5 -103.5q-259 0 -397.5 210.5t-138.5 563.5q0 337 133.5 553t406.5 216zM622 1345q-181 0 -276 -156.5t-95 -451.5q0 -305 94.5 -462t266.5 -157q368 0 368 627q0 283 -95 441.5
t-263 158.5zM391 829h449v-167h-449v167z" />
    <glyph glyph-name="Phi" unicode="&#x3a6;" horiz-adv-x="1357" 
d="M601 1503h159v-194q527 -23 527 -585q0 -565 -527 -587v-312h-159v312q-530 23 -530 587q0 563 530 585v194zM601 1155q-358 -4 -358 -432q0 -409 358 -434v866zM760 1155v-866q183 4 269.5 117.5t86.5 317.5q0 423 -356 431z" />
    <glyph glyph-name="alpha" unicode="&#x3b1;" horiz-adv-x="1013" 
d="M751 192q-112 -220 -305 -220q-124 0 -215.5 75t-133 201t-41.5 262q0 260 106.5 415t288.5 155q201 0 296 -197l36 180h160q-58 -258 -58 -514q0 -301 69 -549h-165q-26 112 -38 192zM479 942q-126 0 -188.5 -113.5t-62.5 -297.5q0 -197 65.5 -309t185.5 -112
q252 0 252 422q0 203 -67.5 306.5t-184.5 103.5z" />
    <glyph glyph-name="beta" unicode="&#x3b2;" horiz-adv-x="944" 
d="M966 1050l42 -40l9 -126l-78 -137q133 -220 -99 -343h-84l-294 40q-53 -152 -420 -444l-42 40v81q7 356 822 940l1 -50l101 39h42zM697 851l-16 -67l75 -17q115 17 198 121l-30 81h-42zM99 235l-9 -119l264 280l257 404q-336 -228 -512 -565zM630 646l-84 -135l217 -33
q151 17 148 175l-68 44l-128 -24z" />
    <glyph glyph-name="gamma" unicode="&#x3b3;" horiz-adv-x="840" 
d="M346 0l-326 1061h156l244 -836l248 836h151l-325 -1061v-408h-148v408z" />
    <glyph glyph-name="delta" unicode="&#x3b4;" 
d="M143 1337v129h658v-145h-461q76 -92 210 -208.5t192.5 -182t96.5 -163t38 -239.5q0 -257 -110.5 -404t-293.5 -147q-192 0 -303 146.5t-111 392.5q0 235 99 379.5t266 153.5q-96 85 -281 288zM467 909q-112 0 -184 -108.5t-72 -286.5q0 -174 74.5 -281.5t185.5 -107.5
q113 0 183.5 104.5t70.5 286.5q0 183 -71.5 288t-186.5 105z" />
    <glyph glyph-name="epsilon" unicode="&#x3b5;" horiz-adv-x="729" 
d="M420 618h31v-145h-27q-221 0 -221 -176q0 -75 45.5 -123.5t111.5 -48.5q111 0 213 131l107 -111q-72 -89 -147 -128.5t-187 -39.5q-134 0 -214.5 89t-80.5 223q0 186 144 260q-121 80 -121 235q0 128 77.5 214.5t210.5 86.5q168 0 287 -143l-106 -104q-102 92 -189 92
q-64 0 -101.5 -42.5t-37.5 -103.5q0 -166 205 -166z" />
    <glyph glyph-name="zeta" unicode="&#x3b6;" horiz-adv-x="737" 
d="M193 1321v145h534v-123q-243 -192 -380.5 -450.5t-137.5 -480.5q0 -105 32 -157.5t79 -68.5t131 -25t136 -33t88 -87t36 -141q0 -121 -78.5 -225.5t-241.5 -104.5l39 166q139 23 139 139q0 54 -33 87.5t-153.5 39.5t-185.5 51t-102.5 140t-37.5 227q0 221 129.5 470.5
t345.5 430.5h-339z" />
    <glyph glyph-name="eta" unicode="&#x3b7;" 
d="M248 1061v-150q97 174 276 174q108 0 183 -59t95.5 -142t20.5 -231v-1061h-147v1053q0 184 -57.5 234.5t-126.5 50.5q-83 0 -156.5 -68t-73.5 -282v-580h-147v1061h133z" />
    <glyph glyph-name="theta" unicode="&#x3b8;" 
d="M467 -23q-391 0 -391 756q0 758 391 758q393 0 393 -758q0 -756 -393 -756zM227 807h480q-8 277 -64.5 406.5t-175.5 129.5q-118 0 -175 -130.5t-65 -405.5zM707 662h-480q10 -331 79.5 -434t160.5 -103q227 0 240 537z" />
    <glyph glyph-name="sigma" unicode="&#x3c3;" horiz-adv-x="1117" 
d="M806 912q117 -136 117 -383q0 -254 -114 -405.5t-317 -151.5q-209 0 -322.5 153t-113.5 403q0 260 117 406t295 146q35 0 129 -8q36 -4 108 -8h380v-152h-279zM496 955q-271 0 -271 -442q0 -187 68.5 -296t193.5 -109q133 0 199.5 111t66.5 318q0 191 -65.5 304.5
t-191.5 113.5z" />
    <glyph glyph-name="tau" unicode="&#x3c4;" horiz-adv-x="641" 
d="M614 915h-211v-915h-147v915h-229v146h587v-146z" />
    <glyph glyph-name="phi" unicode="&#x3c6;" horiz-adv-x="1090" 
d="M477 -408v383q-187 20 -302.5 185t-115.5 397q0 228 102.5 378.5t248.5 147.5l-29 -155q-170 -70 -170 -363q0 -165 69 -280.5t197 -151.5v660q0 184 47.5 238t149.5 54q178 0 267 -160t89 -341q0 -225 -105 -389t-300 -220v-383h-148zM625 764v-625q115 27 184.5 151.5
t69.5 303.5q0 160 -50.5 252t-119.5 92q-43 0 -63.5 -37t-20.5 -137z" />
    <glyph glyph-name="afii10145" unicode="&#x40f;" horiz-adv-x="1207" 
d="M674 0v-407h-141v407h-402v1466h159v-1293h627v1293h159v-1466h-402z" />
    <glyph glyph-name="afii10017" unicode="&#x410;" horiz-adv-x="1120" 
d="M824 1110q227 195 376 268l164 91q260 128 365.5 145.5t116.5 -36.5q0 -37 -168 -241q-53 -60 -98 -94q-54 -67 -80 -91q-19 -20 -55 -53q-58 -63 -117 -118l-112 -115q-33 -37 -63 -57q-26 -35 -113 -119l-20 -28l-14 -16l-146 -169l-75 -91q-93 -44 -8 90
q118 157 247 323l-144 35h-84q-165 0 -232 -62q-69 -32 -213 -162q-54 -38 -83 -66q-63 -63 -132 -117q-74 -67 -124 -50l-12 32l1 59l16 68q10 60 38 108q12 55 47.5 61.5t12.5 -72.5l-19 -70l-7 -35l-6 -36l-2 -13l168 142l196 159zM790 995l-46 -49l-11 -18l-21 -31
l19 -4l25 2q155 12 306 -40l18 6q49 35 108 99q39 36 266 272q210 226 210 262v10h-42l-229 -100q-155 -84 -201 -111q-117 -56 -271 -187q-86 -62 -131 -111z" />
    <glyph glyph-name="afii10018" unicode="&#x411;" horiz-adv-x="1219" 
d="M1412 1674q25 -8 8.5 -53t135.5 -38h204q479 0 704 -67q55 -83 -492 -24l-360 2q-271 -3 -340.5 -80t-30.5 -97q230 -77 250 -214.5t-9 -227.5q-57 -158 -192.5 -269t-414.5 -201q-249 -21 -457 176q-317 -240 -362 -214q-47 0 -56 88q0 54 288 383q-87 284 -39 555
q10 135 1021 182q58 46 87.5 76.5t54.5 22.5zM593 1428l-124 -23q-133 -27 -143 -141l1 -148q11 -133 32 -189q534 302 645.5 375t186.5 175l-276 -7zM473 662l69 -64q131 -112 306 -111q465 149 549 431l4 61q-3 196 -175 242q-224 -12 -567 -390q-69 -59 -186 -169z
M389 831l52 -109l273 272q90 91 -69 6q-209 -110 -256 -169zM130 544q-54 -68 -33 -76t78 29t194 147l-47 98q-70 -28 -192 -198z" />
    <glyph glyph-name="afii10019" unicode="&#x412;" horiz-adv-x="1115" 
d="M1154 1568.5q8 -23.5 8 -34.5q-43 -32 -61 -58t4 -19q67 58 124 68q59 27 109 36q27 0 59 8l26 -1q47 4 81 -26q26 -10 36 -41q3 -36 -4.5 -54.5t-19.5 -45.5q-14 -23 -24 -38q-10 -20 -38 -43q-19 -29 -47.5 -52.5t-99.5 -74.5q-59 -46 -87 -61l-71 -46
q-39 -26 -78.5 -48.5t-100.5 -41.5l92 12q37 4 92.5 -6t75.5 -32q26 -8 42 -35t14 -85q-14 -65 -59 -106l-39 -42q-27 -26 -43 -39q-13 -8 -64 -43q-37 -31 -69 -46q-39 -35 -152 -72l-48 -12q-63 -17 -163 -18l-58 5l-25 3l-17 3l-25 2q-57 4 -57 39l-4 3q8 27 48 27h13
l52 -6l18 -1h5l28 -6l21 1h27l33 -1q69 9 153 37l15 4q-2 4 40 15q7 9 80 43l53 38q62 49 96 97q20 19 36 46l12 34l5 32q-9 27 -40 43l-19 6l-21 6h-4q-11 0 -65 8l-33 3l-31 -2q-27 -1 -66 -18l-32 -8q-17 -7 -55 -20q-28 -17 -47.5 -22t-98.5 -26l-26 7q-18 6 -18 27
q3 25 96 62l24 6q16 10 63 24l145 71q34 21 57 39q19 10 35 23q44 25 78 50q23 11 56 35q32 26 60 44q18 14 33 27.5t31 28.5q39 27 45 36t28 31l18 23l24 29q30 41 -9 64q-27 11 -47.5 11t-46 -3t-74 -24t-66 -29.5t-45.5 -17.5q-23 -14 -64 -34l-21 -19l-13 8v-4l4 -16
q-31 -10 -53 -31q-33 -32 -56 -59l-44 -46l-35 -37q-41 -40 -49 -71l-42 -45l-47 -54l-20 -24q-53 -60 -96 -115.5t-117 -139.5q-71 -92 -126 -149q-50 -46 -91 -96q-33 -32 -85 -70l-43 -39q-26 -26 -46 -47q-22 -13 -37 -24q-17 -17 -49 -14q-19 15 -21 33t3 38.5t39 98
t48.5 97.5t56.5 75l56 67l80 79q34 48 81 100q40 45 55.5 59.5t27 31t33.5 44t128 118.5l74 57l53 41l37 36q37 22 55 39t31 30.5t79 62.5q66 64 88 100l77 78q48 12 56 -11.5zM220 625l-47 -64l-85 -123q-21 -40 3 -25t65 66q264 285 662 738l-321 -298l-76 -77l-132 -140z
" />
    <glyph glyph-name="afii10020" unicode="&#x413;" horiz-adv-x="1373" 
d="M1679 1572l-10 -32q-20 -48 -103 -176l39 7q186 0 530 83q50 -2 49 -25t-14 -37t-104 -40q-63 -28 -107 -28l-65 -8q20 -7 -362 -40q-39 -26 -86 -87q-119 -138 -248 -286l-38 -38q-57 -88 -414 -338q-295 -143 -384 -158q-96 -15 -164 -8q-179 6 -198 183q13 97 142 159
q45 22 81 18q69 -1 101 -94q7 -73 -26 -97t-59 -11t23 45q-24 71 -71 68q-73 -37 -88.5 -67t-9.5 -51t31 -47.5t123 -37.5l67 8q66 2 298 107q350 212 345 241q45 22 133 125q176 197 235 319h-14l-26 3l-38 -8l-50 -7q-102 -28 -151 -33l-49 -19l-70 -18
q-158 -46 -172.5 -61t-31 -29t-22 -43.5t20.5 -103.5q-30 -23 -74 3.5t-44 79.5v12q0 94 156 178q159 77 668 164l89 130q73 103 109.5 126.5t52.5 -31.5z" />
    <glyph glyph-name="afii10021" unicode="&#x414;" horiz-adv-x="2361" 
d="M1890 1626q631 -7 880 -441l32 -100q0 -371 -1241 -718q-89 -22 -108 -11t-19 61l63 167q10 67 -47 83h-48q-53 0 -461 -200q-208 -83 -284.5 -88t-81.5 55q23 115 313.5 211.5t388.5 84.5t252 154v17q-1175 4 -1290 46t-159 96q-86 40 -78 175q159 269 1453 406
q215 14 435 2zM88 1163q90 -162 423 -162l353 -19l173 3h270l350 -17q165 184 239 184l15 -17v-17l-174 -183l16 -6q78 -8 47 -45h-143l-191 -150v-16q49 0 86 -41t9 -143q-62 -117 -35 -103q1197 301 1197 637q0 239 -430 417q-385 82 -462 65l-111 2q-552 -4 -1527 -267
q-124 -53 -105 -122zM687 484q-51 -56 85 -17q634 252 380 187.5t-465 -170.5z" />
    <glyph glyph-name="afii10022" unicode="&#x415;" horiz-adv-x="1347" 
d="M1491 1629q110 -22 87 -111.5t-80 -40t-149 33.5q-482 -127 -514 -312q-11 -48 33 -56q344 23 329 -110q-39 -22 -100 -4q-100 34 -157 11q-53 -15 -104 -35q-399 -96 -532 -187t-172 -143.5t-36 -113t102 -99.5q126 -12 184.5 -5.5t496.5 41.5q583 80 574.5 37.5
t-1058.5 -160.5l-145 -13l-64 5q-210 58 -178 261q9 69 167.5 194t616.5 260q-70 45 -38 170q185 280 737 377z" />
    <glyph glyph-name="afii10024" unicode="&#x416;" horiz-adv-x="2225" 
d="M2275.5 658.5q-86.5 -70.5 -217.5 -105.5q-322 -99 -417.5 -105.5t-120 36t-8 163.5t77.5 278q-89 -11 -114 -15t-331 -396q-59 -65 -68 -44.5t35 89.5q92 165 144 259l35 55l26 67l-103 -5q-161 8 -479 -304q-364 -264 -600 -264h-68q-56 0 -67 65q0 250 314 305
q89 9 149.5 -50.5t119.5 -62.5q255 150 506 505l118 155l69 131q37 77 -34.5 122.5t-309.5 -99.5l-161 -135q-96 -7 -54 61l190 139q45 26 93 49l150 64l47 6l45 -1l50 -14q81 -37 82 -127q-37 -154 -199 -394l-43 -81q115 21 179.5 23.5t363.5 329.5q38 41 66 81
q59 62 108.5 117.5t56 -1t-94 -178.5t-224.5 -278l-83 -98l150 22q191 131 544 460q164 140 264 117q56 -10 73 -91q-3 -102 -36 -101t-58 77.5t-210 -93.5l-65 -51q-450 -363 -498 -485t-60.5 -178t-11 -102t71 -43t281.5 61q119 28 202 58q211 77 124.5 6.5zM101 448.5
q39 -8.5 124 -1.5q196 53 220.5 102.5t-30.5 86t-157 11t-141 -85.5q-55 -104 -16 -112.5z" />
    <glyph glyph-name="afii10025" unicode="&#x417;" horiz-adv-x="1362" 
d="M1589 1668q66 -14 74 -72q-12 -153 -227 -242q-87 -50 -181 -88.5t-122 -64.5q207 -67 210 -198q6 -102 -101 -227q-107 -133 -357 -257q-97 -56 -274 -99q-174 -47 -276 -56t-224 12q-97 24 -111 102q-15 90 79.5 182.5t224 115.5t187 -5.5t95 -68t-14 -40.5t-86.5 14
t-73 19.5t-103 -9t-161 -86.5q-82 -61 -63 -117q18 -45 196 -51q162 7 323 57q126 32 246.5 91t255 162t144.5 263q-2 65 -84 98.5t-122 33.5t-114 -24.5t-108.5 -11t-19.5 33.5l316 149l144 52l167 82q82 45 107 66.5t40.5 44t10 49t-72 32t-146 -19.5t-128 -49t-88.5 -93
q-44 -17 -64.5 9.5t5.5 70.5q277 175 496 140z" />
    <glyph glyph-name="afii10026" unicode="&#x418;" horiz-adv-x="1497" 
d="M1330 1619q49 -16 35 -56q-1167 -982 -1231 -1060t-22 -63q179 106 418 280q887 546 1109 674q31 36 127 36l12 -11v-21q-92 -90 -425 -286l-110 -82l-135 -134l-349 -322q-122 -128 26 -58q586 233 756 219h13q-7 -27 -113 -50l-38 -15q-55 -21 -211 -79l-53 -13
l-42 -15l-339 -132l-62 -29q-132 -34 -120 48q37 74 82 119t335 324v11q-185 -87 -756 -480q-113 -66 -167 -71t-73 46q4 137 990 960q190 143 222 163q31 32 -66.5 39.5t-280 -53t-226.5 -145.5q-48 21 -19.5 87t247 135.5t466.5 33.5z" />
    <glyph glyph-name="afii10027" unicode="&#x419;" horiz-adv-x="1479" 
d="M1917 1738q125 -30 125 -65v-8h-6q-44 2 -94 17l-40 -3l-51 -1q-100 -5 -228 -81l-49 -19l-12 24q52 118 278 136h77zM1330 1619q49 -16 35 -56q-1167 -982 -1231 -1060t-22 -63q179 106 418 280q887 546 1109 674q31 36 127 36l12 -11v-21q-92 -90 -425 -286l-110 -82
l-135 -134l-349 -322q-122 -128 26 -58q586 233 756 219h13q-7 -27 -113 -50l-38 -15q-55 -21 -211 -79l-53 -13l-42 -15l-339 -132l-62 -29q-132 -34 -120 48q37 74 82 119t335 324v11q-185 -87 -756 -480q-113 -66 -167 -71t-73 46q4 137 990 960q190 143 222 163
q31 32 -66.5 39.5t-280 -53t-226.5 -145.5q-48 21 -19.5 87t247 135.5t466.5 33.5z" />
    <glyph glyph-name="afii10028" unicode="&#x41a;" horiz-adv-x="1338" 
d="M1514 1619h48q94 -38 56 -124l73 5q177 -30 177 -80q15 -53 -48 -79q-26 79 -113 79h-32q-144 0 -596 -425l-67 -47q75 -48 35 -144q0 -73 -187 -323l-17 -28q26 -5 162.5 55.5t282 118.5t145.5 18q-319 -164 -524 -254q-60 -26 -88 -30t-56.5 34.5t109.5 237t92.5 233.5
t-402.5 -221q-93 -63 -179.5 -132t-145 -117.5t-126.5 -28.5q-97 81 -106 188q-8 70 52 159.5t130.5 98.5t52.5 -49q-161 -49 -178 -198q28 -120 73 -132q140 23 459 430l370 338v39q-55 34 -141 114t-235 107t-221.5 24.5t-160 -23.5t-147.5 -132q-13 -86 119.5 -121
t270.5 51q48 30 12 -26t-109.5 -81t-160.5 -12q-193 39 -193 179v20q91 199 354 199h65q298 0 428 -118t193 -106q325 303 474 303zM1192 1321q189 -17 386 179q-9 69 -56.5 65.5t-137 -48t-171 -126.5t-21.5 -70zM821 943q134 0 451 318h-32q-102 2 -121.5 -2t-182.5 -157
t-115 -159zM596 745h16q177 109 177 139h-16q-177 -84 -177 -139z" />
    <glyph glyph-name="afii10029" unicode="&#x41b;" horiz-adv-x="967" 
d="M1550 1619q59 12 50 -35q-275 -297 -811 -792l-214 -216q-232 -228 392 111q41 -10 28.5 -37t-60.5 -56.5t-251 -119.5t-242 -96.5t-40.5 26.5t81.5 154q230 295 790 782l217 201l-27 -10q-586 -343 -1430 -1164q-68 5 1.5 176.5t116.5 181.5t56.5 -26t-22.5 -36
t-52 -112q932 900 1417 1068z" />
    <glyph glyph-name="afii10030" unicode="&#x41c;" horiz-adv-x="1585" 
d="M1514 1619q48 12 49 -35q-290 -338 -820 -785q-190 -223 -173 -223q498 293 1457 1026q90 27 73 -35l-624 -532q-386 -374 -394 -432t296 71.5t304 88.5t-283.5 -156.5t-339 -123.5t-71.5 23t10 124q16 67 353 380q0 18 -351 -247t-515 -290q-51 5 -25 71
q197 303 780 795l211 203h-4q-577 -359 -972 -775.5t-448.5 -390.5t-4 176t104 166.5t74.5 -20t-15.5 -36t-58.5 -108.5q917 905 1387 1065z" />
    <glyph glyph-name="afii10031" unicode="&#x41d;" horiz-adv-x="1864" 
d="M2009 1619q67 -31 43 -101q-10 -118 -404 -345q-240 -190 -395 -389q0 -28 231 33.5t233 81.5l498 475q211 190 360 202q105 -9 103 -101q9 -132 -327 -255q258 196 255 242.5t-39.5 47.5t-116 -36t-270.5 -229l-196 -193q-102 -72 -32 -52.5t402 230.5l132 58l90 45
q-393 -323 -774 -477q-309 -286 -329.5 -314t37.5 -13l378 97q87 17 69 -14q0 -37 -137 -76t-395 -111q-66 -2 -50 67q5 98 204 264q37 37 -17 14q-261 -72 -446 -86q-367 -317 -755 -317h-35q-309 15 -326 152v21q49 205 390 266q72 9 192.5 -19t120.5 -147
q3 -102 -255 -211q72 8 177.5 38.5t438.5 259.5v14q-24 89 69 101l52 -14l240 273h-17q-180 -72 -361 -86q-42 0 -89 79q-48 53 -82 50q-187 10 -292 -101q0 -86 240 -86h240q105 -9 -15 -48q-249 -13 -375.5 -2t-149.5 85t2.5 99t72 53t77.5 38t97.5 25t129.5 2l24 -7
q66 -30 85.5 -59.5t48.5 -55.5q518 80 518 172q229 347 430 360zM1850 1471q-385 -370 -34 -114q162 116 156.5 163.5t-122.5 -49.5zM429 741q-76 -14 -172 -43q-145 -61 -175 -140q-10 -32 10 -62q78 -61 165 -71h172l207 201v43q-57 82 -207 72z" />
    <glyph glyph-name="afii10032" unicode="&#x41e;" horiz-adv-x="927" 
d="M1527 1611q149 -24 159 -188l1 -36q-10 -210 -546 -484q-374 -249 -758 -429q-232 -115 -318 -107q-74 22 -65 127q2 92 328 480q149 186 309 321q51 43 96 73l48 32q79 51 217 117q295 137 529 94zM1005 1421q-139 -71 -209 -123q-219 -141 -636 -664
q-101 -161 -48 -172q167 27 439 183q563 331 645 380t209.5 150t151 145t24.5 144q-38 89 -202 72q-185 -30 -281 -74z" />
    <glyph glyph-name="afii10033" unicode="&#x41f;" horiz-adv-x="1127" 
d="M1400 1540l267 13l505 16q378 4 378.5 -32.5t-65.5 -33t-286.5 -7t-378.5 -23.5l-197 -15q-304 -2 -423 -162q-157 -254 -502 -568q-121 -117 -313 -234t-223.5 -129.5t-80 -5t-81.5 98.5v46q33 91 95.5 71t24 -75.5t23.5 -60.5l158 103q375 194 819 799l70 97l-201 -5
q-974 -20 -868 -205q143 -131 22 -131q-57 0 -143 137q-29 76 64.5 164.5t1195.5 131.5q138 157 192.5 154.5t-52.5 -144.5zM1059 936q55 12 31 -53q0 -42 -220 -241.5t-140 -186t149.5 25t180.5 54.5l60 23q89 19 82.5 -19t-55.5 -59.5t-240 -71.5q-179 -46 -264.5 -39
t-29.5 104q70 106 335 342q24 34 111 121z" />
    <glyph glyph-name="afii10034" unicode="&#x420;" horiz-adv-x="825" 
d="M1313 1649q99 0 115 -50q18 -29 11 -87t-96 -206q-23 -43 -90 -125q-48 -66 -199 -223q-201 -166 -338 -158l-29 -3q-67 0 -167 79q-67 -64 -95 -123q-98 -141 -110 -153t-69 -83q-27 -39 -58 -63q-12 -22 -55 -54.5t-55 -32.5q-78 0 -78 60l4 63q10 35 53 123
q11 25 27.5 49.5t66.5 84.5t82 101q38 36 64 71.5t80 88.5q7 14 27 33q40 49 81 105q29 21 120 120q25 22 221 193q25 -20 111 53q114 90 290 127zM565 952l20 -25q30 -29 53 -38q34 -21 73 -16q64 -3 107 31q58 7 204 142q17 20 116 130q28 19 57 67q36 42 66 88
q84 120 89 164t-26 69q-64 20 -123 -5q-48 -6 -97 -32q-130 -71 -154 -90.5t-54 -37.5q-66 -103 -94 -130q-23 -42 -135 -179q-23 -48 -102 -138zM86 480q0 -6 12 -6q20 0 53 38.5t78 94.5t106 146l99 133q49 42 86 107q110 120 158 188.5t58 101.5h-4q-23 0 -64 -57
q-92 -83 -153 -168q-76 -86 -106 -135q-145 -154 -213 -253q-19 -27 -42.5 -60.5t-67.5 -129.5z" />
    <glyph glyph-name="afii10035" unicode="&#x421;" horiz-adv-x="917" 
d="M1745 1622q96 -27 93 -105q0 -206 -261 -363q-58 -34 -115 -27t-55 73q-2 42 40 134t87 159h-14q-379 -132 -430 -182q-234 -102 -699 -496q-142 -119 -275 -315q-50 -68 87 -24q494 145 680 145v-24l-414 -104l-40 -19l-29 -10q-65 -25 -118 -43q-66 -34 -239 -54
q-43 12 -43 73q0 36 102.5 179.5t244.5 255.5q217 200 507 388q66 53 101 66q95 72 614 263q87 35 176 30zM1609.5 1450.5q-89.5 -101.5 -89.5 -211.5l14 -13q203 70 203 255q-38 71 -127.5 -30.5z" />
    <glyph glyph-name="afii10036" unicode="&#x422;" horiz-adv-x="713" 
d="M1567 1619h32q203 -22 269 -83q26 -31 -32 -42h-79q-69 10 -140 21l-131 8l-258 -16l-70 -11l-89 -8l-42 -7l-85 -9l-98 -15q-106 -16 -190 -26l-103 -11l-171 -24l-16 14v14q11 81 215 105q601 90 988 90zM997 1341q85 27 48 -56q0 -39 -792 -709l-206 -209
q-55 -18 -47 28l142 181l21 17l31 28q58 47 123 122z" />
    <glyph glyph-name="afii10037" unicode="&#x423;" horiz-adv-x="1066" 
d="M1289 1621q50 1 51 -26q-76 -70 -186 -162q-315 -242 -323 -296l44 2q221 52 913 469q36 10 62 -17l-231 -198l-417 -358q-686 -668 -976 -668h-48q-187 -10 -178 207q95 198 262 198q79 0 144 -92t-1 -102q-79 116 -197 115q-118 -47 -132 -165q15 -76 100 -92
q79 -5 229.5 54.5t752.5 593.5q219 191 282 243q-512 -254 -571 -254h-60l-48 38v18q0 76 226 242.5t84 115.5l-221 -91q-137 -63 -170.5 -90.5t-59 -50t22 -35t14.5 -38.5l-43 -13q-74 10 -90 55q66 161 680 367z" />
    <glyph glyph-name="afii10038" unicode="&#x424;" horiz-adv-x="1042" 
d="M1004 1636q282 6 320 -125q174 76 241 80q309 10 313 -205q-68 -335 -821 -470q-169 -19 -206.5 20.5t66 30.5t481.5 113.5t377 332.5q6 64 -79 90.5t-142 10t-111.5 -43.5t-92 -44.5t-268.5 -214.5q-402 -350 -762 -661q-225 -201 -284 -188q-50 -5 -36 33
q967 875 1197 1031q54 46 29 80q0 36 -113 45.5t-230 -21t-188.5 -60.5t-184.5 -86.5t-216 -121t-124 -149.5q-16 -42 -5 -61t69 -11q49 -1 421 121l1 -42q-186 -111 -467 -148q-77 -6 -101.5 76t93.5 218.5t661 333.5zM660 1166q62 20 38 -11l-38 -28h-18v14z" />
    <glyph glyph-name="afii10039" unicode="&#x425;" horiz-adv-x="1606" 
d="M1145 1620q141 0 219 -143l20 7q142 123 260.5 132t166 -34.5t57.5 -143.5q-8 -48 -28 -75t-63 -70q-32 -29 -97 -79q-39 -36 -96 -46q-47 16 54.5 92t131.5 133.5t-10 117t-195 -6.5q-147 -80 -233 -187q-102 -121 -186 -218q-69 -85 -210 -237l-112 -166
q-38 -88 -19 -134q13 -166 712 177q161 73 164.5 40.5t-349.5 -204.5q-169 -81 -278 -115.5t-222.5 -33t-113.5 150.5l2 60l-67 -48q-205 -121 -341 -178q-59 -28 -123 -44q-97 -7 -148.5 35t-40.5 130q6 124 221 265.5t359 166.5q77 0 -46 -59q-124 -61 -214 -119
q-120 -73 -184 -154q-54 -54 -57.5 -103t6.5 -62.5t54 -24.5q83 -10 337 141q42 20 94.5 56.5t83.5 66.5q56 44 79 79q102 93 239 245q90 91 170 198q52 55 96 125t21 116.5t-110 61.5h-53q-317 -72 -340 -276q12 -79 84 -46l168 83l23 -14l-8 -1q-73 -74 -151 -117.5
t-131.5 -13t-53.5 100.5q-13 134 143.5 255t314.5 118zM1064 1310l-41 -33l-9 5l-12 10q62 45 62 18z" />
    <glyph glyph-name="afii10040" unicode="&#x426;" horiz-adv-x="1243" 
d="M1366 1694q52 0 34 -48q-173 -171 -336 -297q-315 -268 -421 -395q-165 -146 -272.5 -308.5t19.5 -91.5q193 94 471 268q519 268 667 438q213 289 460 354q100 10 120 -65q25 -64 -53.5 -149.5t-199.5 -149.5q-236 -98 -314 -143q-190 -143 -235.5 -242.5t-70.5 -149.5
q-45 -93 -56 -160l3 -73q11 -60 1.5 -118.5t-43 -114.5t-104.5 -99q-104 -27 -147 -0.5t-60 67t10 119.5q56 129 215 184l190 434l-472 -281l-277 -160l-167 -90q-65 -27 -105 -2.5t-15 115.5q41 155 560 661q166 145 256.5 243.5t-591.5 -174.5q-232 -84 -365 -178l-38 -20
q-59 24 -7 81l30 25l84 48q823 338 1229 472zM1694 1340l-38 -78l122 36q188 102 218 176t-86.5 33.5t-215.5 -167.5zM906 288q3 -97 87 -66q71 45 77 168q-40 93 -164 -102z" />
    <glyph glyph-name="afii10041" unicode="&#x427;" horiz-adv-x="1120" 
d="M854 1619q30 -7 30.5 -23.5t-31.5 -54t-335 -313.5q-80 -82 -120 -141t38 -46t177.5 29.5t800.5 496.5q46 13 28 -26q13 -38 -328 -258q-247 -153 -533.5 -417t-359.5 -371q-71 -91 106 -24q527 182 641.5 200.5t122 -5.5t-601.5 -215q-205 -84 -279 -84q-92 -22 -112 39
q0 109 434 548l41 31q-47 -12 -170.5 -33.5t-108.5 80.5q0 92 302 366q142 106 -78 51q-272 -98 -364 -169q-106 -86 -131.5 -95t-22.5 30q0 163 854 404z" />
    <glyph glyph-name="afii10042" unicode="&#x428;" horiz-adv-x="2105" 
d="M1229 1619q66 -29 73 -59v-74q-60 -99 -319 -285q-50 -40 -104 -82q-77 -61 -138 -115l-460 -387l-64 -51l-78 -78l183 75q762 390 965 540q69 55 164 121q179 109 374 277q89 42 83.5 -9.5t-144 -149.5t-380.5 -272q-116 -82 -270 -189q-232 -174 -310 -287t-10 -99
q485 256 1063 608l521 383q64 25 58 -29q9 -30 -315 -268t-442 -371.5t-174 -231.5t113 -69l296 51q199 48 221 33.5t-33 -46t-216.5 -67.5t-237 -55t-177 -22.5t-97.5 89.5l19 67q49 94 82 148l20 23l25 56l-45 -28q-164 -84 -409.5 -224t-301.5 -155t-87 -2.5t-19.5 78.5
t106.5 213h-30q-261 -147 -400 -199q-170 -73 -283 -110q-78 20 -39 123l897 752q94 66 145 112l95 81l14 61l-50 18l-34 14l-70 -7l-112 -33q-150 -51 -149.5 -96t15 -62t-36.5 -53q-104 24 -132 105q17 92 153.5 153.5t240 86t241.5 -2.5z" />
    <glyph glyph-name="afii10043" unicode="&#x429;" horiz-adv-x="1875" 
d="M1024 654l-37 -78l35 82zM987 576l-75 34q-37 64 -37 111l25 68l-48 -8q-96 -63 -338 -170l21 72l245 129l211 124q342 170 669 401l265 189l32 5q22 -20 -10 -59q-157 -115 -287 -224l-69 -53l-93 -66q-104 -61 -168 -110q-279 -162 -324 -277l-2 -55l18 -29zM987 576
l-75 34q-37 64 -37 111l25 68l-48 -8q-96 -63 -338 -170l21 72l245 129l211 124q342 170 669 401l265 189l32 5q22 -20 -10 -59q-157 -115 -287 -224l-69 -53l-93 -66q-104 -61 -168 -110q-279 -162 -328 -273l2 -59l18 -29zM1024 654l-37 -78l35 82zM155.5 546
q-7.5 7 -7.5 35q0 127 700 604q116 77 202 128q200 157 197 195t-88.5 27t-113 -43.5t-34.5 -70.5q-96 -56 -93 6t39 96t95.5 58.5t134.5 32t117 -1.5q88 -28 52 -123t-526 -404q-187 -135 -474 -336q-96 -90 -106.5 -126.5t291.5 61.5l-24 -71q-236 -84 -295 -79t-66.5 12z
M1574 609q88 82 91 144l15 49l-62 -25q-398 -193 -500 -210l-36 88q83 11 459 168l66 37q272 151 527 329q104 77 265 210.5t191 120.5t-48 -105q-103 -93 -257 -217q-315 -231 -370 -288q-119 -87 -163 -217q79 -61 69 -152t-154 -152t-212.5 -52t-105.5 28t-13.5 124
t238.5 120zM1545.5 427q124.5 30 124.5 103q12 38 -59 42q-184 -70 -187 -122.5t121.5 -22.5zM986 576l132 -12l-35 89l-59 1z" />
    <glyph glyph-name="afii10044" unicode="&#x42a;" horiz-adv-x="1083" 
d="M474.5 1622q22.5 17 51 7t160.5 -238l65 -95q343 15 482 308q40 4 47.5 -36.5t-21.5 -96.5q-155 -195 -424 -250q-506 -302 -704 -660q-42 -106 122 -134q288 9 430.5 37.5t212 93t86.5 120.5t-24 102.5t-91.5 61t-119.5 9.5t-119.5 -22.5t-105.5 -53t-84.5 -55t-49.5 -5
t-2 62.5t163 98.5t273.5 37.5t197.5 -86t15.5 -204.5t-309.5 -210.5q-177 -56 -547 -46q-136 14 -149 114v28q0 180 609 692q45 81 -156 316q-335 -243 -377.5 -386t-59 -98t-16.5 73.5t60 142.5q68 108 215 232t169.5 141z" />
    <glyph glyph-name="afii10045" unicode="&#x42b;" horiz-adv-x="1569" 
d="M1007 1575q-322 -296 -392 -390.5t-75 -153.5l293 128q618 269 743 279t90 -77q-68 -109 -147.5 -192.5t-328.5 -298t-304 -298.5t-50.5 -104.5t45.5 -24t385 92.5l329 98q64 -26 -31 -74l-94 -30q-358 -130 -478.5 -146.5t-173 2.5t-58 68.5t44 142.5t444.5 419
q70 62 155 140q327 312 14 162q-878 -292 -819 -488q53 -336 -377 -388q-137 12 -212 98q-28 69 108 235q835 934 889 800zM92 607q-11 -47 35 -72.5t123 -23.5q340 37 267 407q-18 82 -173 -21t-252 -290z" />
    <glyph glyph-name="afii10046" unicode="&#x42c;" horiz-adv-x="917" 
d="M977 1390q36 -18 -9 -60q-617 -352 -430 -380q347 -85 385.5 -203.5t-60 -235.5t-522.5 -109q-341 2 -341 113l27 83q151 226 248 313q553 487 702 479zM254 757q-106 -117 -143.5 -183t37 -84t176.5 -20.5t221.5 11t193.5 37t117 121t-151 182t-269.5 69t-181.5 -132.5z
" />
    <glyph glyph-name="afii10047" unicode="&#x42d;" horiz-adv-x="1420" 
d="M1246 1605.5q42 -25.5 -43 -113.5q53 25 109 41.5t130 10t129.5 -59t73.5 -140t-111 -279.5q-146 -184 -357 -342q-251 -205 -722 -328l-183 -28q-128 -13 -199 33t-73 135v19q9 138 138.5 197t270.5 44q124 -39 97 -127q-9 -82 -158 -151l-19 5q18 31 37.5 44t48 53.5
t14.5 77.5t-68 37.5t-152.5 -28.5t-134.5 -120q-5 -69 17 -99.5t44.5 -36.5t56.5 -10t74 -4.5t263.5 47.5t443 184.5t290.5 234.5q-140 17 -343.5 -5.5t-239.5 -94.5q-55 1 -64 37q27 124 729 146q315 295 163 440q-40 32 -65 35.5t-49.5 6t-87.5 -17.5q-49 -15 -167.5 -91
t-139 -78t-33.5 26t112.5 176.5t167.5 123z" />
    <glyph glyph-name="afii10048" unicode="&#x42e;" horiz-adv-x="2139" 
d="M1710 1619q83 40 82 -49l-13 -24q-43 -34 -78 -61q-51 -45 -93 -87q-36 -29 -72 -65q-41 -37 -80 -89q-28 -52 -136 -237q-55 -54 -15.5 -46t160 8t199.5 169q313 460 850 440q87 3 174 -56.5t52 -192.5q-243 -277 -411 -449.5t-318.5 -283t-286.5 -164.5t-237 -46.5
t-109.5 69t36.5 238.5l71 193l-59 5l-87 -1q-137 -27 -245 -151q-283 -340 -615 -372l-60 1l-61 1q-195 29 -283 117q-86 58 -71 138q0 148 310 180q239 0 296 -111l6 -69l-20 -125l14 -9q91 -19 418 284q37 75 -25 76t-63 66t36.5 64.5t85.5 -38.5l97 -9q107 124 156 209
t112 188l-97 -43q-203 -79 -272.5 -74t-91.5 70l-26 62l-65 29q-211 35 -221 -119q52 -74 154 -51q51 4 14 -41q-75 -28 -158 -9l-54 37q-39 69 -14 124q47 122 206 122l58 -4q113 -8 154.5 -81.5t77.5 -66.5q214 24 407 154q87 54 211 180zM2441 1512l-58 -4l-75 -14
q-175 -18 -351 -145q-104 -91 -187 -211l-110 -141l-121 -195q-78 -202 -82.5 -267.5t72 -63.5t188.5 49t255.5 151t374 329.5t297 361t-202.5 150.5zM148 689q-32 -20 -59 -51v-28q87 -188 333 -170q113 78 112 185q-11 65 -100.5 91.5t-171.5 9.5t-114 -37z" />
    <glyph glyph-name="afii10049" unicode="&#x42f;" horiz-adv-x="1897" 
d="M1792 1618q60 -13 112 -130v-43l-47 -97l-61 -80q-32 -38 -172 -182q-48 -46 -99 -89l-348 -414l-66 -115l85 22q485 165 694 165q65 10 66 -14.5t-140.5 -48t-298.5 -67.5q-29 -4 -166 -51q-219 -93 -273 -93q-80 -6 -56 72q29 127 163 268l75 106l-42 -11
q-165 -68 -252 -104q-67 -46 -321 -170q-354 -144 -518 -169q-55 -6 -113 -6q-29 14 -14 58q174 -7 595 169l177 96l88 59l-216 -8q-66 -1 -92.5 20t6 132.5t211.5 295.5l65 58q260 195 454 271q270 126 504 100zM772 817l106 5q397 79 607 244q319 280 307 394v28l-23 20
q-22 21 -60 27l-30 7l-42 -1l-52 -8l-44 -12q-500 -148 -755 -429q-137 -145 -147 -219.5t133 -55.5z" />
    <glyph glyph-name="afii10065" unicode="&#x430;" horiz-adv-x="833" 
d="M556 873q95 9 130 -107q-26 -74 -91 -128h17q114 87 133 25q-223 -125 -236 -191.5t71 -39.5l253 102q37 -11 17 -42q-228 -125 -340 -125q-104 12 -34 146q-325 -146 -425 -146q-69 25 -51 125q230 375 556 381zM67 444q27 -37 221.5 47.5t271.5 219.5q72 89 -48 94
q-152 -21 -312 -172.5t-133 -188.5z" />
    <glyph glyph-name="afii10066" unicode="&#x431;" horiz-adv-x="558" 
d="M1371 1514q-26 -14 -85 -23q-57 -8 -126 -21l-83 -16q-68 -13 -123 -28t-114 -30.5t-140.5 -52.5t-94 -80.5t35.5 -135.5l56 -73q46 -60 57 -129q5 -45 -59.5 -164.5t-106.5 -149.5q-183 -185 -347 -220t-201.5 -15t-39.5 61q92 478 589 509q65 13 43 42t-74 115
q-48 111 -35.5 155t60.5 88l21 15l20 17l45 26q137 56 219 76l125 36q87 23 240 44l79 3q65 -35 39 -49zM86 507q-25 -76 68 -70q149 34 282 127q146 117 171 260q-47 55 -105 42l-86 -15l-60 -20l-88 -51q-161 -146 -182 -273z" />
    <glyph glyph-name="afii10067" unicode="&#x432;" horiz-adv-x="596" 
d="M1382 1619q105 53 118 -60v-59q-122 -272 -876 -596v-20q184 0 184 -139q-41 -126 -656 -378q-123 -16 -141 -1t-11 61q131 198 178 210l7 28l-134 -119l-18 20v20q13 105 558 397q547 488 791 636zM775 1063h18q639 312 639 457q26 75 -84.5 6.5t-572.5 -463.5zM152 446
q390 140 573 279q48 94 -101 99q-212 0 -523 -358q-45 -48 51 -20z" />
    <glyph glyph-name="afii10068" unicode="&#x433;" horiz-adv-x="613" 
d="M440.5 845.5q32.5 -34.5 33 -61.5t-11.5 -46.5t-235 -176.5q-68 -64 -49 -80.5t83 -6.5q184 71 663 157q76 0 76 -21t-530 -132q-352 -125 -390.5 -97.5t-18.5 83.5q13 53 212 195l78 76q38 67 -9 68t-135 -32.5t-107 -85t-60 -48t-40 76.5q205 153 306.5 159.5t134 -28z
" />
    <glyph glyph-name="afii10069" unicode="&#x434;" horiz-adv-x="792" 
d="M382 1622l90 -5l76 -9l77 -11q66 -12 168 -38q217 -71 305.5 -203.5t86.5 -190.5q0 -389 -780 -682q-239 -106 -354 -106q-72 7 -42 93q305 417 598 417q104 0 104 -162h41q351 183 351 394q30 49 -87.5 216.5t-523 197t-760.5 -3.5q-484 -103 -484 -225q-64 -58 -63 24
q135 278 846 292l200 7zM316.5 512.5q332.5 113.5 332.5 235.5v23q-34 74 -124 47q-108 0 -324.5 -209.5t116 -96z" />
    <glyph glyph-name="afii10070" unicode="&#x435;" horiz-adv-x="846" 
d="M684 868.5q82 -13.5 83 -110.5q0 -137 -534 -195q-112 -32 -109.5 -78t41 -55.5t82 -13t328.5 53t281.5 39t-270 -86t-436.5 -55.5q-114 32 -91 129l8 45h-67q-8 24 34.5 44.5t482.5 259.5q85 37 167 23.5zM400 715q-311 -133 30 -68q275 68 275 117t-120 36z" />
    <glyph glyph-name="afii10072" unicode="&#x436;" horiz-adv-x="1285" 
d="M591 881.5q53 -7.5 78 -30.5t3 -124l82 42l62 45q38 19 40.5 -2.5t-156.5 -176.5q-27 -36 28 -12q54 0 406 220q69 30 65 3t-130 -107t-179 -135q-130 -137 92 -74l432 117q37 1 14 -36q-133 -61 -552 -158q-75 -12 -97 17q-20 48 21 124l-65 -24l-42 -10l-29 -7
l-118 -40q-28 0 53 104l-109 -43q-44 -27 -84 -48q-272 -159 -336 -159h-28q-68 14 -25 86.5t140 37.5q316 91 473 278q0 49 -44 62t-124 -25q14 -61 -26.5 -94.5t-76 -31t-36 30t40.5 84.5t107.5 75.5t119.5 11z" />
    <glyph glyph-name="afii10073" unicode="&#x437;" horiz-adv-x="470" 
d="M549 660q-17 -79 -306 -186q-69 -53 -44 -92l280 92l14 -15v-16l-352 -167q6 -366 -120 -420l-114 -48l-144 -17l-122 27l-47 39l-31 59l-7 50q15 105 167 195q388 163 388 252q-88 0 -106 11.5t0 40.5t233 82l164 67q168 126 8 143t-185 -62q-47 0 -52.5 39t38 64
t163.5 32q137 -16 169.5 -62t5.5 -108zM-368 -57l46 -61l23 -17l58 -6l31 1l58 8q200 24 220 276l-1 55l-15 46q-46 -3 -115 -56q-45 -29 -174 -97q-54 -24 -95 -71q-39 -24 -36 -78z" />
    <glyph glyph-name="afii10074" unicode="&#x438;" horiz-adv-x="992" 
d="M835 867q72 23 61 -56q-322 -247 -311 -277q-29 -54 28 -66q106 14 253.5 86.5t134.5 34.5q-35 -74 -243.5 -157.5t-241.5 -43.5t-15 173l-355 -166q-66 -18 -111.5 -3.5t-33.5 86.5q207 316 293 345.5t41 -39.5q-266 -272 -249.5 -311t272.5 97.5t477 296.5z" />
    <glyph glyph-name="afii10075" unicode="&#x439;" 
d="M990 1200h15l252 -35l-38 -35l-179 13h-99l-70 -10l-16 3l-45 -1q-242 -22 -232 -92v-39l-33 -4q-58 10 -44 80q94 138 489 120zM835 867q72 23 61 -56q-322 -247 -311 -277q-29 -54 28 -66q106 14 253.5 86.5t134.5 34.5q-35 -74 -243.5 -157.5t-241.5 -43.5t-15 173
l-355 -166q-66 -18 -111.5 -3.5t-33.5 86.5q207 316 293 345.5t41 -39.5q-266 -272 -249.5 -311t272.5 97.5t477 296.5z" />
    <glyph glyph-name="afii10076" unicode="&#x43a;" horiz-adv-x="819" 
d="M474 822l-158 -160h20q234 114 376 114q37 -9 19 -45q-474 -146 -474 -250q7 -29 45 -30q237 7 528 98q53 4 20 -46q-162 -106 -573 -136q-99 14 -99 136l-158 -68q-23 13 -20 46l435 386q56 11 39 -45z" />
    <glyph glyph-name="afii10077" unicode="&#x43b;" horiz-adv-x="780" 
d="M731 855q151 87 102 -7q-59 -56 -357 -264q-34 -65 -34 -99.5t90.5 0t232.5 143.5q30 -4 23.5 -45.5t-129 -104t-198 -71t-82 15t11.5 118.5l-340 -174q-55 -12 -51 43q72 191 102 196q59 4 34 -65q-91 -119 0 -65q376 180 595 379z" />
    <glyph glyph-name="afii10078" unicode="&#x43c;" horiz-adv-x="1178" 
d="M1088 857.5q5 -28.5 -171 -165t-176 -200.5q18 -8 238.5 69t220.5 56q2 -51 -430 -187q-62 -17 -90.5 -5t-12.5 67q14 42 -5 39q-218 -130 -292 -101q-29 0 -29 104l-297 -167q-45 -5 -44 42q63 182 89 187q39 16 31.5 -23.5t-28 -83.5t26.5 -18q327 173 518 375
q139 88 104 -41q-18 -57 -326 -230q-30 -62 -26.5 -87t70.5 4q272 141 563 375q61 19 66 -9.5z" />
    <glyph glyph-name="afii10079" unicode="&#x43d;" horiz-adv-x="942" 
d="M823 863q58 22 70 -10.5t-350 -379.5q-14 -42 45 -26q250 84 306 95.5t56 -15.5q-14 -47 -223 -117.5t-261 -45t-14 108.5l68 108l-258 29q-94 -49 -151 -117t-87.5 -73t-23.5 53q90 120 263.5 260.5t245 152.5t1.5 -73q-39 -31 -91 -65l-71 -57l104 -31q158 -20 371 203
z" />
    <glyph glyph-name="afii10080" unicode="&#x43e;" horiz-adv-x="733" 
d="M850 790q30 -101 -325 -271t-426 -169t-91.5 25.5t-9.5 89.5t204 218.5t415 188.5t233 -82zM166.5 439q136.5 23 556.5 274l21 19q41 64 -65 78t-290.5 -84.5t-271.5 -204t49.5 -82.5z" />
    <glyph glyph-name="afii10081" unicode="&#x43f;" horiz-adv-x="842" 
d="M449 867q44 15 56 -52q219 63 272 48t60.5 -50t-100 -138t-213.5 -157t-113 -82l415 155q32 12 19 -17q-22 -56 -249.5 -135t-259.5 -72q-68 16 -38 75q434 282 434 322q21 38 -20 34.5t-173 -43t-600 -336.5q-81 -16 -94 34q407 219 604 414z" />
    <glyph glyph-name="afii10082" unicode="&#x440;" horiz-adv-x="797" 
d="M1826 2089q22 -53 -23 -45l-90 45l-839 -876l-408 -427q181 0 184 -54q11 -34 -23 -73t-70 -71t-46 -49q378 134 295 45q-349 -152 -398.5 -168t-93 -18t-30.5 51q342 267 204 247q-231 0 -444 -232t-282 -292.5t-466 -348.5q-176 -117 -359.5 -175.5t-267 -72t-152 -4
t-97.5 71.5t17.5 151t146.5 161q473 349 1088 606l100 36q602 139 711 335l22 27q403 392 925 947l260 250q59 37 136 -67zM-1323 -339l226 67q381 118 771.5 476t376.5 371.5t-39 8.5q-399 -47 -1043 -472q-305 -165 -408 -354q-16 -58 -2.5 -84t118.5 -13z" />
    <glyph glyph-name="afii10083" unicode="&#x441;" horiz-adv-x="840" 
d="M706.5 889.5q66.5 -16.5 70.5 -55t-54 -119.5q-159 -131 -262 -96l-40 20q-38 47 31 155q-70 -28 -147 -68q-195 -103 -208 -173q-57 -114 67 -109q694 134 686 75q-621 -152 -735 -146t-115 59q-37 129 116.5 259.5t338.5 172.5t251.5 25.5zM451 790q76 0 105 -52
q-216 -103 5 -65q95 52 126 100.5t-37.5 51t-198.5 -34.5z" />
    <glyph glyph-name="afii10084" unicode="&#x442;" horiz-adv-x="851" 
d="M38 867l962 -19q39 -27 -7 -56t-339 -21l-167 4q-64 -4 -333 34q77 -83 77 -269q219 173 307 173q36 -3 20 -38l-423 -308q-40 1 -39 38l58 77q0 269 -154 366q-3 25 38 19z" />
    <glyph glyph-name="afii10085" unicode="&#x443;" horiz-adv-x="740" 
d="M380 729q-227 -158 -260 -239v-22h18q114 0 649 313q70 30 56 -45q-378 -216 -874 -872q-245 -350 -279 -342.5t-120 632.5l-7 23v23q0 89 649 179l16 14q-205 -19 -213 49q-9 35 11 71l131 156q-75 0 -86.5 25t162.5 86t147 -51zM-330 0q36 -162 43 -288.5t524 623.5
l-39 -10l-535 -132q-29 -31 7 -193z" />
    <glyph glyph-name="afii10086" unicode="&#x444;" horiz-adv-x="933" 
d="M954.5 829q83.5 8 114.5 -45q24 -62 -17 -165.5t-168.5 -173.5t-237.5 -76.5t-173 34.5q-9 39 41 31q147 -36 310.5 43t183.5 188t-57 104q-96 5 -386 -238l-489 -386q-132 -145 -192 -145q-20 6 -15 24q0 35 193 205l296 265l15 12v13l-46 -10l3 32q196 83 309 158
l-20 34q-63 48 -267 -24t-276 -175t30 -64l218 70l8 -27q-201 -115 -315 -115q-29 14 -29 48q-5 173 300 302q149 78 366 60q47 -15 85 -62q132 75 215.5 83z" />
    <glyph glyph-name="afii10087" unicode="&#x445;" horiz-adv-x="770" 
d="M563 795l145 58q71 20 100 -5t26 -68t-46 -104.5t-114 -74.5q-54 -1 -78 7t-31.5 26.5t14 17.5t40.5 -5t55.5 1t76.5 57.5t13 87.5t-166 -46l-48 -34q-54 -41 -100 -99l-38 -39l-23 -27q-18 -35 -12 -67.5t98 -22.5q147 30 248 58l39 11q37 0 27 -19t-52 -33t-128 -40
q-141 -39 -200 -41t-78 28t-19 67l-41 -27q-64 -44 -161 -72.5t-112.5 -15t13.5 45.5q57 9 95.5 24t101.5 57l59 38q224 176 223 225.5t-79 21.5q-90 -45 -123 -110.5t-48 -31t42.5 110t158 97t122.5 -56.5z" />
    <glyph glyph-name="afii10088" unicode="&#x446;" horiz-adv-x="560" 
d="M350 874q60 9 42 -42q-252 -232 -299 -340q15 -40 186.5 45.5t420.5 280.5q71 16 42 -56l-210 -224q74 -62 9 -104q-68 20 -149 -260q-18 -29 -84 -14q-88 42 -112 98q0 104 210 196l18 91q-133 -91 -238 -130q-89 -25 -135.5 -17t-50.5 42q0 132 350 434zM279 248
q72 -36 82.5 21t6.5 72t-28 12q-89 -28 -61 -105z" />
    <glyph glyph-name="afii10089" unicode="&#x447;" horiz-adv-x="651" 
d="M320 866q7 -53 21.5 -62.5t246.5 63.5q33 -4 14 -38q-34 -53 -238 -180l-126 -128l-40 -51q-25 -38 19.5 -33t93 10.5t130.5 24.5l150 26q135 36 123 10q-30 -57 -392 -120q-53 -17 -182 -21q-43 6 -42.5 37t34 87t208.5 238l-51 -16q-50 -19 -49 22v37l-112 -96l-86 -65
q-51 -8 -42 38q233 218 273 232t47 -15z" />
    <glyph glyph-name="afii10090" unicode="&#x448;" horiz-adv-x="1347" 
d="M913.5 870.5q24.5 -10.5 2.5 -33.5q-81 -55 -308 -230l-112 -98q-30 -68 190 28q219 84 590 285q64 15 60 -31q-346 -191 -390 -282q-37 -78 47 -68l448 89q64 16 45 -27l-70 -22q-124 -49 -392 -100q-60 -16 -139.5 -15.5t-43.5 137.5l-374 -133l-32 -3q-45 9 -45 121
h-15q-125 -37 -199.5 -69.5t-113 -40.5t-54 3t-8.5 47q43 172 408 414l-74 -8q-78 -18 -22 48l80 18q160 23 90 -59q-213 -193 -284 -251l-88 -108q284 78 731 370q48 29 72.5 18.5z" />
    <glyph glyph-name="afii10091" unicode="&#x449;" horiz-adv-x="1219" 
d="M457 767q-98 -49 -86 26q43 42 101.5 43.5t91 -6t56.5 -36t-18 -89.5q-308 -185 -383 -244.5t-84 -112.5q31 -22 134 19l339 167l328 205q61 46 111.5 50t40.5 -43l-404 -295q-38 -101 64 -72q86 31 420 200q168 127 288 167q54 11 52 -41q-64 -36 -245 -166
q-47 -183 -122 -207v-28q-53 0 -73 -94t-76 -140q-30 -22 -86 -17q-89 12 -117 76t18.5 141t245.5 117v41l-60 -18q-215 -116 -306 -113q-97 5 -98 118l-8 13q-37 2 -194.5 -80t-279.5 -77q-58 7 -65 54q-22 79 329 325q101 54 141.5 80t-55.5 37zM979 186l50 113
q-58 2 -118.5 -33.5t-64 -74.5t41 -70t91.5 65z" />
    <glyph glyph-name="afii10092" unicode="&#x44a;" horiz-adv-x="573" 
d="M246 867h16q26 0 98 -91h17q130 -2 245 71q45 19 49.5 -5.5t-31.5 -59t-198 -74.5q-213 -129 -286 -183t-70 -91.5t194 -18.5q82 9 146 54q32 53 -21 66q-90 24 -169 -22l-13 11l10 23q41 33 86 43t93.5 3t68 -33.5t18 -68.5t-63.5 -80t-161 -53.5t-192 0.5
q-37 12 -56.5 31.5t-15.5 54.5q-10 52 318 264v11l-91 64q-128 -71 -166 -118.5t-59.5 -41t-11.5 50.5q66 89 246 193z" />
    <glyph glyph-name="afii10093" unicode="&#x44b;" horiz-adv-x="869" 
d="M495 872q55 19 62 -33q-151 -109 -161 -142l-3 -6l70 30q235 81 408 69q35 -1 26 -48q-98 -92 -164 -139q-307 -178 -246 -176l100 13l255 43q117 13 58 -22.5t-185.5 -57t-236.5 -36.5q-75 -6 -87 11t8 51.5t208 174.5q79 46 109 66.5t81 60.5l-57 -7
q-421 -66 -418 -170q17 -154 -237 -167q-71 5 -82 33t7 58q218 211 485 394zM67.5 442.5q11.5 -12.5 76.5 -0.5q148 20 117 140q-20 23 -67.5 -7t-92.5 -75t-33.5 -57.5z" />
    <glyph glyph-name="afii10094" unicode="&#x44c;" horiz-adv-x="500" 
d="M460 889q47 8 38 -30q-199 -128 -240 -189q242 -7 242 -173q0 -89 -333 -130q-127 2 -149.5 31.5t-14.5 68.5t90 122q-32 11 -19 37q270 241 386 263zM141.5 563q-51.5 -55 -61 -81t6 -41t54 -15.5t124 12.5t134.5 35.5t28.5 73t-127.5 61t-158.5 -44.5z" />
    <glyph glyph-name="afii10095" unicode="&#x44d;" horiz-adv-x="550" 
d="M426 867q81 7 104.5 -16.5t21.5 -62.5q-44 -139 -145.5 -248.5t-179.5 -135t-160 -3.5t-69 60q165 -24 210 -4t85 54t65 82l-61 3q-153 -10 -113 40q240 16 240 34q53 73 54 103.5t-25.5 33t-71.5 -10.5t-94 -67q-53 -28 -48 23q22 75 187 115z" />
    <glyph glyph-name="afii10096" unicode="&#x44e;" horiz-adv-x="1085" 
d="M1148 941q58 -19 81 -60t1 -103q-20 -40 -76.5 -87t-107 -76t-152.5 -72l-62 -27q-104 -34 -131 -42t-62.5 -14t-83.5 3q-55 37 -31 132q-6 70 -140 57q-77 -57 -127 -98q-33 -31 -94 -72l-135 -115q-50 7 -28 56q429 401 596 496q38 -3 31 -37q-206 -166 -140 -156
l129 -9q182 224 532 224zM614 592q-39 -100 219 -7.5t306 184t-22 102t-138 -12.5q-105 -23 -207 -90q-104 -67 -158 -176z" />
    <glyph glyph-name="afii10097" unicode="&#x44f;" horiz-adv-x="855" 
d="M612 867q112 0 146 -80q17 -126 -129.5 -183t-254.5 -89q-108 -20 -79 -61.5t104 -32.5l265 54q270 95 275.5 73.5t-161 -81.5t-395.5 -100q-163 -14 -167 100q-195 -81 -229 -60q-55 13 -26.5 78t147.5 127q33 20 48 -25q-16 -21 -64 -46t-62 -54t12 -24
q132 25 223.5 164t170 193.5t176.5 46.5zM292 558q32 -14 217.5 61.5t185.5 127.5q-7 59 -104 60q-145 0 -299 -249z" />
    <glyph glyph-name="afii10071" unicode="&#x451;" horiz-adv-x="812" 
d="M684 868.5q82 -13.5 83 -110.5q0 -137 -534 -195q-112 -32 -109.5 -78t41 -55.5t82 -13t328.5 53t281.5 39t-270 -86t-436.5 -55.5q-114 32 -91 129l8 45h-67q-8 24 34.5 44.5t482.5 259.5q85 37 167 23.5zM400 715q-311 -133 30 -68q275 68 275 117t-120 36zM623 1039
q-48 -63 20 -60q39 16 38.5 48t-58.5 12zM813 1014q-66 -38 -46.5 -61t69.5 8q35 50 -23 53z" />
    <glyph glyph-name="afii10099" unicode="&#x452;" 
d="M114 1217h-110v119h110v130h147v-130h281v-119h-281v-278q100 147 264 147q139 0 218.5 -90t79.5 -323v-731q0 -233 -60.5 -303t-158.5 -70q-61 0 -115 19l27 153q44 -14 70 -14q52 0 71 41.5t19 177.5v727q0 258 -182 258q-99 0 -166 -77.5t-67 -272.5v-581h-147v1217z
" />
    <glyph glyph-name="afii10100" unicode="&#x453;" horiz-adv-x="613" 
d="M536 867l46 -56v-55q0 -33 -243 -195l-45 -55q15 -42 79 -32l35 1q127 73 628 156h76v-14q0 -28 -530 -139l-364 -111l-45 56v41q13 53 212 195l78 76l-11 42l-48 2q-170 -22 -231 -148l-61 14v69q205 153 424 153zM431 1194l109 280h193l-180 -280h-122z" />
    <glyph glyph-name="afii10101" unicode="&#x454;" horiz-adv-x="857" 
d="M521 618v-148h-307q26 -346 238 -346q186 0 221 264l145 -23q-23 -174 -119.5 -281.5t-253.5 -107.5q-180 0 -281.5 152.5t-101.5 402.5q0 268 109 411.5t285 143.5q145 0 237.5 -95t109.5 -243l-144 -28q-36 217 -208 217q-98 0 -160.5 -88t-76.5 -231h307z" />
    <glyph glyph-name="afii10102" unicode="&#x455;" horiz-adv-x="840" 
d="M646 926q-79 -123 -195 -198l219 77q-16 -79 -176 -163q154 -58 130 -185q-96 -156 -334 -88q-238 100 30 264l-81 -8q-85 -38 -58 26l85 42q-39 157 126.5 232t253.5 1zM415 596l-118 -89q-26 -68 72 -88.5t142 38.5t-60 118zM455 867q-169 -89 -70 -118l27 20
q212 187 43 98z" />
    <glyph glyph-name="afii10103" unicode="&#x456;" horiz-adv-x="373" 
d="M742.5 1249q36.5 5 68 -15.5t28.5 -54t-36.5 -64t-82.5 17t-31.5 79.5t54 37zM637 873q49 6 27 -50l-352 -353q91 18 238 90.5t332 143.5q40 -9 -7 -40.5t-184 -104t-279 -132.5t-205 -60q-99 16 129.5 220.5t165.5 180t-111 -63.5t-105.5 -109t-50 0.5t141.5 174
t260 103.5z" />
    <glyph glyph-name="afii10104" unicode="&#x457;" horiz-adv-x="467" 
d="M166 0v1062h147v-1062h-147zM8 1270v205h154v-205h-154zM314 1270v205h154v-205h-154z" />
    <glyph glyph-name="afii10105" unicode="&#x458;" horiz-adv-x="373" 
d="M763 1131q46 0 46 -85q0 -40 -27 -49.5t-53.5 6t-21.5 71t56 57.5zM664 883q26 17 39.5 2.5t13.5 -38.5q-162 -270 -162 -319l52 15l48 14q67 -4 49.5 -34.5t-101.5 -50.5q-122 -55 -122 -151q-170 -472 -359 -472q-191 22 -191 151q-11 186 305 381q222 94 222 163
q89 215 206 339zM84 -72q120 -15 212 177.5t78 245.5q-260 -99 -344 -284q-35 -109 54 -139z" />
    <glyph glyph-name="afii10109" unicode="&#x45c;" horiz-adv-x="734" 
d="M565 867l19 -23v-22l-158 -160h20q234 114 376 114l19 -23v-22q-474 -146 -474 -250l20 -23h20q242 0 533 91l20 -23v-23q-165 -136 -573 -136q-84 0 -99 136l-158 -68l-20 23v23l435 386h20zM382 1194l109 280h193l-180 -280h-122z" />
    <glyph glyph-name="afii00208" unicode="&#x2015;" horiz-adv-x="1679" 
d="M1466 467h-1257v145h1257v-145z" />
    <glyph glyph-name="underscoredbl" unicode="&#x2017;" horiz-adv-x="1024" 
d="M1042 -284h-1059v84h1059v-84zM1042 -442h-1059v84h1059v-84z" />
    <glyph glyph-name="ellipsis" unicode="&#x2026;" horiz-adv-x="1679" 
d="M196 0v205h168v-205h-168zM756 0v205h168v-205h-168zM1316 0v205h168v-205h-168z" />
    <glyph glyph-name="minute" unicode="&#x2032;" horiz-adv-x="322" 
d="M179 697l-1 77l-12 62q-11 60 -53 97.5t33 63.5q79 -16 85 -99q7 -96 -52 -201z" />
    <glyph glyph-name="second" unicode="&#x2033;" horiz-adv-x="596" 
d="M347 942q25 2 20.5 -12t-49 -48t-175.5 -136q-40 -50 -50 -50t-10 20q-7 46 75 107q68 67 116 92t73 27zM452.5 864q0.5 -20 -176.5 -155l-71 -61q-56 -54 -65.5 -41t7.5 42.5t134.5 125.5t144 102.5t27 -13.5z" />
    <glyph glyph-name="exclamdbl" unicode="&#x203c;" 
d="M197 364l-45 777v325h183v-325l-42 -777h-96zM159 0v205h169v-205h-169zM633 364l-45 777v325h183v-325l-42 -777h-96zM595 0v205h169v-205h-169z" />
    <glyph glyph-name="nsuperior" unicode="&#x207f;" horiz-adv-x="612" 
d="M67 805v665h106v-69q68 83 171 83q74 0 123 -37.5t64.5 -91t15.5 -145.5v-405h-116v401q0 83 -24.5 120t-84.5 37q-139 0 -139 -196v-362h-116z" />
    <glyph glyph-name="peseta" unicode="&#x20a7;" horiz-adv-x="1952" 
d="M130 1466h379q172 0 271.5 -104t108.5 -298h76v310l149 -1v-309h262q66 28 143 28q94 0 167 -37t120.5 -107.5t48.5 -184.5l-154 1q-10 170 -174 170q-72 0 -119 -35t-47 -91q0 -57 48 -92.5t172 -71.5q171 -50 239 -125.5t68 -205.5q0 -156 -108 -247.5t-250 -91.5
q-185 0 -284 157l-1 -131q-45 -16 -76 -16q-67 0 -114 25.5t-68.5 67t-21.5 131.5v711h-84q-24 -111 -80 -186.5t-136.5 -105t-244.5 -29.5h-131v-598h-159v1466zM289 1295v-528h108q133 0 198 26.5t98.5 89t33.5 148.5q0 87 -34 151.5t-88 88.5t-148 24h-168zM1114 919
v-655q-1 -30 -1 -31q0 -82 74 -82q20 0 43 10q-33 83 -35 177l149 -1q5 -106 64.5 -158t136.5 -52t136 49.5t59 117.5q0 47 -33 83.5t-168 80.5q-138 45 -195.5 81t-93 97t-35.5 143t26 139z" />
    <glyph glyph-name="afii61248" unicode="&#x2105;" horiz-adv-x="1553" 
d="M491 1012l116 -19q-13 -132 -80.5 -206.5t-167.5 -74.5q-118 0 -190 101t-72 298q0 184 74.5 282t191.5 98q196 0 235 -242l-115 -24q-24 151 -118 151q-65 0 -106 -69t-41 -201q0 -135 37.5 -206.5t105.5 -71.5q112 0 130 184zM232 -57l903 1548h128l-902 -1548h-129z
M909 373q0 192 77 290.5t196 98.5q115 0 194 -96t79 -293t-78.5 -293.5t-194.5 -96.5q-115 0 -194 96t-79 294zM1030 373q0 -132 43 -203t109 -71q68 0 110 72t42 202q0 131 -43 202.5t-109 71.5q-68 0 -110 -73t-42 -201z" />
    <glyph glyph-name="afii61289" unicode="&#x2113;" horiz-adv-x="715" 
d="M28 422l177 235v455q0 222 60 300.5t171 78.5q107 0 165 -70t58 -165q0 -96 -61 -230t-224 -361v-415q0 -83 13 -107.5t43 -24.5q52 0 199 107v-162q-104 -87 -225 -87q-97 0 -148 59t-51 182v225l-79 -98zM374 899q91 157 118 223.5t27 128.5q0 60 -22.5 90t-53.5 30
q-42 0 -55.5 -50.5t-13.5 -194.5v-227z" />
    <glyph glyph-name="afii61352" unicode="&#x2116;" horiz-adv-x="1802" 
d="M3206 2145l64 -84q-52 -107 -144 -182h-31v14l63 154q-16 56 -103 26q-388 -10 -706 -70l-78 -5q-68 -19 -405 -91q-319 -104 -349 -201l-18 -87l38 -230q4 -55 1 -137l-23 -73q-110 -227 -207 -308q-208 -257 -383 -305l-99 -25l-140 -6q-53 106 -3 193l-99 -53
q-75 -45 -123 -61q-60 -43 -158 -85q-117 -63 -255 -92l-48 42v28q0 183 191 308q48 0 48 28h32q64 -23 64 -98q-31 -64 -64 -70h-16l-48 28l-53 -6q-58 -53 -84 -120l8 -54l70 20q453 172 618 384l39 43l-3 48l75 35h16q0 -56 48 -98q-38 -40 -127 -140l-90 -193l34 -16
l89 6l90 19q126 62 199 135q64 69 149 165q69 63 108 154q41 78 67 161l6 115l-15 94l-31 214q0 332 1483 462zM1898 955h64q65 -19 96 -42q64 -38 64 -98q-267 -183 -463 -196l-62 29q-12 121 14 195q77 83 187 100zM1826 880q-94 -14 -140 -128l-3 -61l119 12l184 104
l10 45l-71 23zM1780 501l54 6l112 14h144l111 -14v-28q-195 0 -452 -33l-154 -23q-183 -20 -303 -56q-96 28 -96 56l192 36l104 17q137 3 288 25z" />
    <glyph glyph-name="Ohm" unicode="&#x2126;" horiz-adv-x="1573" 
d="M496 160q-108 67 -165 130q-87 96 -134 225.5t-47 286.5q0 196 79.5 360.5t231 252.5t347.5 88q336 0 516 -254q131 -186 131 -448q0 -168 -54 -297.5t-141 -222.5q-53 -58 -149 -121l364 6v-166h-575v177q80 40 124 78q72 61 122 145t75.5 179t25.5 198
q0 138 -49.5 277.5t-150 212.5t-243.5 73q-191 0 -296 -120q-146 -169 -146 -440q0 -217 91 -372.5t251 -227.5v-180h-577v168z" />
    <glyph glyph-name="arrowleft" unicode="&#x2190;" horiz-adv-x="2048" 
d="M492 876h76q-59 -118 -88.5 -165.5t-106.5 -143.5h1595v-101h-1595q104 -108 198 -309h-78q-129 144 -222 218.5t-192 122.5v45q87 37 184 113t229 220z" />
    <glyph glyph-name="arrowup" unicode="&#x2191;" horiz-adv-x="1024" 
d="M153 926q145 133 220.5 230t112.5 183h46q47 -99 121.5 -192t218.5 -222v-77q-201 94 -309 197v-1474h-101v1474q-96 -76 -143.5 -106t-165.5 -89v76z" />
    <glyph glyph-name="arrowright" unicode="&#x2192;" horiz-adv-x="2048" 
d="M1555 876q133 -145 230 -220.5t183 -112.5v-45q-99 -48 -192 -122.5t-222 -218.5h-77q94 201 197 309h-1595v101h1595q-76 97 -106 144t-89 165h76z" />
    <glyph glyph-name="arrowdown" unicode="&#x2193;" horiz-adv-x="1024" 
d="M153 -16v76q119 -59 166 -89t143 -106v1474h101v-1474q108 103 309 197v-77q-144 -129 -218.5 -222t-121.5 -192h-46q-37 86 -112.5 183t-220.5 230z" />
    <glyph glyph-name="arrowboth" unicode="&#x2194;" horiz-adv-x="2048" 
d="M1968 540v-45q-94 -43 -185 -116t-221 -221h-80q69 172 194 311h-1305q125 -139 194 -311h-80q-130 148 -221 221t-185 116v45q94 44 185 116.5t221 221.5h80q-69 -172 -194 -311h1305q-125 139 -194 311h80q130 -149 221 -221.5t185 -116.5z" />
    <glyph glyph-name="arrowupdn" unicode="&#x2195;" horiz-adv-x="1024" 
d="M489 1463h45q44 -94 116.5 -185.5t220.5 -221.5v-80q-171 69 -311 195v-1306q140 126 311 194v-79q-148 -130 -220.5 -221.5t-116.5 -185.5h-45q-43 94 -116 185.5t-221 221.5v79q171 -68 311 -194v1306q-140 -126 -311 -195v80q148 130 221 221.5t116 185.5z" />
    <glyph glyph-name="arrowupdnbse" unicode="&#x21a8;" horiz-adv-x="1024" 
d="M489 1463h45q44 -94 116.5 -185.5t220.5 -221.5v-80q-171 69 -311 195v-1306q140 126 311 194v-79q-148 -130 -220.5 -221.5t-116.5 -185.5h-45q-43 94 -116 185.5t-221 221.5v79q171 -68 311 -194v1306q-140 -126 -311 -195v80q148 130 221 221.5t116 185.5zM154 -522
h717v-98h-717v98z" />
    <glyph glyph-name="partialdiff" unicode="&#x2202;" horiz-adv-x="1012" 
d="M426 1138l-135 60q70 157 168 225t192 68q76 0 137.5 -39.5t92.5 -90.5q47 -79 69.5 -187t22.5 -248q0 -288 -86.5 -512.5t-233.5 -331.5t-289 -107q-137 0 -222.5 91t-85.5 256q0 226 153 387q197 207 649 215q-4 168 -24 256t-68 135.5t-113 47.5q-62 0 -121 -49.5
t-106 -175.5zM854 796q-244 -14 -357.5 -68t-187 -176.5t-73.5 -248.5q0 -83 51 -137t119 -54q75 0 160 55q117 76 190.5 234.5t97.5 394.5z" />
    <glyph glyph-name="increment" unicode="&#x2206;" horiz-adv-x="1253" 
d="M1226 0h-1200l628 1387zM990 82l-399 967l-440 -967h839z" />
    <glyph glyph-name="product" unicode="&#x220f;" horiz-adv-x="1686" 
d="M161 1491h1362v-1922h-191v1748h-978v-1748h-193v1922z" />
    <glyph glyph-name="summation" unicode="&#x2211;" horiz-adv-x="1460" 
d="M139 1491h1237v-164h-988l607 -775l-649 -822h1040v-161h-1264v187l620 788l-603 772v175z" />
    <glyph glyph-name="radical" unicode="&#x221a;" horiz-adv-x="1124" 
d="M1050 1869h74l-312 -1947l-496 1021l-198 -91l-34 64l301 151l405 -823z" />
    <glyph glyph-name="infinity" unicode="&#x221e;" horiz-adv-x="1460" 
d="M689 812q105 132 164 174q80 58 169 58q105 0 196.5 -76t91.5 -245q0 -118 -34 -185.5t-106 -108.5t-148 -41q-89 0 -169 57q-59 43 -164 175q-136 -171 -289 -171q-101 0 -173.5 76.5t-72.5 190.5q0 113 72.5 190t173.5 77q153 0 289 -171zM758 717q87 -135 159 -185
q46 -33 103 -33q76 0 127.5 56t51.5 158q0 106 -52.5 162t-130.5 56q-49 0 -92 -28q-58 -39 -166 -186zM620 716q-80 100 -128 128.5t-92 28.5q-58 0 -96.5 -41t-38.5 -113q0 -71 40 -113.5t97 -42.5q101 0 218 153z" />
    <glyph glyph-name="orthogonal" unicode="&#x221f;" horiz-adv-x="2005" 
d="M362 1279h100v-1179h1181v-100h-1281v1279z" />
    <glyph glyph-name="intersection" unicode="&#x2229;" horiz-adv-x="1479" 
d="M302 0h-110v560q0 248 6 314q12 119 44 195t102 149.5t173.5 119.5t219.5 46q112 0 214 -44t177 -119.5t107 -160.5t42 -212q4 -50 4 -288v-560h-109v566q0 218 -6 281q-11 111 -36.5 176.5t-80 123t-139 94.5t-174.5 37q-74 0 -143.5 -25.5t-119 -63t-80 -77
t-44.5 -74.5q-25 -60 -36 -146.5t-11 -325.5v-566z" />
    <glyph glyph-name="integral" unicode="&#x222b;" horiz-adv-x="561" 
d="M201 948l17 531q9 153 50 254q27 65 74.5 97.5t92.5 32.5q50 0 87.5 -33.5t37.5 -73.5q0 -47 -26.5 -75.5t-65.5 -28.5q-35 0 -76 36q-23 20 -40 20t-28.5 -14.5t-11.5 -49.5q0 -42 9 -145q37 -410 37 -665q0 -67 -16 -588q-8 -295 -90 -399q-54 -67 -134 -67
q-52 0 -85 34t-33 87q0 45 25.5 72t64.5 27q40 0 69 -32t49 -32q17 0 28 14t11 47q0 42 -9 120q-37 315 -37 831z" />
    <glyph glyph-name="approxequal" unicode="&#x2248;" horiz-adv-x="1124" 
d="M51 738v205q106 120 278 120q60 0 125.5 -17t188.5 -70q69 -30 103.5 -38.5t69.5 -8.5q65 0 134.5 39t123.5 98v-212q-64 -60 -129.5 -87t-147.5 -27q-60 0 -114 13.5t-173 66.5q-119 54 -198 54q-64 0 -120.5 -27.5t-140.5 -108.5zM51 376v205q106 120 278 120
q60 0 125.5 -17t188.5 -70q69 -29 103.5 -38t69.5 -9q65 0 134.5 39t123.5 98v-212q-64 -60 -129.5 -87t-147.5 -27q-60 0 -114 14t-173 67t-198 53q-64 0 -120.5 -27.5t-140.5 -108.5z" />
    <glyph glyph-name="notequal" unicode="&#x2260;" horiz-adv-x="1124" 
d="M129 791l250 -10h80q460 -36 460 -70q13 -4 8 -18t-58 -12l-230 26l-250 4q-91 7 -124 7h-76l-80 3q-54 40 20 70zM399 631h260q91 -7 140 -30q28 -24 -2 -40l-78 3l-80 7h-210q-103 0 -310 -40q-40 13 -20 50l126 27q119 19 174 23zM833 1038q38 12 19 -23l-115 -119
q-201 -211 -267 -261q-105 -103 -325 -328q-38 -6 -29 22q153 171 230.5 243t203.5 185z" />
    <glyph glyph-name="equivalence" unicode="&#x2261;" horiz-adv-x="979" 
d="M887 1085h-794v167h794v-167zM887 639h-794v168h794v-168zM887 194h-794v168h794v-168z" />
    <glyph glyph-name="house" unicode="&#x2302;" horiz-adv-x="1229" 
d="M153 0v634l461 519l462 -519v-634h-923zM234 81h761v519l-381 427l-380 -427v-519z" />
    <glyph glyph-name="revlogicalnot" unicode="&#x2310;" horiz-adv-x="981" 
d="M92 424v606h794v-168h-654v-438h-140z" />
    <glyph glyph-name="integraltp" unicode="&#x2320;" horiz-adv-x="1237" 
d="M691 -515h-145v1811q0 219 89.5 330t202.5 111q67 0 102.5 -32.5t35.5 -76.5q0 -40 -25.5 -66t-62.5 -26q-30 0 -57 15q-18 10 -41.5 46.5t-46.5 36.5q-17 0 -31 -12q-10 -8 -14 -27q-7 -33 -7 -139v-1971z" />
    <glyph glyph-name="filledbox" unicode="&#x25a0;" horiz-adv-x="1237" 
d="M0 944h944v-944h-944v944z" />
    <glyph glyph-name="H22073" unicode="&#x25a1;" horiz-adv-x="1237" 
d="M146 944h944v-944h-944v944zM222 868v-792h792v792h-792z" />
    <glyph glyph-name="filledrect" unicode="&#x25ac;" horiz-adv-x="2048" 
d="M0 703h2047v-386h-2047v386z" />
    <glyph glyph-name="triagup" unicode="&#x25b2;" horiz-adv-x="2027" 
d="M0 0l710 1419l710 -1419h-1420z" />
    <glyph glyph-name="triagrt" unicode="&#x25ba;" horiz-adv-x="2027" 
d="M0 1417l1451 -724l-1451 -724v1448z" />
    <glyph glyph-name="triagdn" unicode="&#x25bc;" horiz-adv-x="2027" 
d="M1420 1388l-710 -1419l-710 1419h1420z" />
    <glyph glyph-name="triaglf" unicode="&#x25c4;" horiz-adv-x="2027" 
d="M1739 1417v-1448l-1451 724z" />
    <glyph glyph-name="circle" unicode="&#x25cb;" horiz-adv-x="1237" 
d="M441 1018q110 0 216 -57t165 -163t59 -220q0 -183 -129 -312t-311 -129q-183 0 -312 129t-129 312q0 115 59 220.5t165 162.5t217 57zM441 942q-93 0 -180 -47t-136 -135t-49 -182q0 -151 107 -258t258 -107t257.5 107t106.5 258q0 94 -49 182t-136 135t-179 47z" />
    <glyph glyph-name="H18533" unicode="&#x25cf;" horiz-adv-x="1237" 
d="M619 1018q110 0 216 -57t165 -163t59 -220q0 -183 -129 -312t-311 -129q-183 0 -312 129t-129 312q0 115 59 220.5t165 162.5t217 57z" />
    <glyph glyph-name="invbullet" unicode="&#x25d8;" horiz-adv-x="1237" 
d="M0 0v980h980v-980h-980zM490 692q-84 0 -143 -59t-59 -143q0 -83 59.5 -142.5t142.5 -59.5q84 0 143 59.5t59 142.5q0 84 -59 143t-143 59z" />
    <glyph glyph-name="invcircle" unicode="&#x25d9;" horiz-adv-x="1237" 
d="M0 0v1155h1155v-1155h-1155zM577 1018q-111 0 -216.5 -57t-164.5 -163t-59 -221q0 -182 129 -311t311 -129q183 0 312 129t129 311q0 115 -59 221t-164.5 163t-217.5 57zM578 942q91 0 178.5 -47t136.5 -134.5t49 -183.5q0 -151 -106.5 -257.5t-257.5 -106.5
q-152 0 -258.5 106.5t-106.5 257.5q0 96 49 183.5t136.5 134.5t179.5 47z" />
    <glyph glyph-name="openbullet" unicode="&#x25e6;" horiz-adv-x="726" 
d="M363 928q104 0 177.5 -73.5t73.5 -177.5t-73.5 -177.5t-177.5 -73.5t-177.5 73.5t-73.5 177.5t73 177.5t178 73.5zM363 852q-73 0 -124 -51.5t-51 -123.5q0 -73 51.5 -124t123.5 -51t123.5 51t51.5 124q0 72 -51 123.5t-124 51.5z" />
    <glyph glyph-name="smileface" unicode="&#x263a;" horiz-adv-x="2091" 
d="M1046 1156q160 0 313 -82.5t239 -236t86 -319.5q0 -165 -84.5 -316.5t-236.5 -236t-317 -84.5q-166 0 -317.5 84.5t-236 236t-84.5 316.5q0 166 85.5 319.5t238.5 236t314 82.5zM1046 1063q-137 0 -267.5 -70.5t-204 -201.5t-73.5 -273q0 -141 72 -270.5t202 -201.5
t271 -72t271 72t202 201.5t72 270.5q0 142 -73.5 273t-204 201.5t-267.5 70.5zM801 731q34 0 57.5 -23.5t23.5 -57.5q0 -33 -23.5 -57t-57.5 -24q-33 0 -57 24t-24 57q0 34 24 57.5t57 23.5zM1290 731q34 0 57.5 -23.5t23.5 -57.5q0 -33 -23.5 -57t-57.5 -24q-33 0 -57 24
t-24 57q0 34 23.5 57.5t57.5 23.5zM752 313l62 36q79 -144 232 -144t231 144l63 -36q-50 -95 -123.5 -145t-170.5 -50q-98 0 -171 50t-123 145z" />
    <glyph glyph-name="invsmileface" unicode="&#x263b;" horiz-adv-x="2155" 
d="M1078 1156q160 0 313 -82.5t239 -236t86 -319.5q0 -165 -84.5 -316.5t-236.5 -236t-317 -84.5q-166 0 -317.5 84.5t-236 236t-84.5 316.5q0 166 85.5 319.5t238.5 236t314 82.5zM833 731q-33 0 -57 -23.5t-24 -57.5q0 -33 24 -57t57 -24q34 0 57.5 24t23.5 57
q0 34 -23.5 57.5t-57.5 23.5zM1322 731q-34 0 -57.5 -23.5t-23.5 -57.5q0 -33 24 -57t57 -24q34 0 57.5 24t23.5 57q0 34 -23.5 57.5t-57.5 23.5zM784 313q50 -95 123 -145t171 -50q97 0 170.5 50t123.5 145l-63 36q-78 -144 -231 -144t-232 144z" />
    <glyph glyph-name="sun" unicode="&#x263c;" horiz-adv-x="1877" 
d="M886 1621h76v-337q102 -7 181.5 -38.5t167.5 -102.5l290 284l52 -53l-286 -286q73 -95 103 -169q38 -96 40 -189h336v-69h-335q-19 -189 -143 -347l285 -291l-57 -50l-283 282q-98 -72 -171 -100.5t-180 -40.5v-337h-76v337q-112 15 -188.5 46t-156.5 92l-294 -278
l-51 51l285 286q-66 84 -100 166t-45 188h-336v69h336q9 106 42 185.5t102 163.5l-284 287l48 57l292 -282q101 70 179.5 100.5t170.5 38.5v337zM921 1211q-129 0 -252 -66t-191.5 -189.5t-68.5 -256.5t67.5 -255t189.5 -190t255 -68t255 68t190 190t68 255t-69 256.5
t-192 189.5t-252 66z" />
    <glyph glyph-name="female" unicode="&#x2640;" horiz-adv-x="1536" 
d="M796 461v-402h459v-59h-459v-439h-59v439h-460v59h460v402q-103 0 -225.5 65.5t-195 191t-72.5 265.5q0 136 69.5 261t193.5 194t261 69q136 0 260.5 -69.5t193.5 -194t69 -260.5q0 -209 -143.5 -360.5t-351.5 -161.5zM767 1451q-118 0 -230.5 -60.5t-175.5 -173.5
t-63 -235q0 -195 137.5 -332.5t331.5 -137.5q195 0 332.5 137.5t137.5 332.5q0 122 -63 235t-175.5 173.5t-231.5 60.5z" />
    <glyph glyph-name="male" unicode="&#x2642;" horiz-adv-x="1536" 
d="M1216 1620l36 -16l163 -666l-57 -15l-142 581l-358 -768q148 -75 224 -202t76 -272q0 -136 -69 -260.5t-193.5 -194t-261.5 -69.5q-136 0 -260.5 69.5t-193.5 194t-69 260.5q0 217 153.5 370t372.5 153q78 0 166 -27l360 771l-537 -265l-24 53zM634 731
q-118 0 -230.5 -60.5t-175.5 -173.5t-63 -235q0 -195 137.5 -332.5t331.5 -137.5q195 0 332.5 137.5t137.5 332.5q0 122 -63 235t-175.5 173.5t-231.5 60.5z" />
    <glyph glyph-name="spade" unicode="&#x2660;" horiz-adv-x="1088" 
d="M487 1231q26 -108 80 -193t192.5 -210.5t175.5 -193t37 -136.5q0 -95 -64 -159t-154 -64q-156 0 -255 190q1 -147 38.5 -233.5t119.5 -136t219 -58.5l7 -37h-792l7 37q184 0 285.5 107.5t97.5 320.5q-45 -95 -111.5 -142.5t-149.5 -47.5q-90 0 -155 65t-65 154
q0 74 32 133q45 83 157 174q140 115 217 229q56 83 81 201z" />
    <glyph glyph-name="club" unicode="&#x2663;" horiz-adv-x="1344" 
d="M1098 0h-848l8 34q165 35 219 69q81 51 132.5 151t51.5 210l-1 47q-61 -124 -148.5 -181t-178.5 -57q-116 0 -197 81t-81 199q0 116 74 195.5t168 79.5q60 0 163 -51q-42 69 -54.5 105t-12.5 77q0 115 79 193.5t198 78.5q117 0 197.5 -78.5t80.5 -189.5q0 -88 -69 -186
q84 40 101 45q27 8 61 8q100 0 173.5 -78.5t73.5 -194.5q0 -120 -80.5 -201.5t-193.5 -81.5q-62 0 -128.5 30.5t-116.5 81.5q-35 37 -87 125q4 -159 48.5 -251.5t136.5 -153.5q62 -41 223 -72z" />
    <glyph glyph-name="heart" unicode="&#x2665;" horiz-adv-x="1216" 
d="M547 -24q-31 118 -88.5 221.5t-222.5 321.5q-121 160 -149 203q-46 70 -66.5 128.5t-20.5 118.5q0 111 74 186t184 75q109 0 190 -78q61 -58 99 -173q36 127 113 189.5t170 62.5q109 0 184.5 -74t75.5 -176q0 -91 -43.5 -188t-170.5 -257q-164 -207 -231 -326t-98 -234z
" />
    <glyph glyph-name="diamond" unicode="&#x2666;" horiz-adv-x="1045" 
d="M457 1231q89 -151 229 -337.5t232 -289.5q-74 -78 -242 -302q-136 -182 -218 -326q-43 81 -178 269q-93 129 -280 359q101 115 260 328q118 158 197 299z" />
    <glyph glyph-name="musicalnote" unicode="&#x266a;" horiz-adv-x="1024" 
d="M486 1363h38q172 0 227 -14q79 -20 139 -77q45 -42 71 -118.5t26 -178.5v-103h-99v43q0 68 -28.5 115.5t-84.5 72.5q-73 32 -162 32h-28v-835q0 -121 -32 -188.5t-110 -108t-170 -40.5q-109 0 -172.5 61.5t-63.5 161.5q0 105 76 176.5t199 71.5q78 0 174 -46v975z" />
    <glyph glyph-name="musicalnotedbl" unicode="&#x266b;" horiz-adv-x="1536" 
d="M534 1271l796 248v-1108q0 -124 -31.5 -187t-107 -104t-170.5 -41q-109 0 -174 62.5t-65 161.5q0 100 77 172.5t199 72.5q40 0 70.5 -7t99.5 -36v724l-595 -185v-836q0 -121 -32 -188.5t-110 -107.5t-170 -40q-109 0 -172.5 61.5t-63.5 160.5q0 105 76 176.5t199 71.5
q78 0 174 -46v975z" />
    <glyph glyph-name="foursuperior" unicode="&#xf003;" horiz-adv-x="559" 
d="M332 733v154h-313v123l332 474h100v-489h85v-108h-85v-154h-119zM332 995v263l-188 -263h188z" />
    <glyph glyph-name="fivesuperior" unicode="&#xf006;" horiz-adv-x="559" 
d="M45 926l113 18q21 -104 114 -104q61 0 96 42t35 103q0 58 -32.5 100.5t-83.5 42.5q-52 0 -109 -63l-110 25l61 376h367v-120h-291l-27 -158q60 51 131 51q92 0 151.5 -74t59.5 -180q0 -119 -72 -194.5t-174 -75.5q-93 0 -152.5 57.5t-76.5 153.5z" />
    <glyph glyph-name="sevensuperior" unicode="&#xf007;" horiz-adv-x="559" 
d="M156 733q18 317 205 613h-299v120h428v-80q-193 -289 -217 -653h-117z" />
    <glyph glyph-name="eightsuperior" unicode="&#xf008;" horiz-adv-x="559" 
d="M171 1131q-102 47 -102 161q0 79 48.5 136t157.5 57q105 0 161.5 -54t56.5 -141q0 -113 -111 -159q131 -40 131 -185q0 -103 -64.5 -167t-168.5 -64q-110 0 -172 65t-62 162q0 148 125 189zM277 1378q-44 0 -68 -29t-24 -67q0 -51 27 -75.5t68 -24.5q39 0 67.5 24.5
t28.5 71.5q0 49 -28 74.5t-71 25.5zM277 1075q-54 0 -84 -35t-30 -86q0 -127 117 -127q58 0 88 37.5t30 83.5q0 58 -34.5 92.5t-86.5 34.5z" />
    <glyph glyph-name="pi1" unicode="&#xf010;" horiz-adv-x="1124" 
d="M0 1063h1124v-158h-162v-905h-189v905h-426v-905h-188v905h-159v158z" />
    </font>
</defs>
</svg>
