<?xml version="1.0" standalone="no"?>
<!DOCTYPE svg PUBLIC "-//W3C//DTD SVG 1.1//EN" "http://www.w3.org/Graphics/SVG/1.1/DTD/svg11.dtd" >
<svg xmlns="http://www.w3.org/2000/svg" xmlns:xlink="http://www.w3.org/1999/xlink" version="1.1">
<metadata>
Created by FontForge 20170910 at Tue Feb 15 16:36:29 2005
 By Jimmy Wärting
Copyright (C) 1993; Type Market Ltd. Moscow, 119136, Box 20; phone:(095)142-77-12
</metadata>
<defs>
<font id="HeliosCondLightC" horiz-adv-x="426" >
  <font-face 
    font-family="HeliosCondLightC"
    font-weight="300"
    font-stretch="normal"
    units-per-em="1000"
    panose-1="0 0 4 0 0 0 0 0 0 0"
    ascent="810"
    descent="-190"
    x-height="530"
    cap-height="720"
    bbox="-38 -190 960 907"
    underline-thickness="58"
    underline-position="-90"
    stemh="49"
    stemv="56"
    unicode-range="U+0020-2122"
  />
<missing-glyph horiz-adv-x="500" 
 />
    <glyph glyph-name=".notdef" horiz-adv-x="500" 
 />
    <glyph glyph-name="brokenbar" unicode="&#xa6;" horiz-adv-x="214" 
d="M82 288h50v-288h-50v288zM82 720h50v-288h-50v288z" />
    <glyph glyph-name="space" unicode=" " horiz-adv-x="213" 
 />
    <glyph glyph-name="space" unicode="&#xa0;" horiz-adv-x="213" 
 />
    <glyph glyph-name="exclam" unicode="!" horiz-adv-x="214" 
d="M128 168h-38c-5 116 -14 234 -14 350v189h67v-191c0 -116 -10 -232 -15 -348zM76 84h67v-84h-67v84z" />
    <glyph glyph-name="quotedbl" unicode="&#x22;" horiz-adv-x="297" 
d="M70 504v216h50v-216h-50zM177 504v216h50v-216h-50z" />
    <glyph glyph-name="numbersign" unicode="#" 
d="M47 0l61 239h-96l15 49h93l33 126h-96l15 49h92l62 251h47l-64 -251h67l63 251h45l-63 -251h93l-15 -49h-88l-33 -126h91l-15 -49h-87l-60 -239h-48l62 239h-68l-61 -239h-45zM165 288h67l33 126h-66z" />
    <glyph glyph-name="dollar" unicode="$" 
d="M389 502h-56c0 53 -23 116 -93 131v-267c32 -13 84 -38 115 -68c36 -33 54 -70 54 -128c0 -106 -64 -172 -169 -184v-79h-45v79c-131 15 -164 101 -164 216h57c0 -79 19 -157 107 -166v286c-88 39 -156 89 -156 193c0 34 14 153 156 167v65h45v-60
c120 -25 149 -108 149 -185zM195 386v247c-68 -10 -95 -57 -95 -123c0 -46 28 -99 95 -124zM240 302v-267c73 3 110 65 110 134c0 71 -49 108 -110 133z" />
    <glyph glyph-name="percent" unicode="%" horiz-adv-x="656" 
d="M158 -15l292 726h42l-292 -726h-42zM492 343c102 0 126 -83 126 -167c0 -97 -25 -176 -128 -176c-105 0 -126 74 -126 170c0 88 23 173 128 173zM492 301c-69 0 -74 -79 -74 -130c0 -72 6 -129 72 -129c67 0 74 56 74 129c0 52 -4 130 -72 130zM161 698
c102 0 126 -83 126 -167c0 -97 -25 -176 -128 -176c-105 0 -126 74 -126 170c0 88 23 173 128 173zM161 656c-69 0 -74 -79 -74 -130c0 -72 6 -129 72 -129c67 0 74 56 74 129c0 52 -4 130 -72 130z" />
    <glyph glyph-name="ampersand" unicode="&#x26;" horiz-adv-x="586" 
d="M334 609c0 53 -22 80 -74 80c-46 0 -73 -27 -73 -75c0 -59 30 -112 62 -156c48 33 85 89 85 151zM470 128l80 -128h-68l-49 73c-38 -56 -108 -83 -176 -83c-121 0 -197 76 -197 203c0 107 69 172 146 228c-43 63 -75 110 -75 191c0 84 54 132 133 132
c75 0 132 -48 132 -128c0 -92 -49 -150 -116 -200l150 -234c19 45 26 102 26 154h62c0 -55 -18 -152 -48 -208zM399 121l-167 254c-67 -50 -109 -98 -109 -188c0 -86 54 -142 136 -142c60 0 106 21 140 76z" />
    <glyph glyph-name="quotesingle" unicode="'" horiz-adv-x="190" 
d="M70 504v216h50v-216h-50z" />
    <glyph glyph-name="parenleft" unicode="(" horiz-adv-x="267" 
d="M189 737h45c-88 -134 -122 -290 -122 -450c0 -168 32 -328 122 -471h-45c-95 145 -139 295 -139 470c0 159 45 321 139 451z" />
    <glyph glyph-name="parenright" unicode=")" horiz-adv-x="267" 
d="M78 -184h-45c87 133 122 292 122 449c0 168 -32 315 -115 462c-3 3 -5 7 -7 10h45c89 -135 139 -296 139 -458c0 -165 -41 -329 -139 -463z" />
    <glyph glyph-name="asterisk" unicode="*" horiz-adv-x="373" 
d="M150 569l-104 36l13 40l108 -40v109h42v-109l107 40l12 -43l-105 -35l70 -100l-35 -23l-72 102l-74 -102l-33 26z" />
    <glyph glyph-name="plus" unicode="+" 
d="M189 211h-169v49h169v210h49v-210h169v-49h-169v-211h-49v211z" />
    <glyph glyph-name="comma" unicode="," horiz-adv-x="214" 
d="M74 84h67v-84c0 -64 -5 -127 -67 -131v36c26 5 30 54 30 95h-30v84z" />
    <glyph glyph-name="hyphen" unicode="-" horiz-adv-x="289" 
d="M269 258h-249v56h249v-56z" />
    <glyph glyph-name="hyphen" unicode="&#xad;" horiz-adv-x="289" 
d="M269 258h-249v56h249v-56z" />
    <glyph glyph-name="period" unicode="." horiz-adv-x="214" 
d="M74 84h67v-84h-67v84z" />
    <glyph glyph-name="slash" unicode="/" horiz-adv-x="266" 
d="M-10 -90l234 810h53l-235 -810h-52z" />
    <glyph glyph-name="zero" unicode="0" 
d="M36 349c0 171 17 365 177 365c157 0 177 -194 177 -365s-11 -363 -177 -363c-162 0 -177 192 -177 363zM98 349c0 -221 36 -311 115 -311c80 0 115 90 115 311c0 223 -36 313 -115 313s-115 -90 -115 -313z" />
    <glyph glyph-name="one" unicode="1" horiz-adv-x="425" 
d="M57 537v46c95 0 154 25 165 131h50v-714h-62v549c-49 -8 -101 -12 -153 -12z" />
    <glyph glyph-name="two" unicode="2" horiz-adv-x="425" 
d="M98 502h-60c0 118 50 212 172 212c100 0 169 -72 169 -189c0 -154 -146 -265 -245 -364c-12 -11 -39 -48 -39 -103h284v-58h-347v50c0 103 54 141 130 219c98 100 155 140 155 260c0 68 -39 133 -113 133c-86 0 -106 -84 -106 -160z" />
    <glyph glyph-name="three" unicode="3" horiz-adv-x="425" 
d="M144 338v52h19c97 0 143 49 143 143c0 65 -25 129 -101 129c-82 0 -100 -82 -103 -140h-56c0 99 50 192 161 192c114 0 161 -80 161 -186c0 -27 -7 -119 -104 -159c99 -23 123 -109 123 -181c0 -195 -148 -202 -180 -202c-88 0 -177 38 -177 200h59
c0 -77 26 -148 116 -148c88 0 119 75 119 151c0 64 -30 149 -138 149h-42z" />
    <glyph glyph-name="four" unicode="4" 
d="M273 714h59v-470h63v-52h-63v-192h-62v192h-243v57zM83 244h187v358h-2z" />
    <glyph glyph-name="five" unicode="5" 
d="M87 701h267v-58h-215l-27 -218c28 28 68 36 99 36c132 0 171 -116 171 -230c0 -124 -47 -245 -186 -245c-119 0 -166 76 -170 184h62c4 -68 28 -132 107 -132c99 0 125 102 125 195c0 90 -23 176 -123 176c-45 0 -81 -28 -99 -69h-52z" />
    <glyph glyph-name="six" unicode="6" horiz-adv-x="425" 
d="M217 399c-93 0 -115 -88 -115 -164c0 -75 20 -197 116 -197c92 0 115 113 115 184c0 77 -20 177 -116 177zM221 -14c-168 0 -181 202 -181 326c0 162 12 402 190 402c90 0 151 -62 151 -158h-58c-4 64 -30 106 -98 106c-58 0 -91 -62 -102 -111
c-12 -50 -18 -101 -21 -168h2c32 42 72 68 126 68c129 0 165 -130 165 -225s-30 -240 -174 -240z" />
    <glyph glyph-name="seven" unicode="7" horiz-adv-x="425" 
d="M48 643v58h347v-57c-152 -216 -214 -424 -226 -644h-62c9 201 90 467 225 643h-284z" />
    <glyph glyph-name="eight" unicode="8" 
d="M214 349c-75 0 -117 -49 -117 -152c0 -80 21 -159 116 -159c97 0 117 78 117 160c0 101 -43 151 -116 151zM212 662c-76 0 -94 -68 -94 -132c0 -70 23 -129 95 -129c73 0 96 69 96 129c0 66 -20 132 -97 132zM136 381c-64 25 -78 96 -78 160c0 97 51 173 156 173
s155 -76 155 -173c0 -64 -14 -135 -78 -160c83 -46 102 -112 102 -189c0 -125 -49 -206 -179 -206s-180 81 -180 206c0 77 19 143 102 189z" />
    <glyph glyph-name="nine" unicode="9" 
d="M212 662c-92 0 -111 -114 -111 -185c0 -77 16 -177 112 -177c93 0 114 88 114 164c0 75 -19 198 -115 198zM212 714c165 0 177 -197 177 -320c0 -232 -23 -408 -188 -408c-89 0 -149 62 -149 157h58c4 -64 30 -105 98 -105c58 0 91 61 102 110c12 50 17 101 17 168h-2
c-30 -42 -68 -68 -122 -68c-129 0 -164 130 -164 225s29 241 173 241z" />
    <glyph glyph-name="colon" unicode=":" horiz-adv-x="214" 
d="M74 500h67v-84h-67v84zM74 84h67v-84h-67v84z" />
    <glyph glyph-name="semicolon" unicode=";" horiz-adv-x="214" 
d="M74 84h67v-84c0 -64 -5 -127 -67 -131v36c26 5 30 54 30 95h-30v84zM74 499h67v-84h-67v84z" />
    <glyph glyph-name="less" unicode="&#x3c;" 
d="M18 214v42l391 225v-54l-339 -187v-5l339 -193v-54z" />
    <glyph glyph-name="equal" unicode="=" 
d="M20 345h387v-49h-387v49zM20 175h387v-49h-387v49z" />
    <glyph glyph-name="greater" unicode="&#x3e;" 
d="M409 256v-42l-391 -225v54l339 187v5l-339 193v54z" />
    <glyph glyph-name="question" unicode="?" horiz-adv-x="373" 
d="M81 515h-59c0 84 25 205 165 205c84 0 162 -53 162 -171c0 -59 -14 -108 -84 -198c-54 -68 -68 -98 -68 -187h-53c0 98 19 142 74 215c39 52 72 99 72 166c0 71 -34 123 -98 123c-97 0 -111 -71 -111 -153zM138 84h67v-84h-67v84z" />
    <glyph glyph-name="at" unicode="@" horiz-adv-x="768" 
d="M414 541c-106 0 -190 -150 -190 -241c0 -73 42 -116 96 -116c69 0 113 42 127 84c46 136 57 173 57 187c0 45 -30 86 -90 86zM527 519l14 47h53c-39 -118 -113 -332 -113 -355c0 -20 9 -36 40 -36c75 0 174 130 174 252c0 162 -143 265 -294 265
c-184 0 -328 -155 -328 -336c0 -179 152 -327 330 -327c103 0 209 54 273 140h51c-64 -116 -193 -186 -324 -186c-214 0 -378 170 -378 381c0 207 172 374 379 374c179 0 339 -123 339 -316c0 -129 -101 -289 -232 -289c-35 0 -73 15 -76 55c-39 -35 -87 -48 -129 -48
c-85 0 -130 67 -130 148c0 133 92 298 239 298c47 0 92 -22 112 -67z" />
    <glyph glyph-name="A" unicode="A" horiz-adv-x="480" 
d="M144 277h192l-95 364h-2zM204 720h72l193 -720h-63l-57 222h-218l-59 -222h-60z" />
    <glyph glyph-name="B" unicode="B" horiz-adv-x="492" 
d="M128 665v-260h89c74 0 143 22 143 137c0 107 -75 123 -149 123h-83zM128 350v-295h102c85 0 150 34 150 153s-79 142 -150 142h-102zM66 0v720h170c105 0 186 -53 186 -176c0 -72 -27 -137 -98 -164c84 -23 118 -88 118 -173c0 -182 -126 -207 -219 -207h-157z" />
    <glyph glyph-name="C" unicode="C" horiz-adv-x="521" 
d="M404 244h62c0 -140 -59 -261 -203 -261c-191 0 -208 191 -208 397c0 148 19 357 210 357c129 0 197 -102 197 -224h-64c-5 85 -38 169 -135 169c-132 0 -146 -177 -146 -316c0 -158 14 -328 153 -328c107 0 134 120 134 206z" />
    <glyph glyph-name="D" unicode="D" horiz-adv-x="531" 
d="M128 665v-610h95c179 0 191 155 191 321c0 193 -41 289 -175 289h-111zM66 0v720h158c237 0 252 -209 252 -331c0 -225 -24 -389 -258 -389h-152z" />
    <glyph glyph-name="E" unicode="E" horiz-adv-x="430" 
d="M66 0v720h331v-55h-269v-252h240v-55h-240v-303h269v-55h-331z" />
    <glyph glyph-name="F" unicode="F" horiz-adv-x="430" 
d="M128 358v-358h-62v720h331v-55h-269v-252h240v-55h-240z" />
    <glyph glyph-name="G" unicode="G" horiz-adv-x="534" 
d="M412 303h-155v55h217v-358h-50l-6 74c-37 -62 -86 -91 -158 -91c-192 0 -205 218 -205 391c0 154 19 363 220 363c120 0 183 -97 189 -214h-60c-10 78 -40 159 -133 159c-143 0 -154 -161 -154 -322c0 -99 2 -322 148 -322c136 0 143 163 147 265z" />
    <glyph glyph-name="H" unicode="H" horiz-adv-x="534" 
d="M128 720v-307h278v307h62v-720h-62v358h-278v-358h-62v720h62z" />
    <glyph glyph-name="I" unicode="I" horiz-adv-x="214" 
d="M138 720v-720h-62v720h62z" />
    <glyph glyph-name="J" unicode="J" horiz-adv-x="378" 
d="M20 210h62v-15c0 -72 1 -157 89 -157c74 0 79 61 79 119v563h62v-567c0 -100 -36 -170 -147 -170c-107 0 -145 84 -145 177v50z" />
    <glyph glyph-name="K" unicode="K" horiz-adv-x="481" 
d="M128 720v-360l262 360h72l-213 -291l224 -429h-68l-196 378l-81 -105v-273h-62v720h62z" />
    <glyph glyph-name="L" unicode="L" horiz-adv-x="421" 
d="M128 720v-665h267v-55h-329v720h62z" />
    <glyph glyph-name="M" unicode="M" horiz-adv-x="685" 
d="M66 720h104l171 -628h2l175 628h101v-720h-62v658h-2l-178 -658h-67l-180 658h-2v-658h-62v720z" />
    <glyph glyph-name="N" unicode="N" horiz-adv-x="538" 
d="M66 720h77l265 -618h2v618h62v-720h-75l-267 616h-2v-616h-62v720z" />
    <glyph glyph-name="O" unicode="O" horiz-adv-x="533" 
d="M266 -17c-191 0 -211 193 -211 378c0 169 20 376 211 376c198 0 212 -207 212 -376c0 -182 -15 -378 -212 -378zM266 38c135 0 150 153 150 323c0 144 -13 321 -150 321c-134 0 -149 -165 -149 -321c0 -159 15 -323 149 -323z" />
    <glyph glyph-name="P" unicode="P" horiz-adv-x="480" 
d="M128 326v-326h-62v720h163c111 0 207 -46 207 -194c0 -129 -72 -200 -202 -200h-106zM128 665v-284h81c102 0 165 29 165 142c0 105 -56 142 -155 142h-91z" />
    <glyph glyph-name="Q" unicode="Q" horiz-adv-x="533" 
d="M271 121l35 44l73 -60c25 57 37 120 37 256c0 172 -21 321 -149 321c-135 0 -150 -164 -150 -321c0 -154 14 -323 149 -323c33 0 60 11 78 25zM427 66l79 -65l-34 -42l-80 65c-25 -22 -69 -41 -125 -41c-200 0 -212 212 -212 378c0 171 21 376 212 376
c199 0 211 -217 211 -374c0 -149 -13 -237 -51 -297z" />
    <glyph glyph-name="R" unicode="R" horiz-adv-x="483" 
d="M128 339v-339h-62v720h170c109 0 191 -44 191 -186c0 -70 -33 -155 -106 -167v-2c84 -21 96 -86 96 -176c0 -91 5 -151 33 -180v-9h-68c-27 60 -29 116 -29 212c0 84 -54 127 -121 127h-104zM128 665v-271h110c63 0 127 27 127 137c0 100 -45 134 -143 134h-94z" />
    <glyph glyph-name="S" unicode="S" horiz-adv-x="480" 
d="M426 546h-60c0 83 -43 136 -124 136c-82 0 -124 -61 -124 -140c0 -83 40 -110 124 -141c141 -51 204 -106 204 -216c0 -124 -81 -202 -207 -202c-131 0 -198 95 -198 221h62c0 -91 36 -166 135 -166c88 0 145 56 145 145c0 109 -79 126 -161 159c-97 38 -166 81 -166 197
c0 117 70 198 187 198c112 0 183 -75 183 -191z" />
    <glyph glyph-name="T" unicode="T" 
d="M244 665v-665h-62v665h-163v55h388v-55h-163z" />
    <glyph glyph-name="U" unicode="U" horiz-adv-x="534" 
d="M71 720h62v-523c0 -101 23 -159 131 -159c112 0 137 68 137 165v517h62v-500c0 -141 -41 -237 -197 -237c-138 0 -195 75 -195 207v530z" />
    <glyph glyph-name="V" unicode="V" horiz-adv-x="480" 
d="M13 720h66l161 -638h2l165 638h61l-192 -720h-70z" />
    <glyph glyph-name="W" unicode="W" horiz-adv-x="694" 
d="M17 720h63l110 -608h1l119 608h72l118 -611h2l115 611h60l-142 -720h-70l-120 616h-2l-117 -616h-70z" />
    <glyph glyph-name="X" unicode="X" horiz-adv-x="480" 
d="M26 720h70l143 -289l147 289h69l-179 -348l187 -372h-68l-156 313l-155 -313h-67l186 372z" />
    <glyph glyph-name="Y" unicode="Y" horiz-adv-x="479" 
d="M18 720h69l152 -343l157 343h66l-192 -414v-306h-62v306z" />
    <glyph glyph-name="Z" unicode="Z" 
d="M46 720h348v-54l-297 -611h297v-55h-361v58l294 607h-281v55z" />
    <glyph glyph-name="bracketleft" unicode="[" horiz-adv-x="267" 
d="M71 738h147v-45h-91v-748h93v-45h-149v838z" />
    <glyph glyph-name="backslash" unicode="\" horiz-adv-x="214" 
d="M-38 720h52l238 -720h-52z" />
    <glyph glyph-name="bracketright" unicode="]" horiz-adv-x="267" 
d="M49 738h147v-838h-149v45h93v748h-91v45z" />
    <glyph glyph-name="asciicircum" unicode="^" 
d="M193 720h39l130 -394h-45l-106 322l-103 -322h-45z" />
    <glyph glyph-name="underscore" unicode="_" horiz-adv-x="480" 
d="M0 -60h480v-56h-480v56z" />
    <glyph glyph-name="grave" unicode="`" horiz-adv-x="320" 
d="M220 582h-49l-132 133h75z" />
    <glyph glyph-name="a" unicode="a" horiz-adv-x="389" 
d="M276 285c-40 -19 -71 -33 -106 -50c-56 -27 -73 -50 -73 -108c0 -52 16 -92 73 -92c89 0 106 87 106 148v102zM370 37v-40c-11 -5 -24 -6 -36 -6c-30 0 -48 17 -55 53h-1c-27 -39 -71 -58 -117 -58c-97 0 -120 58 -120 141c0 74 26 119 86 146l112 50c30 13 37 33 37 85
c0 57 -32 86 -81 86c-78 0 -77 -50 -86 -97h-54c0 97 50 146 142 146c97 0 135 -50 135 -145v-325c0 -32 4 -35 38 -36z" />
    <glyph glyph-name="b" unicode="b" horiz-adv-x="424" 
d="M221 494c-102 0 -107 -136 -107 -219c0 -103 7 -240 103 -240s111 113 111 240c0 83 -10 219 -107 219zM114 50v-50h-56v720h56v-234h2c33 37 70 57 119 57c135 0 149 -176 149 -276c0 -107 -11 -281 -153 -281c-52 0 -90 19 -115 64h-2z" />
    <glyph glyph-name="c" unicode="c" horiz-adv-x="385" 
d="M293 175h56c0 -101 -37 -189 -147 -189c-156 0 -162 162 -162 281c0 114 13 276 160 276c95 0 144 -80 144 -170h-55c0 60 -30 121 -93 121c-92 0 -100 -122 -100 -237c0 -114 11 -222 107 -222c77 0 85 83 90 140z" />
    <glyph glyph-name="d" unicode="d" horiz-adv-x="424" 
d="M203 494c-102 0 -107 -136 -107 -219c0 -103 7 -240 103 -240s111 113 111 240c0 83 -10 219 -107 219zM310 720h56v-720h-56v50h-2c-22 -44 -64 -64 -115 -64c-143 0 -153 174 -153 281c0 106 13 276 155 276c43 0 85 -21 113 -57h2v234z" />
    <glyph glyph-name="e" unicode="e" horiz-adv-x="390" 
d="M345 267h-249c0 -128 9 -232 100 -232c79 0 88 73 93 137h56c0 -92 -42 -186 -150 -186c-148 0 -155 167 -155 276c0 107 7 281 153 281c123 0 152 -122 152 -222v-54zM96 316h193c0 67 -7 178 -97 178c-86 0 -96 -116 -96 -178z" />
    <glyph glyph-name="f" unicode="f" horiz-adv-x="215" 
d="M199 718v-48c-5 1 -12 2 -16 2c-41 0 -52 -17 -52 -55v-87h66v-49h-66v-481h-56v481h-56v49h56v58c0 93 13 133 103 133c6 0 15 -1 21 -3z" />
    <glyph glyph-name="g" unicode="g" horiz-adv-x="422" 
d="M309 482v48h55v-518c0 -115 -39 -193 -164 -193c-76 0 -143 37 -147 120h57c3 -48 48 -71 91 -71c102 0 108 66 108 170h-4c-29 -37 -69 -52 -112 -52c-144 0 -153 163 -153 274c0 101 6 283 150 283c53 0 88 -18 117 -61h2zM202 494c-102 0 -107 -136 -107 -219
c0 -103 7 -240 103 -240s111 113 111 240c0 83 -10 219 -107 219z" />
    <glyph glyph-name="h" unicode="h" horiz-adv-x="422" 
d="M114 720v-246c26 43 70 69 115 69c132 0 135 -87 135 -159v-384h-56v373c0 62 -6 121 -82 121c-51 0 -112 -40 -112 -97v-397h-56v720h56z" />
    <glyph glyph-name="i" unicode="i" horiz-adv-x="206" 
d="M131 530v-530h-56v530h56zM75 720h56v-90h-56v90z" />
    <glyph glyph-name="j" unicode="j" horiz-adv-x="214" 
d="M85 530h56v-595c0 -78 -16 -118 -120 -118v49c59 0 64 28 64 71v593zM85 720h56v-90h-56v90z" />
    <glyph glyph-name="k" unicode="k" horiz-adv-x="372" 
d="M114 720v-440l172 250h70l-144 -198l147 -332h-59l-128 276l-58 -82v-194h-56v720h56z" />
    <glyph glyph-name="l" unicode="l" horiz-adv-x="206" 
d="M131 720v-720h-56v720h56z" />
    <glyph glyph-name="m" unicode="m" horiz-adv-x="646" 
d="M114 530v-52h2c21 37 66 65 112 65c47 0 79 -9 111 -59h2c29 41 76 59 125 59c95 0 122 -60 122 -143v-400h-56v406c0 45 -17 88 -73 88c-64 0 -108 -40 -108 -107v-387h-56v383c0 60 -7 111 -79 111c-44 0 -102 -41 -102 -103v-391h-56v530h56z" />
    <glyph glyph-name="n" unicode="n" horiz-adv-x="422" 
d="M114 530v-56c26 43 70 69 115 69c132 0 135 -87 135 -159v-384h-56v373c0 62 -6 121 -82 121c-51 0 -112 -40 -112 -97v-397h-56v530h56z" />
    <glyph glyph-name="o" unicode="o" horiz-adv-x="413" 
d="M205 -14c-149 0 -165 158 -165 279c0 117 16 278 168 278c149 0 165 -161 165 -278c0 -120 -16 -279 -168 -279zM204 35c104 0 113 123 113 230c0 83 -10 229 -111 229c-100 0 -110 -146 -110 -229c0 -105 9 -230 108 -230z" />
    <glyph glyph-name="p" unicode="p" horiz-adv-x="425" 
d="M115 44v-227h-56v713h54v-48h2c20 34 59 61 106 61c145 0 164 -149 164 -262c0 -145 -16 -295 -159 -295c-47 0 -83 18 -111 58zM222 494c-102 0 -107 -136 -107 -219c0 -103 7 -240 103 -240s111 113 111 240c0 83 -10 219 -107 219z" />
    <glyph glyph-name="q" unicode="q" horiz-adv-x="423" 
d="M365 530v-713h-56v227c-26 -39 -67 -58 -111 -58c-149 0 -158 163 -158 277c0 117 11 280 163 280c45 0 80 -24 106 -61v48h56zM202 494c-102 0 -107 -136 -107 -219c0 -103 7 -240 103 -240s111 113 111 240c0 83 -10 219 -107 219z" />
    <glyph glyph-name="r" unicode="r" horiz-adv-x="259" 
d="M114 530v-61c30 59 63 75 125 75v-59c-85 0 -125 -54 -125 -137v-348h-56v530h56z" />
    <glyph glyph-name="s" unicode="s" horiz-adv-x="387" 
d="M330 395h-55c0 57 -32 99 -91 99c-53 0 -78 -32 -78 -84c0 -42 33 -67 81 -89c83 -38 157 -75 157 -185c0 -95 -56 -150 -148 -150c-104 0 -156 56 -156 157h55c5 -65 34 -108 102 -108c58 0 91 44 91 99c0 74 -60 105 -112 127c-57 24 -126 65 -126 147
c0 83 47 135 136 135c91 0 144 -57 144 -148z" />
    <glyph glyph-name="t" unicode="t" horiz-adv-x="213" 
d="M193 40v-48c-13 -2 -33 -5 -51 -5c-42 0 -78 27 -78 84v409h-48v49h48v155h55v-155h74v-49h-74v-396c0 -33 13 -48 47 -48c9 0 19 2 27 4z" />
    <glyph glyph-name="u" unicode="u" horiz-adv-x="423" 
d="M58 530h56v-402c0 -67 23 -93 90 -93c49 0 105 44 105 104v391h56v-530h-56v52l-2 -2c-40 -50 -76 -64 -131 -64c-91 0 -118 61 -118 144v400z" />
    <glyph glyph-name="v" unicode="v" horiz-adv-x="373" 
d="M16 530h60l111 -429h2l112 429h57l-140 -530h-61z" />
    <glyph glyph-name="w" unicode="w" horiz-adv-x="534" 
d="M11 530h55l87 -422h2l81 422h62l83 -422h2l86 422h54l-115 -530h-58l-82 417h-2l-82 -417h-61z" />
    <glyph glyph-name="x" unicode="x" horiz-adv-x="373" 
d="M22 530h62l101 -205l103 205h64l-132 -253l141 -277h-63l-113 225l-112 -225h-61l139 277z" />
    <glyph glyph-name="y" unicode="y" horiz-adv-x="373" 
d="M15 530h59l109 -429h2l115 429h57l-167 -607c-18 -65 -53 -107 -118 -107c-29 0 -39 2 -46 4v49c5 -1 23 -2 31 -2c75 0 79 61 95 131z" />
    <glyph glyph-name="z" unicode="z" horiz-adv-x="319" 
d="M28 530h269v-52l-220 -429h225v-49h-285v53l222 428h-211v49z" />
    <glyph glyph-name="braceleft" unicode="{" horiz-adv-x="337" 
d="M266 735c-63 -27 -76 -60 -76 -108v-169c0 -66 -11 -111 -87 -134v-2c71 -12 87 -53 87 -120v-182c0 -48 10 -79 76 -108v-2c-117 0 -141 48 -141 128v191c0 45 -18 84 -78 93v2c70 19 78 53 78 101v168c0 106 30 144 141 144v-2z" />
    <glyph glyph-name="bar" unicode="|" horiz-adv-x="214" 
d="M82 720h50v-720h-50v720z" />
    <glyph glyph-name="braceright" unicode="}" horiz-adv-x="336" 
d="M71 738c79 0 141 -16 141 -128v-190c0 -42 19 -87 78 -94v-2c-69 -17 -78 -53 -78 -98v-171c0 -101 -24 -144 -141 -144v2c63 27 76 60 76 108v170c0 65 11 110 87 133v2c-71 12 -87 53 -87 120v182c0 48 -10 79 -76 108v2z" />
    <glyph glyph-name="asciitilde" unicode="~" 
d="M52 172l-32 33c24 40 56 83 109 83c56 0 132 -51 169 -51c35 0 62 34 77 59l32 -32c-23 -38 -58 -78 -109 -78s-126 51 -168 51c-43 0 -65 -45 -78 -65z" />
    <glyph glyph-name="afii10051" unicode="&#x402;" horiz-adv-x="610" 
d="M244 665v-278c34 8 55 12 127 12c127 0 184 -85 184 -195c0 -140 -62 -204 -225 -204v55c117 0 163 48 163 147c0 76 -35 142 -131 142c-52 0 -87 -5 -118 -13v-331h-62v665h-163v55h388v-55h-163z" />
    <glyph glyph-name="afii10052" unicode="&#x403;" horiz-adv-x="430" 
d="M66 720h331v-55h-269v-665h-62v720zM258 907h85l-143 -140h-54z" />
    <glyph glyph-name="quotesinglbase" unicode="&#x201a;" horiz-adv-x="214" 
d="M74 84h67v-84c0 -64 -5 -127 -67 -131v36c26 5 30 54 30 95h-30v84z" />
    <glyph glyph-name="afii10100" unicode="&#x453;" horiz-adv-x="315" 
d="M58 530h247v-49h-191v-481h-56v530zM226 705h72l-124 -125h-49z" />
    <glyph glyph-name="quotedblbase" unicode="&#x201e;" horiz-adv-x="316" 
d="M187 84h67v-84c0 -64 -5 -127 -67 -131v36c26 5 30 54 30 95h-30v84zM62 84h67v-84c0 -64 -5 -127 -67 -131v36c26 5 30 54 30 95h-30v84z" />
    <glyph glyph-name="ellipsis" unicode="&#x2026;" horiz-adv-x="960" 
d="M127 84h67v-84h-67v84zM447 84h67v-84h-67v84zM767 84h67v-84h-67v84z" />
    <glyph glyph-name="dagger" unicode="&#x2020;" 
d="M242 517h153v-48h-153v-581h-56v581h-155v48h155v221h56v-221z" />
    <glyph glyph-name="perthousand" unicode="&#x2030;" horiz-adv-x="960" 
d="M158 -15l292 726h42l-292 -726h-42zM492 343c102 0 126 -83 126 -167c0 -97 -25 -176 -128 -176c-105 0 -126 74 -126 170c0 88 23 173 128 173zM492 301c-69 0 -74 -79 -74 -130c0 -72 6 -129 72 -129c67 0 74 56 74 129c0 52 -4 130 -72 130zM802 343
c102 0 126 -83 126 -167c0 -97 -25 -176 -128 -176c-105 0 -126 74 -126 170c0 88 23 173 128 173zM802 301c-69 0 -74 -79 -74 -130c0 -72 6 -129 72 -129c67 0 74 56 74 129c0 52 -4 130 -72 130zM161 698c102 0 126 -83 126 -167c0 -97 -25 -176 -128 -176
c-105 0 -126 74 -126 170c0 88 23 173 128 173zM161 656c-69 0 -74 -79 -74 -130c0 -72 6 -129 72 -129c67 0 74 56 74 129c0 52 -4 130 -72 130z" />
    <glyph glyph-name="afii10058" unicode="&#x409;" horiz-adv-x="859" 
d="M132 720h364v-307h109c130 0 199 -80 199 -209c0 -148 -84 -204 -195 -204h-175v665h-240v-331c0 -221 -30 -341 -125 -341c-22 0 -37 1 -54 6v55c7 -2 26 -6 45 -6c53 0 72 110 72 307v365zM496 358v-303h95c99 0 151 46 151 147c0 113 -60 156 -162 156h-84z" />
    <glyph glyph-name="guilsinglleft" unicode="&#x2039;" horiz-adv-x="320" 
d="M222 395v-57l-97 -78l97 -76v-59l-135 101v68z" />
    <glyph glyph-name="afii10059" unicode="&#x40a;" horiz-adv-x="831" 
d="M128 720v-307h278v307h62v-307h109c130 0 199 -80 199 -209c0 -148 -84 -204 -195 -204h-175v358h-278v-358h-62v720h62zM468 358v-303h95c99 0 151 46 151 147c0 113 -60 156 -162 156h-84z" />
    <glyph glyph-name="afii10061" unicode="&#x40c;" horiz-adv-x="481" 
d="M128 720v-360l262 360h72l-213 -291l224 -429h-68l-196 378l-81 -105v-273h-62v720h62zM302 907h85l-143 -140h-54z" />
    <glyph glyph-name="afii10060" unicode="&#x40b;" horiz-adv-x="612" 
d="M244 665v-278c51 9 90 12 162 12c114 0 151 -62 151 -151v-248h-62v250c0 74 -31 93 -107 93c-52 0 -103 -4 -144 -12v-331h-62v665h-163v55h388v-55h-163z" />
    <glyph glyph-name="afii10145" unicode="&#x40f;" horiz-adv-x="536" 
d="M128 720v-665h280v665h62v-720h-172v-153h-60v153h-172v720h62z" />
    <glyph glyph-name="afii10099" unicode="&#x452;" horiz-adv-x="422" 
d="M58 720h56v-65h130v-49h-130v-132c26 43 70 69 115 69c132 0 135 -87 135 -159v-124c0 -327 -18 -424 -169 -443v49c104 19 113 116 113 429v78c0 62 -6 121 -82 121c-51 0 -112 -40 -112 -97v-397h-56v606h-52v49h52v65z" />
    <glyph glyph-name="quoteleft" unicode="&#x2018;" horiz-adv-x="154" 
d="M107 505h-67v84c0 64 5 127 67 131v-36c-26 -5 -30 -54 -30 -95h30v-84z" />
    <glyph glyph-name="quoteright" unicode="&#x2019;" horiz-adv-x="154" 
d="M47 720h67v-84c0 -64 -5 -127 -67 -131v36c26 5 30 54 30 95h-30v84z" />
    <glyph glyph-name="quotedblleft" unicode="&#x201c;" horiz-adv-x="320" 
d="M148 505h-67v84c0 64 5 127 67 131v-36c-26 -5 -30 -54 -30 -95h30v-84zM273 505h-67v84c0 64 5 127 67 131v-36c-26 -5 -30 -54 -30 -95h30v-84z" />
    <glyph glyph-name="quotedblright" unicode="&#x201d;" horiz-adv-x="320" 
d="M172 720h67v-84c0 -64 -5 -127 -67 -131v36c26 5 30 54 30 95h-30v84zM47 720h67v-84c0 -64 -5 -127 -67 -131v36c26 5 30 54 30 95h-30v84z" />
    <glyph glyph-name="bullet" unicode="&#x2022;" horiz-adv-x="408" 
d="M330 252c0 -68 -57 -125 -127 -125c-68 0 -125 57 -125 125c0 70 57 127 125 127c70 0 127 -57 127 -127z" />
    <glyph glyph-name="endash" unicode="&#x2013;" horiz-adv-x="480" 
d="M0 260h480v-49h-480v49z" />
    <glyph glyph-name="emdash" unicode="&#x2014;" horiz-adv-x="960" 
d="M0 260h960v-49h-960v49z" />
    <glyph glyph-name="trademark" unicode="&#x2122;" horiz-adv-x="694" 
d="M324 720h84l72 -286h2l75 286h83v-405h-49v356h-1l-91 -356h-35l-90 356h-1v-356h-49v405zM55 720h226v-49h-89v-356h-49v356h-88v49z" />
    <glyph glyph-name="afii10106" unicode="&#x459;" horiz-adv-x="669" 
d="M104 530h276v-224h106c93 0 143 -57 143 -152c0 -92 -48 -154 -143 -154h-162v481h-164v-248c0 -196 -42 -239 -101 -239c-20 0 -34 1 -45 5v48c9 -2 20 -4 32 -4c38 0 58 26 58 214v273zM380 257v-208h96c58 0 97 29 97 105c0 74 -37 103 -99 103h-94z" />
    <glyph glyph-name="guilsinglright" unicode="&#x203a;" horiz-adv-x="320" 
d="M98 395l135 -101v-68l-135 -101v59l97 76l-97 78v57z" />
    <glyph glyph-name="afii10107" unicode="&#x45a;" horiz-adv-x="649" 
d="M114 530v-224h190v224h56v-224h106c93 0 143 -57 143 -152c0 -92 -48 -154 -143 -154h-162v257h-190v-257h-56v530h56zM360 257v-208h96c58 0 97 29 97 105c0 74 -37 103 -99 103h-94z" />
    <glyph glyph-name="afii10109" unicode="&#x45c;" horiz-adv-x="372" 
d="M114 530v-250l172 250h70l-144 -198l147 -332h-59l-128 276l-58 -82v-194h-56v530h56zM246 705h72l-124 -125h-49z" />
    <glyph glyph-name="afii10108" unicode="&#x45b;" horiz-adv-x="422" 
d="M58 720h56v-65h130v-49h-130v-132c26 43 70 69 115 69c132 0 135 -87 135 -159v-384h-56v373c0 62 -6 121 -82 121c-51 0 -112 -40 -112 -97v-397h-56v606h-52v49h52v65z" />
    <glyph glyph-name="afii10193" unicode="&#x45f;" horiz-adv-x="418" 
d="M114 530v-481h190v481h56v-530h-125v-142h-52v142h-125v530h56z" />
    <glyph glyph-name="afii10062" unicode="&#x40e;" horiz-adv-x="493" 
d="M4 720h67l179 -492l164 492h67l-222 -628c-24 -68 -65 -100 -109 -100c-21 0 -37 2 -52 7v54c5 -2 20 -6 40 -6s45 6 60 47l20 55zM131 893h36c8 -54 46 -81 93 -81s84 27 94 81h33c-8 -83 -60 -126 -132 -126c-70 0 -116 48 -124 126z" />
    <glyph glyph-name="afii10110" unicode="&#x45e;" horiz-adv-x="373" 
d="M15 530h59l109 -429h2l115 429h57l-167 -607c-18 -65 -53 -107 -118 -107c-29 0 -39 2 -46 4v49c5 -1 23 -2 31 -2c75 0 79 61 95 131zM93 690h31c8 -47 41 -71 83 -71s74 24 83 71h29c-7 -73 -53 -110 -117 -110c-62 0 -102 42 -109 110z" />
    <glyph glyph-name="afii10057" unicode="&#x408;" horiz-adv-x="378" 
d="M20 210h62v-15c0 -72 1 -157 89 -157c74 0 79 61 79 119v563h62v-567c0 -100 -36 -170 -147 -170c-107 0 -145 84 -145 177v50z" />
    <glyph glyph-name="currency" unicode="&#xa4;" horiz-adv-x="442" 
d="M8 100l37 36c-28 41 -41 79 -41 128c0 51 12 89 41 131l-37 37l45 45l38 -36c39 29 85 42 133 42s87 -15 127 -42l37 36l45 -45l-37 -37c29 -43 41 -83 41 -135c0 -49 -14 -84 -41 -124l37 -36l-45 -46l-37 37c-40 -29 -86 -43 -135 -43c-47 0 -87 16 -125 43l-38 -37z
M375 267c0 82 -69 154 -152 154c-89 0 -157 -66 -157 -156c0 -83 70 -155 153 -155c86 0 156 69 156 157z" />
    <glyph glyph-name="afii10050" unicode="&#x490;" horiz-adv-x="430" 
d="M128 665v-665h-62v720h269v92h62v-147h-269z" />
    <glyph glyph-name="section" unicode="&#xa7;" 
d="M365 575h-53c-4 60 -29 120 -98 120c-54 0 -94 -28 -94 -84c0 -55 21 -86 63 -115l108 -73c94 -64 111 -125 111 -172c0 -60 -42 -106 -90 -135c33 -29 53 -71 53 -115c0 -87 -64 -142 -150 -142c-97 0 -152 69 -152 164h52c0 -74 36 -120 98 -120c66 0 99 49 99 94
c0 60 -83 122 -174 187c-73 52 -113 96 -113 162c0 67 39 105 92 138c-36 40 -52 67 -52 120c0 84 69 134 149 134c96 0 147 -73 151 -163zM150 458c-45 -19 -77 -59 -77 -109c0 -49 20 -72 58 -99l148 -105c41 19 75 58 75 104c0 55 -32 85 -73 114z" />
    <glyph glyph-name="afii10023" unicode="&#x401;" horiz-adv-x="430" 
d="M66 0v720h331v-55h-269v-252h240v-55h-240v-303h269v-55h-331zM117 783v98h62v-98h-62zM269 783v98h62v-98h-62z" />
    <glyph glyph-name="copyright" unicode="&#xa9;" horiz-adv-x="768" 
d="M385 -17c-204 0 -369 169 -369 378c0 207 165 376 369 376c203 0 367 -169 367 -376c0 -209 -164 -378 -367 -378zM385 28c178 0 322 149 322 333c0 183 -144 331 -322 331c-179 0 -323 -148 -323 -331c0 -184 144 -333 323 -333zM518 292h53c-9 -89 -85 -146 -170 -146
c-123 0 -203 95 -203 218c0 125 77 218 201 218c89 0 158 -54 172 -143h-53c-10 58 -60 98 -119 98c-97 0 -147 -78 -147 -172c0 -90 54 -174 149 -174c58 0 110 38 117 101z" />
    <glyph glyph-name="afii10053" unicode="&#x404;" horiz-adv-x="521" 
d="M404 244h62c0 -140 -59 -261 -203 -261c-191 0 -208 191 -208 397c0 148 19 357 210 357c129 0 196 -102 196 -224h-63c-5 85 -38 169 -135 169c-120 0 -146 -145 -146 -269h192v-55h-192c0 -160 19 -320 153 -320c107 0 134 118 134 206z" />
    <glyph glyph-name="guillemotleft" unicode="&#xab;" horiz-adv-x="480" 
d="M215 395v-57l-97 -78l97 -76v-59l-135 101v68zM394 395v-57l-97 -78l97 -76v-59l-135 101v68z" />
    <glyph glyph-name="logicalnot" unicode="&#xac;" 
d="M20 260h387v-242h-49v193h-338v49z" />
    <glyph glyph-name="registered" unicode="&#xae;" horiz-adv-x="768" 
d="M385 -17c-204 0 -369 169 -369 378c0 207 165 376 369 376c203 0 367 -169 367 -376c0 -209 -164 -378 -367 -378zM385 28c178 0 322 149 322 333c0 183 -144 331 -322 331c-179 0 -323 -148 -323 -331c0 -184 144 -333 323 -333zM249 150v422h178c85 0 146 -25 146 -112
c0 -83 -57 -115 -129 -115l123 -195h-59l-117 195h-92v-195h-50zM299 534v-149h118c37 0 105 3 105 76c0 65 -55 73 -106 73h-117z" />
    <glyph glyph-name="afii10056" unicode="&#x407;" horiz-adv-x="214" 
d="M138 720v-720h-62v720h62zM0 783v98h62v-98h-62zM152 783v98h62v-98h-62z" />
    <glyph glyph-name="degree" unicode="&#xb0;" horiz-adv-x="384" 
d="M337 570c0 -80 -65 -144 -144 -144c-80 0 -144 64 -144 144c0 79 64 144 144 144c79 0 144 -65 144 -144zM299 570c0 58 -48 106 -107 106c-58 0 -105 -47 -105 -106s47 -106 106 -106c58 0 106 47 106 106z" />
    <glyph glyph-name="plusminus" unicode="&#xb1;" 
d="M189 302h-169v49h169v162h49v-162h169v-49h-169v-163h-49v163zM20 92h387v-49h-387v49z" />
    <glyph glyph-name="afii10055" unicode="&#x406;" horiz-adv-x="214" 
d="M138 720v-720h-62v720h62z" />
    <glyph glyph-name="afii10103" unicode="&#x456;" horiz-adv-x="206" 
d="M131 530v-530h-56v530h56zM75 720h56v-90h-56v90z" />
    <glyph glyph-name="afii10098" unicode="&#x491;" horiz-adv-x="315" 
d="M58 530h191v89h56v-138h-191v-481h-56v530z" />
    <glyph glyph-name="mu" unicode="&#xb5;" horiz-adv-x="423" 
d="M114 10v-200h-56v720h56v-401c0 -67 25 -93 93 -93c44 0 102 36 102 108v386h56v-530h-56v47c-36 -45 -76 -60 -132 -60c-26 0 -49 10 -63 23z" />
    <glyph glyph-name="mu" unicode="&#x3bc;" horiz-adv-x="423" 
d="M114 10v-200h-56v720h56v-401c0 -67 25 -93 93 -93c44 0 102 36 102 108v386h56v-530h-56v47c-36 -45 -76 -60 -132 -60c-26 0 -49 10 -63 23z" />
    <glyph glyph-name="paragraph" unicode="&#xb6;" horiz-adv-x="541" 
d="M425 720v-832h-55v767h-95v-767h-55v463c-99 0 -169 84 -169 182c0 133 86 187 199 187h175z" />
    <glyph glyph-name="periodcentered" unicode="&#xb7;" horiz-adv-x="214" 
d="M74 277h67v-84h-67v84z" />
    <glyph glyph-name="periodcentered" unicode="&#x2219;" horiz-adv-x="214" 
d="M74 277h67v-84h-67v84z" />
    <glyph glyph-name="afii10071" unicode="&#x451;" horiz-adv-x="390" 
d="M345 267h-249c0 -128 9 -232 100 -232c79 0 88 73 93 137h56c0 -92 -42 -186 -150 -186c-148 0 -155 167 -155 276c0 107 7 281 153 281c123 0 152 -122 152 -222v-54zM96 316h193c0 67 -7 178 -97 178c-86 0 -96 -116 -96 -178zM96 720h56v-90h-56v90zM240 720h56v-90
h-56v90z" />
    <glyph glyph-name="afii61352" unicode="&#x2116;" horiz-adv-x="767" 
d="M638 516c96 0 109 -88 109 -163c0 -81 -13 -165 -109 -165c-99 0 -108 85 -108 165c0 75 9 163 108 163zM638 486c-63 0 -69 -76 -69 -134c0 -62 6 -134 69 -134c65 0 70 74 70 135c0 54 -5 133 -70 133zM546 128h184v-30h-184v30zM66 720h77l265 -618h2v618h62v-720h-75
l-267 616h-2v-616h-62v720z" />
    <glyph glyph-name="afii10101" unicode="&#x454;" horiz-adv-x="385" 
d="M344 373h-55c0 65 -33 121 -93 121c-79 0 -100 -88 -100 -188h131v-49h-131c0 -104 8 -222 107 -222c77 0 90 80 90 140h56c0 -97 -36 -189 -147 -189c-156 0 -162 162 -162 281c0 114 13 276 160 276c95 0 144 -81 144 -170z" />
    <glyph glyph-name="guillemotright" unicode="&#xbb;" horiz-adv-x="480" 
d="M265 395l135 -101v-68l-135 -101v59l97 76l-97 78v57zM86 395l135 -101v-68l-135 -101v59l97 76l-97 78v57z" />
    <glyph glyph-name="afii10105" unicode="&#x458;" horiz-adv-x="214" 
d="M85 530h56v-595c0 -78 -16 -118 -120 -118v49c59 0 64 28 64 71v593zM85 720h56v-90h-56v90z" />
    <glyph glyph-name="afii10054" unicode="&#x405;" horiz-adv-x="480" 
d="M426 546h-60c0 83 -43 136 -124 136c-82 0 -124 -61 -124 -140c0 -83 40 -110 124 -141c141 -51 204 -106 204 -216c0 -124 -81 -202 -207 -202c-131 0 -198 95 -198 221h62c0 -91 36 -166 135 -166c88 0 145 56 145 145c0 109 -79 126 -161 159c-97 38 -166 81 -166 197
c0 117 70 198 187 198c112 0 183 -75 183 -191z" />
    <glyph glyph-name="afii10102" unicode="&#x455;" horiz-adv-x="387" 
d="M330 395h-55c0 57 -32 99 -91 99c-53 0 -78 -32 -78 -84c0 -42 33 -67 81 -89c83 -38 157 -75 157 -185c0 -95 -56 -150 -148 -150c-104 0 -156 56 -156 157h55c5 -65 34 -108 102 -108c58 0 91 44 91 99c0 74 -60 105 -112 127c-57 24 -126 65 -126 147
c0 83 47 135 136 135c91 0 144 -57 144 -148z" />
    <glyph glyph-name="afii10104" unicode="&#x457;" horiz-adv-x="206" 
d="M131 530v-530h-56v530h56zM3 720h56v-90h-56v90zM147 720h56v-90h-56v90z" />
    <glyph glyph-name="afii10017" unicode="&#x410;" horiz-adv-x="480" 
d="M144 277h192l-95 364h-2zM204 720h72l193 -720h-63l-57 222h-218l-59 -222h-60z" />
    <glyph glyph-name="afii10018" unicode="&#x411;" horiz-adv-x="491" 
d="M66 720h335v-55h-273v-252h109c130 0 199 -80 199 -209c0 -148 -84 -204 -195 -204h-175v720zM128 358v-303h95c99 0 151 46 151 147c0 113 -60 156 -162 156h-84z" />
    <glyph glyph-name="afii10019" unicode="&#x412;" horiz-adv-x="492" 
d="M128 665v-260h89c74 0 143 22 143 137c0 107 -75 123 -149 123h-83zM128 350v-295h102c85 0 150 34 150 153s-79 142 -150 142h-102zM66 0v720h170c105 0 186 -53 186 -176c0 -72 -27 -137 -98 -164c84 -23 118 -88 118 -173c0 -182 -126 -207 -219 -207h-157z" />
    <glyph glyph-name="afii10020" unicode="&#x413;" horiz-adv-x="430" 
d="M66 720h331v-55h-269v-665h-62v720z" />
    <glyph glyph-name="afii10021" unicode="&#x414;" horiz-adv-x="595" 
d="M157 720h351v-665h51v-208h-60v153h-408v-153h-60v208h45c60 103 81 191 81 412v253zM446 665h-227v-215c0 -164 -20 -303 -76 -395h303v610z" />
    <glyph glyph-name="afii10022" unicode="&#x415;" horiz-adv-x="430" 
d="M66 0v720h331v-55h-269v-252h240v-55h-240v-303h269v-55h-331z" />
    <glyph glyph-name="afii10024" unicode="&#x416;" horiz-adv-x="768" 
d="M353 720h62v-360l262 360h72l-213 -291l224 -429h-68l-196 378l-81 -105v-273h-62v273l-81 105l-196 -378h-68l224 429l-213 291h72l262 -360v360z" />
    <glyph glyph-name="afii10025" unicode="&#x417;" horiz-adv-x="496" 
d="M118 554h-59c0 75 50 183 184 183c116 0 178 -79 178 -194c0 -86 -49 -144 -107 -163c67 -16 127 -75 127 -187c0 -156 -99 -210 -200 -210c-126 0 -201 83 -201 221h62c6 -127 60 -166 139 -166c91 0 138 50 138 145c0 119 -70 175 -157 175h-43v55h47
c88 0 133 45 133 135c0 87 -56 134 -120 134c-84 0 -115 -67 -121 -128z" />
    <glyph glyph-name="afii10026" unicode="&#x418;" horiz-adv-x="538" 
d="M128 720v-618h2l265 618h77v-720h-62v616h-2l-267 -616h-75v720h62z" />
    <glyph glyph-name="afii10027" unicode="&#x419;" horiz-adv-x="538" 
d="M128 720v-618h2l265 618h77v-720h-62v616h-2l-267 -616h-75v720h62zM140 893h36c8 -54 46 -81 93 -81s84 27 94 81h33c-8 -83 -60 -126 -132 -126c-70 0 -116 48 -124 126z" />
    <glyph glyph-name="afii10028" unicode="&#x41a;" horiz-adv-x="481" 
d="M128 720v-360l262 360h72l-213 -291l224 -429h-68l-196 378l-81 -105v-273h-62v720h62z" />
    <glyph glyph-name="afii10029" unicode="&#x41b;" horiz-adv-x="562" 
d="M132 720h364v-720h-62v665h-240v-331c0 -221 -30 -341 -125 -341c-22 0 -37 1 -54 6v55c7 -2 26 -6 45 -6c53 0 72 110 72 307v365z" />
    <glyph glyph-name="afii10030" unicode="&#x41c;" horiz-adv-x="685" 
d="M66 720h104l171 -628h2l175 628h101v-720h-62v658h-2l-178 -658h-67l-180 658h-2v-658h-62v720z" />
    <glyph glyph-name="afii10031" unicode="&#x41d;" horiz-adv-x="534" 
d="M128 720v-307h278v307h62v-720h-62v358h-278v-358h-62v720h62z" />
    <glyph glyph-name="afii10032" unicode="&#x41e;" horiz-adv-x="533" 
d="M266 -17c-191 0 -211 193 -211 378c0 169 20 376 211 376c198 0 212 -207 212 -376c0 -182 -15 -378 -212 -378zM266 38c135 0 150 153 150 323c0 144 -13 321 -150 321c-134 0 -149 -165 -149 -321c0 -159 15 -323 149 -323z" />
    <glyph glyph-name="afii10033" unicode="&#x41f;" horiz-adv-x="534" 
d="M66 720h402v-720h-62v665h-278v-665h-62v720z" />
    <glyph glyph-name="afii10034" unicode="&#x420;" horiz-adv-x="480" 
d="M128 326v-326h-62v720h163c111 0 207 -46 207 -194c0 -129 -72 -200 -202 -200h-106zM128 665v-284h81c102 0 165 29 165 142c0 105 -56 142 -155 142h-91z" />
    <glyph glyph-name="afii10035" unicode="&#x421;" horiz-adv-x="521" 
d="M404 244h62c0 -140 -59 -261 -203 -261c-191 0 -208 191 -208 397c0 148 19 357 210 357c129 0 197 -102 197 -224h-64c-5 85 -38 169 -135 169c-132 0 -146 -177 -146 -316c0 -158 14 -328 153 -328c107 0 134 120 134 206z" />
    <glyph glyph-name="afii10036" unicode="&#x422;" 
d="M244 665v-665h-62v665h-163v55h388v-55h-163z" />
    <glyph glyph-name="afii10037" unicode="&#x423;" horiz-adv-x="493" 
d="M4 720h67l179 -492l164 492h67l-222 -628c-24 -68 -65 -100 -109 -100c-21 0 -37 2 -52 7v54c5 -2 20 -6 40 -6s45 6 60 47l20 55z" />
    <glyph glyph-name="afii10038" unicode="&#x424;" horiz-adv-x="691" 
d="M375 586v-448h20c107 0 193 61 193 226c0 161 -92 222 -193 222h-20zM313 720h62v-79h22c131 0 253 -83 253 -271c0 -198 -112 -287 -251 -287h-24v-83h-62v83h-24c-139 0 -251 89 -251 287c0 188 122 271 253 271h22v79zM313 138v448h-20c-101 0 -193 -61 -193 -222
c0 -165 86 -226 193 -226h20z" />
    <glyph glyph-name="afii10039" unicode="&#x425;" horiz-adv-x="480" 
d="M26 720h70l143 -289l147 289h69l-179 -348l187 -372h-68l-156 313l-155 -313h-67l186 372z" />
    <glyph glyph-name="afii10040" unicode="&#x426;" horiz-adv-x="549" 
d="M128 720v-665h280v665h62v-665h53v-208h-60v153h-397v720h62z" />
    <glyph glyph-name="afii10041" unicode="&#x427;" horiz-adv-x="496" 
d="M55 720h62v-226c0 -74 31 -93 107 -93c52 0 103 4 144 12v307h62v-720h-62v357c-51 -9 -90 -12 -162 -12c-114 0 -151 62 -151 151v224z" />
    <glyph glyph-name="afii10042" unicode="&#x428;" horiz-adv-x="796" 
d="M128 720v-665h239v665h62v-665h239v665h62v-720h-664v720h62z" />
    <glyph glyph-name="afii10043" unicode="&#x429;" horiz-adv-x="809" 
d="M128 720v-665h239v665h62v-665h239v665h62v-665h53v-208h-60v153h-657v720h62z" />
    <glyph glyph-name="afii10044" unicode="&#x42a;" horiz-adv-x="556" 
d="M-12 720h205v-307h109c130 0 199 -80 199 -209c0 -148 -84 -204 -195 -204h-175v665h-143v55zM193 358v-303h95c99 0 151 46 151 147c0 113 -60 156 -162 156h-84z" />
    <glyph glyph-name="afii10045" unicode="&#x42b;" horiz-adv-x="658" 
d="M128 720v-307h109c130 0 199 -80 199 -209c0 -148 -84 -204 -195 -204h-175v720h62zM128 358v-303h95c99 0 151 46 151 147c0 113 -60 156 -162 156h-84zM592 720v-720h-62v720h62z" />
    <glyph glyph-name="afii10046" unicode="&#x42c;" horiz-adv-x="491" 
d="M128 720v-307h109c130 0 199 -80 199 -209c0 -148 -84 -204 -195 -204h-175v720h62zM128 358v-303h95c99 0 151 46 151 147c0 113 -60 156 -162 156h-84z" />
    <glyph glyph-name="afii10047" unicode="&#x42d;" horiz-adv-x="521" 
d="M123 513h-63c0 122 71 224 200 224c189 0 206 -209 206 -357c0 -206 -17 -397 -208 -397c-144 0 -203 121 -203 261h62c0 -86 27 -206 134 -206c134 0 153 156 153 320h-192v55h192c0 131 -29 269 -146 269c-97 0 -130 -84 -135 -169z" />
    <glyph glyph-name="afii10048" unicode="&#x42e;" horiz-adv-x="721" 
d="M128 720v-307h115c7 162 41 324 211 324c198 0 212 -207 212 -376c0 -182 -15 -378 -212 -378c-187 0 -211 183 -211 375h-115v-358h-62v720h62zM454 38c135 0 150 153 150 323c0 144 -13 321 -150 321c-134 0 -149 -165 -149 -321c0 -159 15 -323 149 -323z" />
    <glyph glyph-name="afii10049" unicode="&#x42f;" horiz-adv-x="491" 
d="M363 317h-97l-167 -317h-74l171 321c-91 20 -141 88 -141 195c0 148 84 204 195 204h175v-720h-62v317zM363 372v293h-95c-99 0 -151 -45 -151 -146c0 -113 63 -147 165 -147h81z" />
    <glyph glyph-name="afii10065" unicode="&#x430;" horiz-adv-x="389" 
d="M276 285c-40 -19 -71 -33 -106 -50c-56 -27 -73 -50 -73 -108c0 -52 16 -92 73 -92c89 0 106 87 106 148v102zM370 37v-40c-11 -5 -24 -6 -36 -6c-30 0 -48 17 -55 53h-1c-27 -39 -71 -58 -117 -58c-97 0 -120 58 -120 141c0 74 26 119 86 146l112 50c30 13 37 33 37 85
c0 57 -32 86 -81 86c-78 0 -77 -50 -86 -97h-54c0 97 50 146 142 146c97 0 135 -50 135 -145v-325c0 -32 4 -35 38 -36z" />
    <glyph glyph-name="afii10066" unicode="&#x431;" horiz-adv-x="415" 
d="M92 439h1c18 46 64 88 113 88c111 0 167 -65 167 -270c0 -190 -56 -271 -168 -271c-109 0 -165 73 -165 303c0 283 58 348 177 382c64 18 76 27 87 49h46c-16 -53 -44 -69 -123 -93c-73 -22 -120 -61 -135 -188zM204 35c65 0 113 44 113 222c0 172 -44 221 -112 221
c-66 0 -109 -80 -109 -221c0 -176 42 -222 108 -222z" />
    <glyph glyph-name="afii10067" unicode="&#x432;" horiz-adv-x="404" 
d="M114 481v-175h79c64 0 92 25 92 85c0 57 -29 90 -92 90h-79zM114 257v-208h98c52 0 95 28 95 99c0 72 -39 109 -104 109h-89zM58 0v530h140c96 0 143 -56 143 -130c0 -67 -34 -105 -75 -116c48 -17 97 -45 97 -136c0 -88 -51 -148 -133 -148h-172z" />
    <glyph glyph-name="afii10068" unicode="&#x433;" horiz-adv-x="315" 
d="M58 530h247v-49h-191v-481h-56v530z" />
    <glyph glyph-name="afii10069" unicode="&#x434;" horiz-adv-x="470" 
d="M135 530h266v-481h46v-191h-52v142h-317v-142h-52v191h40c44 76 69 156 69 329v152zM345 481h-154v-125c0 -148 -29 -238 -66 -307h220v432z" />
    <glyph glyph-name="afii10070" unicode="&#x435;" horiz-adv-x="390" 
d="M345 267h-249c0 -128 9 -232 100 -232c79 0 88 73 93 137h56c0 -92 -42 -186 -150 -186c-148 0 -155 167 -155 276c0 107 7 281 153 281c123 0 152 -122 152 -222v-54zM96 316h193c0 67 -7 178 -97 178c-86 0 -96 -116 -96 -178z" />
    <glyph glyph-name="afii10072" unicode="&#x436;" horiz-adv-x="564" 
d="M250 530h56v-250l172 250h70l-144 -198l147 -332h-59l-128 276l-58 -82v-194h-56v194l-58 82l-128 -276h-59l147 332l-144 198h70l172 -250v250z" />
    <glyph glyph-name="afii10073" unicode="&#x437;" horiz-adv-x="395" 
d="M153 257v49h34c57 0 96 33 96 98c0 56 -31 90 -88 90c-48 0 -88 -32 -92 -99h-53c5 82 58 148 147 148c88 0 142 -54 142 -131c0 -80 -42 -115 -85 -128c51 -14 103 -58 103 -138c0 -105 -66 -160 -157 -160c-113 0 -157 63 -161 157h55c4 -78 37 -108 101 -108
c54 0 106 32 106 112c0 64 -47 110 -120 110h-28z" />
    <glyph glyph-name="afii10074" unicode="&#x438;" horiz-adv-x="432" 
d="M303 530h71v-530h-56v349c0 41 6 108 12 137h-1c-8 -24 -25 -69 -38 -101l-163 -385h-70v530h56v-356c0 -41 -6 -108 -12 -137h1c9 27 25 69 38 101z" />
    <glyph glyph-name="afii10075" unicode="&#x439;" horiz-adv-x="432" 
d="M303 530h71v-530h-56v349c0 41 6 108 12 137h-1c-8 -24 -25 -69 -38 -101l-163 -385h-70v530h56v-356c0 -41 -6 -108 -12 -137h1c9 27 25 69 38 101zM103 690h31c8 -47 41 -71 83 -71s74 24 83 71h29c-7 -73 -53 -110 -117 -110c-62 0 -102 42 -109 110z" />
    <glyph glyph-name="afii10076" unicode="&#x43a;" horiz-adv-x="372" 
d="M114 530v-250l172 250h70l-144 -198l147 -332h-59l-128 276l-58 -82v-194h-56v530h56z" />
    <glyph glyph-name="afii10077" unicode="&#x43b;" horiz-adv-x="438" 
d="M104 530h276v-530h-56v481h-164v-248c0 -196 -42 -239 -101 -239c-20 0 -34 1 -45 5v48c9 -2 20 -4 32 -4c38 0 58 26 58 214v273z" />
    <glyph glyph-name="afii10078" unicode="&#x43c;" horiz-adv-x="541" 
d="M58 530h91l88 -327c9 -32 27 -105 34 -149h1c4 45 19 101 32 149l89 327h90v-530h-56v314c0 67 4 152 8 195h-1c-12 -36 -28 -102 -139 -509h-49c-108 400 -132 485 -141 509h-1c5 -50 10 -128 10 -195v-314h-56v530z" />
    <glyph glyph-name="afii10079" unicode="&#x43d;" horiz-adv-x="418" 
d="M114 530v-224h190v224h56v-530h-56v257h-190v-257h-56v530h56z" />
    <glyph glyph-name="afii10080" unicode="&#x43e;" horiz-adv-x="413" 
d="M205 -14c-149 0 -165 158 -165 279c0 117 16 278 168 278c149 0 165 -161 165 -278c0 -120 -16 -279 -168 -279zM204 35c104 0 113 123 113 230c0 83 -10 229 -111 229c-100 0 -110 -146 -110 -229c0 -105 9 -230 108 -230z" />
    <glyph glyph-name="afii10081" unicode="&#x43f;" horiz-adv-x="418" 
d="M58 530h302v-530h-56v481h-190v-481h-56v530z" />
    <glyph glyph-name="afii10082" unicode="&#x440;" horiz-adv-x="425" 
d="M115 44v-227h-56v713h54v-48h2c20 34 59 61 106 61c145 0 164 -149 164 -262c0 -145 -16 -295 -159 -295c-47 0 -83 18 -111 58zM222 494c-102 0 -107 -136 -107 -219c0 -103 7 -240 103 -240s111 113 111 240c0 83 -10 219 -107 219z" />
    <glyph glyph-name="afii10083" unicode="&#x441;" horiz-adv-x="385" 
d="M293 175h56c0 -101 -37 -189 -147 -189c-156 0 -162 162 -162 281c0 114 13 276 160 276c95 0 144 -80 144 -170h-55c0 60 -30 121 -93 121c-92 0 -100 -122 -100 -237c0 -114 11 -222 107 -222c77 0 85 83 90 140z" />
    <glyph glyph-name="afii10084" unicode="&#x442;" horiz-adv-x="325" 
d="M8 530h310v-49h-127v-481h-56v481h-127v49z" />
    <glyph glyph-name="afii10085" unicode="&#x443;" horiz-adv-x="373" 
d="M15 530h59l109 -429h2l115 429h57l-167 -607c-18 -65 -53 -107 -118 -107c-29 0 -39 2 -46 4v49c5 -1 23 -2 31 -2c75 0 79 61 95 131z" />
    <glyph glyph-name="afii10086" unicode="&#x444;" horiz-adv-x="638" 
d="M444 494c-80 0 -97 -87 -97 -229c0 -113 11 -230 95 -230c92 0 100 115 100 224c0 122 -12 235 -98 235zM291 720h56v-238c18 31 53 61 96 61c137 0 155 -137 155 -273c0 -148 -18 -284 -148 -284c-47 0 -85 24 -103 67v-236h-56v236c-19 -43 -55 -67 -102 -67
c-130 0 -149 136 -149 284c0 136 19 273 156 273c43 0 77 -30 95 -61v238zM194 494c-86 0 -98 -113 -98 -235c0 -109 8 -224 100 -224c84 0 95 117 95 230c0 142 -17 229 -97 229z" />
    <glyph glyph-name="afii10087" unicode="&#x445;" horiz-adv-x="373" 
d="M22 530h62l101 -205l103 205h64l-132 -253l141 -277h-63l-113 225l-112 -225h-61l139 277z" />
    <glyph glyph-name="afii10088" unicode="&#x446;" 
d="M114 530v-481h190v481h56v-481h46v-191h-52v142h-296v530h56z" />
    <glyph glyph-name="afii10089" unicode="&#x447;" horiz-adv-x="402" 
d="M50 530h56v-127c0 -71 30 -104 83 -104c45 0 72 3 99 14v217h56v-530h-56v265c-35 -12 -57 -15 -111 -15c-91 0 -127 58 -127 162v118z" />
    <glyph glyph-name="afii10090" unicode="&#x448;" horiz-adv-x="626" 
d="M114 530v-481h171v481h56v-481h171v481h56v-530h-510v530h56z" />
    <glyph glyph-name="afii10091" unicode="&#x449;" horiz-adv-x="634" 
d="M114 530v-481h171v481h56v-481h171v481h56v-481h46v-191h-52v142h-504v530h56z" />
    <glyph glyph-name="afii10092" unicode="&#x44a;" horiz-adv-x="446" 
d="M157 257v-208h96c58 0 97 29 97 105c0 74 -37 103 -99 103h-94zM-3 530h160v-224h106c93 0 143 -57 143 -152c0 -92 -48 -154 -143 -154h-162v481h-104v49z" />
    <glyph glyph-name="afii10093" unicode="&#x44b;" horiz-adv-x="556" 
d="M114 257v-208h96c58 0 97 29 97 105c0 74 -37 103 -99 103h-94zM114 530v-224h106c93 0 143 -57 143 -152c0 -92 -48 -154 -143 -154h-162v530h56zM498 530v-530h-56v530h56z" />
    <glyph glyph-name="afii10094" unicode="&#x44c;" horiz-adv-x="403" 
d="M114 257v-208h96c58 0 97 29 97 105c0 74 -37 103 -99 103h-94zM114 530v-224h106c93 0 143 -57 143 -152c0 -92 -48 -154 -143 -154h-162v530h56z" />
    <glyph glyph-name="afii10095" unicode="&#x44d;" horiz-adv-x="385" 
d="M92 175c0 -65 17 -140 94 -140c94 0 103 99 103 222h-131v49h131c0 100 -27 188 -100 188c-64 0 -93 -56 -93 -121h-55c4 99 51 170 150 170c144 0 154 -162 154 -276c0 -119 -3 -281 -159 -281c-111 0 -150 92 -150 189h56z" />
    <glyph glyph-name="afii10096" unicode="&#x44e;" horiz-adv-x="586" 
d="M116 306h100c5 110 32 237 167 237c149 0 165 -161 165 -278c0 -120 -16 -279 -168 -279c-146 0 -165 153 -165 271h-99v-257h-56v530h56v-224zM379 35c104 0 113 128 113 230c0 83 -10 229 -111 229c-100 0 -110 -146 -110 -229c0 -102 7 -230 108 -230z" />
    <glyph glyph-name="afii10097" unicode="&#x44f;" horiz-adv-x="403" 
d="M289 273v208h-96c-58 0 -97 -29 -97 -105c0 -74 37 -103 99 -103h94zM289 224h-85l-120 -224h-66l124 228c-59 12 -102 63 -102 148c0 92 48 154 143 154h162v-530h-56v224z" />
    <glyph glyph-name="sterling" unicode="&#xa3;" 
d="M311 356v-40h-133c7 -24 11 -51 11 -79c0 -67 -22 -139 -71 -183c18 3 40 9 67 9c58 0 77 -25 131 -25c26 0 52 10 74 24l21 -45c-21 -17 -64 -31 -101 -31s-117 33 -156 33c-40 0 -73 -21 -98 -39l-32 36c69 59 109 112 109 205c0 34 -4 63 -15 95h-100v40h85
c-44 96 -49 149 -49 193c0 90 70 159 159 159c133 0 181 -95 181 -208h-58c0 67 -25 156 -115 156c-73 0 -109 -51 -109 -120c0 -62 30 -124 52 -180h147z" />
    <glyph glyph-name="Euro" unicode="&#x20ac;" 
d="M391 678v-61c-22 24 -58 41 -111 41c-93 0 -135 -90 -142 -216h216l-14 -49h-206c-1 -12 -1 -31 -1 -43c0 -13 1 -28 1 -39h184l-14 -49h-166c9 -148 59 -220 141 -220c55 0 87 17 112 41v-62c-18 -17 -58 -34 -120 -34c-108 0 -176 81 -190 275h-58l14 49h40
c-1 9 -1 27 -1 39c0 13 0 30 1 43h-54l14 49h43c13 165 68 272 192 272c59 0 99 -18 119 -36z" />
    </font>
</defs>
</svg>
